G04*
G04 #@! TF.GenerationSoftware,Altium Limited,Altium Designer,21.6.1 (37)*
G04*
G04 Layer_Color=16711935*
%FSLAX24Y24*%
%MOIN*%
G70*
G04*
G04 #@! TF.SameCoordinates,4ED41DF6-4530-4611-BF79-ADCA28F4CC56*
G04*
G04*
G04 #@! TF.FilePolarity,Positive*
G04*
G01*
G75*
%ADD136C,0.0039*%
%ADD137C,0.0020*%
D136*
X22317Y27084D02*
G03*
X27136Y29371I-3815J14255D01*
G01*
X7656Y27158D02*
G03*
X6526Y28536I-10031J-7071D01*
G01*
X5517Y29574D02*
G03*
X4714Y30316I-9861J-9881D01*
G01*
X4714Y30316D02*
G03*
X2568Y31960I-9845J-10622D01*
G01*
X2568Y31960D02*
G03*
X1303Y32745I-8487J-12267D01*
G01*
X4269Y35696D02*
G03*
X5054Y34431I13052J7221D01*
G01*
X6699Y32285D02*
G03*
X7440Y31482I10622J9058D01*
G01*
X5054Y34431D02*
G03*
X6699Y32285I12267J7700D01*
G01*
X8275Y30699D02*
G03*
X14672Y27084I10222J10619D01*
G01*
X34409Y31972D02*
G03*
X32264Y30328I7700J-12267D01*
G01*
X32264Y30328D02*
G03*
X31460Y29586I9058J-10622D01*
G01*
X30412Y28484D02*
G03*
X29261Y27080I9068J-8607D01*
G01*
X35675Y32757D02*
G03*
X34409Y31972I7221J-13052D01*
G01*
X31939Y34458D02*
G03*
X32724Y35724I-12267J8487D01*
G01*
X30294Y32313D02*
G03*
X31939Y34458I-10622J9845D01*
G01*
X29553Y31509D02*
G03*
X30294Y32313I-9881J9861D01*
G01*
X27136Y29371D02*
G03*
X28515Y30500I-7071J10031D01*
G01*
X2580Y5052D02*
G03*
X4725Y6697I-7700J12267D01*
G01*
X4725Y6697D02*
G03*
X5529Y7438I-9058J10622D01*
G01*
X6538Y8476D02*
G03*
X7668Y9855I-8902J8449D01*
G01*
X1314Y4267D02*
G03*
X2580Y5052I-7221J13052D01*
G01*
X5050Y2566D02*
G03*
X4265Y1301I12267J-8487D01*
G01*
X6695Y4712D02*
G03*
X5050Y2566I10622J-9845D01*
G01*
X7436Y5515D02*
G03*
X6695Y4712I9881J-9861D01*
G01*
X9853Y7654D02*
G03*
X8474Y6524I7071J-10031D01*
G01*
X29345Y9843D02*
G03*
X30475Y8464I10031J7071D01*
G01*
X31484Y7427D02*
G03*
X32287Y6685I9861J9881D01*
G01*
X32287Y6685D02*
G03*
X34433Y5041I9845J10622D01*
G01*
X34433Y5040D02*
G03*
X35698Y4255I8487J12267D01*
G01*
X32732Y1305D02*
G03*
X31947Y2570I-13052J-7221D01*
G01*
X30302Y4716D02*
G03*
X29560Y5519I-10622J-9058D01*
G01*
X31946Y2570D02*
G03*
X30302Y4716I-12267J-7700D01*
G01*
X13014Y9392D02*
G03*
X9853Y7654I5488J-13723D01*
G01*
X28523Y6528D02*
G03*
X27144Y7658I-8449J-8902D01*
G01*
X27144Y7658D02*
G03*
X23935Y9413I-8642J-11988D01*
G01*
X7666Y9856D02*
G03*
X10376Y16969I-11994J8644D01*
G01*
X10382Y20019D02*
G03*
X7659Y27161I-14710J-1519D01*
G01*
X29330Y27168D02*
G03*
X26607Y20027I11988J-8660D01*
G01*
X26613Y16977D02*
G03*
X29341Y9840I14705J1532D01*
G01*
X4269Y35696D02*
G03*
X1308Y32745I-1909J-1046D01*
G01*
X35675Y32757D02*
G03*
X32723Y35719I-1046J1909D01*
G01*
X1314Y4267D02*
G03*
X4265Y1306I1046J-1909D01*
G01*
X13746Y9551D02*
G03*
X13046Y9404I-6J-1715D01*
G01*
X14627Y8540D02*
G03*
X13746Y9551I-1019J1D01*
G01*
X23215Y9566D02*
G03*
X22335Y8556I138J-1009D01*
G01*
X23928Y9418D02*
G03*
X23223Y9566I-698J-1566D01*
G01*
X20982Y27768D02*
G03*
X20857Y27936I-456J-208D01*
G01*
X20856Y27935D02*
G03*
X20620Y27996I-224J-375D01*
G01*
X20985Y27769D02*
G03*
X21833Y27016I986J257D01*
G01*
X21833D02*
G03*
X22317Y27084I6J1715D01*
G01*
X14672D02*
G03*
X15156Y27016I478J1647D01*
G01*
X16132Y27936D02*
G03*
X16007Y27768I331J-377D01*
G01*
X16368Y27996D02*
G03*
X16133Y27935I-12J-437D01*
G01*
X15156Y27016D02*
G03*
X16004Y27769I-138J1009D01*
G01*
X10376Y16969D02*
G03*
X9857Y17480I-534J-24D01*
G01*
X9865Y19520D02*
G03*
X10380Y20032I-20J535D01*
G01*
X9531Y19520D02*
G03*
X9523Y17481I34J-1020D01*
G01*
X27465Y17489D02*
G03*
X27458Y19528I-42J1020D01*
G01*
X26609Y20040D02*
G03*
X27124Y19528I535J24D01*
G01*
X27132Y17487D02*
G03*
X26613Y16977I15J-534D01*
G01*
X32732Y1305D02*
G03*
X35693Y4256I1909J1046D01*
G01*
X12976Y9378D02*
X13059Y9409D01*
X7440Y31482D02*
X8275Y30699D01*
X5517Y29574D02*
X6526Y28536D01*
X28515Y30501D02*
X29553Y31509D01*
X30417Y28489D02*
X31460Y29586D01*
X5529Y7438D02*
X6538Y8476D01*
X7436Y5515D02*
X8474Y6524D01*
X30475Y8464D02*
X31484Y7427D01*
X14627Y8540D02*
X22335D01*
X28523Y6528D02*
X29560Y5519D01*
X18491Y27996D02*
X20620D01*
X16368D02*
X18498D01*
X9531Y19520D02*
X9865D01*
X9523Y17481D02*
X9857Y17480D01*
X27132Y17487D02*
X27465Y17489D01*
X27124Y19528D02*
X27458D01*
D137*
X12967Y9378D02*
G03*
X12986Y9378I10J0D01*
G01*
D02*
G03*
X12967Y9378I-10J0D01*
G01*
M02*
