G04*
G04 #@! TF.GenerationSoftware,Altium Limited,Altium Designer,21.6.1 (37)*
G04*
G04 Layer_Color=255*
%FSLAX24Y24*%
%MOIN*%
G70*
G04*
G04 #@! TF.SameCoordinates,4ED41DF6-4530-4611-BF79-ADCA28F4CC56*
G04*
G04*
G04 #@! TF.FilePolarity,Positive*
G04*
G01*
G75*
%ADD27R,0.0315X0.0354*%
%ADD28R,0.0354X0.0315*%
%ADD30R,0.0945X0.0787*%
%ADD82R,0.0591X0.0591*%
%ADD83C,0.0591*%
%ADD84R,0.0591X0.0591*%
%ADD85C,0.0787*%
%ADD86C,0.2913*%
%ADD87C,0.0394*%
%ADD88P,0.0557X4X270.0*%
%ADD89P,0.0557X4X180.0*%
%ADD90C,0.0276*%
%ADD111R,0.0197X0.0197*%
%ADD112R,0.0098X0.0413*%
%ADD113R,0.0413X0.0098*%
%ADD114R,0.1232X0.1232*%
%ADD115O,0.0098X0.0453*%
%ADD116O,0.0453X0.0098*%
%ADD117R,0.1693X0.1693*%
%ADD118R,0.0748X0.0748*%
%ADD119R,0.0098X0.0984*%
%ADD120R,0.0512X0.0276*%
%ADD121R,0.0236X0.0571*%
%ADD122R,0.0315X0.0157*%
D27*
X17676Y16450D02*
D03*
X17124D02*
D03*
X17676Y15850D02*
D03*
X17124D02*
D03*
X22876Y18800D02*
D03*
X22324D02*
D03*
X22876Y19400D02*
D03*
X22324D02*
D03*
X19876Y20500D02*
D03*
X19324D02*
D03*
X17676D02*
D03*
X17124D02*
D03*
X20224Y16450D02*
D03*
X20776D02*
D03*
X26276Y12500D02*
D03*
X25724D02*
D03*
X26276Y11900D02*
D03*
X25724D02*
D03*
X23424Y14450D02*
D03*
X23976D02*
D03*
X22824Y10000D02*
D03*
X23376D02*
D03*
X22176Y13850D02*
D03*
X21624D02*
D03*
X21624Y14450D02*
D03*
X22176D02*
D03*
X22176Y13250D02*
D03*
X21624D02*
D03*
X13974Y10100D02*
D03*
X14526D02*
D03*
X15524D02*
D03*
X16076D02*
D03*
D28*
X20750Y17676D02*
D03*
Y17124D02*
D03*
X18600Y15874D02*
D03*
Y16426D02*
D03*
X23494Y15995D02*
D03*
Y16546D02*
D03*
X23500Y17674D02*
D03*
Y18226D02*
D03*
X25100Y13024D02*
D03*
Y13576D02*
D03*
Y11874D02*
D03*
Y12426D02*
D03*
X22800Y13874D02*
D03*
Y14426D02*
D03*
X24300Y9724D02*
D03*
Y10276D02*
D03*
X22200Y11826D02*
D03*
Y11274D02*
D03*
X21600Y11826D02*
D03*
Y11274D02*
D03*
X16600Y12174D02*
D03*
Y12726D02*
D03*
X15300Y11676D02*
D03*
Y11124D02*
D03*
X17200Y12174D02*
D03*
Y12726D02*
D03*
X15750Y14324D02*
D03*
Y14876D02*
D03*
X15150Y14324D02*
D03*
Y14876D02*
D03*
X12800Y14324D02*
D03*
Y14876D02*
D03*
Y12824D02*
D03*
Y13376D02*
D03*
X13400Y13376D02*
D03*
Y12824D02*
D03*
D30*
X22250Y16313D02*
D03*
Y17887D02*
D03*
D82*
X15300Y9300D02*
D03*
X22800Y11200D02*
D03*
D83*
X16300Y9300D02*
D03*
X23800Y11200D02*
D03*
X25900Y15000D02*
D03*
Y17000D02*
D03*
Y18000D02*
D03*
Y19000D02*
D03*
Y20000D02*
D03*
Y21000D02*
D03*
Y22000D02*
D03*
Y23000D02*
D03*
Y16000D02*
D03*
X11100Y21000D02*
D03*
Y14000D02*
D03*
Y15000D02*
D03*
Y16000D02*
D03*
Y17000D02*
D03*
Y18000D02*
D03*
Y19000D02*
D03*
Y20000D02*
D03*
Y22000D02*
D03*
D84*
X25900Y14000D02*
D03*
X11100Y23000D02*
D03*
D85*
X31890Y5118D02*
D03*
Y31890D02*
D03*
X5118D02*
D03*
Y5118D02*
D03*
D86*
X2362Y2362D02*
D03*
X34646D02*
D03*
Y34646D02*
D03*
X2362D02*
D03*
D87*
X8023Y28623D02*
D03*
X28623Y28977D02*
D03*
X28977Y8377D02*
D03*
X8377Y8023D02*
D03*
D88*
Y28977D02*
D03*
X28623Y8023D02*
D03*
D89*
X28977Y28623D02*
D03*
X8023Y8377D02*
D03*
D90*
X17998Y9013D02*
D03*
X17998Y9687D02*
D03*
D111*
X19750Y12800D02*
D03*
D112*
X19491Y12744D02*
D03*
X19294D02*
D03*
X19097D02*
D03*
X18900D02*
D03*
X18703D02*
D03*
X18506D02*
D03*
X18309D02*
D03*
Y14556D02*
D03*
X18506D02*
D03*
X18703D02*
D03*
X18900D02*
D03*
X19097D02*
D03*
X19294D02*
D03*
X19491D02*
D03*
D113*
X17994Y13059D02*
D03*
Y13256D02*
D03*
Y13453D02*
D03*
Y13650D02*
D03*
Y13847D02*
D03*
Y14044D02*
D03*
Y14241D02*
D03*
X19806D02*
D03*
Y14044D02*
D03*
Y13847D02*
D03*
Y13650D02*
D03*
Y13453D02*
D03*
Y13256D02*
D03*
Y13059D02*
D03*
D114*
X18900Y13650D02*
D03*
D115*
X18303Y19652D02*
D03*
X18106D02*
D03*
X19287Y17348D02*
D03*
X19091D02*
D03*
X18894D02*
D03*
X18697D02*
D03*
X18500D02*
D03*
X18303D02*
D03*
X18106D02*
D03*
X17909D02*
D03*
X17713D02*
D03*
Y19652D02*
D03*
X17909D02*
D03*
X18500D02*
D03*
X18697D02*
D03*
X18894D02*
D03*
X19091D02*
D03*
X19287D02*
D03*
D116*
X17348Y17713D02*
D03*
Y17909D02*
D03*
Y18106D02*
D03*
Y18303D02*
D03*
Y18500D02*
D03*
Y18697D02*
D03*
Y18894D02*
D03*
Y19091D02*
D03*
Y19287D02*
D03*
X19652D02*
D03*
Y19091D02*
D03*
Y18894D02*
D03*
Y18697D02*
D03*
Y18500D02*
D03*
Y18303D02*
D03*
Y18106D02*
D03*
Y17909D02*
D03*
Y17713D02*
D03*
D117*
X18500Y18500D02*
D03*
D118*
X18645Y9091D02*
D03*
X21755D02*
D03*
D119*
X19688Y10309D02*
D03*
X19944D02*
D03*
X20200D02*
D03*
X20456D02*
D03*
X20712D02*
D03*
D120*
X23028Y12874D02*
D03*
Y12500D02*
D03*
Y12126D02*
D03*
X23972D02*
D03*
Y12500D02*
D03*
Y12874D02*
D03*
X15522Y12776D02*
D03*
Y13150D02*
D03*
Y13524D02*
D03*
X14578D02*
D03*
Y13150D02*
D03*
Y12776D02*
D03*
D121*
X25500Y10037D02*
D03*
X25874Y10963D02*
D03*
X25126D02*
D03*
X11650Y11237D02*
D03*
X12024Y12163D02*
D03*
X11276D02*
D03*
D122*
X18377Y11344D02*
D03*
Y11600D02*
D03*
Y11856D02*
D03*
X19223D02*
D03*
Y11600D02*
D03*
Y11344D02*
D03*
M02*
