G04*
G04 #@! TF.GenerationSoftware,Altium Limited,Altium Designer,21.6.1 (37)*
G04*
G04 Layer_Color=8421504*
%FSLAX24Y24*%
%MOIN*%
G70*
G04*
G04 #@! TF.SameCoordinates,4ED41DF6-4530-4611-BF79-ADCA28F4CC56*
G04*
G04*
G04 #@! TF.FilePolarity,Positive*
G04*
G01*
G75*
%ADD14C,0.0100*%
%ADD17R,0.1102X0.1102*%
%ADD18R,0.0118X0.0335*%
%ADD19R,0.0335X0.0118*%
%ADD20R,0.0079X0.0335*%
%ADD21R,0.0335X0.0079*%
%ADD22R,0.1811X0.1811*%
%ADD23R,0.0098X0.0236*%
%ADD24R,0.0236X0.0098*%
%ADD25R,0.0689X0.0689*%
%ADD26R,0.0236X0.0630*%
%ADD27R,0.0315X0.0354*%
%ADD28R,0.0354X0.0315*%
%ADD29R,0.0276X0.0512*%
%ADD30R,0.0945X0.0787*%
%ADD31R,0.0236X0.0197*%
%ADD32R,0.0551X0.0787*%
G04:AMPARAMS|DCode=33|XSize=35.4mil|YSize=31.5mil|CornerRadius=0mil|HoleSize=0mil|Usage=FLASHONLY|Rotation=315.000|XOffset=0mil|YOffset=0mil|HoleType=Round|Shape=Rectangle|*
%AMROTATEDRECTD33*
4,1,4,-0.0237,0.0014,-0.0014,0.0237,0.0237,-0.0014,0.0014,-0.0237,-0.0237,0.0014,0.0*
%
%ADD33ROTATEDRECTD33*%

G04:AMPARAMS|DCode=34|XSize=35.4mil|YSize=31.5mil|CornerRadius=0mil|HoleSize=0mil|Usage=FLASHONLY|Rotation=225.000|XOffset=0mil|YOffset=0mil|HoleType=Round|Shape=Rectangle|*
%AMROTATEDRECTD34*
4,1,4,0.0014,0.0237,0.0237,0.0014,-0.0014,-0.0237,-0.0237,-0.0014,0.0014,0.0237,0.0*
%
%ADD34ROTATEDRECTD34*%

G04:AMPARAMS|DCode=35|XSize=23.6mil|YSize=57.1mil|CornerRadius=0mil|HoleSize=0mil|Usage=FLASHONLY|Rotation=45.000|XOffset=0mil|YOffset=0mil|HoleType=Round|Shape=Rectangle|*
%AMROTATEDRECTD35*
4,1,4,0.0118,-0.0285,-0.0285,0.0118,-0.0118,0.0285,0.0285,-0.0118,0.0118,-0.0285,0.0*
%
%ADD35ROTATEDRECTD35*%

G04:AMPARAMS|DCode=36|XSize=23.6mil|YSize=57.1mil|CornerRadius=0mil|HoleSize=0mil|Usage=FLASHONLY|Rotation=135.000|XOffset=0mil|YOffset=0mil|HoleType=Round|Shape=Rectangle|*
%AMROTATEDRECTD36*
4,1,4,0.0285,0.0118,-0.0118,-0.0285,-0.0285,-0.0118,0.0118,0.0285,0.0285,0.0118,0.0*
%
%ADD36ROTATEDRECTD36*%

G04:AMPARAMS|DCode=37|XSize=11.8mil|YSize=25.6mil|CornerRadius=0mil|HoleSize=0mil|Usage=FLASHONLY|Rotation=225.000|XOffset=0mil|YOffset=0mil|HoleType=Round|Shape=Rectangle|*
%AMROTATEDRECTD37*
4,1,4,-0.0049,0.0132,0.0132,-0.0049,0.0049,-0.0132,-0.0132,0.0049,-0.0049,0.0132,0.0*
%
%ADD37ROTATEDRECTD37*%

G04:AMPARAMS|DCode=38|XSize=11.8mil|YSize=25.6mil|CornerRadius=0mil|HoleSize=0mil|Usage=FLASHONLY|Rotation=315.000|XOffset=0mil|YOffset=0mil|HoleType=Round|Shape=Rectangle|*
%AMROTATEDRECTD38*
4,1,4,-0.0132,-0.0049,0.0049,0.0132,0.0132,0.0049,-0.0049,-0.0132,-0.0132,-0.0049,0.0*
%
%ADD38ROTATEDRECTD38*%

%ADD39R,0.0787X0.0394*%
%ADD40R,0.0354X0.0669*%
%ADD41R,0.0472X0.0118*%
%ADD42R,0.0118X0.0472*%
D14*
X-1181Y18504D02*
X18504Y-1181D01*
X18504D02*
X38189Y18504D01*
X2362Y2362D02*
X34646D01*
X-1181Y38189D02*
X38189Y-1181D01*
Y38189D01*
X34646Y2362D02*
Y34646D01*
X-1181Y-1181D02*
X38189D01*
X-1181D02*
Y38189D01*
X2362Y2362D02*
Y34646D01*
X34646D01*
X18504Y38189D02*
X38189Y18504D01*
X-1181Y18504D02*
X18504Y38189D01*
X18504Y-1181D02*
X18504D01*
X-1181Y38189D02*
X38189D01*
X-1181Y-1181D02*
X38189Y38189D01*
D17*
X13500Y20300D02*
D03*
D18*
X13008Y21097D02*
D03*
X13205D02*
D03*
X13402D02*
D03*
X13598D02*
D03*
X13795D02*
D03*
X13992D02*
D03*
Y19503D02*
D03*
X13795D02*
D03*
X13598D02*
D03*
X13402D02*
D03*
X13205D02*
D03*
X13008D02*
D03*
D19*
X14297Y20792D02*
D03*
Y20595D02*
D03*
Y20398D02*
D03*
Y20202D02*
D03*
Y20005D02*
D03*
Y19808D02*
D03*
X12703D02*
D03*
Y20005D02*
D03*
Y20202D02*
D03*
Y20398D02*
D03*
Y20595D02*
D03*
Y20792D02*
D03*
D20*
X19234Y21058D02*
D03*
X19391D02*
D03*
X19549D02*
D03*
X19706D02*
D03*
X19864D02*
D03*
X20021D02*
D03*
X20179D02*
D03*
X20336D02*
D03*
X20494D02*
D03*
X20651D02*
D03*
X20809D02*
D03*
X20966D02*
D03*
Y23342D02*
D03*
X20809D02*
D03*
X20651D02*
D03*
X20494D02*
D03*
X20336D02*
D03*
X20179D02*
D03*
X20021D02*
D03*
X19864D02*
D03*
X19706D02*
D03*
X19549D02*
D03*
X19391D02*
D03*
X19234D02*
D03*
D21*
X21242Y21334D02*
D03*
Y21491D02*
D03*
Y21649D02*
D03*
Y21806D02*
D03*
Y21964D02*
D03*
Y22121D02*
D03*
Y22279D02*
D03*
Y22436D02*
D03*
Y22594D02*
D03*
Y22751D02*
D03*
Y22909D02*
D03*
Y23066D02*
D03*
X18958D02*
D03*
Y22909D02*
D03*
Y22751D02*
D03*
Y22594D02*
D03*
Y22436D02*
D03*
Y22279D02*
D03*
Y22121D02*
D03*
Y21964D02*
D03*
Y21806D02*
D03*
Y21649D02*
D03*
Y21491D02*
D03*
Y21334D02*
D03*
D22*
X20100Y22200D02*
D03*
D23*
X13605Y11349D02*
D03*
X13802D02*
D03*
X13998D02*
D03*
X14195D02*
D03*
Y12451D02*
D03*
X13998D02*
D03*
X13802D02*
D03*
X13605D02*
D03*
D24*
X14451Y11605D02*
D03*
Y11802D02*
D03*
Y11998D02*
D03*
Y12195D02*
D03*
X13349D02*
D03*
Y11998D02*
D03*
Y11802D02*
D03*
Y11605D02*
D03*
D25*
X13900Y11900D02*
D03*
D26*
X14238Y22858D02*
D03*
X13746D02*
D03*
X13254D02*
D03*
X12762D02*
D03*
Y23942D02*
D03*
X13254D02*
D03*
X13746D02*
D03*
X14238D02*
D03*
D27*
X25176Y10000D02*
D03*
X24624D02*
D03*
X16576Y10850D02*
D03*
X16024D02*
D03*
X12276Y10000D02*
D03*
X11724D02*
D03*
X12276Y11600D02*
D03*
X11724D02*
D03*
X12276Y12200D02*
D03*
X11724D02*
D03*
X12276Y13100D02*
D03*
X11724D02*
D03*
X13224Y14300D02*
D03*
X13776D02*
D03*
X20724Y26200D02*
D03*
X21276D02*
D03*
X17676Y22800D02*
D03*
X17124D02*
D03*
X19426Y19950D02*
D03*
X18874D02*
D03*
X19176Y26200D02*
D03*
X18624D02*
D03*
X20724Y24300D02*
D03*
X21276D02*
D03*
X20724Y25300D02*
D03*
X21276D02*
D03*
X21824D02*
D03*
X22376D02*
D03*
X22924D02*
D03*
X23476D02*
D03*
X21824Y24300D02*
D03*
X22376D02*
D03*
X22924D02*
D03*
X23476D02*
D03*
X15326Y15300D02*
D03*
X14774D02*
D03*
X13774Y21700D02*
D03*
X14326D02*
D03*
X14474Y17450D02*
D03*
X15026D02*
D03*
X14474Y18350D02*
D03*
X15026D02*
D03*
X14526Y25100D02*
D03*
X13974D02*
D03*
X27124Y11500D02*
D03*
X27676D02*
D03*
X9324Y25500D02*
D03*
X9876D02*
D03*
X27124D02*
D03*
X27676D02*
D03*
X9876Y11500D02*
D03*
X9324D02*
D03*
X12276Y11000D02*
D03*
X11724D02*
D03*
D28*
X18000Y11376D02*
D03*
Y10824D02*
D03*
X12900Y10526D02*
D03*
Y9974D02*
D03*
X21800Y9976D02*
D03*
Y9424D02*
D03*
X13250Y13124D02*
D03*
Y13676D02*
D03*
X14550Y13124D02*
D03*
Y13676D02*
D03*
X25200Y11576D02*
D03*
Y11024D02*
D03*
X18600Y24324D02*
D03*
Y24876D02*
D03*
X19200Y24324D02*
D03*
Y24876D02*
D03*
X16100Y24026D02*
D03*
Y23474D02*
D03*
Y25726D02*
D03*
Y25174D02*
D03*
X22300Y20974D02*
D03*
Y21526D02*
D03*
X13850Y17976D02*
D03*
Y17424D02*
D03*
X15000Y19824D02*
D03*
Y20376D02*
D03*
Y15874D02*
D03*
Y16426D02*
D03*
D29*
X20126Y10172D02*
D03*
X20500D02*
D03*
X20874D02*
D03*
Y9228D02*
D03*
X20500D02*
D03*
X20126D02*
D03*
D30*
X17400Y25387D02*
D03*
Y23813D02*
D03*
D31*
X20197Y26200D02*
D03*
X19803D02*
D03*
X20197Y24250D02*
D03*
X19803D02*
D03*
X19803Y25300D02*
D03*
X20197D02*
D03*
D32*
X20360Y27400D02*
D03*
X16620D02*
D03*
D33*
X30495Y6895D02*
D03*
X30105Y6505D02*
D03*
X8705Y7305D02*
D03*
X9095Y7695D02*
D03*
X6447Y30130D02*
D03*
X6837Y30520D02*
D03*
X28295Y29695D02*
D03*
X27905Y29305D02*
D03*
D34*
X28295Y7305D02*
D03*
X27905Y7695D02*
D03*
X6505Y6895D02*
D03*
X6895Y6505D02*
D03*
X8705Y29645D02*
D03*
X9095Y29255D02*
D03*
X30495Y30105D02*
D03*
X30105Y30495D02*
D03*
D35*
X27827Y9173D02*
D03*
X26908Y9563D02*
D03*
X27437Y10092D02*
D03*
X9173Y27827D02*
D03*
X10092Y27437D02*
D03*
X9563Y26908D02*
D03*
D36*
X27827Y27827D02*
D03*
X27437Y26908D02*
D03*
X26908Y27437D02*
D03*
X9173Y9173D02*
D03*
X9563Y10092D02*
D03*
X10092Y9563D02*
D03*
D37*
X7888Y7512D02*
D03*
X7512Y7888D02*
D03*
X29488Y29112D02*
D03*
X29112Y29488D02*
D03*
D38*
X7888D02*
D03*
X7512Y29112D02*
D03*
X29488Y7888D02*
D03*
X29112Y7512D02*
D03*
D39*
X24452Y18884D02*
D03*
Y17900D02*
D03*
Y16916D02*
D03*
X22248Y18884D02*
D03*
Y17900D02*
D03*
Y16916D02*
D03*
D40*
X18809Y9348D02*
D03*
X17191Y9348D02*
D03*
D41*
X12850Y16295D02*
D03*
Y16098D02*
D03*
Y15902D02*
D03*
Y15705D02*
D03*
X14150D02*
D03*
Y15902D02*
D03*
Y16098D02*
D03*
Y16295D02*
D03*
D42*
X13205Y15350D02*
D03*
X13402D02*
D03*
X13598D02*
D03*
X13795D02*
D03*
Y16650D02*
D03*
X13598D02*
D03*
X13402D02*
D03*
X13205D02*
D03*
M02*
