G04*
G04 #@! TF.GenerationSoftware,Altium Limited,Altium Designer,21.6.1 (37)*
G04*
G04 Layer_Color=32896*
%FSLAX24Y24*%
%MOIN*%
G70*
G04*
G04 #@! TF.SameCoordinates,4ED41DF6-4530-4611-BF79-ADCA28F4CC56*
G04*
G04*
G04 #@! TF.FilePolarity,Positive*
G04*
G01*
G75*
%ADD10C,0.0098*%
%ADD11C,0.0079*%
%ADD12C,0.0080*%
%ADD16C,0.0050*%
D10*
X19933Y12351D02*
G03*
X19933Y12351I-49J0D01*
G01*
X19337Y16906D02*
G03*
X19337Y16906I-49J0D01*
G01*
X20999Y10609D02*
G03*
X20999Y10609I-49J0D01*
G01*
X24022Y13228D02*
G03*
X24022Y13228I-49J0D01*
G01*
X24841Y10963D02*
G03*
X24841Y10963I-49J0D01*
G01*
X18426Y11049D02*
G03*
X18426Y11049I-49J0D01*
G01*
X14627Y12422D02*
G03*
X14627Y12422I-49J0D01*
G01*
X10991Y12163D02*
G03*
X10991Y12163I-49J0D01*
G01*
D11*
X19697Y12607D02*
X19943D01*
Y12853D01*
Y14447D02*
Y14693D01*
X19697D02*
X19943D01*
X17857D02*
X18103D01*
X17857Y14447D02*
Y14693D01*
Y12607D02*
X18103D01*
X17857D02*
Y12853D01*
X19720Y19504D02*
Y19720D01*
X19504D02*
X19720D01*
X17280Y19504D02*
Y19720D01*
X17496D01*
X17280Y17280D02*
Y17496D01*
Y17280D02*
X17496D01*
X19720D02*
Y17496D01*
X19504Y17280D02*
X19720D01*
X22880Y16076D02*
X22939D01*
X22880Y18124D02*
X22939D01*
X21561Y16076D02*
X21620D01*
X21561Y18124D02*
X21620D01*
X22939Y16076D02*
Y18124D01*
X21561Y16076D02*
Y18124D01*
X23441Y11890D02*
Y13110D01*
X23559Y11890D02*
Y13110D01*
X23441Y11890D02*
X23559D01*
X23441Y13110D02*
X23559D01*
X25776Y10224D02*
X26091D01*
Y10539D01*
X24909Y10224D02*
X25224D01*
X24909D02*
Y10539D01*
X18682Y11167D02*
X18918D01*
X18682Y12033D02*
X18918D01*
X18682Y11167D02*
Y12033D01*
X18918Y11167D02*
Y12033D01*
X15109Y12540D02*
Y13760D01*
X14991Y12540D02*
Y13760D01*
X15109D01*
X14991Y12540D02*
X15109D01*
X11926Y11424D02*
X12241D01*
Y11739D01*
X11059Y11424D02*
X11374D01*
X11059D02*
Y11739D01*
X7522Y28623D02*
X8023Y28122D01*
X7522Y28623D02*
X8377Y29478D01*
X8878Y28977D01*
X8023Y28122D02*
X8878Y28977D01*
X28122D02*
X28623Y29478D01*
X29478Y28623D01*
X28977Y28122D02*
X29478Y28623D01*
X28122Y28977D02*
X28977Y28122D01*
Y8878D02*
X29478Y8377D01*
X28623Y7522D02*
X29478Y8377D01*
X28122Y8023D02*
X28623Y7522D01*
X28122Y8023D02*
X28977Y8878D01*
X8377Y7522D02*
X8878Y8023D01*
X7522Y8377D02*
X8377Y7522D01*
X7522Y8377D02*
X8023Y8878D01*
X8878Y8023D01*
D12*
X21750Y9561D02*
Y10273D01*
Y8104D02*
Y8611D01*
X18650Y8104D02*
Y8611D01*
X20950Y10273D02*
X21735D01*
X18665D02*
X19450D01*
X18665Y8104D02*
X21735D01*
X18650Y9561D02*
Y10273D01*
D16*
X18050Y16350D02*
X18000Y16400D01*
Y16500D01*
X18050Y16550D01*
X18250D01*
X18300Y16500D01*
Y16400D01*
X18250Y16350D01*
X18300Y16100D02*
X18000D01*
X18150Y16250D01*
Y16050D01*
X18050Y15950D02*
X18000Y15900D01*
Y15800D01*
X18050Y15750D01*
X18250D01*
X18300Y15800D01*
Y15900D01*
X18250Y15950D01*
X18050D01*
X21050Y17250D02*
X21100D01*
X21200Y17150D01*
X21100Y17050D01*
X21050D01*
X21200Y17150D02*
X21350D01*
Y16750D02*
Y16950D01*
X21150Y16750D01*
X21100D01*
X21050Y16800D01*
Y16900D01*
X21100Y16950D01*
X17100Y13650D02*
X17050Y13700D01*
Y13800D01*
X17100Y13850D01*
X17300D01*
X17350Y13800D01*
Y13700D01*
X17300Y13650D01*
X17350Y13350D02*
Y13550D01*
X17150Y13350D01*
X17100D01*
X17050Y13400D01*
Y13500D01*
X17100Y13550D01*
Y13250D02*
X17050Y13200D01*
Y13100D01*
X17100Y13050D01*
X17300D01*
X17350Y13100D01*
Y13200D01*
X17300Y13250D01*
X17100D01*
X14750Y11500D02*
X14700Y11550D01*
Y11650D01*
X14750Y11700D01*
X14950D01*
X15000Y11650D01*
Y11550D01*
X14950Y11500D01*
X15000Y11200D02*
Y11400D01*
X14800Y11200D01*
X14750D01*
X14700Y11250D01*
Y11350D01*
X14750Y11400D01*
X15000Y11100D02*
Y11000D01*
Y11050D01*
X14700D01*
X14750Y11100D01*
X13300Y14300D02*
X13250Y14350D01*
Y14450D01*
X13300Y14500D01*
X13500D01*
X13550Y14450D01*
Y14350D01*
X13500Y14300D01*
X13550Y14000D02*
Y14200D01*
X13350Y14000D01*
X13300D01*
X13250Y14050D01*
Y14150D01*
X13300Y14200D01*
X13550Y13750D02*
X13250D01*
X13400Y13900D01*
Y13700D01*
X15050Y15800D02*
X15000Y15850D01*
Y15950D01*
X15050Y16000D01*
X15250D01*
X15300Y15950D01*
Y15850D01*
X15250Y15800D01*
X15300Y15500D02*
Y15700D01*
X15100Y15500D01*
X15050D01*
X15000Y15550D01*
Y15650D01*
X15050Y15700D01*
X15000Y15200D02*
Y15400D01*
X15150D01*
X15100Y15300D01*
Y15250D01*
X15150Y15200D01*
X15250D01*
X15300Y15250D01*
Y15350D01*
X15250Y15400D01*
X21100Y13350D02*
X21150Y13400D01*
X21250D01*
X21300Y13350D01*
Y13150D01*
X21250Y13100D01*
X21150D01*
X21100Y13150D01*
X20800Y13100D02*
X21000D01*
X20800Y13300D01*
Y13350D01*
X20850Y13400D01*
X20950D01*
X21000Y13350D01*
X20500Y13400D02*
X20600Y13350D01*
X20700Y13250D01*
Y13150D01*
X20650Y13100D01*
X20550D01*
X20500Y13150D01*
Y13200D01*
X20550Y13250D01*
X20700D01*
X23800Y15000D02*
X23850Y15050D01*
X23950D01*
X24000Y15000D01*
Y14800D01*
X23950Y14750D01*
X23850D01*
X23800Y14800D01*
X23500Y14750D02*
X23700D01*
X23500Y14950D01*
Y15000D01*
X23550Y15050D01*
X23650D01*
X23700Y15000D01*
X23400Y15050D02*
X23200D01*
Y15000D01*
X23400Y14800D01*
Y14750D01*
X24550Y12350D02*
X24500Y12400D01*
Y12500D01*
X24550Y12550D01*
X24750D01*
X24800Y12500D01*
Y12400D01*
X24750Y12350D01*
X24800Y12050D02*
Y12250D01*
X24600Y12050D01*
X24550D01*
X24500Y12100D01*
Y12200D01*
X24550Y12250D01*
Y11950D02*
X24500Y11900D01*
Y11800D01*
X24550Y11750D01*
X24600D01*
X24650Y11800D01*
X24700Y11750D01*
X24750D01*
X24800Y11800D01*
Y11900D01*
X24750Y11950D01*
X24700D01*
X24650Y11900D01*
X24600Y11950D01*
X24550D01*
X24650Y11900D02*
Y11800D01*
X22100Y12750D02*
X22050Y12800D01*
Y12900D01*
X22100Y12950D01*
X22300D01*
X22350Y12900D01*
Y12800D01*
X22300Y12750D01*
X22350Y12450D02*
Y12650D01*
X22150Y12450D01*
X22100D01*
X22050Y12500D01*
Y12600D01*
X22100Y12650D01*
X22300Y12350D02*
X22350Y12300D01*
Y12200D01*
X22300Y12150D01*
X22100D01*
X22050Y12200D01*
Y12300D01*
X22100Y12350D01*
X22150D01*
X22200Y12300D01*
Y12150D01*
X23300Y10550D02*
X23350Y10600D01*
X23450D01*
X23500Y10550D01*
Y10350D01*
X23450Y10300D01*
X23350D01*
X23300Y10350D01*
X23200Y10550D02*
X23150Y10600D01*
X23050D01*
X23000Y10550D01*
Y10500D01*
X23050Y10450D01*
X23100D01*
X23050D01*
X23000Y10400D01*
Y10350D01*
X23050Y10300D01*
X23150D01*
X23200Y10350D01*
X22900Y10550D02*
X22850Y10600D01*
X22750D01*
X22700Y10550D01*
Y10350D01*
X22750Y10300D01*
X22850D01*
X22900Y10350D01*
Y10550D01*
X15900Y10650D02*
X15950Y10700D01*
X16050D01*
X16100Y10650D01*
Y10450D01*
X16050Y10400D01*
X15950D01*
X15900Y10450D01*
X15800Y10650D02*
X15750Y10700D01*
X15650D01*
X15600Y10650D01*
Y10600D01*
X15650Y10550D01*
X15700D01*
X15650D01*
X15600Y10500D01*
Y10450D01*
X15650Y10400D01*
X15750D01*
X15800Y10450D01*
X15500Y10400D02*
X15400D01*
X15450D01*
Y10700D01*
X15500Y10650D01*
X27200Y12650D02*
X27250Y12700D01*
X27350D01*
X27400Y12650D01*
Y12450D01*
X27350Y12400D01*
X27250D01*
X27200Y12450D01*
X27100Y12650D02*
X27050Y12700D01*
X26950D01*
X26900Y12650D01*
Y12600D01*
X26950Y12550D01*
X27000D01*
X26950D01*
X26900Y12500D01*
Y12450D01*
X26950Y12400D01*
X27050D01*
X27100Y12450D01*
X26600Y12400D02*
X26800D01*
X26600Y12600D01*
Y12650D01*
X26650Y12700D01*
X26750D01*
X26800Y12650D01*
X19700Y16550D02*
X19750Y16600D01*
X19850D01*
X19900Y16550D01*
Y16350D01*
X19850Y16300D01*
X19750D01*
X19700Y16350D01*
X19600Y16550D02*
X19550Y16600D01*
X19450D01*
X19400Y16550D01*
Y16500D01*
X19450Y16450D01*
X19500D01*
X19450D01*
X19400Y16400D01*
Y16350D01*
X19450Y16300D01*
X19550D01*
X19600Y16350D01*
X19300Y16550D02*
X19250Y16600D01*
X19150D01*
X19100Y16550D01*
Y16500D01*
X19150Y16450D01*
X19200D01*
X19150D01*
X19100Y16400D01*
Y16350D01*
X19150Y16300D01*
X19250D01*
X19300Y16350D01*
X17600Y21050D02*
X17650Y21100D01*
X17750D01*
X17800Y21050D01*
Y20850D01*
X17750Y20800D01*
X17650D01*
X17600Y20850D01*
X17500Y21050D02*
X17450Y21100D01*
X17350D01*
X17300Y21050D01*
Y21000D01*
X17350Y20950D01*
X17400D01*
X17350D01*
X17300Y20900D01*
Y20850D01*
X17350Y20800D01*
X17450D01*
X17500Y20850D01*
X17050Y20800D02*
Y21100D01*
X17200Y20950D01*
X17000D01*
X19820Y21079D02*
X19870Y21129D01*
X19970D01*
X20020Y21079D01*
Y20879D01*
X19970Y20829D01*
X19870D01*
X19820Y20879D01*
X19721Y21079D02*
X19671Y21129D01*
X19571D01*
X19521Y21079D01*
Y21029D01*
X19571Y20979D01*
X19621D01*
X19571D01*
X19521Y20929D01*
Y20879D01*
X19571Y20829D01*
X19671D01*
X19721Y20879D01*
X19221Y21129D02*
X19421D01*
Y20979D01*
X19321Y21029D01*
X19271D01*
X19221Y20979D01*
Y20879D01*
X19271Y20829D01*
X19371D01*
X19421Y20879D01*
X16600Y15950D02*
X16650Y16000D01*
X16750D01*
X16800Y15950D01*
Y15750D01*
X16750Y15700D01*
X16650D01*
X16600Y15750D01*
X16500Y15950D02*
X16450Y16000D01*
X16350D01*
X16300Y15950D01*
Y15900D01*
X16350Y15850D01*
X16400D01*
X16350D01*
X16300Y15800D01*
Y15750D01*
X16350Y15700D01*
X16450D01*
X16500Y15750D01*
X16000Y16000D02*
X16100Y15950D01*
X16200Y15850D01*
Y15750D01*
X16150Y15700D01*
X16050D01*
X16000Y15750D01*
Y15800D01*
X16050Y15850D01*
X16200D01*
X16600Y16550D02*
X16650Y16600D01*
X16750D01*
X16800Y16550D01*
Y16350D01*
X16750Y16300D01*
X16650D01*
X16600Y16350D01*
X16500Y16550D02*
X16450Y16600D01*
X16350D01*
X16300Y16550D01*
Y16500D01*
X16350Y16450D01*
X16400D01*
X16350D01*
X16300Y16400D01*
Y16350D01*
X16350Y16300D01*
X16450D01*
X16500Y16350D01*
X16200Y16600D02*
X16000D01*
Y16550D01*
X16200Y16350D01*
Y16300D01*
X23850Y18150D02*
X23800Y18200D01*
Y18300D01*
X23850Y18350D01*
X24050D01*
X24100Y18300D01*
Y18200D01*
X24050Y18150D01*
X23850Y18050D02*
X23800Y18000D01*
Y17900D01*
X23850Y17850D01*
X23900D01*
X23950Y17900D01*
Y17950D01*
Y17900D01*
X24000Y17850D01*
X24050D01*
X24100Y17900D01*
Y18000D01*
X24050Y18050D01*
X23850Y17750D02*
X23800Y17700D01*
Y17600D01*
X23850Y17550D01*
X23900D01*
X23950Y17600D01*
X24000Y17550D01*
X24050D01*
X24100Y17600D01*
Y17700D01*
X24050Y17750D01*
X24000D01*
X23950Y17700D01*
X23900Y17750D01*
X23850D01*
X23950Y17700D02*
Y17600D01*
X23850Y16500D02*
X23800Y16550D01*
Y16650D01*
X23850Y16700D01*
X24050D01*
X24100Y16650D01*
Y16550D01*
X24050Y16500D01*
X23850Y16400D02*
X23800Y16350D01*
Y16250D01*
X23850Y16200D01*
X23900D01*
X23950Y16250D01*
Y16300D01*
Y16250D01*
X24000Y16200D01*
X24050D01*
X24100Y16250D01*
Y16350D01*
X24050Y16400D01*
Y16100D02*
X24100Y16050D01*
Y15950D01*
X24050Y15900D01*
X23850D01*
X23800Y15950D01*
Y16050D01*
X23850Y16100D01*
X23900D01*
X23950Y16050D01*
Y15900D01*
X8000Y29300D02*
X7788Y29512D01*
X7682Y29406D01*
X7682Y29335D01*
X7753Y29265D01*
X7823Y29265D01*
X7929Y29371D01*
X7788Y29088D02*
X7717Y29017D01*
X7753Y29053D01*
X7541Y29265D01*
X7611D01*
X29295Y29012D02*
X29507Y29224D01*
X29401Y29330D01*
X29330Y29330D01*
X29260Y29260D01*
X29260Y29189D01*
X29366Y29083D01*
X28942Y29366D02*
X29083Y29224D01*
Y29507D01*
X29118Y29542D01*
X29189Y29542D01*
X29260Y29472D01*
Y29401D01*
X7700Y8000D02*
X7488Y7788D01*
X7594Y7682D01*
X7665Y7682D01*
X7735Y7753D01*
X7735Y7823D01*
X7629Y7929D01*
X7735Y7611D02*
Y7541D01*
X7806Y7470D01*
X7877Y7470D01*
X7912Y7505D01*
Y7576D01*
X7877Y7611D01*
X7912Y7576D01*
X7983Y7576D01*
X8018Y7611D01*
X8018Y7682D01*
X7947Y7753D01*
X7877D01*
X29000Y7700D02*
X29212Y7488D01*
X29318Y7594D01*
X29318Y7665D01*
X29247Y7735D01*
X29177Y7735D01*
X29071Y7629D01*
X29318Y8018D02*
X29530Y7806D01*
X29318Y7806D01*
X29459Y7947D01*
X21702Y10500D02*
Y10800D01*
X21552D01*
X21502Y10750D01*
Y10650D01*
X21552Y10600D01*
X21702D01*
X21202Y10800D02*
X21402D01*
Y10650D01*
X21302Y10700D01*
X21252D01*
X21202Y10650D01*
Y10550D01*
X21252Y10500D01*
X21352D01*
X21402Y10550D01*
X11150Y12750D02*
Y12950D01*
X11200Y13000D01*
X11300D01*
X11350Y12950D01*
Y12750D01*
X11300Y12700D01*
X11200D01*
X11250Y12800D02*
X11150Y12700D01*
X11200D02*
X11150Y12750D01*
X10850Y13000D02*
X11050D01*
Y12850D01*
X10950Y12900D01*
X10900D01*
X10850Y12850D01*
Y12750D01*
X10900Y12700D01*
X11000D01*
X11050Y12750D01*
X24550Y11200D02*
X24350D01*
X24300Y11250D01*
Y11350D01*
X24350Y11400D01*
X24550D01*
X24600Y11350D01*
Y11250D01*
X24500Y11300D02*
X24600Y11200D01*
Y11250D02*
X24550Y11200D01*
X24300Y10900D02*
X24350Y11000D01*
X24450Y11100D01*
X24550D01*
X24600Y11050D01*
Y10950D01*
X24550Y10900D01*
X24500D01*
X24450Y10950D01*
Y11100D01*
X16800Y13550D02*
X16500D01*
Y13400D01*
X16550Y13350D01*
X16650D01*
X16700Y13400D01*
Y13550D01*
Y13450D02*
X16800Y13350D01*
X16500Y13250D02*
Y13050D01*
X16550D01*
X16750Y13250D01*
X16800D01*
X12500Y13350D02*
X12200D01*
Y13200D01*
X12250Y13150D01*
X12350D01*
X12400Y13200D01*
Y13350D01*
Y13250D02*
X12500Y13150D01*
X12250Y13050D02*
X12200Y13000D01*
Y12900D01*
X12250Y12850D01*
X12300D01*
X12350Y12900D01*
X12400Y12850D01*
X12450D01*
X12500Y12900D01*
Y13000D01*
X12450Y13050D01*
X12400D01*
X12350Y13000D01*
X12300Y13050D01*
X12250D01*
X12350Y13000D02*
Y12900D01*
X15900Y15700D02*
X15600D01*
Y15550D01*
X15650Y15500D01*
X15750D01*
X15800Y15550D01*
Y15700D01*
Y15600D02*
X15900Y15500D01*
X15850Y15400D02*
X15900Y15350D01*
Y15250D01*
X15850Y15200D01*
X15650D01*
X15600Y15250D01*
Y15350D01*
X15650Y15400D01*
X15700D01*
X15750Y15350D01*
Y15200D01*
X12500Y14950D02*
X12200D01*
Y14800D01*
X12250Y14750D01*
X12350D01*
X12400Y14800D01*
Y14950D01*
Y14850D02*
X12500Y14750D01*
Y14650D02*
Y14550D01*
Y14600D01*
X12200D01*
X12250Y14650D01*
Y14400D02*
X12200Y14350D01*
Y14250D01*
X12250Y14200D01*
X12450D01*
X12500Y14250D01*
Y14350D01*
X12450Y14400D01*
X12250D01*
X21300Y13700D02*
Y14000D01*
X21150D01*
X21100Y13950D01*
Y13850D01*
X21150Y13800D01*
X21300D01*
X21200D02*
X21100Y13700D01*
X21000D02*
X20900D01*
X20950D01*
Y14000D01*
X21000Y13950D01*
X20750Y13700D02*
X20650D01*
X20700D01*
Y14000D01*
X20750Y13950D01*
X22950Y15450D02*
X22650D01*
Y15300D01*
X22700Y15250D01*
X22800D01*
X22850Y15300D01*
Y15450D01*
Y15350D02*
X22950Y15250D01*
Y15150D02*
Y15050D01*
Y15100D01*
X22650D01*
X22700Y15150D01*
X22950Y14700D02*
Y14900D01*
X22750Y14700D01*
X22700D01*
X22650Y14750D01*
Y14850D01*
X22700Y14900D01*
X21300Y14300D02*
Y14600D01*
X21150D01*
X21100Y14550D01*
Y14450D01*
X21150Y14400D01*
X21300D01*
X21200D02*
X21100Y14300D01*
X21000D02*
X20900D01*
X20950D01*
Y14600D01*
X21000Y14550D01*
X20550Y14600D02*
X20750D01*
Y14450D01*
X20650Y14500D01*
X20600D01*
X20550Y14450D01*
Y14350D01*
X20600Y14300D01*
X20700D01*
X20750Y14350D01*
X21700Y12900D02*
X21400D01*
Y12750D01*
X21450Y12700D01*
X21550D01*
X21600Y12750D01*
Y12900D01*
Y12800D02*
X21700Y12700D01*
Y12600D02*
Y12500D01*
Y12550D01*
X21400D01*
X21450Y12600D01*
X21400Y12150D02*
X21450Y12250D01*
X21550Y12350D01*
X21650D01*
X21700Y12300D01*
Y12200D01*
X21650Y12150D01*
X21600D01*
X21550Y12200D01*
Y12350D01*
X24800Y13650D02*
X24500D01*
Y13500D01*
X24550Y13450D01*
X24650D01*
X24700Y13500D01*
Y13650D01*
Y13550D02*
X24800Y13450D01*
Y13350D02*
Y13250D01*
Y13300D01*
X24500D01*
X24550Y13350D01*
X24500Y13100D02*
Y12900D01*
X24550D01*
X24750Y13100D01*
X24800D01*
X24000Y10400D02*
X23700D01*
Y10250D01*
X23750Y10200D01*
X23850D01*
X23900Y10250D01*
Y10400D01*
Y10300D02*
X24000Y10200D01*
Y9900D02*
Y10100D01*
X23800Y9900D01*
X23750D01*
X23700Y9950D01*
Y10050D01*
X23750Y10100D01*
X24000Y9600D02*
Y9800D01*
X23800Y9600D01*
X23750D01*
X23700Y9650D01*
Y9750D01*
X23750Y9800D01*
X14650Y10400D02*
Y10700D01*
X14500D01*
X14450Y10650D01*
Y10550D01*
X14500Y10500D01*
X14650D01*
X14550D02*
X14450Y10400D01*
X14150D02*
X14350D01*
X14150Y10600D01*
Y10650D01*
X14200Y10700D01*
X14300D01*
X14350Y10650D01*
X14050D02*
X14000Y10700D01*
X13900D01*
X13850Y10650D01*
Y10600D01*
X13900Y10550D01*
X13950D01*
X13900D01*
X13850Y10500D01*
Y10450D01*
X13900Y10400D01*
X14000D01*
X14050Y10450D01*
X27400Y11750D02*
Y12050D01*
X27250D01*
X27200Y12000D01*
Y11900D01*
X27250Y11850D01*
X27400D01*
X27300D02*
X27200Y11750D01*
X26900D02*
X27100D01*
X26900Y11950D01*
Y12000D01*
X26950Y12050D01*
X27050D01*
X27100Y12000D01*
X26600Y12050D02*
X26700Y12000D01*
X26800Y11900D01*
Y11800D01*
X26750Y11750D01*
X26650D01*
X26600Y11800D01*
Y11850D01*
X26650Y11900D01*
X26800D01*
X22000Y19250D02*
Y19550D01*
X21850D01*
X21800Y19500D01*
Y19400D01*
X21850Y19350D01*
X22000D01*
X21900D02*
X21800Y19250D01*
X21500D02*
X21700D01*
X21500Y19450D01*
Y19500D01*
X21550Y19550D01*
X21650D01*
X21700Y19500D01*
X21400D02*
X21350Y19550D01*
X21250D01*
X21200Y19500D01*
Y19450D01*
X21250Y19400D01*
X21200Y19350D01*
Y19300D01*
X21250Y19250D01*
X21350D01*
X21400Y19300D01*
Y19350D01*
X21350Y19400D01*
X21400Y19450D01*
Y19500D01*
X21350Y19400D02*
X21250D01*
X22000Y18650D02*
Y18950D01*
X21850D01*
X21800Y18900D01*
Y18800D01*
X21850Y18750D01*
X22000D01*
X21900D02*
X21800Y18650D01*
X21500D02*
X21700D01*
X21500Y18850D01*
Y18900D01*
X21550Y18950D01*
X21650D01*
X21700Y18900D01*
X21400Y18700D02*
X21350Y18650D01*
X21250D01*
X21200Y18700D01*
Y18900D01*
X21250Y18950D01*
X21350D01*
X21400Y18900D01*
Y18850D01*
X21350Y18800D01*
X21200D01*
X20900Y18800D02*
X20600D01*
Y18650D01*
X20650Y18600D01*
X20750D01*
X20800Y18650D01*
Y18800D01*
Y18700D02*
X20900Y18600D01*
X20650Y18500D02*
X20600Y18450D01*
Y18350D01*
X20650Y18300D01*
X20700D01*
X20750Y18350D01*
Y18400D01*
Y18350D01*
X20800Y18300D01*
X20850D01*
X20900Y18350D01*
Y18450D01*
X20850Y18500D01*
X20900Y18000D02*
Y18200D01*
X20700Y18000D01*
X20650D01*
X20600Y18050D01*
Y18150D01*
X20650Y18200D01*
X13750Y12850D02*
X14000D01*
X14050Y12800D01*
Y12700D01*
X14000Y12650D01*
X13750D01*
Y12350D02*
Y12550D01*
X13900D01*
X13850Y12450D01*
Y12400D01*
X13900Y12350D01*
X14000D01*
X14050Y12400D01*
Y12500D01*
X14000Y12550D01*
X17800Y11900D02*
X18050D01*
X18100Y11850D01*
Y11750D01*
X18050Y11700D01*
X17800D01*
Y11400D02*
X17850Y11500D01*
X17950Y11600D01*
X18050D01*
X18100Y11550D01*
Y11450D01*
X18050Y11400D01*
X18000D01*
X17950Y11450D01*
Y11600D01*
X24400Y13700D02*
Y13450D01*
X24350Y13400D01*
X24250D01*
X24200Y13450D01*
Y13700D01*
X24100Y13650D02*
X24050Y13700D01*
X23950D01*
X23900Y13650D01*
Y13600D01*
X23950Y13550D01*
X23900Y13500D01*
Y13450D01*
X23950Y13400D01*
X24050D01*
X24100Y13450D01*
Y13500D01*
X24050Y13550D01*
X24100Y13600D01*
Y13650D01*
X24050Y13550D02*
X23950D01*
X20100Y17800D02*
X20350D01*
X20400Y17750D01*
Y17650D01*
X20350Y17600D01*
X20100D01*
X20400Y17500D02*
Y17400D01*
Y17450D01*
X20100D01*
X20150Y17500D01*
Y17250D02*
X20100Y17200D01*
Y17100D01*
X20150Y17050D01*
X20350D01*
X20400Y17100D01*
Y17200D01*
X20350Y17250D01*
X20150D01*
X20100Y13150D02*
X20350D01*
X20400Y13100D01*
Y13000D01*
X20350Y12950D01*
X20100D01*
X20400Y12850D02*
Y12750D01*
Y12800D01*
X20100D01*
X20150Y12850D01*
X20400Y12600D02*
Y12500D01*
Y12550D01*
X20100D01*
X20150Y12600D01*
M02*
