G04*
G04 #@! TF.GenerationSoftware,Altium Limited,Altium Designer,21.6.1 (37)*
G04*
G04 Layer_Color=16711935*
%FSLAX24Y24*%
%MOIN*%
G70*
G04*
G04 #@! TF.SameCoordinates,4ED41DF6-4530-4611-BF79-ADCA28F4CC56*
G04*
G04*
G04 #@! TF.FilePolarity,Positive*
G04*
G01*
G75*
%ADD136C,0.0039*%
D136*
X13244Y20753D02*
G03*
X13244Y20753I-197J0D01*
G01*
X19727Y13020D02*
G03*
X19727Y13020I-197J0D01*
G01*
X19470Y21373D02*
G03*
X19470Y21373I-197J0D01*
G01*
X19553Y17644D02*
G03*
X19553Y17644I-197J0D01*
G01*
X13880Y11683D02*
G03*
X13880Y11683I-197J0D01*
G01*
X13461Y16236D02*
G03*
X13461Y16236I-197J0D01*
G01*
X12693Y19493D02*
X14307D01*
X12693Y21107D02*
X14307D01*
Y19493D02*
Y21107D01*
X12693Y19493D02*
Y21107D01*
X17916Y12666D02*
X19884D01*
X17916Y14634D02*
X19884D01*
Y12666D02*
Y14634D01*
X17916Y12666D02*
Y14634D01*
X18919Y21019D02*
X21281D01*
X18919Y23381D02*
X21281D01*
X18919Y21019D02*
Y23381D01*
X21281Y21019D02*
Y23381D01*
X17289Y17289D02*
X19711D01*
X17289Y19711D02*
X19711D01*
Y17289D02*
Y19711D01*
X17289Y17289D02*
Y19711D01*
X13329Y11329D02*
X14471D01*
X13329Y12471D02*
X14471D01*
X13329Y11329D02*
Y12471D01*
X14471Y11329D02*
Y12471D01*
X12516Y22809D02*
Y23991D01*
X14484Y22809D02*
Y23991D01*
X12516Y22809D02*
X14484D01*
X12516Y23991D02*
X14484D01*
X20563Y17744D02*
X20937D01*
X20563Y17056D02*
X20937D01*
X20563D02*
Y17744D01*
X20937Y17056D02*
Y17744D01*
X18787Y15806D02*
Y16494D01*
X18413Y15806D02*
Y16494D01*
Y15806D02*
X18787D01*
X18413Y16494D02*
X18787D01*
X17744Y16263D02*
Y16637D01*
X17056Y16263D02*
Y16637D01*
X17744D01*
X17056Y16263D02*
X17744D01*
Y15663D02*
Y16037D01*
X17056Y15663D02*
Y16037D01*
X17744D01*
X17056Y15663D02*
X17744D01*
X22919Y16076D02*
Y18124D01*
X21581Y16076D02*
Y18124D01*
Y16076D02*
X22919D01*
X21581Y18124D02*
X22919D01*
X23307Y15926D02*
X23681D01*
X23307Y16615D02*
X23681D01*
Y15926D02*
Y16615D01*
X23307Y15926D02*
Y16615D01*
X23313Y17606D02*
X23687D01*
X23313Y18294D02*
X23687D01*
Y17606D02*
Y18294D01*
X23313Y17606D02*
Y18294D01*
X22944Y18613D02*
Y18987D01*
X22256Y18613D02*
Y18987D01*
X22944D01*
X22256Y18613D02*
X22944D01*
Y19213D02*
Y19587D01*
X22256Y19213D02*
Y19587D01*
X22944D01*
X22256Y19213D02*
X22944D01*
X19944Y20313D02*
Y20687D01*
X19256Y20313D02*
Y20687D01*
X19944D01*
X19256Y20313D02*
X19944D01*
X17744D02*
Y20687D01*
X17056Y20313D02*
Y20687D01*
X17744D01*
X17056Y20313D02*
X17744D01*
X20156Y16263D02*
Y16637D01*
X20844Y16263D02*
Y16637D01*
X20156Y16263D02*
X20844D01*
X20156Y16637D02*
X20844D01*
X25244Y9813D02*
Y10187D01*
X24556Y9813D02*
Y10187D01*
Y9813D02*
X25244D01*
X24556Y10187D02*
X25244Y10187D01*
X26344Y12313D02*
Y12687D01*
X25656Y12313D02*
Y12687D01*
X26344D01*
X25656Y12313D02*
X26344D01*
Y11713D02*
Y12087D01*
X25656Y11713D02*
Y12087D01*
X26344D01*
X25656Y11713D02*
X26344D01*
X24913Y12956D02*
X25287D01*
X24913Y13644D02*
X25287D01*
Y12956D02*
Y13644D01*
X24913Y12956D02*
Y13644D01*
Y11806D02*
X25287D01*
X24913Y12494D02*
X25287D01*
Y11806D02*
Y12494D01*
X24913Y11806D02*
Y12494D01*
X22613Y13806D02*
X22987D01*
X22613Y14494D02*
X22987D01*
Y13806D02*
Y14494D01*
X22613Y13806D02*
Y14494D01*
X23356Y14263D02*
Y14637D01*
X24044Y14263D02*
Y14637D01*
X23356Y14263D02*
X24044D01*
X23356Y14637D02*
X24044D01*
X23146Y11890D02*
X23854D01*
X23146Y13110D02*
X23854D01*
X23146Y11890D02*
Y13110D01*
X23854Y11890D02*
Y13110D01*
X26091Y10224D02*
Y10776D01*
X24909Y10224D02*
Y10776D01*
Y10224D02*
X26091D01*
X24909Y10776D02*
X26091D01*
X24113Y9656D02*
X24487D01*
X24113Y10344D02*
X24487D01*
Y9656D02*
Y10344D01*
X24113Y9656D02*
Y10344D01*
X22756Y9813D02*
Y10187D01*
X23444Y9813D02*
Y10187D01*
X22756Y9813D02*
X23444D01*
X22756Y10187D02*
X23444D01*
X22013Y11894D02*
X22387D01*
X22013Y11206D02*
X22387D01*
X22013D02*
Y11894D01*
X22387Y11206D02*
Y11894D01*
X21413D02*
X21787D01*
X21413Y11206D02*
X21787D01*
X21413D02*
Y11894D01*
X21787Y11206D02*
Y11894D01*
X22244Y13663D02*
Y14037D01*
X21556Y13663D02*
Y14037D01*
X22244D01*
X21556Y13663D02*
X22244D01*
X21556Y14263D02*
Y14637D01*
X22244Y14263D02*
Y14637D01*
X21556Y14263D02*
X22244D01*
X21556Y14637D02*
X22244D01*
X22244Y13063D02*
Y13437D01*
X21556Y13063D02*
Y13437D01*
X22244D01*
X21556Y13063D02*
X22244D01*
X18534Y11167D02*
Y12033D01*
X19066Y11167D02*
Y12033D01*
X18534Y11167D02*
X19066D01*
X18534Y12033D02*
X19066D01*
X17813Y11444D02*
X18187D01*
X17813Y10756D02*
X18187D01*
Y11444D01*
X17813Y10756D02*
Y11444D01*
X16413Y12106D02*
X16787D01*
X16413Y12794D02*
X16787D01*
Y12106D02*
Y12794D01*
X16413Y12106D02*
Y12794D01*
X15113Y11744D02*
X15487D01*
X15113Y11056D02*
X15487D01*
X15113D02*
Y11744D01*
X15487Y11056D02*
Y11744D01*
X17013Y12106D02*
X17387D01*
X17013Y12794D02*
X17387D01*
Y12106D02*
Y12794D01*
X17013Y12106D02*
Y12794D01*
X14696Y13760D02*
X15404D01*
X14696Y12540D02*
X15404D01*
Y13760D01*
X14696Y12540D02*
Y13760D01*
X15563Y14256D02*
X15937D01*
X15563Y14944D02*
X15937D01*
Y14256D02*
Y14944D01*
X15563Y14256D02*
Y14944D01*
X14963Y14256D02*
X15337D01*
X14963Y14944D02*
X15337D01*
Y14256D02*
Y14944D01*
X14963Y14256D02*
Y14944D01*
X12613Y14256D02*
X12987D01*
X12613Y14944D02*
X12987D01*
Y14256D02*
Y14944D01*
X12613Y14256D02*
Y14944D01*
Y12756D02*
X12987D01*
X12613Y13444D02*
X12987D01*
Y12756D02*
Y13444D01*
X12613Y12756D02*
X12613Y13444D01*
X13213Y13444D02*
X13587D01*
X13213Y12756D02*
X13587D01*
X13213D02*
Y13444D01*
X13587Y12756D02*
Y13444D01*
X12241Y11424D02*
Y11976D01*
X11059Y11424D02*
Y11976D01*
Y11424D02*
X12241D01*
X11059Y11976D02*
X12241D01*
X13906Y9913D02*
Y10287D01*
X14594Y9913D02*
Y10287D01*
X13906Y9913D02*
X14594D01*
X13906Y10287D02*
X14594D01*
X15456Y9913D02*
Y10287D01*
X16144Y9913D02*
Y10287D01*
X15456Y9913D02*
X16144D01*
X15456Y10287D02*
X16144D01*
X16644Y10663D02*
Y11037D01*
X15956Y10663D02*
Y11037D01*
Y10663D02*
X16644D01*
X15956Y11037D02*
X16644D01*
X12344Y9813D02*
Y10187D01*
X11656Y9813D02*
Y10187D01*
Y9813D02*
X12344D01*
X11656Y10187D02*
X12344Y10187D01*
X12713Y10594D02*
X13087D01*
X12713Y9906D02*
X13087D01*
Y10594D01*
X12713D02*
X12713Y9906D01*
X12344Y11413D02*
Y11787D01*
X11656Y11413D02*
Y11787D01*
Y11413D02*
X12344D01*
X11656Y11787D02*
X12344Y11787D01*
Y12013D02*
Y12387D01*
X11656Y12013D02*
Y12387D01*
Y12013D02*
X12344D01*
X11656Y12387D02*
X12344Y12387D01*
Y12913D02*
Y13287D01*
X11656Y12913D02*
Y13287D01*
Y12913D02*
X12344D01*
X11656Y13287D02*
X12344Y13287D01*
X21613Y10044D02*
X21987D01*
X21613Y9356D02*
X21987D01*
Y10044D01*
X21613Y9356D02*
Y10044D01*
X13063Y13056D02*
X13437D01*
X13063Y13744D02*
X13437D01*
X13063Y13056D02*
Y13744D01*
X13437Y13056D02*
Y13744D01*
X14363Y13056D02*
X14737D01*
X14363Y13744D02*
X14737D01*
X14363Y13056D02*
Y13744D01*
X14737Y13056D02*
Y13744D01*
X25013Y11644D02*
X25387D01*
X25013Y10956D02*
X25387D01*
Y11644D01*
X25013D02*
X25013Y10956D01*
X13156Y14113D02*
Y14487D01*
X13844Y14113D02*
Y14487D01*
X13156D02*
X13844D01*
X13156Y14113D02*
X13844D01*
X21110Y9346D02*
Y10054D01*
X19890Y9346D02*
Y10054D01*
X21110D01*
X19890Y9346D02*
X21110D01*
X18413Y24256D02*
X18787D01*
X18413Y24944D02*
X18787D01*
X18413Y24256D02*
Y24944D01*
X18787Y24256D02*
Y24944D01*
X19013Y24256D02*
X19387D01*
X19013Y24944D02*
X19387D01*
X19013Y24256D02*
Y24944D01*
X19387Y24256D02*
Y24944D01*
X20656Y26013D02*
Y26387D01*
X21344Y26013D02*
Y26387D01*
X20656D02*
X21344D01*
X20656Y26013D02*
X21344D01*
X17744Y22613D02*
Y22987D01*
X17056Y22613D02*
Y22987D01*
Y22613D02*
X17744D01*
X17056Y22987D02*
X17744D01*
X16731Y25624D02*
X18069D01*
X16731Y23576D02*
X18069D01*
Y25624D01*
X16731Y23576D02*
Y25624D01*
X15913Y24094D02*
X16287D01*
X15913Y23406D02*
X16287D01*
Y24094D01*
X15913Y23406D02*
Y24094D01*
Y25794D02*
X16287D01*
X15913Y25106D02*
X16287D01*
Y25794D01*
X15913Y25106D02*
Y25794D01*
X19494Y19763D02*
Y20137D01*
X18806Y19763D02*
Y20137D01*
Y19763D02*
X19494D01*
X18806Y20137D02*
X19494D01*
X19244Y26013D02*
Y26387D01*
X18556Y26013D02*
Y26387D01*
Y26013D02*
X19244D01*
X18556Y26387D02*
X19244D01*
X22113Y20906D02*
X22487D01*
X22113Y21594D02*
X22487D01*
X22113Y20906D02*
Y21594D01*
X22487Y20906D02*
Y21594D01*
X20656Y24113D02*
Y24487D01*
X21344Y24113D02*
Y24487D01*
X20656D02*
X21344D01*
X20656Y24113D02*
X21344D01*
X20656Y25113D02*
Y25487D01*
X21344Y25113D02*
Y25487D01*
X20656D02*
X21344D01*
X20656Y25113D02*
X21344D01*
X21756D02*
Y25487D01*
X22444Y25113D02*
Y25487D01*
X21756D02*
X22444D01*
X21756Y25113D02*
X22444D01*
X22856D02*
Y25487D01*
X23544Y25113D02*
Y25487D01*
X22856D02*
X23544D01*
X22856Y25113D02*
X23544D01*
X19783Y26082D02*
X20217D01*
X19783Y26318D02*
X20217D01*
Y26082D02*
Y26318D01*
X19783Y26082D02*
Y26318D01*
Y24132D02*
X20217D01*
X19783Y24368D02*
X20217D01*
Y24132D02*
Y24368D01*
X19783Y24132D02*
Y24368D01*
X19783Y25418D02*
X20217D01*
X19783Y25182D02*
X20217D01*
X19783D02*
Y25418D01*
X20217Y25182D02*
Y25418D01*
X21756Y24113D02*
Y24487D01*
X22444Y24113D02*
Y24487D01*
X21756D02*
X22444D01*
X21756Y24113D02*
X22444D01*
X22856D02*
Y24487D01*
X23544Y24113D02*
Y24487D01*
X22856D02*
X23544D01*
X22856Y24113D02*
X23544D01*
X15394Y15113D02*
Y15487D01*
X14706Y15113D02*
Y15487D01*
Y15113D02*
X15394D01*
X14706Y15487D02*
X15394D01*
X13663Y18044D02*
X14037D01*
X13663Y17356D02*
X14037D01*
Y18044D01*
X13663Y17356D02*
Y18044D01*
X14813Y19756D02*
X15187D01*
X14813Y20444D02*
X15187D01*
X14813Y19756D02*
Y20444D01*
X15187Y19756D02*
Y20444D01*
X13706Y21513D02*
Y21887D01*
X14394Y21513D02*
Y21887D01*
X13706D02*
X14394D01*
X13706Y21513D02*
X14394D01*
X14813Y15806D02*
X15187D01*
X14813Y16494D02*
X15187D01*
X14813Y15806D02*
Y16494D01*
X15187Y15806D02*
Y16494D01*
X14406Y17263D02*
Y17637D01*
X15094Y17263D02*
Y17637D01*
X14406D02*
X15094D01*
X14406Y17263D02*
X15094D01*
X14406Y18163D02*
Y18537D01*
X15094Y18163D02*
Y18537D01*
X14406D02*
X15094D01*
X14406Y18163D02*
X15094D01*
X14594Y24913D02*
Y25287D01*
X13906Y24913D02*
Y25287D01*
Y24913D02*
X14594D01*
X13906Y25287D02*
X14594D01*
X30411Y7076D02*
X30676Y6811D01*
X29924Y6589D02*
X30189Y6324D01*
X30676Y6811D01*
X29924Y6589D02*
X30411Y7076D01*
X28211Y7124D02*
X28476Y7389D01*
X27724Y7611D02*
X27989Y7876D01*
X27724Y7611D02*
X28211Y7124D01*
X27989Y7876D02*
X28476Y7389D01*
X27056Y11687D02*
X27744Y11687D01*
X27056Y11313D02*
X27744D01*
X27056D02*
Y11687D01*
X27744Y11313D02*
Y11687D01*
X26888Y9277D02*
X27277Y8888D01*
X27723Y10112D02*
X28112Y9723D01*
X27277Y8888D02*
X28112Y9723D01*
X26888Y9277D02*
X27723Y10112D01*
X6324Y6811D02*
X6589Y7076D01*
X6811Y6324D02*
X7076Y6589D01*
X6589Y7076D02*
X7076Y6589D01*
X6324Y6811D02*
X6811Y6324D01*
X8524Y7389D02*
X8789Y7124D01*
X9011Y7876D02*
X9276Y7611D01*
X8524Y7389D02*
X9011Y7876D01*
X8789Y7124D02*
X9276Y7611D01*
X9256Y25313D02*
X9256Y25687D01*
X9944Y25313D02*
Y25687D01*
X9256Y25687D02*
X9944Y25687D01*
X9256Y25313D02*
X9944Y25313D01*
X8524Y29561D02*
X8789Y29826D01*
X9011Y29074D02*
X9276Y29339D01*
X8789Y29826D02*
X9276Y29339D01*
X8524Y29561D02*
X9011Y29074D01*
X6266Y30213D02*
X6530Y29949D01*
X6753Y30701D02*
X7018Y30436D01*
X6266Y30213D02*
X6753Y30701D01*
X6530Y29949D02*
X7018Y30436D01*
X27723Y26888D02*
X28112Y27277D01*
X26888Y27723D02*
X27277Y28112D01*
X28112Y27277D01*
X26888Y27723D02*
X27723Y26888D01*
X27056Y25313D02*
Y25687D01*
X27744Y25313D02*
X27744Y25687D01*
X27056D02*
X27744D01*
X27056Y25313D02*
X27744Y25313D01*
X28211Y29876D02*
X28476Y29611D01*
X27724Y29389D02*
X27989Y29124D01*
X28476Y29611D01*
X27724Y29389D02*
X28211Y29876D01*
X30411Y29924D02*
X30676Y30189D01*
X29924Y30411D02*
X30189Y30676D01*
X29924Y30411D02*
X30411Y29924D01*
X30189Y30676D02*
X30676Y30189D01*
X9723Y28112D02*
X10112Y27723D01*
X8888Y27277D02*
X9277Y26888D01*
X8888Y27277D02*
X9723Y28112D01*
X9277Y26888D02*
X10112Y27723D01*
X8888Y9723D02*
X9277Y10112D01*
X9723Y8888D02*
X10112Y9277D01*
X8888Y9723D02*
X9723Y8888D01*
X9277Y10112D02*
X10112Y9277D01*
X9944Y11313D02*
Y11687D01*
X9256Y11313D02*
Y11687D01*
Y11313D02*
X9944D01*
X9256Y11687D02*
X9944Y11687D01*
X12344Y10813D02*
Y11187D01*
X11656Y10813D02*
Y11187D01*
Y10813D02*
X12344D01*
X11656Y11187D02*
X12344D01*
X12909Y15409D02*
Y16531D01*
Y15409D02*
X14091D01*
Y16591D01*
X12968D02*
X14091D01*
X12909Y16531D02*
X12968Y16591D01*
M02*
