M48
;Layer_Color=9474304
;FILE_FORMAT=2:4
INCH,TZ
;TYPE=PLATED
T1F00S00C0.0120
T2F00S00C0.0140
T3F00S00C0.0150
T4F00S00C0.0200
T5F00S00C0.0236
T6F00S00C0.0276
T7F00S00C0.0354
T8F00S00C0.0400
T9F00S00C0.0787
T10F00S00C0.1135
T11F00S00C0.2835
%
T01
X13683Y11683
Y12117
X14117
Y11683
X13717Y20083
X13283
Y20517
X13717
X17791Y19209
Y18736
Y18264
Y17791
X18264
X18736
X19209
Y18264
Y18736
Y19209
X18736
Y18736
Y18264
X18264
Y18736
Y19209
X19450Y21550
X19883
X20317
X20750
X20750Y22000
X20320
X19880
X19450
X19333Y14083
X18900
X18467
Y13650
Y13217
X18900
X19333
Y13650
X18900
X19450Y22417
Y22850
X19883
Y22417
X20317
Y22850
X20750
Y22417
T02
X9500Y8750
X9324Y10900
X9500Y12250
X9900
X10300
X11724Y12200
X11750Y12650
X11263Y11237
X11500Y10500
X13300Y10850
X14850Y10850
X15050Y12350
X16600Y11850
X16950Y11700
X17000Y10850
X16800Y9000
X17100Y14350
X17500Y14650
X17676Y15850
X17124
X15000Y16426
X15026Y17450
X13850Y17424
X13200Y17350
X12400
X12420Y16470
X13402Y16202
X12800Y14876
Y14324
X12800Y13850
X15850Y13900
X15150Y14876
X15400Y19050
X14650Y19150
X15000Y19824
X15000Y21000
X12700
X13200Y21750
X17400Y20900
X16950Y19500
X17900Y21500
X18300Y21150
X19900Y19800
X20500Y18650
X21250Y19000
X23250Y18850
X23250Y19400
X23500Y18226
X23500Y17250
X23134Y16916
X23494Y16546
X24300Y16266
X24250Y15050
X25250Y15500
X25900Y16500
X24500Y18400
Y18890
Y21000
X24000Y20850
X23700Y21050
X24250Y21500
X24750Y21750
X22650Y22300
X22700Y20990
X22800Y14426
X22176Y13250
X24300Y13300
X25100Y13576
X25900Y13150
X26300
X25724Y11900
X26700Y9354
X27000Y8750
X27850Y8500
X20500Y9228
X20763Y11687
X20700Y12150
X20450Y12500
X20050Y11600
X18700
X18000Y11750
X18450Y10800
X18600Y15874
X19550Y15650
X20750Y15750
X20500Y15300
X20250Y14500
X20224Y16450
X21500Y23400
X22500Y22650
X23500Y23400
X24500Y23650
X24250Y24000
X24750Y23250
X25900Y23900
X25650Y24150
X26000Y27250
X26500Y28500
X24250Y26750
X23550Y26500
Y26000
X22250
Y26500
X21650
Y26000
X18850Y25400
X18250
X18000Y26150
Y26550
X18600Y24324
X18800Y23400
X16200Y22750
X15750Y22450
X15050Y22750
X15000Y23400
X15500Y24000
X14950Y25100
X15500Y26150
Y26550
X16000
Y26150
X16500
Y26550
X17000
Y26150
X17500
Y26550
X13250Y25100
X12150
X12300Y22750
X10250Y23000
X10800Y23800
X9000Y26300
X9095Y29255
T03
X17690Y20500
T04
X26908Y26908
X10500Y26550
T05
X8377Y8023
X8023Y8377
X28977
X28623Y8023
X28977Y28623
X28623Y28977
X8377Y28977
X8023Y28623
T06
X17998Y9013
X17998Y9687
T07
X15300Y9300
X16300
X11100Y14000
Y15000
Y16000
Y17000
Y18000
Y19000
Y20000
Y21000
Y22000
X25900
Y21000
Y20000
Y19000
Y18000
Y17000
Y16000
Y15000
Y14000
X23800Y11200
X22800
X25900Y23000
X11100
T08
X13450Y9950
X11750Y15250
X22100Y15500
T09
X31890Y5118
X5118
X31890Y31890
X5118
T10
X9565Y18500
X27424Y18508
T11
X34646Y2362
X2362
X34646Y34646
X2362
M30
