G04*
G04 #@! TF.GenerationSoftware,Altium Limited,Altium Designer,21.6.1 (37)*
G04*
G04 Layer_Color=65535*
%FSLAX24Y24*%
%MOIN*%
G70*
G04*
G04 #@! TF.SameCoordinates,4ED41DF6-4530-4611-BF79-ADCA28F4CC56*
G04*
G04*
G04 #@! TF.FilePolarity,Positive*
G04*
G01*
G75*
%ADD10C,0.0098*%
%ADD11C,0.0079*%
%ADD12C,0.0080*%
%ADD13C,0.0010*%
%ADD14C,0.0100*%
%ADD15C,0.0030*%
%ADD16C,0.0050*%
D10*
X12427Y21107D02*
G03*
X12427Y21107I-49J0D01*
G01*
X18968Y20704D02*
G03*
X18968Y20704I-49J0D01*
G01*
X13378Y11014D02*
G03*
X13378Y11014I-49J0D01*
G01*
X19821Y9228D02*
G03*
X19821Y9228I-49J0D01*
G01*
X27723Y10328D02*
G03*
X27723Y10328I-49J0D01*
G01*
X26721Y27674D02*
G03*
X26721Y27674I-49J0D01*
G01*
X9375Y26672D02*
G03*
X9375Y26672I-49J0D01*
G01*
X10377Y9326D02*
G03*
X10377Y9326I-49J0D01*
G01*
X12447Y16295D02*
G03*
X12447Y16295I-49J0D01*
G01*
D11*
X17440Y15726D02*
G03*
X17440Y15726I-195J0D01*
G01*
X12634Y19434D02*
X12791D01*
X12634D02*
Y19591D01*
X14209Y19434D02*
X14366D01*
Y19591D01*
Y21009D02*
Y21166D01*
X14209D02*
X14366D01*
X12634D02*
X12791D01*
X12634Y21009D02*
Y21166D01*
X18860Y20960D02*
X19037D01*
X18860D02*
Y21137D01*
Y23263D02*
Y23440D01*
X19037D01*
X21163D02*
X21340D01*
Y23263D02*
Y23440D01*
X21163Y20960D02*
X21340D01*
Y21137D01*
X13270Y11270D02*
X13398D01*
X13270D02*
Y11398D01*
Y12402D02*
Y12530D01*
X13398D01*
X14402D02*
X14530D01*
Y12402D02*
Y12530D01*
X14402Y11270D02*
X14530D01*
Y11398D01*
X12457Y23676D02*
Y24050D01*
X12486D01*
X12457Y22700D02*
Y23074D01*
Y22700D02*
X12486D01*
X14514Y22750D02*
X14543D01*
Y23124D01*
Y23676D02*
Y24050D01*
X14514D02*
X14543D01*
X17048Y14344D02*
X17241Y14151D01*
X17437Y14348D01*
X17241Y14151D02*
Y15730D01*
X18622Y15533D02*
X18819Y15730D01*
X18626Y15922D02*
X18819Y15730D01*
X17241D02*
X18819D01*
X16933Y13529D02*
Y16222D01*
Y13529D02*
X19004D01*
Y16222D01*
X16933D02*
X19004D01*
X16800Y8800D02*
Y9800D01*
X14800Y8800D02*
X16800D01*
X14800D02*
Y9800D01*
X16800D01*
X24300Y10700D02*
Y11700D01*
X22300Y10700D02*
X24300D01*
X22300D02*
Y11700D01*
X24300D01*
X19890Y9759D02*
X21110D01*
X19890Y9641D02*
X21110D01*
Y9759D01*
X19890Y9641D02*
Y9759D01*
X18089Y23576D02*
Y25624D01*
X16711Y23576D02*
Y25624D01*
X18030D02*
X18089D01*
X18030Y23576D02*
X18089D01*
X16711Y25624D02*
X16770D01*
X16711Y23576D02*
X16770D01*
X25400Y23500D02*
X26400D01*
Y13500D02*
Y23500D01*
X25400Y13500D02*
X26400D01*
X25400D02*
Y14250D01*
Y23500D01*
X11600Y13500D02*
Y22750D01*
Y23500D01*
X10600D02*
X11600D01*
X10600Y13500D02*
Y23500D01*
Y13500D02*
X11600D01*
X27277Y8888D02*
X27500Y9110D01*
X27055Y9110D02*
X27277Y8888D01*
X27890Y9500D02*
X28112Y9723D01*
X27890Y9945D02*
X28112Y9723D01*
X27890Y27500D02*
X28112Y27277D01*
X27890Y27055D02*
X28112Y27277D01*
X27277Y28112D02*
X27500Y27890D01*
X27055Y27890D02*
X27277Y28112D01*
X9500Y27890D02*
X9723Y28112D01*
X9945Y27890D01*
X8888Y27277D02*
X9110Y27500D01*
X8888Y27277D02*
X9110Y27055D01*
X8888Y9723D02*
X9110Y9500D01*
X8888Y9723D02*
X9110Y9945D01*
X9500Y9110D02*
X9723Y8888D01*
X9945Y9110D01*
X12870Y16512D02*
Y16571D01*
X12929Y16630D02*
X12988D01*
X12870Y16571D02*
X12929Y16630D01*
X14130Y16512D02*
Y16630D01*
X14012D02*
X14130D01*
X12870Y15370D02*
Y15488D01*
Y15370D02*
X12988D01*
X14130D02*
Y15488D01*
X14012Y15370D02*
X14130D01*
D12*
X17427Y17069D02*
G03*
X17427Y17069I-195J0D01*
G01*
X16928Y19250D02*
X18999D01*
Y16557D02*
Y19250D01*
X16928Y16557D02*
X18999D01*
X16928D02*
Y19250D01*
X17228Y17065D02*
Y18644D01*
Y17065D02*
X18806D01*
X18609Y17262D02*
X18806Y17065D01*
X18613Y16872D02*
X18806Y17065D01*
X17228Y18644D02*
X17424Y18447D01*
X17035Y18451D02*
X17228Y18644D01*
X22248Y19150D02*
Y19278D01*
X24452D01*
Y19150D02*
Y19278D01*
X22248Y18215D02*
Y18569D01*
Y17231D02*
Y17585D01*
Y16522D02*
Y16650D01*
Y16522D02*
X24452D01*
Y16650D01*
Y17231D02*
Y17585D01*
Y18215D02*
Y18569D01*
D13*
X19503Y14110D02*
X24497D01*
X19503Y14120D02*
X24497D01*
X19503Y14130D02*
X24497D01*
X19503Y14140D02*
X24497D01*
X19503Y14150D02*
X24497D01*
X19503Y14160D02*
X24497D01*
X19503Y14170D02*
X24497D01*
X19503Y14180D02*
X24497D01*
X19503Y14190D02*
X24497D01*
X19503Y14200D02*
X24497D01*
X19503Y14210D02*
X24497D01*
X19503Y14220D02*
X24497D01*
X19503Y14230D02*
X24497D01*
X19503Y14240D02*
X24497D01*
X19503Y14250D02*
X24497D01*
X19503Y14260D02*
X24497D01*
X24343Y14270D02*
X24497D01*
X19503D02*
X19657D01*
X24343Y14280D02*
X24497D01*
X19503D02*
X19657D01*
X24343Y14290D02*
X24497D01*
X19503D02*
X19657D01*
X24343Y14300D02*
X24497D01*
X19503D02*
X19657D01*
X24343Y14310D02*
X24497D01*
X19503D02*
X19657D01*
X24343Y14320D02*
X24497D01*
X19503D02*
X19657D01*
X24343Y14330D02*
X24497D01*
X19503D02*
X19657D01*
X24343Y14340D02*
X24497D01*
X19503D02*
X19657D01*
X24343Y14350D02*
X24497D01*
X19503D02*
X19657D01*
X24343Y14360D02*
X24497D01*
X19503D02*
X19657D01*
X24343Y14370D02*
X24497D01*
X19503D02*
X19657D01*
X24343Y14380D02*
X24497D01*
X19503D02*
X19657D01*
X24343Y14390D02*
X24497D01*
X19503D02*
X19657D01*
X24343Y14400D02*
X24497D01*
X19503D02*
X19657D01*
X24343Y14410D02*
X24497D01*
X23783D02*
X23877D01*
X21443D02*
X21537D01*
X19503D02*
X19657D01*
X24343Y14420D02*
X24497D01*
X23763D02*
X23917D01*
X21403D02*
X21557D01*
X19503D02*
X19657D01*
X24343Y14430D02*
X24497D01*
X23753D02*
X23927D01*
X21383D02*
X21567D01*
X19503D02*
X19657D01*
X24343Y14440D02*
X24497D01*
X23753D02*
X23947D01*
X21373D02*
X21567D01*
X19503D02*
X19657D01*
X24343Y14450D02*
X24497D01*
X23753D02*
X23957D01*
X21363D02*
X21567D01*
X19503D02*
X19657D01*
X24343Y14460D02*
X24497D01*
X23753D02*
X23967D01*
X21353D02*
X21567D01*
X19503D02*
X19657D01*
X24343Y14470D02*
X24497D01*
X23753D02*
X23967D01*
X21343D02*
X21567D01*
X20033D02*
X20067D01*
X19503D02*
X19657D01*
X24343Y14480D02*
X24497D01*
X23753D02*
X23977D01*
X21343D02*
X21567D01*
X20003D02*
X20087D01*
X19503D02*
X19657D01*
X24343Y14490D02*
X24497D01*
X23753D02*
X23987D01*
X21333D02*
X21567D01*
X20003D02*
X20087D01*
X19503D02*
X19657D01*
X24343Y14500D02*
X24497D01*
X23753D02*
X23987D01*
X21333D02*
X21567D01*
X20003D02*
X20087D01*
X19503D02*
X19657D01*
X24343Y14510D02*
X24497D01*
X23753D02*
X23987D01*
X21323D02*
X21567D01*
X20013D02*
X20097D01*
X19503D02*
X19657D01*
X24343Y14520D02*
X24497D01*
X23763D02*
X23997D01*
X21323D02*
X21567D01*
X20013D02*
X20097D01*
X19503D02*
X19657D01*
X24343Y14530D02*
X24497D01*
X23763D02*
X23997D01*
X21323D02*
X21557D01*
X20013D02*
X20097D01*
X19503D02*
X19657D01*
X24343Y14540D02*
X24497D01*
X23823D02*
X23997D01*
X21323D02*
X21487D01*
X20013D02*
X20097D01*
X19503D02*
X19657D01*
X24343Y14550D02*
X24497D01*
X23843D02*
X23997D01*
X21313D02*
X21477D01*
X20013D02*
X20097D01*
X19503D02*
X19657D01*
X24343Y14560D02*
X24497D01*
X23843D02*
X24007D01*
X21313D02*
X21467D01*
X20013D02*
X20097D01*
X19503D02*
X19657D01*
X24343Y14570D02*
X24497D01*
X23853D02*
X24007D01*
X21313D02*
X21467D01*
X20013D02*
X20097D01*
X19503D02*
X19657D01*
X24343Y14580D02*
X24497D01*
X23853D02*
X24007D01*
X21313D02*
X21467D01*
X20013D02*
X20097D01*
X19503D02*
X19657D01*
X24343Y14590D02*
X24497D01*
X23853D02*
X24007D01*
X21313D02*
X21467D01*
X20013D02*
X20097D01*
X19503D02*
X19657D01*
X24343Y14600D02*
X24497D01*
X23853D02*
X24007D01*
X21313D02*
X21457D01*
X20023D02*
X20097D01*
X19503D02*
X19657D01*
X24343Y14610D02*
X24497D01*
X23863D02*
X24007D01*
X21313D02*
X21457D01*
X20023D02*
X20107D01*
X19503D02*
X19657D01*
X24343Y14620D02*
X24497D01*
X23863D02*
X24007D01*
X21313D02*
X21457D01*
X20023D02*
X20107D01*
X19503D02*
X19657D01*
X24343Y14630D02*
X24497D01*
X23863D02*
X24007D01*
X22593D02*
X22677D01*
X22173D02*
X22257D01*
X21753D02*
X21837D01*
X21313D02*
X21457D01*
X20023D02*
X20107D01*
X19503D02*
X19657D01*
X24343Y14640D02*
X24497D01*
X23863D02*
X24007D01*
X22933D02*
X23287D01*
X22563D02*
X22707D01*
X22143D02*
X22287D01*
X21723D02*
X21867D01*
X21313D02*
X21457D01*
X19983D02*
X20177D01*
X19503D02*
X19657D01*
X24343Y14650D02*
X24497D01*
X23863D02*
X24007D01*
X22923D02*
X23337D01*
X22553D02*
X22717D01*
X22133D02*
X22297D01*
X21713D02*
X21877D01*
X21313D02*
X21457D01*
X19943D02*
X20217D01*
X19503D02*
X19657D01*
X24343Y14660D02*
X24497D01*
X23863D02*
X24007D01*
X22913D02*
X23377D01*
X22553D02*
X22717D01*
X22123D02*
X22297D01*
X21713D02*
X21877D01*
X21313D02*
X21457D01*
X19913D02*
X20247D01*
X19503D02*
X19657D01*
X24343Y14670D02*
X24497D01*
X23863D02*
X24007D01*
X22913D02*
X23397D01*
X22553D02*
X22717D01*
X22123D02*
X22307D01*
X21713D02*
X21877D01*
X21313D02*
X21457D01*
X19883D02*
X20267D01*
X19503D02*
X19657D01*
X24343Y14680D02*
X24497D01*
X23863D02*
X24007D01*
X22913D02*
X23427D01*
X22553D02*
X22717D01*
X22113D02*
X22307D01*
X21713D02*
X21877D01*
X21313D02*
X21457D01*
X19863D02*
X20287D01*
X19503D02*
X19657D01*
X24343Y14690D02*
X24497D01*
X23863D02*
X24007D01*
X22913D02*
X23437D01*
X22553D02*
X22717D01*
X22113D02*
X22307D01*
X21713D02*
X21877D01*
X21313D02*
X21457D01*
X19853D02*
X20297D01*
X19503D02*
X19657D01*
X24343Y14700D02*
X24497D01*
X23863D02*
X24007D01*
X22913D02*
X23457D01*
X22553D02*
X22717D01*
X22113D02*
X22317D01*
X21713D02*
X21877D01*
X21313D02*
X21457D01*
X20543D02*
X20567D01*
X19853D02*
X20317D01*
X19503D02*
X19657D01*
X24343Y14710D02*
X24497D01*
X23863D02*
X24007D01*
X22913D02*
X23477D01*
X22553D02*
X22717D01*
X22103D02*
X22317D01*
X21713D02*
X21877D01*
X21313D02*
X21457D01*
X20543D02*
X20587D01*
X19843D02*
X20327D01*
X19503D02*
X19657D01*
X24343Y14720D02*
X24497D01*
X23863D02*
X24007D01*
X22913D02*
X23487D01*
X22553D02*
X22717D01*
X22103D02*
X22327D01*
X21713D02*
X21877D01*
X21313D02*
X21457D01*
X20543D02*
X20607D01*
X19843D02*
X20337D01*
X19503D02*
X19657D01*
X24343Y14730D02*
X24497D01*
X23863D02*
X24007D01*
X22913D02*
X23497D01*
X22553D02*
X22717D01*
X22103D02*
X22327D01*
X21713D02*
X21877D01*
X21313D02*
X21457D01*
X20543D02*
X20627D01*
X20143D02*
X20347D01*
X19843D02*
X20027D01*
X19503D02*
X19657D01*
X24343Y14740D02*
X24497D01*
X23863D02*
X24007D01*
X22913D02*
X23507D01*
X22553D02*
X22717D01*
X22093D02*
X22327D01*
X21713D02*
X21877D01*
X21313D02*
X21457D01*
X20543D02*
X20647D01*
X20183D02*
X20347D01*
X19843D02*
X19977D01*
X19503D02*
X19657D01*
X24343Y14750D02*
X24497D01*
X23863D02*
X24007D01*
X22913D02*
X23517D01*
X22553D02*
X22717D01*
X22093D02*
X22337D01*
X21713D02*
X21877D01*
X21313D02*
X21457D01*
X20543D02*
X20667D01*
X20213D02*
X20357D01*
X19843D02*
X19947D01*
X19503D02*
X19657D01*
X24343Y14760D02*
X24497D01*
X23863D02*
X24007D01*
X22913D02*
X23527D01*
X22553D02*
X22717D01*
X22093D02*
X22337D01*
X21713D02*
X21877D01*
X21313D02*
X21457D01*
X20543D02*
X20687D01*
X20223D02*
X20367D01*
X19843D02*
X19927D01*
X19503D02*
X19657D01*
X24343Y14770D02*
X24497D01*
X23863D02*
X24007D01*
X22913D02*
X23537D01*
X22553D02*
X22717D01*
X22083D02*
X22337D01*
X21713D02*
X21877D01*
X21313D02*
X21457D01*
X20543D02*
X20707D01*
X20243D02*
X20367D01*
X19843D02*
X19907D01*
X19503D02*
X19657D01*
X24343Y14780D02*
X24497D01*
X23863D02*
X24007D01*
X23273D02*
X23547D01*
X22913D02*
X23077D01*
X22553D02*
X22717D01*
X22083D02*
X22347D01*
X21713D02*
X21877D01*
X21313D02*
X21457D01*
X20543D02*
X20727D01*
X20253D02*
X20377D01*
X19853D02*
X19887D01*
X19503D02*
X19657D01*
X24343Y14790D02*
X24497D01*
X23863D02*
X24007D01*
X23303D02*
X23547D01*
X22913D02*
X23077D01*
X22553D02*
X22717D01*
X22083D02*
X22347D01*
X21713D02*
X21877D01*
X21313D02*
X21457D01*
X20543D02*
X20747D01*
X20253D02*
X20377D01*
X19503D02*
X19657D01*
X24343Y14800D02*
X24497D01*
X23863D02*
X24007D01*
X23323D02*
X23557D01*
X22913D02*
X23077D01*
X22553D02*
X22717D01*
X22073D02*
X22347D01*
X21713D02*
X21877D01*
X21313D02*
X21457D01*
X20553D02*
X20767D01*
X20263D02*
X20387D01*
X19503D02*
X19657D01*
X24343Y14810D02*
X24497D01*
X23863D02*
X24017D01*
X23343D02*
X23567D01*
X22913D02*
X23077D01*
X22553D02*
X22717D01*
X22073D02*
X22357D01*
X21713D02*
X21877D01*
X21313D02*
X21457D01*
X20573D02*
X20787D01*
X20273D02*
X20387D01*
X19503D02*
X19657D01*
X24343Y14820D02*
X24497D01*
X23863D02*
X24017D01*
X23353D02*
X23567D01*
X22913D02*
X23077D01*
X22553D02*
X22717D01*
X22073D02*
X22357D01*
X21713D02*
X21877D01*
X21313D02*
X21457D01*
X20593D02*
X20807D01*
X20273D02*
X20387D01*
X19503D02*
X19657D01*
X24343Y14830D02*
X24497D01*
X23863D02*
X24017D01*
X23363D02*
X23577D01*
X22913D02*
X23077D01*
X22553D02*
X22717D01*
X22063D02*
X22357D01*
X21713D02*
X21877D01*
X21303D02*
X21457D01*
X20613D02*
X20827D01*
X20273D02*
X20387D01*
X19503D02*
X19657D01*
X24343Y14840D02*
X24497D01*
X23863D02*
X24017D01*
X23373D02*
X23577D01*
X22913D02*
X23077D01*
X22553D02*
X22717D01*
X22063D02*
X22367D01*
X21713D02*
X21877D01*
X21303D02*
X21457D01*
X20633D02*
X20847D01*
X20283D02*
X20397D01*
X19503D02*
X19657D01*
X24343Y14850D02*
X24497D01*
X23873D02*
X24017D01*
X23383D02*
X23587D01*
X22913D02*
X23077D01*
X22553D02*
X22717D01*
X22063D02*
X22367D01*
X21713D02*
X21877D01*
X21303D02*
X21457D01*
X20653D02*
X20867D01*
X20283D02*
X20397D01*
X19503D02*
X19657D01*
X24343Y14860D02*
X24497D01*
X23873D02*
X24027D01*
X23393D02*
X23587D01*
X22913D02*
X23077D01*
X22553D02*
X22717D01*
X22053D02*
X22377D01*
X21713D02*
X21877D01*
X21303D02*
X21457D01*
X20673D02*
X20887D01*
X20283D02*
X20397D01*
X19503D02*
X19657D01*
X24343Y14870D02*
X24497D01*
X23873D02*
X24027D01*
X23403D02*
X23587D01*
X22913D02*
X23077D01*
X22553D02*
X22717D01*
X22053D02*
X22377D01*
X21713D02*
X21877D01*
X21303D02*
X21447D01*
X20693D02*
X20897D01*
X20283D02*
X20397D01*
X19503D02*
X19657D01*
X24343Y14880D02*
X24497D01*
X23873D02*
X24027D01*
X23403D02*
X23597D01*
X22913D02*
X23077D01*
X22553D02*
X22717D01*
X22053D02*
X22377D01*
X21713D02*
X21877D01*
X21293D02*
X21447D01*
X20713D02*
X20917D01*
X20283D02*
X20397D01*
X19503D02*
X19657D01*
X24343Y14890D02*
X24497D01*
X23883D02*
X24037D01*
X23413D02*
X23597D01*
X22913D02*
X23077D01*
X22553D02*
X22717D01*
X22223D02*
X22387D01*
X22043D02*
X22207D01*
X21713D02*
X21877D01*
X21293D02*
X21447D01*
X20733D02*
X20947D01*
X20283D02*
X20397D01*
X19503D02*
X19657D01*
X24343Y14900D02*
X24497D01*
X23883D02*
X24037D01*
X23413D02*
X23597D01*
X22913D02*
X23077D01*
X22553D02*
X22717D01*
X22233D02*
X22387D01*
X22043D02*
X22207D01*
X21713D02*
X21877D01*
X21283D02*
X21447D01*
X20753D02*
X20957D01*
X20273D02*
X20397D01*
X19503D02*
X19657D01*
X24343Y14910D02*
X24497D01*
X23883D02*
X24047D01*
X23423D02*
X23607D01*
X22913D02*
X23077D01*
X22553D02*
X22717D01*
X22233D02*
X22387D01*
X22043D02*
X22207D01*
X21713D02*
X21877D01*
X21283D02*
X21437D01*
X20773D02*
X20977D01*
X20273D02*
X20397D01*
X19503D02*
X19657D01*
X24343Y14920D02*
X24497D01*
X23893D02*
X24057D01*
X23423D02*
X23607D01*
X22913D02*
X23077D01*
X22553D02*
X22717D01*
X22243D02*
X22397D01*
X22033D02*
X22197D01*
X21713D02*
X21877D01*
X21273D02*
X21437D01*
X20793D02*
X20997D01*
X20273D02*
X20387D01*
X19503D02*
X19657D01*
X24343Y14930D02*
X24497D01*
X23893D02*
X24067D01*
X23433D02*
X23607D01*
X22913D02*
X23077D01*
X22553D02*
X22717D01*
X22243D02*
X22397D01*
X22033D02*
X22197D01*
X21713D02*
X21877D01*
X21263D02*
X21427D01*
X20813D02*
X21017D01*
X20263D02*
X20387D01*
X19503D02*
X19657D01*
X24343Y14940D02*
X24497D01*
X23903D02*
X24077D01*
X23433D02*
X23607D01*
X22913D02*
X23077D01*
X22553D02*
X22717D01*
X22243D02*
X22397D01*
X22033D02*
X22197D01*
X21713D02*
X21877D01*
X21243D02*
X21427D01*
X20833D02*
X21037D01*
X20253D02*
X20387D01*
X19503D02*
X19657D01*
X24343Y14950D02*
X24497D01*
X23913D02*
X24107D01*
X23433D02*
X23617D01*
X22913D02*
X23077D01*
X22553D02*
X22717D01*
X22253D02*
X22407D01*
X22023D02*
X22187D01*
X21713D02*
X21877D01*
X21213D02*
X21417D01*
X20863D02*
X21057D01*
X20243D02*
X20387D01*
X19503D02*
X19657D01*
X24343Y14960D02*
X24497D01*
X23913D02*
X24127D01*
X23433D02*
X23617D01*
X22913D02*
X23077D01*
X22553D02*
X22717D01*
X22253D02*
X22407D01*
X22023D02*
X22187D01*
X21713D02*
X21877D01*
X21203D02*
X21407D01*
X20883D02*
X21077D01*
X20233D02*
X20377D01*
X19503D02*
X19657D01*
X24343Y14970D02*
X24497D01*
X23923D02*
X24127D01*
X23443D02*
X23617D01*
X22913D02*
X23077D01*
X22553D02*
X22717D01*
X22253D02*
X22407D01*
X22013D02*
X22187D01*
X21713D02*
X21877D01*
X21193D02*
X21397D01*
X20903D02*
X21097D01*
X20223D02*
X20377D01*
X19503D02*
X19657D01*
X24343Y14980D02*
X24497D01*
X23933D02*
X24127D01*
X23443D02*
X23617D01*
X22913D02*
X23077D01*
X22553D02*
X22717D01*
X22263D02*
X22417D01*
X22013D02*
X22177D01*
X21713D02*
X21877D01*
X21193D02*
X21387D01*
X20923D02*
X21097D01*
X20213D02*
X20367D01*
X19503D02*
X19657D01*
X24343Y14990D02*
X24497D01*
X23943D02*
X24127D01*
X23443D02*
X23617D01*
X22913D02*
X23077D01*
X22553D02*
X22717D01*
X22263D02*
X22417D01*
X22013D02*
X22177D01*
X21713D02*
X21877D01*
X21193D02*
X21377D01*
X20943D02*
X21097D01*
X20193D02*
X20367D01*
X19503D02*
X19657D01*
X24343Y15000D02*
X24497D01*
X23963D02*
X24127D01*
X23443D02*
X23617D01*
X22913D02*
X23077D01*
X22553D02*
X22717D01*
X22273D02*
X22417D01*
X22003D02*
X22167D01*
X21713D02*
X21877D01*
X21193D02*
X21357D01*
X20963D02*
X21097D01*
X20173D02*
X20357D01*
X19503D02*
X19657D01*
X24343Y15010D02*
X24497D01*
X23983D02*
X24127D01*
X23443D02*
X23617D01*
X22913D02*
X23077D01*
X22553D02*
X22717D01*
X22273D02*
X22427D01*
X22003D02*
X22167D01*
X21713D02*
X21877D01*
X21193D02*
X21327D01*
X20983D02*
X21097D01*
X20143D02*
X20347D01*
X19503D02*
X19657D01*
X24343Y15020D02*
X24497D01*
X23973D02*
X24127D01*
X23443D02*
X23617D01*
X22913D02*
X23077D01*
X22553D02*
X22717D01*
X22273D02*
X22427D01*
X22003D02*
X22167D01*
X21713D02*
X21877D01*
X21193D02*
X21347D01*
X20983D02*
X21097D01*
X20123D02*
X20347D01*
X19503D02*
X19657D01*
X24343Y15030D02*
X24497D01*
X23953D02*
X24127D01*
X23443D02*
X23617D01*
X22913D02*
X23077D01*
X22553D02*
X22717D01*
X22283D02*
X22437D01*
X21993D02*
X22157D01*
X21713D02*
X21877D01*
X21193D02*
X21367D01*
X20963D02*
X21097D01*
X20093D02*
X20337D01*
X19503D02*
X19657D01*
X24343Y15040D02*
X24497D01*
X23933D02*
X24127D01*
X23443D02*
X23627D01*
X22913D02*
X23077D01*
X22553D02*
X22717D01*
X22283D02*
X22437D01*
X21993D02*
X22157D01*
X21713D02*
X21877D01*
X21193D02*
X21387D01*
X20943D02*
X21097D01*
X20063D02*
X20327D01*
X19503D02*
X19657D01*
X24343Y15050D02*
X24497D01*
X23913D02*
X24127D01*
X23443D02*
X23627D01*
X22913D02*
X23077D01*
X22553D02*
X22717D01*
X22283D02*
X22437D01*
X21993D02*
X22157D01*
X21713D02*
X21877D01*
X21193D02*
X21397D01*
X20923D02*
X21097D01*
X20043D02*
X20307D01*
X19503D02*
X19657D01*
X24343Y15060D02*
X24497D01*
X23903D02*
X24127D01*
X23443D02*
X23627D01*
X22913D02*
X23077D01*
X22553D02*
X22717D01*
X22293D02*
X22447D01*
X21983D02*
X22147D01*
X21713D02*
X21877D01*
X21193D02*
X21407D01*
X20903D02*
X21097D01*
X20013D02*
X20297D01*
X19503D02*
X19657D01*
X24343Y15070D02*
X24497D01*
X23893D02*
X24117D01*
X23453D02*
X23627D01*
X22913D02*
X23077D01*
X22553D02*
X22717D01*
X22293D02*
X22447D01*
X21983D02*
X22147D01*
X21713D02*
X21877D01*
X21203D02*
X21417D01*
X20883D02*
X21077D01*
X19993D02*
X20277D01*
X19503D02*
X19657D01*
X24343Y15080D02*
X24497D01*
X23893D02*
X24097D01*
X23443D02*
X23627D01*
X22913D02*
X23077D01*
X22553D02*
X22717D01*
X22303D02*
X22447D01*
X21983D02*
X22147D01*
X21713D02*
X21877D01*
X21223D02*
X21417D01*
X20863D02*
X21057D01*
X19973D02*
X20257D01*
X19503D02*
X19657D01*
X24343Y15090D02*
X24497D01*
X23883D02*
X24067D01*
X23443D02*
X23627D01*
X22913D02*
X23077D01*
X22553D02*
X22717D01*
X22303D02*
X22457D01*
X21973D02*
X22137D01*
X21713D02*
X21877D01*
X21253D02*
X21427D01*
X20843D02*
X21037D01*
X19963D02*
X20237D01*
X19503D02*
X19657D01*
X24343Y15100D02*
X24497D01*
X23883D02*
X24047D01*
X23443D02*
X23627D01*
X22913D02*
X23077D01*
X22553D02*
X22717D01*
X22303D02*
X22457D01*
X21973D02*
X22137D01*
X21713D02*
X21877D01*
X21263D02*
X21437D01*
X20823D02*
X21017D01*
X19943D02*
X20207D01*
X19503D02*
X19657D01*
X24343Y15110D02*
X24497D01*
X23873D02*
X24037D01*
X23443D02*
X23627D01*
X22913D02*
X23077D01*
X22553D02*
X22717D01*
X22313D02*
X22457D01*
X21973D02*
X22127D01*
X21713D02*
X21877D01*
X21273D02*
X21437D01*
X20803D02*
X20997D01*
X19933D02*
X20187D01*
X19503D02*
X19657D01*
X24343Y15120D02*
X24497D01*
X23873D02*
X24027D01*
X23443D02*
X23617D01*
X22913D02*
X23077D01*
X22553D02*
X22717D01*
X22313D02*
X22467D01*
X21963D02*
X22127D01*
X21713D02*
X21877D01*
X21283D02*
X21437D01*
X20783D02*
X20977D01*
X19923D02*
X20157D01*
X19503D02*
X19657D01*
X24343Y15130D02*
X24497D01*
X23873D02*
X24017D01*
X23443D02*
X23617D01*
X22913D02*
X23077D01*
X22553D02*
X22717D01*
X22313D02*
X22467D01*
X21963D02*
X22127D01*
X21713D02*
X21877D01*
X21293D02*
X21447D01*
X20753D02*
X20957D01*
X19913D02*
X20127D01*
X19503D02*
X19657D01*
X24343Y15140D02*
X24497D01*
X23863D02*
X24017D01*
X23443D02*
X23617D01*
X22913D02*
X23077D01*
X22553D02*
X22717D01*
X22323D02*
X22467D01*
X21963D02*
X22117D01*
X21713D02*
X21877D01*
X21293D02*
X21447D01*
X20733D02*
X20937D01*
X19903D02*
X20097D01*
X19503D02*
X19657D01*
X24343Y15150D02*
X24497D01*
X23863D02*
X24017D01*
X23443D02*
X23617D01*
X22913D02*
X23077D01*
X22553D02*
X22717D01*
X22323D02*
X22477D01*
X21953D02*
X22117D01*
X21713D02*
X21877D01*
X21293D02*
X21447D01*
X20713D02*
X20917D01*
X19893D02*
X20077D01*
X19503D02*
X19657D01*
X24343Y15160D02*
X24497D01*
X23863D02*
X24017D01*
X23443D02*
X23617D01*
X22913D02*
X23077D01*
X22553D02*
X22717D01*
X22333D02*
X22477D01*
X21953D02*
X22117D01*
X21713D02*
X21877D01*
X21303D02*
X21457D01*
X20693D02*
X20897D01*
X19893D02*
X20057D01*
X19503D02*
X19657D01*
X24343Y15170D02*
X24497D01*
X23863D02*
X24017D01*
X23433D02*
X23617D01*
X22913D02*
X23077D01*
X22553D02*
X22717D01*
X22333D02*
X22487D01*
X21953D02*
X22107D01*
X21713D02*
X21877D01*
X21303D02*
X21457D01*
X20673D02*
X20877D01*
X19883D02*
X20037D01*
X19503D02*
X19657D01*
X24343Y15180D02*
X24497D01*
X23863D02*
X24007D01*
X23433D02*
X23617D01*
X22913D02*
X23077D01*
X22553D02*
X22717D01*
X22333D02*
X22487D01*
X21943D02*
X22107D01*
X21713D02*
X21877D01*
X21303D02*
X21457D01*
X20653D02*
X20857D01*
X19883D02*
X20027D01*
X19503D02*
X19657D01*
X24343Y15190D02*
X24497D01*
X23863D02*
X24007D01*
X23433D02*
X23617D01*
X22913D02*
X23077D01*
X22553D02*
X22717D01*
X22343D02*
X22487D01*
X21943D02*
X22107D01*
X21713D02*
X21877D01*
X21303D02*
X21457D01*
X20633D02*
X20837D01*
X19873D02*
X20017D01*
X19503D02*
X19657D01*
X24343Y15200D02*
X24497D01*
X23863D02*
X24007D01*
X23433D02*
X23607D01*
X22913D02*
X23077D01*
X22553D02*
X22717D01*
X22343D02*
X22497D01*
X21943D02*
X22097D01*
X21713D02*
X21877D01*
X21303D02*
X21457D01*
X20613D02*
X20817D01*
X19873D02*
X20007D01*
X19503D02*
X19657D01*
X24343Y15210D02*
X24497D01*
X23863D02*
X24007D01*
X23423D02*
X23607D01*
X22913D02*
X23077D01*
X22553D02*
X22717D01*
X22343D02*
X22497D01*
X21933D02*
X22097D01*
X21713D02*
X21877D01*
X21313D02*
X21457D01*
X20593D02*
X20807D01*
X19873D02*
X19997D01*
X19503D02*
X19657D01*
X24343Y15220D02*
X24497D01*
X23863D02*
X24007D01*
X23423D02*
X23607D01*
X22913D02*
X23077D01*
X22553D02*
X22717D01*
X22353D02*
X22497D01*
X21933D02*
X22087D01*
X21713D02*
X21877D01*
X21313D02*
X21457D01*
X20573D02*
X20787D01*
X19863D02*
X19987D01*
X19503D02*
X19657D01*
X24343Y15230D02*
X24497D01*
X23863D02*
X24007D01*
X23413D02*
X23607D01*
X22913D02*
X23077D01*
X22553D02*
X22717D01*
X22353D02*
X22507D01*
X21933D02*
X22087D01*
X21713D02*
X21877D01*
X21313D02*
X21457D01*
X20553D02*
X20767D01*
X19863D02*
X19977D01*
X19503D02*
X19657D01*
X24343Y15240D02*
X24497D01*
X23863D02*
X24007D01*
X23413D02*
X23597D01*
X22913D02*
X23077D01*
X22553D02*
X22717D01*
X22363D02*
X22507D01*
X21923D02*
X22087D01*
X21713D02*
X21877D01*
X21313D02*
X21457D01*
X20543D02*
X20747D01*
X19863D02*
X19977D01*
X19503D02*
X19657D01*
X24343Y15250D02*
X24497D01*
X23863D02*
X24007D01*
X23403D02*
X23597D01*
X22913D02*
X23077D01*
X22553D02*
X22717D01*
X22363D02*
X22507D01*
X21923D02*
X22077D01*
X21713D02*
X21877D01*
X21313D02*
X21457D01*
X20543D02*
X20727D01*
X19863D02*
X19977D01*
X19503D02*
X19657D01*
X24343Y15260D02*
X24497D01*
X23863D02*
X24007D01*
X23403D02*
X23597D01*
X22913D02*
X23077D01*
X22553D02*
X22717D01*
X22363D02*
X22517D01*
X21923D02*
X22077D01*
X21713D02*
X21877D01*
X21313D02*
X21457D01*
X20543D02*
X20707D01*
X19863D02*
X19977D01*
X19503D02*
X19657D01*
X24343Y15270D02*
X24497D01*
X23863D02*
X24007D01*
X23393D02*
X23587D01*
X22913D02*
X23077D01*
X22553D02*
X22717D01*
X22373D02*
X22517D01*
X21913D02*
X22077D01*
X21713D02*
X21877D01*
X21313D02*
X21457D01*
X20543D02*
X20687D01*
X19863D02*
X19967D01*
X19503D02*
X19657D01*
X24343Y15280D02*
X24497D01*
X23863D02*
X24007D01*
X23383D02*
X23587D01*
X22913D02*
X23077D01*
X22553D02*
X22717D01*
X22373D02*
X22517D01*
X21913D02*
X22067D01*
X21713D02*
X21877D01*
X21313D02*
X21457D01*
X20543D02*
X20667D01*
X19863D02*
X19967D01*
X19503D02*
X19657D01*
X24343Y15290D02*
X24497D01*
X23863D02*
X24007D01*
X23373D02*
X23577D01*
X22913D02*
X23077D01*
X22553D02*
X22717D01*
X22373D02*
X22527D01*
X21903D02*
X22067D01*
X21713D02*
X21877D01*
X21313D02*
X21457D01*
X20543D02*
X20647D01*
X19863D02*
X19967D01*
X19503D02*
X19657D01*
X24343Y15300D02*
X24497D01*
X23863D02*
X24007D01*
X23363D02*
X23577D01*
X22913D02*
X23077D01*
X22553D02*
X22717D01*
X22383D02*
X22527D01*
X21903D02*
X22067D01*
X21713D02*
X21877D01*
X21313D02*
X21457D01*
X20543D02*
X20627D01*
X19863D02*
X19977D01*
X19503D02*
X19657D01*
X24343Y15310D02*
X24497D01*
X23863D02*
X24007D01*
X23353D02*
X23567D01*
X22913D02*
X23077D01*
X22553D02*
X22717D01*
X22383D02*
X22537D01*
X21903D02*
X22057D01*
X21713D02*
X21877D01*
X21313D02*
X21457D01*
X20543D02*
X20607D01*
X19863D02*
X19977D01*
X19503D02*
X19657D01*
X24343Y15320D02*
X24497D01*
X23863D02*
X24007D01*
X23333D02*
X23567D01*
X22913D02*
X23077D01*
X22553D02*
X22717D01*
X22393D02*
X22537D01*
X21893D02*
X22057D01*
X21713D02*
X21877D01*
X21313D02*
X21457D01*
X20543D02*
X20587D01*
X19863D02*
X19977D01*
X19503D02*
X19657D01*
X24343Y15330D02*
X24497D01*
X23863D02*
X24007D01*
X23313D02*
X23557D01*
X22913D02*
X23077D01*
X22553D02*
X22717D01*
X22393D02*
X22537D01*
X21893D02*
X22047D01*
X21713D02*
X21877D01*
X21313D02*
X21457D01*
X20543D02*
X20567D01*
X19873D02*
X19977D01*
X19503D02*
X19657D01*
X24343Y15340D02*
X24497D01*
X23863D02*
X24007D01*
X23293D02*
X23547D01*
X22913D02*
X23077D01*
X22393D02*
X22717D01*
X21893D02*
X22047D01*
X21713D02*
X21877D01*
X21313D02*
X21457D01*
X19873D02*
X19987D01*
X19503D02*
X19657D01*
X24343Y15350D02*
X24497D01*
X23863D02*
X24007D01*
X23253D02*
X23547D01*
X22913D02*
X23077D01*
X22403D02*
X22717D01*
X21713D02*
X22047D01*
X21313D02*
X21457D01*
X20323D02*
X20337D01*
X19873D02*
X19987D01*
X19503D02*
X19657D01*
X24343Y15360D02*
X24497D01*
X23863D02*
X24007D01*
X22913D02*
X23537D01*
X22403D02*
X22717D01*
X21713D02*
X22037D01*
X21313D02*
X21457D01*
X20303D02*
X20337D01*
X19883D02*
X19997D01*
X19503D02*
X19657D01*
X24343Y15370D02*
X24497D01*
X23863D02*
X24007D01*
X22913D02*
X23527D01*
X22403D02*
X22717D01*
X21713D02*
X22037D01*
X21313D02*
X21457D01*
X20283D02*
X20347D01*
X19883D02*
X20007D01*
X19503D02*
X19657D01*
X24343Y15380D02*
X24497D01*
X23863D02*
X24007D01*
X22913D02*
X23517D01*
X22413D02*
X22717D01*
X21713D02*
X22037D01*
X21313D02*
X21457D01*
X20253D02*
X20347D01*
X19893D02*
X20027D01*
X19503D02*
X19657D01*
X24343Y15390D02*
X24497D01*
X23863D02*
X24007D01*
X22913D02*
X23507D01*
X22413D02*
X22717D01*
X21713D02*
X22027D01*
X21313D02*
X21457D01*
X20223D02*
X20347D01*
X19893D02*
X20057D01*
X19503D02*
X19657D01*
X24343Y15400D02*
X24497D01*
X23853D02*
X24007D01*
X22913D02*
X23497D01*
X22423D02*
X22717D01*
X21713D02*
X22027D01*
X21313D02*
X21467D01*
X20173D02*
X20347D01*
X19903D02*
X20107D01*
X19503D02*
X19657D01*
X24343Y15410D02*
X24497D01*
X23853D02*
X24007D01*
X22913D02*
X23487D01*
X22423D02*
X22717D01*
X21713D02*
X22027D01*
X21313D02*
X21467D01*
X19913D02*
X20347D01*
X19503D02*
X19657D01*
X24343Y15420D02*
X24497D01*
X23853D02*
X24007D01*
X22913D02*
X23467D01*
X22423D02*
X22717D01*
X21713D02*
X22017D01*
X21313D02*
X21467D01*
X19923D02*
X20347D01*
X19503D02*
X19657D01*
X24343Y15430D02*
X24497D01*
X23853D02*
X24007D01*
X22913D02*
X23457D01*
X22433D02*
X22717D01*
X21713D02*
X22017D01*
X21313D02*
X21467D01*
X19933D02*
X20337D01*
X19503D02*
X19657D01*
X24343Y15440D02*
X24497D01*
X23843D02*
X24007D01*
X22913D02*
X23437D01*
X22433D02*
X22717D01*
X21723D02*
X22007D01*
X21313D02*
X21477D01*
X19943D02*
X20337D01*
X19503D02*
X19657D01*
X24343Y15450D02*
X24497D01*
X23843D02*
X23997D01*
X22913D02*
X23417D01*
X22443D02*
X22717D01*
X21723D02*
X22007D01*
X21323D02*
X21487D01*
X19953D02*
X20327D01*
X19503D02*
X19657D01*
X24343Y15460D02*
X24497D01*
X23823D02*
X23997D01*
X22913D02*
X23397D01*
X22443D02*
X22707D01*
X21723D02*
X21997D01*
X21323D02*
X21507D01*
X19973D02*
X20307D01*
X19503D02*
X19657D01*
X24343Y15470D02*
X24497D01*
X23763D02*
X23997D01*
X22923D02*
X23367D01*
X22453D02*
X22707D01*
X21733D02*
X21987D01*
X21323D02*
X21557D01*
X19993D02*
X20287D01*
X19503D02*
X19657D01*
X24343Y15480D02*
X24497D01*
X23753D02*
X23997D01*
X22923D02*
X23327D01*
X22473D02*
X22697D01*
X21743D02*
X21967D01*
X21323D02*
X21567D01*
X20023D02*
X20247D01*
X19503D02*
X19657D01*
X24343Y15490D02*
X24497D01*
X23753D02*
X23987D01*
X22943D02*
X23267D01*
X22493D02*
X22677D01*
X21753D02*
X21937D01*
X21333D02*
X21567D01*
X20073D02*
X20207D01*
X19503D02*
X19657D01*
X24343Y15500D02*
X24497D01*
X23753D02*
X23987D01*
X21333D02*
X21567D01*
X20113D02*
X20197D01*
X19503D02*
X19657D01*
X24343Y15510D02*
X24497D01*
X23753D02*
X23987D01*
X21333D02*
X21567D01*
X20113D02*
X20197D01*
X19503D02*
X19657D01*
X24343Y15520D02*
X24497D01*
X23753D02*
X23977D01*
X21343D02*
X21567D01*
X20113D02*
X20197D01*
X19503D02*
X19657D01*
X24343Y15530D02*
X24497D01*
X23753D02*
X23967D01*
X21353D02*
X21567D01*
X20113D02*
X20197D01*
X19503D02*
X19657D01*
X24343Y15540D02*
X24497D01*
X23753D02*
X23967D01*
X21353D02*
X21567D01*
X20113D02*
X20197D01*
X19503D02*
X19657D01*
X24343Y15550D02*
X24497D01*
X23753D02*
X23957D01*
X21363D02*
X21567D01*
X20113D02*
X20197D01*
X19503D02*
X19657D01*
X24343Y15560D02*
X24497D01*
X23753D02*
X23937D01*
X21383D02*
X21567D01*
X20113D02*
X20197D01*
X19503D02*
X19657D01*
X24343Y15570D02*
X24497D01*
X23753D02*
X23927D01*
X21393D02*
X21567D01*
X20113D02*
X20197D01*
X19503D02*
X19657D01*
X24343Y15580D02*
X24497D01*
X23763D02*
X23907D01*
X21413D02*
X21557D01*
X20123D02*
X20207D01*
X19503D02*
X19657D01*
X24343Y15590D02*
X24497D01*
X23813D02*
X23857D01*
X21463D02*
X21497D01*
X20123D02*
X20207D01*
X19503D02*
X19657D01*
X24343Y15600D02*
X24497D01*
X20123D02*
X20207D01*
X19503D02*
X19657D01*
X24343Y15610D02*
X24497D01*
X20123D02*
X20207D01*
X19503D02*
X19657D01*
X24343Y15620D02*
X24497D01*
X20123D02*
X20207D01*
X19503D02*
X19657D01*
X24343Y15630D02*
X24497D01*
X20123D02*
X20207D01*
X19503D02*
X19657D01*
X24343Y15640D02*
X24497D01*
X20133D02*
X20197D01*
X19503D02*
X19657D01*
X24343Y15650D02*
X24497D01*
X19503D02*
X19657D01*
X24343Y15660D02*
X24497D01*
X19503D02*
X19657D01*
X24343Y15670D02*
X24497D01*
X19503D02*
X19657D01*
X24343Y15680D02*
X24497D01*
X19503D02*
X19657D01*
X24343Y15690D02*
X24497D01*
X19503D02*
X19657D01*
X24343Y15700D02*
X24497D01*
X19503D02*
X19657D01*
X24343Y15710D02*
X24497D01*
X19503D02*
X19657D01*
X24343Y15720D02*
X24497D01*
X19503D02*
X19657D01*
X24343Y15730D02*
X24497D01*
X19503D02*
X19657D01*
X24343Y15740D02*
X24497D01*
X19503D02*
X19657D01*
X24343Y15750D02*
X24497D01*
X19503D02*
X19657D01*
X24343Y15760D02*
X24497D01*
X19503D02*
X19657D01*
X24343Y15770D02*
X24497D01*
X19503D02*
X19657D01*
X24343Y15780D02*
X24497D01*
X19503D02*
X19657D01*
X24343Y15790D02*
X24497D01*
X19503D02*
X19657D01*
X24343Y15800D02*
X24497D01*
X19503D02*
X19657D01*
X24343Y15810D02*
X24497D01*
X19503D02*
X19657D01*
X19503Y15820D02*
X24497D01*
X19503Y15830D02*
X24497D01*
X19503Y15840D02*
X24497D01*
X19503Y15850D02*
X24497D01*
X19503Y15860D02*
X24497D01*
X19503Y15870D02*
X24497D01*
X19503Y15880D02*
X24497D01*
X19503Y15890D02*
X24497D01*
X19503Y15900D02*
X24497D01*
X19503Y15910D02*
X24497D01*
X19503Y15920D02*
X24497D01*
X19503Y15930D02*
X24497D01*
X19503Y15940D02*
X24497D01*
X19503Y15950D02*
X24497D01*
X19503Y15960D02*
X24497D01*
X19503Y15970D02*
X24497D01*
X7710Y7779D02*
X7740Y7665D01*
X29260Y29335D02*
X29290Y29221D01*
X7621Y29310D02*
X7735Y29340D01*
X29265Y7660D02*
X29379Y7690D01*
X18707Y8781D02*
X18711D01*
X17289Y9915D02*
X17644Y9915D01*
X18195Y9915D02*
X18333Y9915D01*
X17671Y9915D02*
X18329D01*
X18333Y10029D02*
Y10029D01*
X17671Y10025D02*
Y10029D01*
D14*
X16100Y10200D02*
X16500D01*
X15300Y10000D02*
Y10400D01*
X15100Y10200D02*
X15500D01*
X19749Y27408D02*
X19761D01*
X19940Y27000D02*
Y27800D01*
X17040D02*
X19940D01*
X17040Y27000D02*
Y27800D01*
Y27000D02*
X19940D01*
X3876Y32424D02*
X4300Y32000D01*
X3876Y32424D02*
X4462Y32162D01*
X4199Y32747D02*
X4462Y32162D01*
X4199Y32747D02*
X4623Y32323D01*
X4401Y32788D02*
X4421Y32848D01*
X4421Y32970D01*
X4845Y32545D01*
X32524Y33124D02*
X32100Y32700D01*
X32524Y33124D02*
X32262Y32538D01*
X32847Y32801D02*
X32262Y32538D01*
X32847Y32801D02*
X32423Y32377D01*
X32888Y32559D02*
X32908Y32579D01*
X32969Y32599D01*
X33009D01*
X33070Y32579D01*
X33150Y32498D01*
X33171Y32437D01*
X33171Y32397D01*
X33150Y32336D01*
X33110Y32296D01*
X33049Y32276D01*
X32948Y32256D01*
X32544D01*
X32827Y31973D01*
X4576Y3776D02*
X5000Y4200D01*
X4576Y3776D02*
X4838Y4362D01*
X4253Y4099D02*
X4838Y4362D01*
X4253Y4099D02*
X4677Y4523D01*
X4091Y4261D02*
X3869Y4483D01*
X4152Y4523D01*
X4091Y4584D01*
X4071Y4644D01*
X4071Y4685D01*
X4111Y4766D01*
X4152Y4806D01*
X4232Y4846D01*
X4313D01*
X4394Y4806D01*
X4455Y4745D01*
X4495Y4665D01*
Y4624D01*
X4475Y4564D01*
X33224Y4576D02*
X32800Y5000D01*
X33224Y4576D02*
X32638Y4838D01*
X32901Y4253D02*
X32638Y4838D01*
X32901Y4253D02*
X32477Y4677D01*
X32578Y3929D02*
X32497Y4414D01*
X32194Y4111D01*
X32578Y3929D02*
X32154Y4354D01*
D15*
X7588Y7925D02*
X7643Y7980D01*
X7922Y7591D02*
X7977Y7646D01*
X7643Y7980D02*
X7977Y7646D01*
X7623Y7693D02*
X7710Y7779D01*
X7623Y7693D02*
X7740Y7665D01*
X7710Y7779D02*
X7740Y7665D01*
X7696Y7621D02*
X7782Y7707D01*
X7740Y7665D02*
X7768Y7637D01*
X7635Y7771D02*
X7668Y7738D01*
X7420Y7754D02*
X7754Y7420D01*
X7420Y7754D02*
X7475Y7809D01*
X7754Y7420D02*
X7809Y7475D01*
X29191Y29525D02*
X29246Y29580D01*
X29525Y29191D02*
X29580Y29246D01*
X29246Y29580D02*
X29580Y29246D01*
X29332Y29262D02*
X29365Y29229D01*
X29232Y29363D02*
X29260Y29335D01*
X29218Y29293D02*
X29304Y29379D01*
X29260Y29335D02*
X29290Y29221D01*
X29260Y29335D02*
X29377Y29307D01*
X29290Y29221D02*
X29377Y29307D01*
X29023Y29354D02*
X29357Y29020D01*
X29023Y29354D02*
X29078Y29409D01*
X29357Y29020D02*
X29412Y29075D01*
X7420Y29243D02*
X7475Y29188D01*
X7754Y29577D02*
X7809Y29522D01*
X7420Y29243D02*
X7754Y29577D01*
X7621Y29310D02*
X7707Y29223D01*
X7735Y29340D01*
X7621Y29310D02*
X7735Y29340D01*
X7693Y29382D02*
X7779Y29296D01*
X7735Y29340D02*
X7763Y29368D01*
X7629Y29235D02*
X7662Y29268D01*
X7646Y29020D02*
X7980Y29354D01*
X7591Y29075D02*
X7646Y29020D01*
X7925Y29409D02*
X7980Y29354D01*
X29020Y7646D02*
X29075Y7591D01*
X29354Y7980D02*
X29409Y7925D01*
X29020Y7646D02*
X29354Y7980D01*
X29338Y7732D02*
X29371Y7765D01*
X29237Y7632D02*
X29265Y7660D01*
X29221Y7704D02*
X29307Y7618D01*
X29265Y7660D02*
X29379Y7690D01*
X29265Y7660D02*
X29293Y7777D01*
X29379Y7690D01*
X29246Y7423D02*
X29580Y7757D01*
X29191Y7478D02*
X29246Y7423D01*
X29525Y7812D02*
X29580Y7757D01*
D16*
X18707Y9750D02*
X18707Y9915D01*
X18711Y8781D02*
X18711Y8950D01*
X17289Y8948D02*
X17289Y8781D01*
X17289Y9748D02*
Y9915D01*
X17289Y8781D02*
X18707D01*
X17289Y9915D02*
X18707Y9915D01*
X17754Y10139D02*
X18242D01*
X18333Y9915D02*
Y10029D01*
X17671Y9915D02*
X17671Y10029D01*
X17671Y10029D02*
X17754Y10139D01*
X18242D02*
X18333Y10029D01*
X17350Y14050D02*
X17150Y13850D01*
X17250Y13950D01*
X17350Y13850D01*
X17150Y14050D01*
X17623Y15443D02*
Y15243D01*
X17423Y15443D01*
Y15243D01*
X18548Y14663D02*
X18848D01*
X18748Y14563D01*
X18848Y14463D01*
X18548D01*
X18748Y14313D02*
Y14213D01*
X18698Y14163D01*
X18548D01*
Y14313D01*
X18598Y14363D01*
X18648Y14313D01*
Y14163D01*
X18448Y13963D02*
Y13913D01*
X18498Y13863D01*
X18748D01*
Y14013D01*
X18698Y14063D01*
X18598D01*
X18548Y14013D01*
Y13863D01*
X18787Y15424D02*
X18637D01*
X18587Y15374D01*
Y15224D01*
X18537D01*
X18487Y15274D01*
Y15324D01*
X18587Y15224D02*
X18787D01*
X17392Y18975D02*
X17242D01*
X17192Y18925D01*
Y18775D01*
X17142D01*
X17092Y18825D01*
Y18875D01*
X17192Y18775D02*
X17392D01*
X18808D02*
X18858Y18825D01*
Y18925D01*
X18808Y18975D01*
X18608D01*
X18558Y18925D01*
Y18825D01*
X18608Y18775D01*
X18708D01*
Y18875D01*
X18858Y18675D02*
X18808D01*
X18708Y18575D01*
X18808Y18475D01*
X18858D01*
X18708Y18575D02*
X18558D01*
Y18375D02*
X18858D01*
Y18225D01*
X18808Y18175D01*
X18708D01*
X18658Y18225D01*
Y18375D01*
Y18275D02*
X18558Y18175D01*
X18058Y18987D02*
X18258D01*
X18358Y18887D01*
X18258Y18787D01*
X18058D01*
X18208D01*
Y18987D01*
X18308Y18487D02*
X18358Y18537D01*
Y18637D01*
X18308Y18687D01*
X18108D01*
X18058Y18637D01*
Y18537D01*
X18108Y18487D01*
X18308Y18187D02*
X18358Y18237D01*
Y18337D01*
X18308Y18387D01*
X18108D01*
X18058Y18337D01*
Y18237D01*
X18108Y18187D01*
X18774Y17561D02*
X18574Y17361D01*
X18674Y17461D01*
X18774Y17361D01*
X18574Y17561D01*
X17644Y17581D02*
Y17381D01*
X17444Y17581D01*
Y17381D01*
X19567Y13900D02*
Y13550D01*
X19450Y13900D02*
X19683D01*
X19725Y13683D02*
X19925D01*
Y13717D01*
X19908Y13750D01*
X19892Y13767D01*
X19858Y13783D01*
X19808D01*
X19775Y13767D01*
X19742Y13733D01*
X19725Y13683D01*
Y13650D01*
X19742Y13600D01*
X19775Y13567D01*
X19808Y13550D01*
X19858D01*
X19892Y13567D01*
X19925Y13600D01*
X20200Y13783D02*
Y13550D01*
Y13733D02*
X20167Y13767D01*
X20133Y13783D01*
X20083D01*
X20050Y13767D01*
X20017Y13733D01*
X20000Y13683D01*
Y13650D01*
X20017Y13600D01*
X20050Y13567D01*
X20083Y13550D01*
X20133D01*
X20167Y13567D01*
X20200Y13600D01*
X20293Y13783D02*
Y13550D01*
Y13717D02*
X20343Y13767D01*
X20376Y13783D01*
X20426D01*
X20460Y13767D01*
X20476Y13717D01*
Y13550D01*
Y13717D02*
X20526Y13767D01*
X20560Y13783D01*
X20610D01*
X20643Y13767D01*
X20660Y13717D01*
Y13550D01*
X21045Y13900D02*
Y13550D01*
Y13900D02*
X21178Y13550D01*
X21311Y13900D02*
X21178Y13550D01*
X21311Y13900D02*
Y13550D01*
X21445Y13900D02*
X21461Y13883D01*
X21478Y13900D01*
X21461Y13917D01*
X21445Y13900D01*
X21461Y13783D02*
Y13550D01*
X21740Y13733D02*
X21706Y13767D01*
X21673Y13783D01*
X21623D01*
X21590Y13767D01*
X21556Y13733D01*
X21540Y13683D01*
Y13650D01*
X21556Y13600D01*
X21590Y13567D01*
X21623Y13550D01*
X21673D01*
X21706Y13567D01*
X21740Y13600D01*
X21814Y13783D02*
Y13550D01*
Y13683D02*
X21831Y13733D01*
X21864Y13767D01*
X21898Y13783D01*
X21948D01*
X22063D02*
X22029Y13767D01*
X21996Y13733D01*
X21979Y13683D01*
Y13650D01*
X21996Y13600D01*
X22029Y13567D01*
X22063Y13550D01*
X22113D01*
X22146Y13567D01*
X22179Y13600D01*
X22196Y13650D01*
Y13683D01*
X22179Y13733D01*
X22146Y13767D01*
X22113Y13783D01*
X22063D01*
X22273Y13900D02*
Y13550D01*
Y13900D02*
X22389D01*
X22439Y13883D01*
X22473Y13850D01*
X22489Y13817D01*
X22506Y13767D01*
Y13683D01*
X22489Y13633D01*
X22473Y13600D01*
X22439Y13567D01*
X22389Y13550D01*
X22273D01*
X22601Y13783D02*
X22701Y13550D01*
X22801Y13783D02*
X22701Y13550D01*
X22668Y13483D01*
X22634Y13450D01*
X22601Y13433D01*
X22584D01*
X22859Y13783D02*
Y13550D01*
Y13717D02*
X22909Y13767D01*
X22943Y13783D01*
X22993D01*
X23026Y13767D01*
X23043Y13717D01*
Y13550D01*
X23334Y13783D02*
Y13550D01*
Y13733D02*
X23301Y13767D01*
X23268Y13783D01*
X23218D01*
X23184Y13767D01*
X23151Y13733D01*
X23134Y13683D01*
Y13650D01*
X23151Y13600D01*
X23184Y13567D01*
X23218Y13550D01*
X23268D01*
X23301Y13567D01*
X23334Y13600D01*
X23427Y13783D02*
Y13550D01*
Y13717D02*
X23477Y13767D01*
X23511Y13783D01*
X23561D01*
X23594Y13767D01*
X23611Y13717D01*
Y13550D01*
Y13717D02*
X23661Y13767D01*
X23694Y13783D01*
X23744D01*
X23777Y13767D01*
X23794Y13717D01*
Y13550D01*
X23937Y13900D02*
X23954Y13883D01*
X23971Y13900D01*
X23954Y13917D01*
X23937Y13900D01*
X23954Y13783D02*
Y13550D01*
X24232Y13733D02*
X24199Y13767D01*
X24166Y13783D01*
X24116D01*
X24082Y13767D01*
X24049Y13733D01*
X24032Y13683D01*
Y13650D01*
X24049Y13600D01*
X24082Y13567D01*
X24116Y13550D01*
X24166D01*
X24199Y13567D01*
X24232Y13600D01*
X24491Y13733D02*
X24474Y13767D01*
X24424Y13783D01*
X24374D01*
X24324Y13767D01*
X24307Y13733D01*
X24324Y13700D01*
X24357Y13683D01*
X24441Y13667D01*
X24474Y13650D01*
X24491Y13617D01*
Y13600D01*
X24474Y13567D01*
X24424Y13550D01*
X24374D01*
X24324Y13567D01*
X24307Y13600D01*
X22150Y19757D02*
X22121Y19786D01*
X22079Y19800D01*
X22021D01*
X21979Y19786D01*
X21950Y19757D01*
Y19729D01*
X21964Y19700D01*
X21979Y19686D01*
X22007Y19671D01*
X22093Y19643D01*
X22121Y19629D01*
X22136Y19614D01*
X22150Y19586D01*
Y19543D01*
X22121Y19514D01*
X22079Y19500D01*
X22021D01*
X21979Y19514D01*
X21950Y19543D01*
X22217Y19800D02*
X22288Y19500D01*
X22360Y19800D02*
X22288Y19500D01*
X22360Y19800D02*
X22431Y19500D01*
X22503Y19800D02*
X22431Y19500D01*
X22563Y19800D02*
Y19500D01*
Y19800D02*
X22663D01*
X22706Y19786D01*
X22734Y19757D01*
X22748Y19729D01*
X22763Y19686D01*
Y19614D01*
X22748Y19571D01*
X22734Y19543D01*
X22706Y19514D01*
X22663Y19500D01*
X22563D01*
X22830Y19800D02*
Y19500D01*
X22978Y19800D02*
X22950Y19786D01*
X22921Y19757D01*
X22907Y19729D01*
X22893Y19686D01*
Y19614D01*
X22907Y19571D01*
X22921Y19543D01*
X22950Y19514D01*
X22978Y19500D01*
X23035D01*
X23064Y19514D01*
X23093Y19543D01*
X23107Y19571D01*
X23121Y19614D01*
Y19686D01*
X23107Y19729D01*
X23093Y19757D01*
X23064Y19786D01*
X23035Y19800D01*
X22978D01*
X23627Y19757D02*
X23598Y19786D01*
X23555Y19800D01*
X23498D01*
X23455Y19786D01*
X23427Y19757D01*
Y19729D01*
X23441Y19700D01*
X23455Y19686D01*
X23484Y19671D01*
X23570Y19643D01*
X23598Y19629D01*
X23612Y19614D01*
X23627Y19586D01*
Y19543D01*
X23598Y19514D01*
X23555Y19500D01*
X23498D01*
X23455Y19514D01*
X23427Y19543D01*
X23694Y19800D02*
X23765Y19500D01*
X23837Y19800D02*
X23765Y19500D01*
X23837Y19800D02*
X23908Y19500D01*
X23980Y19800D02*
X23908Y19500D01*
X24254Y19729D02*
X24240Y19757D01*
X24211Y19786D01*
X24182Y19800D01*
X24125D01*
X24097Y19786D01*
X24068Y19757D01*
X24054Y19729D01*
X24040Y19686D01*
Y19614D01*
X24054Y19571D01*
X24068Y19543D01*
X24097Y19514D01*
X24125Y19500D01*
X24182D01*
X24211Y19514D01*
X24240Y19543D01*
X24254Y19571D01*
X24338Y19800D02*
Y19500D01*
X24509D01*
X24542Y19800D02*
Y19500D01*
X24742Y19800D02*
X24542Y19600D01*
X24614Y19671D02*
X24742Y19500D01*
X21000Y19000D02*
Y18700D01*
Y19000D02*
X21200Y18700D01*
Y19000D02*
Y18700D01*
X21283Y19000D02*
Y18700D01*
Y19000D02*
X21411D01*
X21454Y18986D01*
X21468Y18971D01*
X21483Y18943D01*
Y18914D01*
X21468Y18886D01*
X21454Y18871D01*
X21411Y18857D01*
X21283D01*
X21383D02*
X21483Y18700D01*
X21550Y19000D02*
Y18700D01*
Y19000D02*
X21736D01*
X21550Y18857D02*
X21664D01*
X21100Y17057D02*
X21071Y17086D01*
X21029Y17100D01*
X20971D01*
X20929Y17086D01*
X20900Y17057D01*
Y17029D01*
X20914Y17000D01*
X20929Y16986D01*
X20957Y16971D01*
X21043Y16943D01*
X21071Y16929D01*
X21086Y16914D01*
X21100Y16886D01*
Y16843D01*
X21071Y16814D01*
X21029Y16800D01*
X20971D01*
X20929Y16814D01*
X20900Y16843D01*
X21267Y17100D02*
Y16800D01*
X21167Y17100D02*
X21367D01*
X21403D02*
Y16800D01*
Y17100D02*
X21517Y16800D01*
X21631Y17100D02*
X21517Y16800D01*
X21631Y17100D02*
Y16800D01*
X18000Y10500D02*
X17950Y10550D01*
X17850D01*
X17800Y10500D01*
Y10450D01*
X17850Y10400D01*
X17950D01*
X18000Y10350D01*
Y10300D01*
X17950Y10250D01*
X17850D01*
X17800Y10300D01*
X18100Y10250D02*
X18200D01*
X18150D01*
Y10550D01*
X18100Y10500D01*
X25650Y23600D02*
Y23900D01*
X25800D01*
X25850Y23850D01*
Y23750D01*
X25800Y23700D01*
X25650D01*
X25950Y23850D02*
X26000Y23900D01*
X26100D01*
X26150Y23850D01*
Y23800D01*
X26100Y23750D01*
X26150Y23700D01*
Y23650D01*
X26100Y23600D01*
X26000D01*
X25950Y23650D01*
Y23700D01*
X26000Y23750D01*
X25950Y23800D01*
Y23850D01*
X26000Y23750D02*
X26100D01*
X27150Y11800D02*
Y12100D01*
X27300D01*
X27350Y12050D01*
Y11950D01*
X27300Y11900D01*
X27150D01*
X27250D02*
X27350Y11800D01*
X27600D02*
Y12100D01*
X27450Y11950D01*
X27650D01*
X29862Y7488D02*
X29650Y7700D01*
X29544Y7594D01*
X29544Y7523D01*
X29685Y7382D01*
X29756Y7382D01*
X29862Y7488D01*
X29332Y7382D02*
X29544Y7170D01*
X29544Y7382D01*
X29403Y7241D01*
X18250Y27250D02*
Y27450D01*
X18350Y27550D01*
X18450Y27450D01*
Y27250D01*
Y27400D01*
X18250D01*
X18550Y27250D02*
X18650D01*
X18600D01*
Y27550D01*
X18550Y27500D01*
X14300Y9800D02*
Y9500D01*
X14450D01*
X14500Y9550D01*
Y9600D01*
X14450Y9650D01*
X14300D01*
X14450D01*
X14500Y9700D01*
Y9750D01*
X14450Y9800D01*
X14300D01*
X14600Y9500D02*
X14700D01*
X14650D01*
Y9800D01*
X14600Y9750D01*
X14050Y22250D02*
X14000Y22300D01*
X13900D01*
X13850Y22250D01*
Y22050D01*
X13900Y22000D01*
X14000D01*
X14050Y22050D01*
X14150Y22000D02*
X14250D01*
X14200D01*
Y22300D01*
X14150Y22250D01*
X15000Y15850D02*
X14950Y15900D01*
X14850D01*
X14800Y15850D01*
Y15650D01*
X14850Y15600D01*
X14950D01*
X15000Y15650D01*
X15300Y15600D02*
X15100D01*
X15300Y15800D01*
Y15850D01*
X15250Y15900D01*
X15150D01*
X15100Y15850D01*
X14900Y20900D02*
X14850Y20850D01*
Y20750D01*
X14900Y20700D01*
X15100D01*
X15150Y20750D01*
Y20850D01*
X15100Y20900D01*
X14900Y21000D02*
X14850Y21050D01*
Y21150D01*
X14900Y21200D01*
X14950D01*
X15000Y21150D01*
Y21100D01*
Y21150D01*
X15050Y21200D01*
X15100D01*
X15150Y21150D01*
Y21050D01*
X15100Y21000D01*
X14900Y16950D02*
X14850Y16900D01*
Y16800D01*
X14900Y16750D01*
X15100D01*
X15150Y16800D01*
Y16900D01*
X15100Y16950D01*
X15150Y17200D02*
X14850D01*
X15000Y17050D01*
Y17250D01*
X14700Y18000D02*
X14650Y18050D01*
X14550D01*
X14500Y18000D01*
Y17800D01*
X14550Y17750D01*
X14650D01*
X14700Y17800D01*
X15000Y18050D02*
X14800D01*
Y17900D01*
X14900Y17950D01*
X14950D01*
X15000Y17900D01*
Y17800D01*
X14950Y17750D01*
X14850D01*
X14800Y17800D01*
X13300Y17600D02*
X13250Y17550D01*
Y17450D01*
X13300Y17400D01*
X13500D01*
X13550Y17450D01*
Y17550D01*
X13500Y17600D01*
X13250Y17900D02*
X13300Y17800D01*
X13400Y17700D01*
X13500D01*
X13550Y17750D01*
Y17850D01*
X13500Y17900D01*
X13450D01*
X13400Y17850D01*
Y17700D01*
X14700Y18900D02*
X14650Y18950D01*
X14550D01*
X14500Y18900D01*
Y18700D01*
X14550Y18650D01*
X14650D01*
X14700Y18700D01*
X14800Y18950D02*
X15000D01*
Y18900D01*
X14800Y18700D01*
Y18650D01*
X14200Y25650D02*
X14150Y25700D01*
X14050D01*
X14000Y25650D01*
Y25450D01*
X14050Y25400D01*
X14150D01*
X14200Y25450D01*
X14300Y25650D02*
X14350Y25700D01*
X14450D01*
X14500Y25650D01*
Y25600D01*
X14450Y25550D01*
X14500Y25500D01*
Y25450D01*
X14450Y25400D01*
X14350D01*
X14300Y25450D01*
Y25500D01*
X14350Y25550D01*
X14300Y25600D01*
Y25650D01*
X14350Y25550D02*
X14450D01*
X15537Y25424D02*
X15488Y25374D01*
Y25274D01*
X15537Y25224D01*
X15737D01*
X15787Y25274D01*
Y25374D01*
X15737Y25424D01*
Y25524D02*
X15787Y25574D01*
Y25674D01*
X15737Y25724D01*
X15537D01*
X15488Y25674D01*
Y25574D01*
X15537Y25524D01*
X15587D01*
X15637Y25574D01*
Y25724D01*
X15550Y23600D02*
X15500Y23550D01*
Y23450D01*
X15550Y23400D01*
X15750D01*
X15800Y23450D01*
Y23550D01*
X15750Y23600D01*
X15800Y23700D02*
Y23800D01*
Y23750D01*
X15500D01*
X15550Y23700D01*
Y23950D02*
X15500Y24000D01*
Y24100D01*
X15550Y24150D01*
X15750D01*
X15800Y24100D01*
Y24000D01*
X15750Y23950D01*
X15550D01*
X17300Y22450D02*
X17250Y22500D01*
X17150D01*
X17100Y22450D01*
Y22250D01*
X17150Y22200D01*
X17250D01*
X17300Y22250D01*
X17400Y22200D02*
X17500D01*
X17450D01*
Y22500D01*
X17400Y22450D01*
X17650Y22200D02*
X17750D01*
X17700D01*
Y22500D01*
X17650Y22450D01*
X18500Y25350D02*
X18450Y25300D01*
Y25200D01*
X18500Y25150D01*
X18700D01*
X18750Y25200D01*
Y25300D01*
X18700Y25350D01*
X18750Y25450D02*
Y25550D01*
Y25500D01*
X18450D01*
X18500Y25450D01*
X18750Y25900D02*
Y25700D01*
X18550Y25900D01*
X18500D01*
X18450Y25850D01*
Y25750D01*
X18500Y25700D01*
X18950Y20500D02*
X18900Y20550D01*
X18800D01*
X18750Y20500D01*
Y20300D01*
X18800Y20250D01*
X18900D01*
X18950Y20300D01*
X19050Y20250D02*
X19150D01*
X19100D01*
Y20550D01*
X19050Y20500D01*
X19300D02*
X19350Y20550D01*
X19450D01*
X19500Y20500D01*
Y20450D01*
X19450Y20400D01*
X19400D01*
X19450D01*
X19500Y20350D01*
Y20300D01*
X19450Y20250D01*
X19350D01*
X19300Y20300D01*
X19100Y25350D02*
X19050Y25300D01*
Y25200D01*
X19100Y25150D01*
X19300D01*
X19350Y25200D01*
Y25300D01*
X19300Y25350D01*
X19350Y25450D02*
Y25550D01*
Y25500D01*
X19050D01*
X19100Y25450D01*
X19350Y25850D02*
X19050D01*
X19200Y25700D01*
Y25900D01*
X18700Y26750D02*
X18650Y26800D01*
X18550D01*
X18500Y26750D01*
Y26550D01*
X18550Y26500D01*
X18650D01*
X18700Y26550D01*
X18800Y26500D02*
X18900D01*
X18850D01*
Y26800D01*
X18800Y26750D01*
X19250Y26800D02*
X19050D01*
Y26650D01*
X19150Y26700D01*
X19200D01*
X19250Y26650D01*
Y26550D01*
X19200Y26500D01*
X19100D01*
X19050Y26550D01*
X20800Y26750D02*
X20750Y26800D01*
X20650D01*
X20600Y26750D01*
Y26550D01*
X20650Y26500D01*
X20750D01*
X20800Y26550D01*
X20900Y26500D02*
X21000D01*
X20950D01*
Y26800D01*
X20900Y26750D01*
X21350Y26800D02*
X21250Y26750D01*
X21150Y26650D01*
Y26550D01*
X21200Y26500D01*
X21300D01*
X21350Y26550D01*
Y26600D01*
X21300Y26650D01*
X21150D01*
X21750Y21074D02*
X21700Y21024D01*
Y20924D01*
X21750Y20874D01*
X21950D01*
X22000Y20924D01*
Y21024D01*
X21950Y21074D01*
X22000Y21174D02*
Y21274D01*
Y21224D01*
X21700D01*
X21750Y21174D01*
X21700Y21424D02*
Y21624D01*
X21750D01*
X21950Y21424D01*
X22000D01*
X20800Y24850D02*
X20750Y24900D01*
X20650D01*
X20600Y24850D01*
Y24650D01*
X20650Y24600D01*
X20750D01*
X20800Y24650D01*
X20900Y24600D02*
X21000D01*
X20950D01*
Y24900D01*
X20900Y24850D01*
X21150D02*
X21200Y24900D01*
X21300D01*
X21350Y24850D01*
Y24800D01*
X21300Y24750D01*
X21350Y24700D01*
Y24650D01*
X21300Y24600D01*
X21200D01*
X21150Y24650D01*
Y24700D01*
X21200Y24750D01*
X21150Y24800D01*
Y24850D01*
X21200Y24750D02*
X21300D01*
X20800Y25838D02*
X20750Y25888D01*
X20650D01*
X20600Y25838D01*
Y25638D01*
X20650Y25588D01*
X20750D01*
X20800Y25638D01*
X20900Y25588D02*
X21000D01*
X20950D01*
Y25888D01*
X20900Y25838D01*
X21150Y25638D02*
X21200Y25588D01*
X21300D01*
X21350Y25638D01*
Y25838D01*
X21300Y25888D01*
X21200D01*
X21150Y25838D01*
Y25788D01*
X21200Y25738D01*
X21350D01*
X12700Y13200D02*
X12650Y13150D01*
Y13050D01*
X12700Y13000D01*
X12900D01*
X12950Y13050D01*
Y13150D01*
X12900Y13200D01*
X12950Y13500D02*
Y13300D01*
X12750Y13500D01*
X12700D01*
X12650Y13450D01*
Y13350D01*
X12700Y13300D01*
X12950Y13800D02*
Y13600D01*
X12750Y13800D01*
X12700D01*
X12650Y13750D01*
Y13650D01*
X12700Y13600D01*
X14000Y13200D02*
X13950Y13150D01*
Y13050D01*
X14000Y13000D01*
X14200D01*
X14250Y13050D01*
Y13150D01*
X14200Y13200D01*
X14250Y13500D02*
Y13300D01*
X14050Y13500D01*
X14000D01*
X13950Y13450D01*
Y13350D01*
X14000Y13300D01*
Y13600D02*
X13950Y13650D01*
Y13750D01*
X14000Y13800D01*
X14050D01*
X14100Y13750D01*
Y13700D01*
Y13750D01*
X14150Y13800D01*
X14200D01*
X14250Y13750D01*
Y13650D01*
X14200Y13600D01*
X17450Y10950D02*
X17400Y10900D01*
Y10800D01*
X17450Y10750D01*
X17650D01*
X17700Y10800D01*
Y10900D01*
X17650Y10950D01*
X17700Y11200D02*
X17400D01*
X17550Y11050D01*
Y11250D01*
X17700Y11350D02*
Y11450D01*
Y11400D01*
X17400D01*
X17450Y11350D01*
X7188Y29612D02*
X7400Y29400D01*
X7506Y29506D01*
X7506Y29577D01*
X7365Y29718D01*
X7294Y29718D01*
X7188Y29612D01*
X7612D02*
X7683Y29683D01*
X7647Y29647D01*
X7435Y29859D01*
Y29789D01*
X29512Y29912D02*
X29300Y29700D01*
X29406Y29594D01*
X29477Y29594D01*
X29618Y29735D01*
X29618Y29806D01*
X29512Y29912D01*
X29653Y29347D02*
X29512Y29488D01*
X29795D01*
X29830Y29523D01*
X29830Y29594D01*
X29759Y29665D01*
X29689D01*
X7488Y7088D02*
X7700Y7300D01*
X7594Y7406D01*
X7523Y7406D01*
X7382Y7265D01*
X7382Y7194D01*
X7488Y7088D01*
X7311Y7335D02*
X7241D01*
X7170Y7406D01*
X7170Y7477D01*
X7205Y7512D01*
X7276D01*
X7311Y7477D01*
X7276Y7512D01*
X7276Y7583D01*
X7311Y7618D01*
X7382Y7618D01*
X7453Y7547D01*
Y7477D01*
X21850Y25900D02*
Y25600D01*
X22000D01*
X22050Y25650D01*
Y25850D01*
X22000Y25900D01*
X21850D01*
X22350D02*
X22150D01*
Y25750D01*
X22250Y25800D01*
X22300D01*
X22350Y25750D01*
Y25650D01*
X22300Y25600D01*
X22200D01*
X22150Y25650D01*
X22950Y25900D02*
Y25600D01*
X23100D01*
X23150Y25650D01*
Y25850D01*
X23100Y25900D01*
X22950D01*
X23450D02*
X23350Y25850D01*
X23250Y25750D01*
Y25650D01*
X23300Y25600D01*
X23400D01*
X23450Y25650D01*
Y25700D01*
X23400Y25750D01*
X23250D01*
X11800Y10650D02*
Y10350D01*
X11950D01*
X12000Y10400D01*
Y10600D01*
X11950Y10650D01*
X11800D01*
X12100D02*
X12300D01*
Y10600D01*
X12100Y10400D01*
Y10350D01*
X24650Y10600D02*
Y10300D01*
X24800D01*
X24850Y10350D01*
Y10550D01*
X24800Y10600D01*
X24650D01*
X24950Y10550D02*
X25000Y10600D01*
X25100D01*
X25150Y10550D01*
Y10500D01*
X25100Y10450D01*
X25150Y10400D01*
Y10350D01*
X25100Y10300D01*
X25000D01*
X24950Y10350D01*
Y10400D01*
X25000Y10450D01*
X24950Y10500D01*
Y10550D01*
X25000Y10450D02*
X25100D01*
X5988Y30612D02*
X6200Y30400D01*
X6306Y30506D01*
X6306Y30577D01*
X6165Y30718D01*
X6094Y30718D01*
X5988Y30612D01*
X6377Y30647D02*
X6447D01*
X6518Y30718D01*
X6518Y30789D01*
X6377Y30930D01*
X6306Y30930D01*
X6235Y30859D01*
Y30789D01*
X6271Y30753D01*
X6341Y30753D01*
X6447Y30859D01*
X30512Y31012D02*
X30300Y30800D01*
X30406Y30694D01*
X30477Y30694D01*
X30618Y30835D01*
X30618Y30906D01*
X30512Y31012D01*
Y30588D02*
X30583Y30517D01*
X30547Y30553D01*
X30759Y30765D01*
X30689D01*
X30865Y30588D02*
X30936D01*
X31007Y30517D01*
Y30447D01*
X30865Y30305D01*
X30795Y30305D01*
X30724Y30376D01*
Y30447D01*
X30865Y30588D01*
X6488Y6038D02*
X6700Y6250D01*
X6594Y6356D01*
X6523Y6356D01*
X6382Y6215D01*
X6382Y6144D01*
X6488Y6038D01*
Y6462D02*
X6417Y6533D01*
X6453Y6497D01*
X6241Y6285D01*
X6311D01*
Y6639D02*
X6241Y6709D01*
X6276Y6674D01*
X6064Y6462D01*
X6134D01*
X31012Y6488D02*
X30800Y6700D01*
X30694Y6594D01*
X30694Y6523D01*
X30835Y6382D01*
X30906Y6382D01*
X31012Y6488D01*
X30588D02*
X30517Y6417D01*
X30553Y6453D01*
X30765Y6241D01*
Y6311D01*
X30270Y6170D02*
X30411Y6311D01*
Y6028D01*
X30447Y5993D01*
X30517D01*
X30588Y6064D01*
Y6134D01*
X19800Y26700D02*
Y26400D01*
X20000D01*
X20100D02*
X20200D01*
X20150D01*
Y26700D01*
X20100Y26650D01*
X19750Y24750D02*
Y24450D01*
X19950D01*
X20250D02*
X20050D01*
X20250Y24650D01*
Y24700D01*
X20200Y24750D01*
X20100D01*
X20050Y24700D01*
X19750Y25800D02*
Y25500D01*
X19950D01*
X20050Y25750D02*
X20100Y25800D01*
X20200D01*
X20250Y25750D01*
Y25700D01*
X20200Y25650D01*
X20150D01*
X20200D01*
X20250Y25600D01*
Y25550D01*
X20200Y25500D01*
X20100D01*
X20050Y25550D01*
X23050Y11800D02*
Y12100D01*
X23200D01*
X23250Y12050D01*
Y11950D01*
X23200Y11900D01*
X23050D01*
X23550Y12100D02*
X23450Y12050D01*
X23350Y11950D01*
Y11850D01*
X23400Y11800D01*
X23500D01*
X23550Y11850D01*
Y11900D01*
X23500Y11950D01*
X23350D01*
X10900Y23600D02*
Y23900D01*
X11050D01*
X11100Y23850D01*
Y23750D01*
X11050Y23700D01*
X10900D01*
X11200Y23900D02*
X11400D01*
Y23850D01*
X11200Y23650D01*
Y23600D01*
X28227Y28344D02*
X28368Y28485D01*
X28368Y28556D01*
X28297Y28627D01*
X28227D01*
X28085Y28485D01*
Y28415D01*
X28156Y28344D01*
X28191Y28450D02*
X28191Y28309D01*
X28156Y28344D02*
X28227Y28344D01*
X28403Y28097D02*
X28262Y28238D01*
X28545D01*
X28580Y28273D01*
X28580Y28344D01*
X28509Y28415D01*
X28439D01*
X8773Y8706D02*
X8632Y8565D01*
X8632Y8494D01*
X8703Y8423D01*
X8773D01*
X8915Y8565D01*
Y8635D01*
X8844Y8706D01*
X8809Y8600D02*
X8809Y8741D01*
X8844Y8706D02*
X8773Y8706D01*
X8561Y8635D02*
X8491D01*
X8420Y8706D01*
X8420Y8777D01*
X8455Y8812D01*
X8526D01*
X8561Y8777D01*
X8526Y8812D01*
X8526Y8883D01*
X8561Y8918D01*
X8632Y8918D01*
X8703Y8847D01*
Y8777D01*
X9400Y25800D02*
Y26100D01*
X9550D01*
X9600Y26050D01*
Y25950D01*
X9550Y25900D01*
X9400D01*
X9500D02*
X9600Y25800D01*
X9700D02*
X9800D01*
X9750D01*
Y26100D01*
X9700Y26050D01*
X27200Y25800D02*
Y26100D01*
X27350D01*
X27400Y26050D01*
Y25950D01*
X27350Y25900D01*
X27200D01*
X27300D02*
X27400Y25800D01*
X27700D02*
X27500D01*
X27700Y26000D01*
Y26050D01*
X27650Y26100D01*
X27550D01*
X27500Y26050D01*
X9350Y11800D02*
Y12100D01*
X9500D01*
X9550Y12050D01*
Y11950D01*
X9500Y11900D01*
X9350D01*
X9450D02*
X9550Y11800D01*
X9650Y12050D02*
X9700Y12100D01*
X9800D01*
X9850Y12050D01*
Y12000D01*
X9800Y11950D01*
X9750D01*
X9800D01*
X9850Y11900D01*
Y11850D01*
X9800Y11800D01*
X9700D01*
X9650Y11850D01*
X21850Y24600D02*
Y24900D01*
X22000D01*
X22050Y24850D01*
Y24750D01*
X22000Y24700D01*
X21850D01*
X21950D02*
X22050Y24600D01*
X22350Y24900D02*
X22150D01*
Y24750D01*
X22250Y24800D01*
X22300D01*
X22350Y24750D01*
Y24650D01*
X22300Y24600D01*
X22200D01*
X22150Y24650D01*
X22950Y24600D02*
Y24900D01*
X23100D01*
X23150Y24850D01*
Y24750D01*
X23100Y24700D01*
X22950D01*
X23050D02*
X23150Y24600D01*
X23450Y24900D02*
X23350Y24850D01*
X23250Y24750D01*
Y24650D01*
X23300Y24600D01*
X23400D01*
X23450Y24650D01*
Y24700D01*
X23400Y24750D01*
X23250D01*
X13500Y9850D02*
X13200D01*
Y10000D01*
X13250Y10050D01*
X13350D01*
X13400Y10000D01*
Y9850D01*
Y9950D02*
X13500Y10050D01*
Y10150D02*
Y10250D01*
Y10200D01*
X13200D01*
X13250Y10150D01*
Y10400D02*
X13200Y10450D01*
Y10550D01*
X13250Y10600D01*
X13300D01*
X13350Y10550D01*
Y10500D01*
Y10550D01*
X13400Y10600D01*
X13450D01*
X13500Y10550D01*
Y10450D01*
X13450Y10400D01*
X24900Y10900D02*
X24600D01*
Y11050D01*
X24650Y11100D01*
X24750D01*
X24800Y11050D01*
Y10900D01*
Y11000D02*
X24900Y11100D01*
Y11200D02*
Y11300D01*
Y11250D01*
X24600D01*
X24650Y11200D01*
X24900Y11600D02*
X24600D01*
X24750Y11450D01*
Y11650D01*
X10650Y12950D02*
Y13250D01*
X10800D01*
X10850Y13200D01*
Y13100D01*
X10800Y13050D01*
X10650D01*
X10750D02*
X10850Y12950D01*
X10950D02*
X11050D01*
X11000D01*
Y13250D01*
X10950Y13200D01*
X11200D02*
X11250Y13250D01*
X11350D01*
X11400Y13200D01*
Y13150D01*
X11350Y13100D01*
X11400Y13050D01*
Y13000D01*
X11350Y12950D01*
X11250D01*
X11200Y13000D01*
Y13050D01*
X11250Y13100D01*
X11200Y13150D01*
Y13200D01*
X11250Y13100D02*
X11350D01*
X10650Y12050D02*
Y12350D01*
X10800D01*
X10850Y12300D01*
Y12200D01*
X10800Y12150D01*
X10650D01*
X10750D02*
X10850Y12050D01*
X10950D02*
X11050D01*
X11000D01*
Y12350D01*
X10950Y12300D01*
X11200Y12100D02*
X11250Y12050D01*
X11350D01*
X11400Y12100D01*
Y12300D01*
X11350Y12350D01*
X11250D01*
X11200Y12300D01*
Y12250D01*
X11250Y12200D01*
X11400D01*
X10600Y11450D02*
Y11750D01*
X10750D01*
X10800Y11700D01*
Y11600D01*
X10750Y11550D01*
X10600D01*
X10700D02*
X10800Y11450D01*
X11100D02*
X10900D01*
X11100Y11650D01*
Y11700D01*
X11050Y11750D01*
X10950D01*
X10900Y11700D01*
X11200D02*
X11250Y11750D01*
X11350D01*
X11400Y11700D01*
Y11500D01*
X11350Y11450D01*
X11250D01*
X11200Y11500D01*
Y11700D01*
X15900Y11150D02*
Y11450D01*
X16050D01*
X16100Y11400D01*
Y11300D01*
X16050Y11250D01*
X15900D01*
X16000D02*
X16100Y11150D01*
X16400D02*
X16200D01*
X16400Y11350D01*
Y11400D01*
X16350Y11450D01*
X16250D01*
X16200Y11400D01*
X16650Y11150D02*
Y11450D01*
X16500Y11300D01*
X16700D01*
X13100Y14600D02*
Y14900D01*
X13250D01*
X13300Y14850D01*
Y14750D01*
X13250Y14700D01*
X13100D01*
X13200D02*
X13300Y14600D01*
X13600D02*
X13400D01*
X13600Y14800D01*
Y14850D01*
X13550Y14900D01*
X13450D01*
X13400Y14850D01*
X13900Y14900D02*
X13700D01*
Y14750D01*
X13800Y14800D01*
X13850D01*
X13900Y14750D01*
Y14650D01*
X13850Y14600D01*
X13750D01*
X13700Y14650D01*
X21950Y10300D02*
X21650D01*
Y10450D01*
X21700Y10500D01*
X21800D01*
X21850Y10450D01*
Y10300D01*
Y10400D02*
X21950Y10500D01*
Y10800D02*
Y10600D01*
X21750Y10800D01*
X21700D01*
X21650Y10750D01*
Y10650D01*
X21700Y10600D01*
X21650Y10900D02*
Y11100D01*
X21700D01*
X21900Y10900D01*
X21950D01*
X7800Y30300D02*
X8012Y30512D01*
X8118Y30406D01*
X8118Y30335D01*
X8047Y30265D01*
X7977Y30265D01*
X7871Y30371D01*
X7941Y30300D02*
X7941Y30159D01*
X8189Y30265D02*
X8259D01*
X8330Y30194D01*
X8330Y30123D01*
X8295Y30088D01*
X8224D01*
X8189Y30123D01*
X8224Y30088D01*
X8224Y30017D01*
X8189Y29982D01*
X8118Y29982D01*
X8047Y30053D01*
Y30123D01*
X8401Y30053D02*
X8472D01*
X8542Y29982D01*
Y29911D01*
X8401Y29770D01*
X8330Y29770D01*
X8259Y29841D01*
Y29911D01*
X8401Y30053D01*
X8050Y6400D02*
X7838Y6612D01*
X7944Y6718D01*
X8015Y6718D01*
X8085Y6647D01*
X8085Y6577D01*
X7979Y6471D01*
X8050Y6541D02*
X8191Y6541D01*
X8085Y6789D02*
Y6859D01*
X8156Y6930D01*
X8227Y6930D01*
X8262Y6895D01*
Y6824D01*
X8227Y6789D01*
X8262Y6824D01*
X8333Y6824D01*
X8368Y6789D01*
X8368Y6718D01*
X8297Y6647D01*
X8227D01*
X8297Y7001D02*
Y7072D01*
X8368Y7142D01*
X8439D01*
X8474Y7107D01*
Y7036D01*
X8439Y7001D01*
X8474Y7036D01*
X8545Y7036D01*
X8580Y7001D01*
X8580Y6930D01*
X8509Y6859D01*
X8439D01*
X28400Y7000D02*
X28612Y7212D01*
X28718Y7106D01*
X28718Y7035D01*
X28647Y6965D01*
X28577Y6965D01*
X28471Y7071D01*
X28541Y7000D02*
X28541Y6859D01*
X28789Y6965D02*
X28859D01*
X28930Y6894D01*
X28930Y6823D01*
X28895Y6788D01*
X28824D01*
X28789Y6823D01*
X28824Y6788D01*
X28824Y6717D01*
X28789Y6682D01*
X28718Y6682D01*
X28647Y6753D01*
Y6823D01*
X28930Y6470D02*
X29142Y6682D01*
X28930Y6682D01*
X29072Y6541D01*
X12500Y21700D02*
Y21450D01*
X12550Y21400D01*
X12650D01*
X12700Y21450D01*
Y21700D01*
X12800Y21400D02*
X12900D01*
X12850D01*
Y21700D01*
X12800Y21650D01*
X12600Y17300D02*
Y17050D01*
X12650Y17000D01*
X12750D01*
X12800Y17050D01*
Y17300D01*
X13100Y17000D02*
X12900D01*
X13100Y17200D01*
Y17250D01*
X13050Y17300D01*
X12950D01*
X12900Y17250D01*
X14200Y24700D02*
Y24450D01*
X14250Y24400D01*
X14350D01*
X14400Y24450D01*
Y24700D01*
X14500Y24650D02*
X14550Y24700D01*
X14650D01*
X14700Y24650D01*
Y24600D01*
X14650Y24550D01*
X14600D01*
X14650D01*
X14700Y24500D01*
Y24450D01*
X14650Y24400D01*
X14550D01*
X14500Y24450D01*
X18300Y20800D02*
X18550D01*
X18600Y20850D01*
Y20950D01*
X18550Y21000D01*
X18300D01*
X18600Y21250D02*
X18300D01*
X18450Y21100D01*
Y21300D01*
X12700Y11000D02*
X12950D01*
X13000Y11050D01*
Y11150D01*
X12950Y11200D01*
X12700D01*
Y11300D02*
Y11500D01*
X12750D01*
X12950Y11300D01*
X13000D01*
X19300Y8800D02*
X19550D01*
X19600Y8850D01*
Y8950D01*
X19550Y9000D01*
X19300D01*
X19550Y9100D02*
X19600Y9150D01*
Y9250D01*
X19550Y9300D01*
X19350D01*
X19300Y9250D01*
Y9150D01*
X19350Y9100D01*
X19400D01*
X19450Y9150D01*
Y9300D01*
X16200Y24400D02*
X16250D01*
X16350Y24500D01*
X16250Y24600D01*
X16200D01*
X16350Y24500D02*
X16500D01*
Y24700D02*
Y24800D01*
Y24750D01*
X16200D01*
X16250Y24700D01*
X28600Y29800D02*
X28388Y30012D01*
X28494Y30118D01*
X28565Y30118D01*
X28635Y30047D01*
X28635Y29977D01*
X28529Y29871D01*
X28600Y29941D02*
X28741Y29941D01*
X28635Y30189D02*
Y30259D01*
X28706Y30330D01*
X28777Y30330D01*
X28812Y30295D01*
Y30224D01*
X28777Y30189D01*
X28812Y30224D01*
X28883Y30224D01*
X28918Y30189D01*
X28918Y30118D01*
X28847Y30047D01*
X28777D01*
X29024Y30224D02*
X29095Y30295D01*
X29059Y30259D01*
X28847Y30472D01*
Y30401D01*
X8706Y28277D02*
X8565Y28418D01*
X8494Y28418D01*
X8423Y28347D01*
Y28277D01*
X8565Y28135D01*
X8635D01*
X8706Y28206D01*
X8600Y28241D02*
X8741Y28241D01*
X8706Y28206D02*
X8706Y28277D01*
X8812Y28312D02*
X8883Y28383D01*
X8847Y28347D01*
X8635Y28559D01*
Y28489D01*
X28344Y8773D02*
X28485Y8632D01*
X28556Y8632D01*
X28627Y8703D01*
Y8773D01*
X28485Y8915D01*
X28415D01*
X28344Y8844D01*
X28450Y8809D02*
X28309Y8809D01*
X28344Y8844D02*
X28344Y8773D01*
X28132Y8632D02*
X28344Y8420D01*
X28344Y8632D01*
X28203Y8491D01*
X22400Y16350D02*
X22350Y16400D01*
X22250D01*
X22200Y16350D01*
Y16300D01*
X22250Y16250D01*
X22350D01*
X22400Y16200D01*
Y16150D01*
X22350Y16100D01*
X22250D01*
X22200Y16150D01*
X22700Y16100D02*
X22500D01*
X22700Y16300D01*
Y16350D01*
X22650Y16400D01*
X22550D01*
X22500Y16350D01*
X10600Y10850D02*
Y11150D01*
X10750D01*
X10800Y11100D01*
Y11000D01*
X10750Y10950D01*
X10600D01*
X10700D02*
X10800Y10850D01*
X11100D02*
X10900D01*
X11100Y11050D01*
Y11100D01*
X11050Y11150D01*
X10950D01*
X10900Y11100D01*
X11200Y10850D02*
X11300D01*
X11250D01*
Y11150D01*
X11200Y11100D01*
M02*
