G04*
G04 #@! TF.GenerationSoftware,Altium Limited,Altium Designer,21.6.1 (37)*
G04*
G04 Layer_Physical_Order=1*
G04 Layer_Color=255*
%FSLAX24Y24*%
%MOIN*%
G70*
G04*
G04 #@! TF.SameCoordinates,4ED41DF6-4530-4611-BF79-ADCA28F4CC56*
G04*
G04*
G04 #@! TF.FilePolarity,Positive*
G04*
G01*
G75*
%ADD12C,0.0080*%
%ADD17R,0.1102X0.1102*%
%ADD18R,0.0118X0.0335*%
%ADD19R,0.0335X0.0118*%
%ADD20R,0.0079X0.0335*%
%ADD21R,0.0335X0.0079*%
%ADD22R,0.1811X0.1811*%
%ADD23R,0.0098X0.0236*%
%ADD24R,0.0236X0.0098*%
%ADD25R,0.0689X0.0689*%
%ADD26R,0.0236X0.0630*%
%ADD27R,0.0315X0.0354*%
%ADD28R,0.0354X0.0315*%
%ADD29R,0.0276X0.0512*%
%ADD30R,0.0945X0.0787*%
%ADD31R,0.0236X0.0197*%
%ADD32R,0.0551X0.0787*%
G04:AMPARAMS|DCode=33|XSize=35.4mil|YSize=31.5mil|CornerRadius=0mil|HoleSize=0mil|Usage=FLASHONLY|Rotation=315.000|XOffset=0mil|YOffset=0mil|HoleType=Round|Shape=Rectangle|*
%AMROTATEDRECTD33*
4,1,4,-0.0237,0.0014,-0.0014,0.0237,0.0237,-0.0014,0.0014,-0.0237,-0.0237,0.0014,0.0*
%
%ADD33ROTATEDRECTD33*%

G04:AMPARAMS|DCode=34|XSize=35.4mil|YSize=31.5mil|CornerRadius=0mil|HoleSize=0mil|Usage=FLASHONLY|Rotation=225.000|XOffset=0mil|YOffset=0mil|HoleType=Round|Shape=Rectangle|*
%AMROTATEDRECTD34*
4,1,4,0.0014,0.0237,0.0237,0.0014,-0.0014,-0.0237,-0.0237,-0.0014,0.0014,0.0237,0.0*
%
%ADD34ROTATEDRECTD34*%

G04:AMPARAMS|DCode=35|XSize=23.6mil|YSize=57.1mil|CornerRadius=0mil|HoleSize=0mil|Usage=FLASHONLY|Rotation=45.000|XOffset=0mil|YOffset=0mil|HoleType=Round|Shape=Rectangle|*
%AMROTATEDRECTD35*
4,1,4,0.0118,-0.0285,-0.0285,0.0118,-0.0118,0.0285,0.0285,-0.0118,0.0118,-0.0285,0.0*
%
%ADD35ROTATEDRECTD35*%

G04:AMPARAMS|DCode=36|XSize=23.6mil|YSize=57.1mil|CornerRadius=0mil|HoleSize=0mil|Usage=FLASHONLY|Rotation=135.000|XOffset=0mil|YOffset=0mil|HoleType=Round|Shape=Rectangle|*
%AMROTATEDRECTD36*
4,1,4,0.0285,0.0118,-0.0118,-0.0285,-0.0285,-0.0118,0.0118,0.0285,0.0285,0.0118,0.0*
%
%ADD36ROTATEDRECTD36*%

G04:AMPARAMS|DCode=37|XSize=11.8mil|YSize=25.6mil|CornerRadius=0mil|HoleSize=0mil|Usage=FLASHONLY|Rotation=225.000|XOffset=0mil|YOffset=0mil|HoleType=Round|Shape=Rectangle|*
%AMROTATEDRECTD37*
4,1,4,-0.0049,0.0132,0.0132,-0.0049,0.0049,-0.0132,-0.0132,0.0049,-0.0049,0.0132,0.0*
%
%ADD37ROTATEDRECTD37*%

G04:AMPARAMS|DCode=38|XSize=11.8mil|YSize=25.6mil|CornerRadius=0mil|HoleSize=0mil|Usage=FLASHONLY|Rotation=315.000|XOffset=0mil|YOffset=0mil|HoleType=Round|Shape=Rectangle|*
%AMROTATEDRECTD38*
4,1,4,-0.0132,-0.0049,0.0049,0.0132,0.0132,0.0049,-0.0049,-0.0132,-0.0132,-0.0049,0.0*
%
%ADD38ROTATEDRECTD38*%

%ADD39R,0.0787X0.0394*%
%ADD40R,0.0354X0.0669*%
%ADD41R,0.0472X0.0118*%
%ADD42R,0.0118X0.0472*%
%ADD79C,0.0300*%
%ADD80C,0.0200*%
%ADD81C,0.0400*%
%ADD82R,0.0591X0.0591*%
%ADD83C,0.0591*%
%ADD84R,0.0591X0.0591*%
%ADD85C,0.0787*%
%ADD86C,0.2913*%
%ADD87C,0.0394*%
%ADD88P,0.0557X4X270.0*%
%ADD89P,0.0557X4X180.0*%
%ADD90C,0.0276*%
%ADD91C,0.0280*%
%ADD92C,0.0240*%
%ADD93C,0.1528*%
%ADD94C,0.0500*%
%ADD95C,0.0300*%
%ADD96C,0.0200*%
G36*
X7032Y30658D02*
X7021Y30647D01*
X7013Y30637D01*
X7006Y30627D01*
X7000Y30618D01*
X6997Y30609D01*
X6995Y30601D01*
X6994Y30593D01*
X6996Y30586D01*
X6999Y30580D01*
X7004Y30574D01*
X6890Y30687D01*
X6896Y30682D01*
X6903Y30679D01*
X6910Y30677D01*
X6918Y30678D01*
X6926Y30680D01*
X6935Y30683D01*
X6944Y30689D01*
X6954Y30696D01*
X6964Y30705D01*
X6975Y30715D01*
X7032Y30658D01*
D02*
G37*
G36*
X29977Y30680D02*
X29988Y30671D01*
X29998Y30664D01*
X30007Y30659D01*
X30016Y30655D01*
X30024Y30653D01*
X30032Y30653D01*
X30039Y30654D01*
X30045Y30657D01*
X30051Y30662D01*
X29938Y30549D01*
X29943Y30555D01*
X29946Y30561D01*
X29947Y30568D01*
X29947Y30576D01*
X29945Y30584D01*
X29941Y30593D01*
X29936Y30602D01*
X29929Y30612D01*
X29920Y30623D01*
X29910Y30634D01*
X29966Y30690D01*
X29977Y30680D01*
D02*
G37*
G36*
X30428Y29925D02*
X30422Y29930D01*
X30415Y29933D01*
X30408Y29934D01*
X30401Y29934D01*
X30392Y29932D01*
X30383Y29928D01*
X30374Y29923D01*
X30364Y29915D01*
X30353Y29906D01*
X30342Y29896D01*
X30286Y29952D01*
X30296Y29964D01*
X30305Y29974D01*
X30312Y29984D01*
X30318Y29994D01*
X30322Y30003D01*
X30324Y30011D01*
X30324Y30019D01*
X30323Y30026D01*
X30320Y30032D01*
X30315Y30038D01*
X30428Y29925D01*
D02*
G37*
G36*
X6622Y30057D02*
X6619Y30050D01*
X6618Y30043D01*
X6618Y30036D01*
X6620Y30027D01*
X6624Y30018D01*
X6629Y30009D01*
X6637Y29999D01*
X6645Y29988D01*
X6656Y29977D01*
X6600Y29921D01*
X6588Y29931D01*
X6578Y29940D01*
X6568Y29947D01*
X6558Y29953D01*
X6549Y29957D01*
X6541Y29959D01*
X6533Y29959D01*
X6526Y29958D01*
X6520Y29955D01*
X6514Y29950D01*
X6627Y30063D01*
X6622Y30057D01*
D02*
G37*
G36*
X28490Y29834D02*
X28480Y29822D01*
X28471Y29812D01*
X28463Y29802D01*
X28458Y29792D01*
X28454Y29784D01*
X28452Y29775D01*
X28452Y29768D01*
X28453Y29760D01*
X28456Y29754D01*
X28461Y29748D01*
X28348Y29861D01*
X28354Y29856D01*
X28360Y29853D01*
X28368Y29852D01*
X28375Y29852D01*
X28384Y29854D01*
X28392Y29858D01*
X28402Y29863D01*
X28412Y29871D01*
X28422Y29880D01*
X28434Y29890D01*
X28490Y29834D01*
D02*
G37*
G36*
X8578Y29830D02*
X8588Y29821D01*
X8598Y29813D01*
X8608Y29808D01*
X8616Y29804D01*
X8625Y29802D01*
X8632Y29802D01*
X8640Y29803D01*
X8646Y29806D01*
X8652Y29811D01*
X8539Y29698D01*
X8544Y29704D01*
X8547Y29710D01*
X8548Y29718D01*
X8548Y29725D01*
X8546Y29734D01*
X8542Y29742D01*
X8537Y29752D01*
X8529Y29762D01*
X8520Y29772D01*
X8510Y29784D01*
X8566Y29840D01*
X8578Y29830D01*
D02*
G37*
G36*
X29161Y29357D02*
X29156Y29360D01*
X29148Y29359D01*
X29138Y29354D01*
X29126Y29347D01*
X29111Y29336D01*
X29094Y29322D01*
X29028Y29262D01*
X29000Y29235D01*
X28859Y29376D01*
X28886Y29403D01*
X28971Y29502D01*
X28978Y29514D01*
X28983Y29524D01*
X28984Y29532D01*
X28982Y29537D01*
X29161Y29357D01*
D02*
G37*
G36*
X8016Y29532D02*
X8017Y29524D01*
X8022Y29514D01*
X8029Y29502D01*
X8040Y29487D01*
X8053Y29470D01*
X8114Y29403D01*
X8141Y29376D01*
X8000Y29235D01*
X7972Y29262D01*
X7874Y29347D01*
X7862Y29354D01*
X7852Y29359D01*
X7844Y29360D01*
X7839Y29357D01*
X8018Y29537D01*
X8016Y29532D01*
D02*
G37*
G36*
X27851Y29138D02*
X27845Y29143D01*
X27839Y29146D01*
X27832Y29147D01*
X27824Y29147D01*
X27816Y29145D01*
X27807Y29141D01*
X27798Y29136D01*
X27788Y29129D01*
X27777Y29120D01*
X27766Y29110D01*
X27710Y29166D01*
X27720Y29177D01*
X27729Y29188D01*
X27736Y29198D01*
X27741Y29207D01*
X27745Y29216D01*
X27747Y29224D01*
X27747Y29232D01*
X27746Y29239D01*
X27743Y29245D01*
X27738Y29251D01*
X27851Y29138D01*
D02*
G37*
G36*
X28892Y29127D02*
X28877Y29111D01*
X28853Y29082D01*
X28843Y29068D01*
X28835Y29055D01*
X28829Y29042D01*
X28824Y29029D01*
X28821Y29017D01*
X28819Y29006D01*
X28819Y28994D01*
X28609Y29173D01*
X28620Y29175D01*
X28631Y29178D01*
X28642Y29182D01*
X28654Y29188D01*
X28666Y29195D01*
X28680Y29204D01*
X28693Y29215D01*
X28722Y29240D01*
X28737Y29255D01*
X28892Y29127D01*
D02*
G37*
G36*
X8206Y29312D02*
X8256Y29271D01*
X8278Y29257D01*
X8299Y29246D01*
X8318Y29240D01*
X8335Y29237D01*
X8351Y29239D01*
X8365Y29244D01*
X8377Y29253D01*
X8109Y28984D01*
X8121Y28999D01*
X8129Y29015D01*
X8132Y29033D01*
X8131Y29052D01*
X8126Y29073D01*
X8117Y29095D01*
X8104Y29118D01*
X8086Y29143D01*
X8064Y29169D01*
X8037Y29197D01*
X8179Y29338D01*
X8206Y29312D01*
D02*
G37*
G36*
X29537Y28982D02*
X29532Y28984D01*
X29524Y28983D01*
X29514Y28978D01*
X29502Y28971D01*
X29487Y28960D01*
X29470Y28947D01*
X29403Y28886D01*
X29376Y28859D01*
X29235Y29000D01*
X29262Y29028D01*
X29347Y29126D01*
X29354Y29138D01*
X29359Y29148D01*
X29360Y29156D01*
X29357Y29161D01*
X29537Y28982D01*
D02*
G37*
G36*
X29338Y28821D02*
X29312Y28794D01*
X29271Y28744D01*
X29257Y28722D01*
X29246Y28701D01*
X29240Y28682D01*
X29237Y28665D01*
X29239Y28649D01*
X29244Y28635D01*
X29253Y28623D01*
X28984Y28891D01*
X28999Y28879D01*
X29015Y28871D01*
X29033Y28868D01*
X29052Y28869D01*
X29073Y28874D01*
X29095Y28883D01*
X29118Y28896D01*
X29143Y28914D01*
X29169Y28936D01*
X29197Y28963D01*
X29338Y28821D01*
D02*
G37*
G36*
X7640Y29156D02*
X7641Y29148D01*
X7646Y29138D01*
X7653Y29126D01*
X7664Y29111D01*
X7678Y29094D01*
X7727Y29040D01*
X7946Y28848D01*
X7969Y28834D01*
X7987Y28826D01*
X8001Y28823D01*
X7997Y28819D01*
X8006Y28819D01*
X7827Y28609D01*
X7825Y28620D01*
X7822Y28631D01*
X7819Y28641D01*
X7801Y28623D01*
X7798Y28637D01*
X7790Y28655D01*
X7776Y28678D01*
X7757Y28705D01*
X7702Y28772D01*
X7589Y28892D01*
X7498Y28971D01*
X7486Y28978D01*
X7476Y28983D01*
X7468Y28984D01*
X7463Y28982D01*
X7643Y29161D01*
X7640Y29156D01*
D02*
G37*
G36*
X26611Y28587D02*
X26623Y28577D01*
X26634Y28568D01*
X26646Y28561D01*
X26658Y28554D01*
X26670Y28549D01*
X26682Y28545D01*
X26694Y28542D01*
X26706Y28541D01*
X26718Y28540D01*
Y28460D01*
X26706Y28459D01*
X26694Y28458D01*
X26682Y28455D01*
X26670Y28451D01*
X26658Y28445D01*
X26646Y28439D01*
X26634Y28432D01*
X26623Y28423D01*
X26611Y28413D01*
X26600Y28402D01*
Y28598D01*
X26611Y28587D01*
D02*
G37*
G36*
X26183Y27376D02*
X26174Y27367D01*
X26167Y27357D01*
X26161Y27347D01*
X26155Y27335D01*
X26150Y27323D01*
X26146Y27310D01*
X26143Y27297D01*
X26141Y27282D01*
X26140Y27267D01*
X26140Y27251D01*
X26001Y27390D01*
X26017Y27390D01*
X26032Y27391D01*
X26047Y27393D01*
X26060Y27396D01*
X26073Y27400D01*
X26085Y27405D01*
X26097Y27411D01*
X26107Y27417D01*
X26117Y27424D01*
X26126Y27433D01*
X26183Y27376D01*
D02*
G37*
G36*
X26765Y27181D02*
X26759Y27185D01*
X26752Y27189D01*
X26745Y27190D01*
X26738Y27190D01*
X26729Y27188D01*
X26720Y27184D01*
X26711Y27178D01*
X26701Y27171D01*
X26690Y27162D01*
X26679Y27152D01*
X26623Y27208D01*
X26633Y27219D01*
X26642Y27230D01*
X26649Y27240D01*
X26655Y27249D01*
X26659Y27258D01*
X26661Y27267D01*
X26661Y27274D01*
X26660Y27281D01*
X26657Y27288D01*
X26652Y27294D01*
X26765Y27181D01*
D02*
G37*
G36*
X10374Y27315D02*
X10377Y27309D01*
X10382Y27300D01*
X10390Y27289D01*
X10402Y27275D01*
X10454Y27217D01*
X10505Y27166D01*
X10363Y27024D01*
X10336Y27051D01*
X10220Y27152D01*
X10214Y27155D01*
X10210Y27154D01*
X10375Y27319D01*
X10374Y27315D01*
D02*
G37*
G36*
X27154Y26790D02*
X27155Y26794D01*
X27152Y26797D01*
X27145Y26799D01*
X27133Y26802D01*
X27117Y26804D01*
X27075Y26807D01*
X27016Y26803D01*
Y26808D01*
X26972Y26808D01*
X27016Y26852D01*
Y27013D01*
X27017Y27012D01*
X27021Y27012D01*
X27026Y27011D01*
X27042Y27010D01*
X27093Y27008D01*
X27110Y27008D01*
Y26947D01*
X27172Y27008D01*
X27211Y27009D01*
X27248Y27012D01*
X27284Y27017D01*
X27317Y27024D01*
X27348Y27033D01*
X27377Y27044D01*
X27404Y27057D01*
X27429Y27072D01*
X27452Y27089D01*
X27473Y27108D01*
X27154Y26790D01*
D02*
G37*
G36*
X9537Y26770D02*
X9531Y26775D01*
X9525Y26778D01*
X9518Y26779D01*
X9510Y26779D01*
X9502Y26777D01*
X9493Y26773D01*
X9484Y26768D01*
X9473Y26760D01*
X9463Y26752D01*
X9452Y26741D01*
X9395Y26797D01*
X9406Y26809D01*
X9415Y26819D01*
X9422Y26829D01*
X9427Y26839D01*
X9431Y26848D01*
X9433Y26856D01*
X9434Y26864D01*
X9432Y26871D01*
X9429Y26877D01*
X9424Y26883D01*
X9537Y26770D01*
D02*
G37*
G36*
X20468Y27006D02*
X20443Y26997D01*
X20420Y26981D01*
X20401Y26960D01*
X20384Y26933D01*
X20371Y26900D01*
X20360Y26861D01*
X20353Y26816D01*
X20348Y26765D01*
X20347Y26707D01*
X20047D01*
X20086Y27008D01*
X20497Y27009D01*
X20468Y27006D01*
D02*
G37*
G36*
X10605Y26657D02*
X10395D01*
X10396Y26659D01*
X10397Y26662D01*
X10398Y26668D01*
X10399Y26683D01*
X10400Y26735D01*
X10400Y26752D01*
X10600D01*
X10605Y26657D01*
D02*
G37*
G36*
X24361Y26837D02*
X24373Y26827D01*
X24384Y26818D01*
X24396Y26811D01*
X24408Y26804D01*
X24420Y26799D01*
X24432Y26795D01*
X24444Y26792D01*
X24456Y26791D01*
X24468Y26790D01*
Y26710D01*
X24456Y26709D01*
X24444Y26708D01*
X24432Y26705D01*
X24420Y26701D01*
X24408Y26695D01*
X24396Y26689D01*
X24384Y26682D01*
X24373Y26673D01*
X24361Y26663D01*
X24350Y26652D01*
Y26848D01*
X24361Y26837D01*
D02*
G37*
G36*
X27649Y26953D02*
X27641Y26937D01*
X27637Y26919D01*
X27638Y26900D01*
X27643Y26879D01*
X27652Y26857D01*
X27666Y26834D01*
X27684Y26809D01*
X27706Y26783D01*
X27732Y26755D01*
X27591Y26614D01*
X27563Y26640D01*
X27537Y26662D01*
X27512Y26680D01*
X27488Y26693D01*
X27466Y26703D01*
X27446Y26708D01*
X27427Y26708D01*
X27409Y26705D01*
X27393Y26697D01*
X27378Y26685D01*
X27661Y26968D01*
X27649Y26953D01*
D02*
G37*
G36*
X9041Y26506D02*
X9042Y26494D01*
X9045Y26482D01*
X9049Y26470D01*
X9054Y26458D01*
X9061Y26446D01*
X9068Y26434D01*
X9077Y26423D01*
X9087Y26411D01*
X9098Y26400D01*
X8902D01*
X8913Y26411D01*
X8923Y26423D01*
X8932Y26434D01*
X8939Y26446D01*
X8946Y26458D01*
X8951Y26470D01*
X8955Y26482D01*
X8958Y26494D01*
X8959Y26506D01*
X8960Y26518D01*
X9040D01*
X9041Y26506D01*
D02*
G37*
G36*
X10604Y26441D02*
X10603Y26438D01*
X10602Y26432D01*
X10601Y26417D01*
X10600Y26365D01*
X10600Y26348D01*
X10400D01*
X10395Y26443D01*
X10605D01*
X10604Y26441D01*
D02*
G37*
G36*
X20318Y26294D02*
X20338Y26282D01*
X20361Y26272D01*
X20389Y26264D01*
X20421Y26257D01*
X20457Y26251D01*
X20530Y26244D01*
X20540Y26246D01*
X20549Y26250D01*
X20556Y26254D01*
X20562Y26260D01*
X20566Y26266D01*
X20569Y26272D01*
X20569Y26280D01*
Y26241D01*
X20589Y26241D01*
X20641Y26240D01*
Y26160D01*
X20589Y26159D01*
X20569Y26158D01*
Y26120D01*
X20569Y26128D01*
X20566Y26134D01*
X20562Y26140D01*
X20556Y26146D01*
X20549Y26150D01*
X20540Y26154D01*
X20534Y26155D01*
X20457Y26149D01*
X20421Y26143D01*
X20389Y26136D01*
X20361Y26128D01*
X20338Y26118D01*
X20318Y26106D01*
X20303Y26094D01*
Y26306D01*
X20318Y26294D01*
D02*
G37*
G36*
X19687Y26120D02*
X19687Y26128D01*
X19684Y26134D01*
X19680Y26140D01*
X19674Y26146D01*
X19667Y26150D01*
X19658Y26154D01*
X19648Y26156D01*
X19635Y26158D01*
X19622Y26160D01*
X19606Y26160D01*
Y26240D01*
X19622Y26240D01*
X19635Y26242D01*
X19648Y26244D01*
X19658Y26246D01*
X19667Y26250D01*
X19674Y26254D01*
X19680Y26260D01*
X19684Y26266D01*
X19687Y26272D01*
X19687Y26280D01*
Y26120D01*
D02*
G37*
G36*
X19331Y26272D02*
X19334Y26266D01*
X19338Y26260D01*
X19344Y26254D01*
X19351Y26250D01*
X19360Y26246D01*
X19370Y26244D01*
X19383Y26242D01*
X19396Y26240D01*
X19412Y26240D01*
Y26160D01*
X19396Y26160D01*
X19383Y26158D01*
X19370Y26156D01*
X19360Y26154D01*
X19351Y26150D01*
X19344Y26146D01*
X19338Y26140D01*
X19334Y26134D01*
X19331Y26128D01*
X19331Y26120D01*
Y26280D01*
X19331Y26272D01*
D02*
G37*
G36*
X19248Y26024D02*
X19241Y26022D01*
X19235Y26018D01*
X19230Y26012D01*
X19226Y26005D01*
X19222Y25996D01*
X19219Y25985D01*
X19217Y25973D01*
X19216Y25959D01*
X19216Y25944D01*
X19136D01*
X19135Y25959D01*
X19134Y25973D01*
X19132Y25985D01*
X19129Y25996D01*
X19126Y26005D01*
X19121Y26012D01*
X19116Y26018D01*
X19110Y26022D01*
X19103Y26024D01*
X19096Y26025D01*
X19256D01*
X19248Y26024D01*
D02*
G37*
G36*
X27776Y25838D02*
X27781Y25774D01*
X27785Y25748D01*
X27790Y25726D01*
X27796Y25708D01*
X27803Y25694D01*
X27812Y25684D01*
X27821Y25678D01*
X27832Y25676D01*
X27519D01*
X27530Y25678D01*
X27540Y25684D01*
X27548Y25694D01*
X27555Y25708D01*
X27562Y25726D01*
X27567Y25748D01*
X27571Y25774D01*
X27573Y25804D01*
X27576Y25876D01*
X27776D01*
X27776Y25838D01*
D02*
G37*
G36*
X9365Y25741D02*
X9366Y25727D01*
X9368Y25715D01*
X9371Y25704D01*
X9374Y25695D01*
X9379Y25688D01*
X9384Y25682D01*
X9390Y25678D01*
X9397Y25676D01*
X9404Y25675D01*
X9244D01*
X9252Y25676D01*
X9259Y25678D01*
X9265Y25682D01*
X9270Y25688D01*
X9274Y25695D01*
X9278Y25704D01*
X9281Y25715D01*
X9283Y25727D01*
X9284Y25741D01*
X9284Y25756D01*
X9364D01*
X9365Y25741D01*
D02*
G37*
G36*
X16276Y25798D02*
X16278Y25791D01*
X16282Y25785D01*
X16288Y25780D01*
X16295Y25776D01*
X16304Y25772D01*
X16315Y25769D01*
X16327Y25767D01*
X16341Y25766D01*
X16356Y25766D01*
Y25686D01*
X16341Y25685D01*
X16327Y25684D01*
X16315Y25682D01*
X16304Y25679D01*
X16295Y25676D01*
X16288Y25671D01*
X16282Y25666D01*
X16278Y25660D01*
X16276Y25653D01*
X16275Y25646D01*
Y25806D01*
X16276Y25798D01*
D02*
G37*
G36*
X20765Y25516D02*
X20766Y25493D01*
X20767Y25487D01*
X20768Y25483D01*
X20769Y25479D01*
X20771Y25477D01*
X20772Y25475D01*
X20774Y25475D01*
X20675D01*
X20677Y25475D01*
X20678Y25477D01*
X20680Y25479D01*
X20681Y25483D01*
X20682Y25487D01*
X20683Y25493D01*
X20684Y25507D01*
X20684Y25526D01*
X20764D01*
X20765Y25516D01*
D02*
G37*
G36*
X26969Y25420D02*
X26969Y25428D01*
X26966Y25434D01*
X26962Y25440D01*
X26956Y25446D01*
X26949Y25450D01*
X26940Y25454D01*
X26930Y25456D01*
X26917Y25458D01*
X26904Y25460D01*
X26888Y25460D01*
Y25540D01*
X26904Y25540D01*
X26917Y25542D01*
X26930Y25544D01*
X26940Y25546D01*
X26949Y25550D01*
X26956Y25554D01*
X26962Y25560D01*
X26966Y25566D01*
X26969Y25572D01*
X26969Y25580D01*
Y25420D01*
D02*
G37*
G36*
X19844Y25462D02*
X19845Y25448D01*
X19847Y25436D01*
X19850Y25425D01*
X19853Y25416D01*
X19858Y25409D01*
X19863Y25403D01*
X19869Y25399D01*
X19876Y25397D01*
X19883Y25396D01*
X19723D01*
X19731Y25397D01*
X19738Y25399D01*
X19744Y25403D01*
X19749Y25409D01*
X19753Y25416D01*
X19757Y25425D01*
X19760Y25436D01*
X19762Y25448D01*
X19763Y25462D01*
X19763Y25477D01*
X19843D01*
X19844Y25462D01*
D02*
G37*
G36*
X10034Y25662D02*
X10040Y25649D01*
X10050Y25637D01*
X10064Y25627D01*
X10082Y25619D01*
X10104Y25612D01*
X10130Y25607D01*
X10160Y25603D01*
X10194Y25601D01*
X10232Y25600D01*
Y25400D01*
X10194Y25399D01*
X10130Y25393D01*
X10104Y25388D01*
X10082Y25381D01*
X10064Y25373D01*
X10050Y25363D01*
X10040Y25351D01*
X10034Y25338D01*
X10032Y25324D01*
Y25676D01*
X10034Y25662D01*
D02*
G37*
G36*
X16930Y25307D02*
X16929Y25315D01*
X16927Y25322D01*
X16923Y25328D01*
X16917Y25333D01*
X16910Y25337D01*
X16901Y25341D01*
X16890Y25344D01*
X16878Y25346D01*
X16864Y25347D01*
X16849Y25347D01*
Y25427D01*
X16864Y25428D01*
X16878Y25429D01*
X16890Y25431D01*
X16901Y25434D01*
X16910Y25437D01*
X16917Y25442D01*
X16923Y25447D01*
X16927Y25453D01*
X16929Y25460D01*
X16930Y25467D01*
Y25307D01*
D02*
G37*
G36*
X9397Y25324D02*
X9390Y25322D01*
X9384Y25318D01*
X9379Y25312D01*
X9374Y25305D01*
X9371Y25296D01*
X9368Y25285D01*
X9366Y25273D01*
X9365Y25259D01*
X9364Y25244D01*
X9284D01*
X9284Y25259D01*
X9283Y25273D01*
X9281Y25285D01*
X9278Y25296D01*
X9274Y25305D01*
X9270Y25312D01*
X9265Y25318D01*
X9259Y25322D01*
X9252Y25324D01*
X9244Y25325D01*
X9404D01*
X9397Y25324D01*
D02*
G37*
G36*
X14850Y25002D02*
X14839Y25013D01*
X14827Y25023D01*
X14816Y25032D01*
X14804Y25039D01*
X14792Y25045D01*
X14780Y25051D01*
X14768Y25055D01*
X14756Y25058D01*
X14744Y25059D01*
X14733Y25058D01*
X14720Y25056D01*
X14710Y25054D01*
X14701Y25050D01*
X14694Y25046D01*
X14688Y25040D01*
X14684Y25034D01*
X14681Y25028D01*
X14681Y25020D01*
Y25180D01*
X14681Y25172D01*
X14684Y25166D01*
X14688Y25160D01*
X14694Y25154D01*
X14701Y25150D01*
X14710Y25146D01*
X14720Y25144D01*
X14733Y25142D01*
X14744Y25141D01*
X14756Y25142D01*
X14768Y25145D01*
X14780Y25149D01*
X14792Y25155D01*
X14804Y25161D01*
X14816Y25168D01*
X14827Y25177D01*
X14839Y25187D01*
X14850Y25198D01*
Y25002D01*
D02*
G37*
G36*
X20269Y25203D02*
X20262Y25201D01*
X20256Y25197D01*
X20251Y25191D01*
X20247Y25184D01*
X20243Y25175D01*
X20240Y25164D01*
X20238Y25152D01*
X20237Y25138D01*
X20237Y25123D01*
X20157D01*
X20156Y25138D01*
X20155Y25152D01*
X20153Y25164D01*
X20150Y25175D01*
X20147Y25184D01*
X20142Y25191D01*
X20137Y25197D01*
X20131Y25201D01*
X20124Y25203D01*
X20117Y25204D01*
X20277D01*
X20269Y25203D01*
D02*
G37*
G36*
X20797Y25124D02*
X20790Y25122D01*
X20784Y25118D01*
X20779Y25112D01*
X20774Y25105D01*
X20771Y25096D01*
X20768Y25085D01*
X20766Y25073D01*
X20765Y25059D01*
X20764Y25044D01*
X20684D01*
X20684Y25059D01*
X20683Y25073D01*
X20681Y25085D01*
X20678Y25096D01*
X20674Y25105D01*
X20670Y25112D01*
X20665Y25118D01*
X20659Y25122D01*
X20652Y25124D01*
X20644Y25125D01*
X20804D01*
X20797Y25124D01*
D02*
G37*
G36*
X19216Y25097D02*
X19217Y25083D01*
X19219Y25071D01*
X19222Y25061D01*
X19226Y25052D01*
X19230Y25045D01*
X19235Y25039D01*
X19241Y25035D01*
X19248Y25033D01*
X19256Y25032D01*
X19096D01*
X19103Y25033D01*
X19110Y25035D01*
X19116Y25039D01*
X19121Y25045D01*
X19126Y25052D01*
X19129Y25061D01*
X19132Y25071D01*
X19134Y25083D01*
X19135Y25097D01*
X19136Y25112D01*
X19216D01*
X19216Y25097D01*
D02*
G37*
G36*
X17472Y24994D02*
X17466Y24992D01*
X17460Y24988D01*
X17454Y24982D01*
X17450Y24975D01*
X17446Y24966D01*
X17444Y24956D01*
X17442Y24944D01*
X17440Y24930D01*
X17440Y24915D01*
X17360D01*
X17360Y24930D01*
X17358Y24944D01*
X17356Y24956D01*
X17354Y24966D01*
X17350Y24975D01*
X17346Y24982D01*
X17340Y24988D01*
X17334Y24992D01*
X17328Y24994D01*
X17320Y24995D01*
X17480D01*
X17472Y24994D01*
D02*
G37*
G36*
X14572Y24924D02*
X14566Y24922D01*
X14560Y24918D01*
X14554Y24912D01*
X14550Y24905D01*
X14546Y24896D01*
X14544Y24885D01*
X14542Y24873D01*
X14540Y24859D01*
X14540Y24844D01*
X14460D01*
X14460Y24859D01*
X14458Y24873D01*
X14456Y24885D01*
X14454Y24896D01*
X14450Y24905D01*
X14446Y24912D01*
X14440Y24918D01*
X14434Y24922D01*
X14428Y24924D01*
X14420Y24925D01*
X14580D01*
X14572Y24924D01*
D02*
G37*
G36*
X20237Y24412D02*
X20238Y24398D01*
X20240Y24386D01*
X20243Y24375D01*
X20247Y24366D01*
X20251Y24359D01*
X20256Y24353D01*
X20262Y24349D01*
X20269Y24347D01*
X20277Y24346D01*
X20117D01*
X20124Y24347D01*
X20131Y24349D01*
X20137Y24353D01*
X20142Y24359D01*
X20147Y24366D01*
X20150Y24375D01*
X20153Y24386D01*
X20155Y24398D01*
X20156Y24412D01*
X20157Y24427D01*
X20237D01*
X20237Y24412D01*
D02*
G37*
G36*
X14279Y24320D02*
X14280Y24307D01*
X14282Y24294D01*
X14285Y24284D01*
X14288Y24275D01*
X14293Y24268D01*
X14298Y24262D01*
X14304Y24258D01*
X14311Y24255D01*
X14318Y24255D01*
X14158D01*
X14166Y24255D01*
X14173Y24258D01*
X14179Y24262D01*
X14184Y24268D01*
X14188Y24275D01*
X14192Y24284D01*
X14195Y24294D01*
X14197Y24307D01*
X14198Y24320D01*
X14198Y24336D01*
X14278D01*
X14279Y24320D01*
D02*
G37*
G36*
X25533Y24324D02*
X25543Y24317D01*
X25553Y24311D01*
X25565Y24305D01*
X25577Y24300D01*
X25590Y24296D01*
X25603Y24293D01*
X25618Y24291D01*
X25633Y24290D01*
X25649Y24290D01*
X25510Y24151D01*
X25510Y24167D01*
X25509Y24182D01*
X25507Y24197D01*
X25504Y24210D01*
X25500Y24223D01*
X25495Y24235D01*
X25489Y24247D01*
X25483Y24257D01*
X25476Y24267D01*
X25467Y24276D01*
X25524Y24333D01*
X25533Y24324D01*
D02*
G37*
G36*
X19272Y24169D02*
X19266Y24166D01*
X19260Y24162D01*
X19254Y24156D01*
X19250Y24149D01*
X19246Y24140D01*
X19244Y24130D01*
X19242Y24117D01*
X19240Y24104D01*
X19240Y24088D01*
X19160D01*
X19160Y24104D01*
X19158Y24117D01*
X19156Y24130D01*
X19154Y24140D01*
X19150Y24149D01*
X19146Y24156D01*
X19140Y24162D01*
X19134Y24166D01*
X19128Y24169D01*
X19120Y24169D01*
X19280D01*
X19272Y24169D01*
D02*
G37*
G36*
X18687Y24213D02*
X18677Y24202D01*
X18668Y24190D01*
X18661Y24178D01*
X18656Y24169D01*
X18680D01*
X18672Y24169D01*
X18666Y24166D01*
X18660Y24162D01*
X18654Y24156D01*
X18650Y24149D01*
X18646Y24140D01*
X18644Y24130D01*
X18642Y24117D01*
X18640Y24104D01*
X18640Y24088D01*
X18560D01*
X18560Y24104D01*
X18558Y24117D01*
X18556Y24130D01*
X18554Y24140D01*
X18550Y24149D01*
X18546Y24156D01*
X18540Y24162D01*
X18534Y24166D01*
X18528Y24169D01*
X18520Y24169D01*
X18544D01*
X18539Y24178D01*
X18532Y24190D01*
X18523Y24202D01*
X18513Y24213D01*
X18502Y24224D01*
X18698D01*
X18687Y24213D01*
D02*
G37*
G36*
X21872Y24125D02*
X21871Y24123D01*
X21869Y24121D01*
X21868Y24117D01*
X21867Y24113D01*
X21866Y24107D01*
X21865Y24093D01*
X21864Y24074D01*
X21784D01*
X21784Y24084D01*
X21783Y24107D01*
X21782Y24113D01*
X21781Y24117D01*
X21780Y24121D01*
X21778Y24123D01*
X21777Y24125D01*
X21775Y24125D01*
X21874D01*
X21872Y24125D01*
D02*
G37*
G36*
X20269Y24153D02*
X20262Y24151D01*
X20256Y24147D01*
X20251Y24141D01*
X20247Y24134D01*
X20243Y24125D01*
X20240Y24114D01*
X20238Y24102D01*
X20237Y24088D01*
X20237Y24073D01*
X20157D01*
X20156Y24088D01*
X20155Y24102D01*
X20153Y24114D01*
X20150Y24125D01*
X20147Y24134D01*
X20142Y24141D01*
X20137Y24147D01*
X20131Y24151D01*
X20124Y24153D01*
X20117Y24154D01*
X20277D01*
X20269Y24153D01*
D02*
G37*
G36*
X19920Y24153D02*
X19917Y24152D01*
X19914Y24150D01*
X19912Y24146D01*
X19910Y24140D01*
X19908Y24133D01*
X19906Y24124D01*
X19905Y24114D01*
X19904Y24088D01*
X19904Y24073D01*
X19824D01*
X19823Y24088D01*
X19822Y24102D01*
X19820Y24114D01*
X19817Y24125D01*
X19814Y24134D01*
X19809Y24141D01*
X19804Y24147D01*
X19798Y24151D01*
X19791Y24153D01*
X19784Y24154D01*
X19920Y24153D01*
D02*
G37*
G36*
X22997Y24124D02*
X22990Y24122D01*
X22984Y24118D01*
X22979Y24112D01*
X22974Y24105D01*
X22971Y24096D01*
X22968Y24085D01*
X22966Y24073D01*
X22965Y24059D01*
X22964Y24044D01*
X22884D01*
X22884Y24059D01*
X22883Y24073D01*
X22881Y24085D01*
X22878Y24096D01*
X22874Y24105D01*
X22870Y24112D01*
X22865Y24118D01*
X22859Y24122D01*
X22852Y24124D01*
X22844Y24125D01*
X23004D01*
X22997Y24124D01*
D02*
G37*
G36*
X20797D02*
X20790Y24122D01*
X20784Y24118D01*
X20779Y24112D01*
X20774Y24105D01*
X20771Y24096D01*
X20768Y24085D01*
X20766Y24073D01*
X20765Y24059D01*
X20764Y24044D01*
X20684D01*
X20684Y24059D01*
X20683Y24073D01*
X20681Y24085D01*
X20678Y24096D01*
X20674Y24105D01*
X20670Y24112D01*
X20665Y24118D01*
X20659Y24122D01*
X20652Y24124D01*
X20644Y24125D01*
X20804D01*
X20797Y24124D01*
D02*
G37*
G36*
X24433Y24126D02*
X24424Y24117D01*
X24417Y24107D01*
X24411Y24097D01*
X24405Y24085D01*
X24400Y24073D01*
X24396Y24060D01*
X24393Y24047D01*
X24391Y24032D01*
X24390Y24017D01*
X24390Y24001D01*
X24251Y24140D01*
X24267Y24140D01*
X24282Y24141D01*
X24297Y24143D01*
X24310Y24146D01*
X24323Y24150D01*
X24335Y24155D01*
X24347Y24160D01*
X24357Y24167D01*
X24367Y24174D01*
X24376Y24183D01*
X24433Y24126D01*
D02*
G37*
G36*
X16276Y24098D02*
X16278Y24091D01*
X16282Y24085D01*
X16288Y24080D01*
X16295Y24076D01*
X16304Y24072D01*
X16315Y24069D01*
X16327Y24067D01*
X16341Y24066D01*
X16356Y24066D01*
Y23986D01*
X16341Y23985D01*
X16327Y23984D01*
X16315Y23982D01*
X16304Y23979D01*
X16295Y23976D01*
X16288Y23971D01*
X16282Y23966D01*
X16278Y23960D01*
X16276Y23953D01*
X16275Y23946D01*
Y24106D01*
X16276Y24098D01*
D02*
G37*
G36*
X19100Y26500D02*
Y26437D01*
X18958D01*
Y25963D01*
X19070D01*
X19070Y25956D01*
X19071Y25942D01*
X19074Y25936D01*
Y25120D01*
X19071Y25114D01*
X19070Y25100D01*
X19070Y25093D01*
X18963D01*
Y24658D01*
X19100D01*
Y24542D01*
X18963D01*
Y24107D01*
X19094D01*
X19095Y24100D01*
X19095Y24086D01*
X19098Y24080D01*
Y23950D01*
X19070Y23902D01*
X18792D01*
X18702Y23992D01*
Y24080D01*
X18705Y24086D01*
X18705Y24100D01*
X18706Y24107D01*
X18837D01*
Y24542D01*
X18363D01*
Y24107D01*
X18494D01*
X18495Y24100D01*
X18495Y24086D01*
X18498Y24080D01*
Y23950D01*
X18506Y23911D01*
X18528Y23878D01*
X18678Y23728D01*
X18711Y23706D01*
X18750Y23698D01*
X19058D01*
X19100Y23656D01*
Y23400D01*
X19132Y23368D01*
Y23342D01*
X19134Y23329D01*
Y23166D01*
X18971D01*
X18958Y23168D01*
X18376D01*
X18074Y23470D01*
Y24248D01*
X18067Y24287D01*
X18045Y24320D01*
X17502Y24862D01*
Y24907D01*
X17505Y24913D01*
X17505Y24926D01*
X17506Y24934D01*
X17932D01*
Y25841D01*
X16868D01*
Y25547D01*
X16818Y25527D01*
X16547Y25798D01*
X16513Y25820D01*
X16474Y25828D01*
X16364D01*
X16358Y25831D01*
X16344Y25831D01*
X16337Y25831D01*
Y25943D01*
X15863D01*
Y25508D01*
X16337D01*
Y25620D01*
X16344Y25620D01*
X16358Y25621D01*
X16364Y25624D01*
X16432D01*
X16740Y25315D01*
X16774Y25293D01*
X16813Y25285D01*
X16840D01*
X16847Y25282D01*
X16861Y25282D01*
X16868Y25282D01*
Y24934D01*
X17294D01*
X17295Y24926D01*
X17295Y24913D01*
X17298Y24907D01*
Y24820D01*
X17306Y24781D01*
X17328Y24748D01*
X17763Y24312D01*
X17744Y24266D01*
X16868D01*
Y23918D01*
X16861Y23918D01*
X16847Y23918D01*
X16840Y23915D01*
X16730D01*
X16547Y24098D01*
X16513Y24120D01*
X16474Y24128D01*
X16364D01*
X16358Y24131D01*
X16344Y24131D01*
X16337Y24131D01*
Y24243D01*
X15863D01*
Y23808D01*
X16337D01*
Y23920D01*
X16344Y23920D01*
X16358Y23921D01*
X16364Y23924D01*
X16432D01*
X16615Y23740D01*
X16648Y23718D01*
X16687Y23711D01*
X16840D01*
X16847Y23708D01*
X16861Y23707D01*
X16868Y23707D01*
Y23359D01*
X17697D01*
X18156Y22899D01*
X18137Y22853D01*
X17920D01*
X17914Y22856D01*
X17900Y22856D01*
X17893Y22857D01*
Y23037D01*
X17458D01*
Y22563D01*
X17418Y22538D01*
X16838D01*
X16799Y22530D01*
X16766Y22508D01*
X16757Y22500D01*
X16000D01*
Y23250D01*
X15250Y24000D01*
Y26750D01*
X18850D01*
X19100Y26500D01*
D02*
G37*
G36*
X14122Y23862D02*
X14122Y23870D01*
X14119Y23877D01*
X14115Y23883D01*
X14109Y23888D01*
X14102Y23892D01*
X14093Y23896D01*
X14083Y23899D01*
X14071Y23901D01*
X14057Y23902D01*
X14041Y23902D01*
Y23982D01*
X14057Y23983D01*
X14071Y23984D01*
X14083Y23986D01*
X14093Y23989D01*
X14102Y23992D01*
X14109Y23997D01*
X14115Y24002D01*
X14119Y24008D01*
X14122Y24015D01*
X14122Y24022D01*
Y23862D01*
D02*
G37*
G36*
X13863Y24015D02*
X13865Y24008D01*
X13869Y24002D01*
X13875Y23997D01*
X13882Y23992D01*
X13891Y23989D01*
X13902Y23986D01*
X13914Y23984D01*
X13928Y23983D01*
X13943Y23982D01*
Y23902D01*
X13928Y23902D01*
X13914Y23901D01*
X13902Y23899D01*
X13891Y23896D01*
X13882Y23892D01*
X13875Y23888D01*
X13869Y23883D01*
X13865Y23877D01*
X13863Y23870D01*
X13862Y23862D01*
Y24022D01*
X13863Y24015D01*
D02*
G37*
G36*
X25800Y23802D02*
X25789Y23813D01*
X25777Y23823D01*
X25766Y23832D01*
X25754Y23839D01*
X25742Y23846D01*
X25730Y23851D01*
X25718Y23855D01*
X25706Y23858D01*
X25694Y23859D01*
X25682Y23860D01*
Y23940D01*
X25694Y23941D01*
X25706Y23942D01*
X25718Y23945D01*
X25730Y23949D01*
X25742Y23955D01*
X25754Y23961D01*
X25766Y23968D01*
X25777Y23977D01*
X25789Y23987D01*
X25800Y23998D01*
Y23802D01*
D02*
G37*
G36*
X16930Y23733D02*
X16929Y23740D01*
X16927Y23747D01*
X16923Y23753D01*
X16917Y23758D01*
X16910Y23763D01*
X16901Y23766D01*
X16890Y23769D01*
X16878Y23771D01*
X16864Y23772D01*
X16849Y23773D01*
Y23853D01*
X16864Y23853D01*
X16878Y23854D01*
X16890Y23856D01*
X16901Y23859D01*
X16910Y23863D01*
X16917Y23867D01*
X16923Y23872D01*
X16927Y23878D01*
X16929Y23885D01*
X16930Y23893D01*
Y23733D01*
D02*
G37*
G36*
X19904Y23800D02*
X19824Y23680D01*
X19823Y23695D01*
X19821Y23709D01*
X19817Y23721D01*
X19811Y23731D01*
X19804Y23740D01*
X19795Y23747D01*
X19785Y23753D01*
X19773Y23757D01*
X19759Y23759D01*
X19744Y23760D01*
Y23840D01*
X19759Y23841D01*
X19773Y23843D01*
X19785Y23847D01*
X19795Y23853D01*
X19804Y23860D01*
X19811Y23869D01*
X19817Y23879D01*
X19821Y23891D01*
X19823Y23905D01*
X19824Y23920D01*
X19904Y23800D01*
D02*
G37*
G36*
X24683Y23776D02*
X24674Y23767D01*
X24667Y23757D01*
X24660Y23747D01*
X24655Y23735D01*
X24650Y23723D01*
X24646Y23710D01*
X24643Y23697D01*
X24641Y23682D01*
X24640Y23667D01*
X24640Y23651D01*
X24501Y23790D01*
X24517Y23790D01*
X24532Y23791D01*
X24547Y23793D01*
X24560Y23796D01*
X24573Y23800D01*
X24585Y23805D01*
X24597Y23811D01*
X24607Y23817D01*
X24617Y23824D01*
X24626Y23833D01*
X24683Y23776D01*
D02*
G37*
G36*
X10799Y23660D02*
X10783Y23660D01*
X10768Y23659D01*
X10753Y23657D01*
X10740Y23654D01*
X10727Y23650D01*
X10715Y23645D01*
X10703Y23640D01*
X10693Y23633D01*
X10683Y23626D01*
X10674Y23617D01*
X10617Y23674D01*
X10626Y23683D01*
X10633Y23693D01*
X10639Y23703D01*
X10645Y23715D01*
X10650Y23727D01*
X10654Y23740D01*
X10657Y23753D01*
X10659Y23768D01*
X10660Y23783D01*
X10660Y23799D01*
X10799Y23660D01*
D02*
G37*
G36*
X19354Y23262D02*
X19354Y23269D01*
X19351Y23276D01*
X19347Y23282D01*
X19341Y23287D01*
X19334Y23292D01*
X19325Y23295D01*
X19315Y23298D01*
X19313Y23298D01*
X19311Y23298D01*
X19300Y23295D01*
X19291Y23292D01*
X19284Y23287D01*
X19278Y23282D01*
X19274Y23276D01*
X19272Y23269D01*
X19271Y23262D01*
Y23422D01*
X19272Y23414D01*
X19274Y23407D01*
X19278Y23401D01*
X19284Y23396D01*
X19291Y23392D01*
X19300Y23388D01*
X19311Y23385D01*
X19313Y23385D01*
X19315Y23385D01*
X19325Y23388D01*
X19334Y23392D01*
X19341Y23396D01*
X19347Y23401D01*
X19351Y23407D01*
X19354Y23414D01*
X19354Y23422D01*
Y23262D01*
D02*
G37*
G36*
X24933Y23376D02*
X24924Y23367D01*
X24917Y23357D01*
X24911Y23347D01*
X24905Y23335D01*
X24900Y23323D01*
X24896Y23310D01*
X24893Y23297D01*
X24891Y23282D01*
X24890Y23267D01*
X24890Y23251D01*
X24751Y23390D01*
X24767Y23390D01*
X24782Y23391D01*
X24797Y23393D01*
X24810Y23396D01*
X24823Y23400D01*
X24835Y23405D01*
X24847Y23410D01*
X24857Y23417D01*
X24867Y23424D01*
X24876Y23433D01*
X24933Y23376D01*
D02*
G37*
G36*
X13786Y23232D02*
X13787Y23219D01*
X13789Y23207D01*
X13792Y23198D01*
X13795Y23189D01*
X13798Y23183D01*
X13803Y23177D01*
X13808Y23173D01*
X13814Y23171D01*
X13820Y23170D01*
X13672D01*
X13678Y23171D01*
X13684Y23173D01*
X13689Y23177D01*
X13694Y23183D01*
X13697Y23189D01*
X13701Y23198D01*
X13703Y23207D01*
X13705Y23219D01*
X13706Y23232D01*
X13706Y23246D01*
X13786D01*
X13786Y23232D01*
D02*
G37*
G36*
X23750Y23198D02*
X23700Y23165D01*
X23684Y23168D01*
X21242D01*
X21229Y23166D01*
X21066D01*
Y23329D01*
X21068Y23342D01*
Y23574D01*
X21242Y23748D01*
X22750D01*
X22789Y23756D01*
X22822Y23778D01*
X22997Y23952D01*
X23019Y23985D01*
X23026Y24024D01*
Y24036D01*
X23029Y24042D01*
X23030Y24056D01*
X23030Y24063D01*
X23142D01*
Y24537D01*
X22707D01*
Y24063D01*
X22748D01*
X22769Y24013D01*
X22708Y23952D01*
X21911D01*
X21892Y23998D01*
X21897Y24002D01*
X21919Y24035D01*
X21923Y24060D01*
X21925Y24063D01*
X22042D01*
Y24537D01*
X21607D01*
Y24092D01*
X21090D01*
X21051Y24084D01*
X21018Y24062D01*
X20875Y23919D01*
X20871Y23919D01*
X20826Y23941D01*
Y24036D01*
X20829Y24042D01*
X20830Y24056D01*
X20830Y24063D01*
X20942D01*
Y24537D01*
X20636D01*
X20617Y24583D01*
X20797Y24763D01*
X20819Y24796D01*
X20826Y24835D01*
Y25036D01*
X20829Y25042D01*
X20830Y25056D01*
X20830Y25063D01*
X20942D01*
Y25537D01*
X20825D01*
X20824Y25540D01*
X20819Y25565D01*
X20797Y25598D01*
X20572Y25822D01*
X20550Y25837D01*
Y25963D01*
X20942D01*
Y26437D01*
X20550D01*
Y26500D01*
X20800Y26750D01*
X23750D01*
Y23198D01*
D02*
G37*
G36*
X19747Y23169D02*
X19748Y23155D01*
X19750Y23143D01*
X19753Y23132D01*
X19756Y23123D01*
X19761Y23116D01*
X19766Y23110D01*
X19772Y23106D01*
X19779Y23104D01*
X19786Y23103D01*
X19469D01*
X19476Y23104D01*
X19483Y23106D01*
X19489Y23110D01*
X19494Y23116D01*
X19499Y23123D01*
X19502Y23132D01*
X19505Y23143D01*
X19507Y23155D01*
X19508Y23169D01*
X19509Y23184D01*
X19589D01*
X19589Y23169D01*
X19590Y23155D01*
X19592Y23143D01*
X19595Y23132D01*
X19599Y23123D01*
X19603Y23116D01*
X19608Y23110D01*
X19614Y23106D01*
X19621Y23104D01*
X19628Y23103D01*
X19634Y23104D01*
X19641Y23106D01*
X19647Y23110D01*
X19652Y23116D01*
X19656Y23123D01*
X19660Y23132D01*
X19663Y23143D01*
X19665Y23155D01*
X19666Y23169D01*
X19666Y23184D01*
X19746D01*
X19747Y23169D01*
D02*
G37*
G36*
X10291Y23206D02*
X10292Y23194D01*
X10295Y23182D01*
X10299Y23170D01*
X10304Y23158D01*
X10311Y23146D01*
X10318Y23134D01*
X10327Y23123D01*
X10337Y23111D01*
X10348Y23100D01*
X10152D01*
X10163Y23111D01*
X10173Y23123D01*
X10182Y23134D01*
X10189Y23146D01*
X10195Y23158D01*
X10201Y23170D01*
X10205Y23182D01*
X10208Y23194D01*
X10209Y23206D01*
X10210Y23218D01*
X10290D01*
X10291Y23206D01*
D02*
G37*
G36*
X21014Y22967D02*
Y22500D01*
X19186D01*
Y22652D01*
Y23114D01*
X19358D01*
X19404Y23096D01*
X19415Y23077D01*
X19423Y23057D01*
X19426Y23056D01*
X19428Y23053D01*
X19447Y23047D01*
X19448Y23046D01*
X19455Y23011D01*
X19477Y22978D01*
X19510Y22956D01*
X19549Y22948D01*
X19588Y22956D01*
X19589Y22956D01*
X19628Y22975D01*
X19667Y22956D01*
X19667Y22956D01*
X19706Y22948D01*
X19745Y22956D01*
X19778Y22978D01*
X19800Y23011D01*
X19808Y23046D01*
X19808Y23047D01*
X19827Y23052D01*
X19827Y23053D01*
X19829Y23056D01*
X19832Y23057D01*
X19841Y23077D01*
X19851Y23096D01*
X19897Y23114D01*
X21014D01*
Y22967D01*
D02*
G37*
G36*
X17831Y22824D02*
X17834Y22817D01*
X17838Y22811D01*
X17844Y22806D01*
X17851Y22801D01*
X17860Y22798D01*
X17870Y22795D01*
X17883Y22793D01*
X17896Y22792D01*
X17912Y22791D01*
Y22711D01*
X17896Y22711D01*
X17883Y22710D01*
X17870Y22708D01*
X17860Y22705D01*
X17851Y22701D01*
X17844Y22697D01*
X17838Y22692D01*
X17834Y22686D01*
X17831Y22679D01*
X17831Y22671D01*
Y22831D01*
X17831Y22824D01*
D02*
G37*
G36*
X22611Y22737D02*
X22623Y22727D01*
X22634Y22718D01*
X22646Y22711D01*
X22658Y22705D01*
X22670Y22699D01*
X22682Y22695D01*
X22694Y22692D01*
X22706Y22691D01*
X22718Y22690D01*
Y22610D01*
X22706Y22609D01*
X22694Y22608D01*
X22682Y22605D01*
X22670Y22601D01*
X22658Y22596D01*
X22646Y22589D01*
X22634Y22582D01*
X22623Y22573D01*
X22611Y22563D01*
X22600Y22552D01*
Y22748D01*
X22611Y22737D01*
D02*
G37*
G36*
X26054Y22745D02*
X26030Y22723D01*
X26009Y22701D01*
X25991Y22680D01*
X25975Y22658D01*
X25962Y22636D01*
X25953Y22615D01*
X25946Y22593D01*
X25941Y22572D01*
X25940Y22550D01*
X25860D01*
X25859Y22572D01*
X25854Y22593D01*
X25847Y22615D01*
X25838Y22636D01*
X25825Y22658D01*
X25809Y22680D01*
X25791Y22701D01*
X25770Y22723D01*
X25746Y22745D01*
X25719Y22766D01*
X26081D01*
X26054Y22745D01*
D02*
G37*
G36*
X14311Y22543D02*
X14304Y22541D01*
X14298Y22537D01*
X14293Y22531D01*
X14288Y22524D01*
X14285Y22515D01*
X14282Y22505D01*
X14280Y22493D01*
X14279Y22479D01*
X14278Y22464D01*
X14198D01*
X14198Y22479D01*
X14197Y22493D01*
X14195Y22505D01*
X14192Y22515D01*
X14188Y22524D01*
X14184Y22531D01*
X14179Y22537D01*
X14173Y22541D01*
X14166Y22543D01*
X14158Y22544D01*
X14318D01*
X14311Y22543D01*
D02*
G37*
G36*
X13818D02*
X13812Y22541D01*
X13806Y22537D01*
X13800Y22531D01*
X13796Y22524D01*
X13792Y22515D01*
X13790Y22505D01*
X13788Y22493D01*
X13786Y22479D01*
X13786Y22464D01*
X13706D01*
X13706Y22479D01*
X13704Y22493D01*
X13702Y22505D01*
X13700Y22515D01*
X13696Y22524D01*
X13692Y22531D01*
X13686Y22537D01*
X13680Y22541D01*
X13674Y22543D01*
X13666Y22544D01*
X13826D01*
X13818Y22543D01*
D02*
G37*
G36*
X15749Y22310D02*
X15733Y22310D01*
X15718Y22309D01*
X15703Y22307D01*
X15690Y22304D01*
X15677Y22300D01*
X15665Y22295D01*
X15653Y22290D01*
X15643Y22283D01*
X15633Y22276D01*
X15624Y22267D01*
X15567Y22324D01*
X15576Y22333D01*
X15583Y22343D01*
X15589Y22353D01*
X15595Y22365D01*
X15600Y22377D01*
X15604Y22390D01*
X15607Y22403D01*
X15609Y22418D01*
X15610Y22433D01*
X15610Y22449D01*
X15749Y22310D01*
D02*
G37*
G36*
X22761Y22387D02*
X22773Y22377D01*
X22784Y22368D01*
X22796Y22361D01*
X22808Y22355D01*
X22820Y22349D01*
X22832Y22345D01*
X22844Y22342D01*
X22856Y22341D01*
X22868Y22340D01*
Y22260D01*
X22856Y22259D01*
X22844Y22258D01*
X22832Y22255D01*
X22820Y22251D01*
X22808Y22246D01*
X22796Y22239D01*
X22784Y22232D01*
X22773Y22223D01*
X22761Y22213D01*
X22750Y22202D01*
Y22398D01*
X22761Y22387D01*
D02*
G37*
G36*
X13240Y21938D02*
X13241Y21927D01*
X13243Y21917D01*
X13245Y21908D01*
X13247Y21900D01*
X13251Y21892D01*
X13255Y21886D01*
X13259Y21880D01*
X13264Y21875D01*
X13270Y21871D01*
X13130D01*
X13136Y21875D01*
X13141Y21880D01*
X13145Y21886D01*
X13149Y21892D01*
X13153Y21900D01*
X13155Y21908D01*
X13157Y21917D01*
X13159Y21927D01*
X13160Y21938D01*
X13160Y21950D01*
X13240D01*
X13240Y21938D01*
D02*
G37*
G36*
X24975Y21809D02*
X24961Y21795D01*
X24903Y21729D01*
X24894Y21716D01*
X24872Y21682D01*
X24829Y21866D01*
X24839Y21859D01*
X24850Y21855D01*
X24860Y21852D01*
X24871Y21850D01*
X24881Y21851D01*
X24891Y21853D01*
X24901Y21857D01*
X24911Y21862D01*
X24921Y21869D01*
X24931Y21878D01*
X24975Y21809D01*
D02*
G37*
G36*
X24291Y21706D02*
X24292Y21694D01*
X24295Y21682D01*
X24299Y21670D01*
X24304Y21658D01*
X24311Y21646D01*
X24318Y21634D01*
X24327Y21623D01*
X24337Y21611D01*
X24348Y21600D01*
X24152D01*
X24163Y21611D01*
X24173Y21623D01*
X24182Y21634D01*
X24189Y21646D01*
X24195Y21658D01*
X24201Y21670D01*
X24205Y21682D01*
X24208Y21694D01*
X24209Y21706D01*
X24210Y21718D01*
X24290D01*
X24291Y21706D01*
D02*
G37*
G36*
X26054Y21745D02*
X26030Y21723D01*
X26009Y21701D01*
X25991Y21680D01*
X25975Y21658D01*
X25962Y21636D01*
X25953Y21615D01*
X25946Y21593D01*
X25941Y21572D01*
X25940Y21550D01*
X25860D01*
X25859Y21572D01*
X25854Y21593D01*
X25847Y21615D01*
X25838Y21636D01*
X25825Y21658D01*
X25809Y21680D01*
X25791Y21701D01*
X25770Y21723D01*
X25746Y21745D01*
X25719Y21766D01*
X26081D01*
X26054Y21745D01*
D02*
G37*
G36*
X22125Y21446D02*
X22124Y21453D01*
X22122Y21460D01*
X22118Y21466D01*
X22112Y21471D01*
X22105Y21476D01*
X22096Y21479D01*
X22085Y21482D01*
X22073Y21484D01*
X22059Y21485D01*
X22044Y21486D01*
Y21566D01*
X22059Y21566D01*
X22073Y21567D01*
X22085Y21569D01*
X22096Y21572D01*
X22105Y21576D01*
X22112Y21580D01*
X22118Y21585D01*
X22122Y21591D01*
X22124Y21598D01*
X22125Y21606D01*
Y21446D01*
D02*
G37*
G36*
X13868Y21524D02*
X13861Y21522D01*
X13855Y21518D01*
X13850Y21512D01*
X13845Y21505D01*
X13842Y21496D01*
X13839Y21485D01*
X13837Y21473D01*
X13836Y21459D01*
X13835Y21444D01*
X13755D01*
X13755Y21459D01*
X13754Y21473D01*
X13752Y21485D01*
X13749Y21496D01*
X13745Y21505D01*
X13741Y21512D01*
X13736Y21518D01*
X13730Y21522D01*
X13723Y21524D01*
X13715Y21525D01*
X13875D01*
X13868Y21524D01*
D02*
G37*
G36*
X18011Y21587D02*
X18023Y21577D01*
X18034Y21568D01*
X18046Y21561D01*
X18058Y21555D01*
X18070Y21549D01*
X18082Y21545D01*
X18094Y21542D01*
X18106Y21541D01*
X18118Y21540D01*
Y21460D01*
X18106Y21459D01*
X18094Y21458D01*
X18082Y21455D01*
X18070Y21451D01*
X18058Y21446D01*
X18046Y21439D01*
X18034Y21432D01*
X18023Y21423D01*
X18011Y21413D01*
X18000Y21402D01*
Y21598D01*
X18011Y21587D01*
D02*
G37*
G36*
X17800Y21402D02*
X17789Y21413D01*
X17777Y21423D01*
X17766Y21432D01*
X17754Y21439D01*
X17742Y21446D01*
X17730Y21451D01*
X17718Y21455D01*
X17706Y21458D01*
X17694Y21459D01*
X17682Y21460D01*
Y21540D01*
X17694Y21541D01*
X17706Y21542D01*
X17718Y21545D01*
X17730Y21549D01*
X17742Y21555D01*
X17754Y21561D01*
X17766Y21568D01*
X17777Y21577D01*
X17789Y21587D01*
X17800Y21598D01*
Y21402D01*
D02*
G37*
G36*
X21005Y21406D02*
X21008Y21399D01*
X21012Y21393D01*
X21017Y21388D01*
X21024Y21384D01*
X21033Y21380D01*
X21044Y21377D01*
X21056Y21375D01*
X21069Y21374D01*
X21084Y21374D01*
Y21294D01*
X21004Y21296D01*
Y21414D01*
X21005Y21406D01*
D02*
G37*
G36*
X13835Y21328D02*
X13838Y21292D01*
X13840Y21283D01*
X13842Y21276D01*
X13844Y21271D01*
X13847Y21267D01*
X13850Y21264D01*
X13853Y21263D01*
X13737D01*
X13741Y21264D01*
X13744Y21267D01*
X13747Y21271D01*
X13749Y21276D01*
X13751Y21283D01*
X13752Y21292D01*
X13754Y21303D01*
X13755Y21328D01*
X13755Y21343D01*
X13835D01*
X13835Y21328D01*
D02*
G37*
G36*
X13245D02*
X13248Y21292D01*
X13249Y21283D01*
X13251Y21276D01*
X13253Y21271D01*
X13256Y21267D01*
X13259Y21264D01*
X13263Y21263D01*
X13147D01*
X13150Y21264D01*
X13153Y21267D01*
X13156Y21271D01*
X13158Y21276D01*
X13160Y21283D01*
X13162Y21292D01*
X13163Y21303D01*
X13165Y21328D01*
X13165Y21343D01*
X13245D01*
X13245Y21328D01*
D02*
G37*
G36*
X13048D02*
X13051Y21292D01*
X13052Y21283D01*
X13054Y21276D01*
X13057Y21271D01*
X13059Y21267D01*
X13062Y21264D01*
X13066Y21263D01*
X12950D01*
X12953Y21264D01*
X12956Y21267D01*
X12959Y21271D01*
X12961Y21276D01*
X12963Y21283D01*
X12965Y21292D01*
X12966Y21303D01*
X12968Y21328D01*
X12968Y21343D01*
X13048D01*
X13048Y21328D01*
D02*
G37*
G36*
X18498Y21192D02*
X18490Y21183D01*
X18475Y21165D01*
X18460Y21145D01*
X18445Y21123D01*
X18431Y21099D01*
X18425Y21086D01*
X18372Y21270D01*
X18383Y21264D01*
X18394Y21260D01*
X18406Y21257D01*
X18416Y21256D01*
X18427Y21256D01*
X18438Y21259D01*
X18448Y21263D01*
X18458Y21268D01*
X18468Y21275D01*
X18478Y21284D01*
X18498Y21192D01*
D02*
G37*
G36*
X23741Y21256D02*
X23742Y21244D01*
X23745Y21232D01*
X23749Y21220D01*
X23754Y21208D01*
X23761Y21196D01*
X23768Y21184D01*
X23777Y21173D01*
X23787Y21161D01*
X23798Y21150D01*
X23602D01*
X23613Y21161D01*
X23623Y21173D01*
X23632Y21184D01*
X23639Y21196D01*
X23646Y21208D01*
X23651Y21220D01*
X23655Y21232D01*
X23658Y21244D01*
X23659Y21256D01*
X23660Y21268D01*
X23740D01*
X23741Y21256D01*
D02*
G37*
G36*
X24541Y21206D02*
X24542Y21194D01*
X24545Y21182D01*
X24549Y21170D01*
X24555Y21158D01*
X24561Y21146D01*
X24568Y21134D01*
X24577Y21123D01*
X24587Y21111D01*
X24598Y21100D01*
X24402D01*
X24413Y21111D01*
X24423Y21123D01*
X24432Y21134D01*
X24439Y21146D01*
X24446Y21158D01*
X24451Y21170D01*
X24455Y21182D01*
X24458Y21194D01*
X24459Y21206D01*
X24460Y21218D01*
X24540D01*
X24541Y21206D01*
D02*
G37*
G36*
X18200Y21052D02*
X18189Y21063D01*
X18177Y21073D01*
X18166Y21082D01*
X18154Y21089D01*
X18142Y21095D01*
X18130Y21101D01*
X18118Y21105D01*
X18106Y21108D01*
X18094Y21109D01*
X18082Y21110D01*
Y21190D01*
X18094Y21191D01*
X18106Y21192D01*
X18118Y21195D01*
X18130Y21199D01*
X18142Y21205D01*
X18154Y21211D01*
X18166Y21218D01*
X18177Y21227D01*
X18189Y21237D01*
X18200Y21248D01*
Y21052D01*
D02*
G37*
G36*
X22600Y20892D02*
X22589Y20903D01*
X22577Y20913D01*
X22566Y20922D01*
X22554Y20929D01*
X22542Y20935D01*
X22530Y20941D01*
X22518Y20945D01*
X22513Y20946D01*
X22504Y20944D01*
X22495Y20940D01*
X22488Y20936D01*
X22482Y20930D01*
X22478Y20924D01*
X22476Y20918D01*
X22475Y20910D01*
Y21070D01*
X22476Y21062D01*
X22478Y21056D01*
X22482Y21050D01*
X22488Y21044D01*
X22495Y21040D01*
X22504Y21036D01*
X22513Y21034D01*
X22518Y21035D01*
X22530Y21039D01*
X22542Y21044D01*
X22554Y21051D01*
X22566Y21058D01*
X22577Y21067D01*
X22589Y21077D01*
X22600Y21088D01*
Y20892D01*
D02*
G37*
G36*
X24041Y21056D02*
X24042Y21044D01*
X24045Y21032D01*
X24049Y21020D01*
X24055Y21008D01*
X24061Y20996D01*
X24068Y20984D01*
X24077Y20973D01*
X24087Y20961D01*
X24098Y20950D01*
X23902D01*
X23913Y20961D01*
X23923Y20973D01*
X23932Y20984D01*
X23939Y20996D01*
X23946Y21008D01*
X23951Y21020D01*
X23955Y21032D01*
X23958Y21044D01*
X23959Y21056D01*
X23960Y21068D01*
X24040D01*
X24041Y21056D01*
D02*
G37*
G36*
X25669Y20816D02*
X25645Y20845D01*
X25598Y20894D01*
X25574Y20914D01*
X25551Y20930D01*
X25529Y20944D01*
X25506Y20955D01*
X25484Y20962D01*
X25463Y20967D01*
X25441Y20969D01*
Y21049D01*
X25463Y21050D01*
X25485Y21055D01*
X25507Y21062D01*
X25530Y21072D01*
X25554Y21086D01*
X25578Y21102D01*
X25603Y21121D01*
X25628Y21144D01*
X25680Y21197D01*
X25669Y20816D01*
D02*
G37*
G36*
X17487Y20789D02*
X17477Y20777D01*
X17468Y20766D01*
X17461Y20754D01*
X17455Y20742D01*
X17449Y20730D01*
X17445Y20718D01*
X17442Y20706D01*
X17441Y20694D01*
X17440Y20682D01*
X17360D01*
X17359Y20694D01*
X17358Y20706D01*
X17355Y20718D01*
X17351Y20730D01*
X17345Y20742D01*
X17339Y20754D01*
X17332Y20766D01*
X17323Y20777D01*
X17313Y20789D01*
X17302Y20800D01*
X17498D01*
X17487Y20789D01*
D02*
G37*
G36*
X19274Y20815D02*
X19276Y20799D01*
X19279Y20785D01*
X19283Y20770D01*
X19288Y20756D01*
X19294Y20743D01*
X19302Y20730D01*
X19310Y20717D01*
X19320Y20705D01*
X19330Y20694D01*
X19290Y20621D01*
X19279Y20631D01*
X19268Y20639D01*
X19256Y20644D01*
X19245Y20648D01*
X19234Y20649D01*
X19223Y20648D01*
X19211Y20644D01*
X19200Y20639D01*
X19189Y20631D01*
X19177Y20621D01*
X19137Y20694D01*
X19148Y20705D01*
X19158Y20717D01*
X19166Y20730D01*
X19173Y20743D01*
X19180Y20756D01*
X19185Y20770D01*
X19189Y20785D01*
X19192Y20799D01*
X19193Y20815D01*
X19194Y20830D01*
X19274D01*
X19274Y20815D01*
D02*
G37*
G36*
X17810Y20593D02*
X17823Y20582D01*
X17835Y20572D01*
X17848Y20563D01*
X17861Y20556D01*
X17874Y20550D01*
X17886Y20546D01*
X17899Y20543D01*
X17912Y20541D01*
X17925Y20540D01*
Y20460D01*
X17912Y20459D01*
X17899Y20457D01*
X17886Y20454D01*
X17874Y20450D01*
X17861Y20444D01*
X17848Y20437D01*
X17835Y20428D01*
X17823Y20418D01*
X17810Y20407D01*
X17797Y20395D01*
Y20605D01*
X17810Y20593D01*
D02*
G37*
G36*
X19466Y20191D02*
X19467Y20177D01*
X19469Y20165D01*
X19472Y20154D01*
X19476Y20145D01*
X19480Y20138D01*
X19485Y20132D01*
X19491Y20128D01*
X19498Y20126D01*
X19506Y20125D01*
X19346D01*
X19353Y20126D01*
X19360Y20128D01*
X19366Y20132D01*
X19371Y20138D01*
X19376Y20145D01*
X19379Y20154D01*
X19382Y20165D01*
X19384Y20177D01*
X19385Y20191D01*
X19386Y20206D01*
X19466D01*
X19466Y20191D01*
D02*
G37*
G36*
X14750Y25384D02*
X14743Y25337D01*
X14308D01*
Y24863D01*
X14394D01*
X14395Y24856D01*
X14395Y24842D01*
X14398Y24836D01*
Y24642D01*
X14166Y24410D01*
X14144Y24377D01*
X14138Y24349D01*
X14133Y24338D01*
X14133Y24324D01*
X14132Y24317D01*
X14060D01*
Y24048D01*
X14053Y24047D01*
X14040Y24047D01*
X14033Y24044D01*
X13951D01*
X13945Y24047D01*
X13931Y24047D01*
X13924Y24048D01*
Y24317D01*
X13568D01*
Y23567D01*
X13924D01*
Y23836D01*
X13931Y23837D01*
X13945Y23837D01*
X13951Y23840D01*
X14033D01*
X14040Y23837D01*
X14053Y23837D01*
X14060Y23836D01*
Y23567D01*
X14416D01*
Y24317D01*
X14416D01*
X14400Y24356D01*
X14572Y24528D01*
X14594Y24561D01*
X14602Y24600D01*
Y24814D01*
X14641Y24863D01*
X14743D01*
X14750Y24816D01*
Y23502D01*
X13900D01*
X13861Y23494D01*
X13828Y23472D01*
X13674Y23318D01*
X13652Y23285D01*
X13647Y23261D01*
X13641Y23248D01*
X13641Y23235D01*
X13641Y23233D01*
X13568D01*
Y22483D01*
X13631D01*
X13639Y22433D01*
X13558Y22352D01*
X13050D01*
X13011Y22344D01*
X12978Y22322D01*
X12778Y22122D01*
X12756Y22089D01*
X12748Y22050D01*
Y21700D01*
X12756Y21661D01*
X12778Y21628D01*
X12906Y21500D01*
Y21351D01*
X12903Y21344D01*
X12903Y21330D01*
X12902Y21325D01*
X12889D01*
Y21272D01*
X12885Y21263D01*
X12888Y21256D01*
X12887Y21248D01*
X12889Y21246D01*
Y20870D01*
X14111D01*
Y21325D01*
X13901D01*
X13900Y21331D01*
X13900Y21344D01*
X13897Y21351D01*
Y21436D01*
X13900Y21442D01*
X13901Y21456D01*
X13901Y21463D01*
X13992D01*
Y21937D01*
X13557D01*
Y21463D01*
X13689D01*
X13690Y21456D01*
X13690Y21442D01*
X13693Y21436D01*
Y21351D01*
X13690Y21344D01*
X13690Y21330D01*
X13690Y21325D01*
X13310D01*
X13310Y21331D01*
X13310Y21344D01*
X13307Y21351D01*
Y21581D01*
X13344Y21606D01*
X13388Y21672D01*
X13404Y21750D01*
X13388Y21828D01*
X13344Y21894D01*
X13347Y21953D01*
X13392Y21998D01*
X14100D01*
X14139Y22006D01*
X14172Y22028D01*
X14310Y22166D01*
X14332Y22199D01*
X14340Y22238D01*
Y22456D01*
X14343Y22462D01*
X14343Y22476D01*
X14344Y22483D01*
X14416D01*
Y23233D01*
X14060D01*
Y22483D01*
X14132D01*
X14133Y22476D01*
X14133Y22462D01*
X14136Y22456D01*
Y22280D01*
X14058Y22202D01*
X13761D01*
X13742Y22248D01*
X13818Y22324D01*
X13840Y22357D01*
X13848Y22396D01*
Y22456D01*
X13851Y22462D01*
X13851Y22476D01*
X13852Y22483D01*
X13924D01*
Y23233D01*
X13924D01*
X13913Y23260D01*
X13944Y23298D01*
X14828D01*
X14856Y23256D01*
X14922Y23212D01*
X15000Y23196D01*
X15045Y23205D01*
X15250Y23000D01*
Y20087D01*
X15237Y20042D01*
X14763D01*
Y19914D01*
X14756Y19913D01*
X14742Y19913D01*
X14736Y19910D01*
X14551D01*
X14544Y19913D01*
X14530Y19913D01*
X14525Y19913D01*
Y20279D01*
Y20714D01*
X14070D01*
Y20476D01*
Y20083D01*
Y19730D01*
X12930D01*
Y20279D01*
Y20714D01*
X12475D01*
Y20279D01*
Y19913D01*
X12469Y19913D01*
X12456Y19913D01*
X12449Y19910D01*
X12408D01*
X12369Y19902D01*
X12336Y19880D01*
X12178Y19722D01*
X12156Y19689D01*
X12150Y19660D01*
X12100Y19665D01*
Y23750D01*
X11500Y24350D01*
Y26750D01*
X14750D01*
Y25384D01*
D02*
G37*
G36*
X19581Y20022D02*
X19584Y20016D01*
X19588Y20010D01*
X19594Y20004D01*
X19601Y20000D01*
X19610Y19996D01*
X19620Y19994D01*
X19633Y19992D01*
X19646Y19990D01*
X19662Y19990D01*
Y19910D01*
X19646Y19910D01*
X19633Y19908D01*
X19620Y19906D01*
X19610Y19904D01*
X19601Y19900D01*
X19594Y19896D01*
X19588Y19890D01*
X19584Y19884D01*
X19581Y19878D01*
X19581Y19870D01*
Y20030D01*
X19581Y20022D01*
D02*
G37*
G36*
X18718Y19870D02*
X18717Y19878D01*
X18715Y19884D01*
X18711Y19890D01*
X18705Y19896D01*
X18698Y19900D01*
X18689Y19904D01*
X18679Y19906D01*
X18667Y19908D01*
X18653Y19910D01*
X18638Y19910D01*
Y19990D01*
X18653Y19990D01*
X18667Y19992D01*
X18679Y19994D01*
X18689Y19996D01*
X18698Y20000D01*
X18705Y20004D01*
X18711Y20010D01*
X18715Y20016D01*
X18717Y20022D01*
X18718Y20030D01*
Y19870D01*
D02*
G37*
G36*
X14910Y19734D02*
X15086Y19714D01*
X15074Y19704D01*
X15063Y19694D01*
X15054Y19683D01*
X15046Y19673D01*
X15044Y19669D01*
X15063D01*
X15056Y19669D01*
X15049Y19666D01*
X15043Y19662D01*
X15038Y19656D01*
X15033Y19649D01*
X15030Y19640D01*
X15027Y19630D01*
X15025Y19617D01*
X15024Y19604D01*
X15023Y19588D01*
X14943D01*
X14943Y19604D01*
X14942Y19617D01*
X14940Y19630D01*
X14937Y19640D01*
X14933Y19649D01*
X14929Y19656D01*
X14924Y19662D01*
X14918Y19666D01*
X14911Y19669D01*
X14903Y19669D01*
X14932D01*
X14930Y19673D01*
X14925Y19685D01*
X14918Y19698D01*
X14910Y19711D01*
X14901Y19724D01*
X14900Y19725D01*
X14899Y19725D01*
X14874Y19742D01*
X14861Y19749D01*
X14848Y19755D01*
X14836Y19759D01*
X14825Y19763D01*
Y19728D01*
X14824Y19735D01*
X14822Y19742D01*
X14818Y19748D01*
X14812Y19753D01*
X14805Y19758D01*
X14796Y19761D01*
X14785Y19764D01*
X14773Y19766D01*
X14759Y19767D01*
X14744Y19768D01*
Y19848D01*
X14759Y19848D01*
X14773Y19849D01*
X14785Y19851D01*
X14796Y19854D01*
X14805Y19858D01*
X14812Y19862D01*
X14818Y19867D01*
X14822Y19873D01*
X14824Y19880D01*
X14825Y19888D01*
Y19857D01*
X14826Y19858D01*
X14837Y19863D01*
X14848Y19870D01*
X14859Y19878D01*
X14869Y19888D01*
X14879Y19898D01*
X14889Y19910D01*
X14910Y19734D01*
D02*
G37*
G36*
X19788Y19969D02*
X19798Y19962D01*
X19807Y19955D01*
X19817Y19949D01*
X19828Y19945D01*
X19838Y19941D01*
X19848Y19939D01*
X19859Y19938D01*
X19870Y19938D01*
X19880Y19939D01*
X19761Y19820D01*
X19762Y19830D01*
X19762Y19841D01*
X19761Y19852D01*
X19759Y19862D01*
X19755Y19872D01*
X19751Y19883D01*
X19745Y19893D01*
X19738Y19902D01*
X19731Y19912D01*
X19722Y19922D01*
X19778Y19978D01*
X19788Y19969D01*
D02*
G37*
G36*
X25695Y19787D02*
X25662Y19818D01*
X25571Y19892D01*
X25544Y19910D01*
X25518Y19925D01*
X25494Y19937D01*
X25472Y19945D01*
X25451Y19950D01*
X25432Y19951D01*
X25429Y20031D01*
X25449Y20033D01*
X25471Y20038D01*
X25493Y20047D01*
X25517Y20058D01*
X25542Y20074D01*
X25568Y20092D01*
X25595Y20114D01*
X25653Y20168D01*
X25683Y20200D01*
X25695Y19787D01*
D02*
G37*
G36*
X14464Y19862D02*
X14467Y19859D01*
X14471Y19857D01*
X14476Y19854D01*
X14483Y19852D01*
X14492Y19851D01*
X14503Y19849D01*
X14528Y19848D01*
X14543Y19848D01*
Y19768D01*
X14528Y19768D01*
X14492Y19765D01*
X14483Y19763D01*
X14476Y19761D01*
X14471Y19759D01*
X14467Y19756D01*
X14464Y19753D01*
X14463Y19750D01*
Y19866D01*
X14464Y19862D01*
D02*
G37*
G36*
X12537Y19750D02*
X12536Y19753D01*
X12533Y19756D01*
X12529Y19759D01*
X12524Y19761D01*
X12517Y19763D01*
X12508Y19765D01*
X12497Y19766D01*
X12472Y19768D01*
X12457Y19768D01*
Y19848D01*
X12472Y19848D01*
X12508Y19851D01*
X12517Y19852D01*
X12524Y19854D01*
X12529Y19857D01*
X12533Y19859D01*
X12536Y19862D01*
X12537Y19866D01*
Y19750D01*
D02*
G37*
G36*
X12889Y19354D02*
X12887Y19352D01*
X12888Y19344D01*
X12885Y19337D01*
X12889Y19328D01*
Y19275D01*
X12902D01*
X12903Y19269D01*
X12903Y19256D01*
X12906Y19249D01*
Y19050D01*
X12778Y18922D01*
X12756Y18889D01*
X12748Y18850D01*
Y16441D01*
X12745Y16435D01*
X12745Y16421D01*
X12745Y16414D01*
X12554D01*
Y16204D01*
X12548Y16204D01*
X12535Y16203D01*
X12528Y16200D01*
X12348D01*
X12309Y16193D01*
X12276Y16171D01*
X12178Y16072D01*
X12156Y16039D01*
X12150Y16010D01*
X12100Y16015D01*
Y17485D01*
X12150Y17490D01*
X12156Y17461D01*
X12178Y17428D01*
X12206Y17400D01*
X12196Y17350D01*
X12212Y17272D01*
X12256Y17206D01*
X12322Y17162D01*
X12400Y17146D01*
X12478Y17162D01*
X12544Y17206D01*
X12588Y17272D01*
X12604Y17350D01*
X12588Y17428D01*
X12544Y17494D01*
X12478Y17538D01*
X12400Y17554D01*
X12391Y17552D01*
X12352Y17584D01*
Y19608D01*
X12428Y19683D01*
X12475Y19689D01*
Y19689D01*
X12528D01*
X12537Y19685D01*
X12544Y19688D01*
X12552Y19687D01*
X12554Y19689D01*
X12889D01*
Y19354D01*
D02*
G37*
G36*
X13345Y19423D02*
X13344Y19430D01*
X13342Y19437D01*
X13338Y19443D01*
X13332Y19448D01*
X13325Y19453D01*
X13316Y19456D01*
X13305Y19459D01*
X13303Y19459D01*
X13301Y19459D01*
X13291Y19456D01*
X13282Y19453D01*
X13274Y19448D01*
X13269Y19443D01*
X13265Y19437D01*
X13262Y19430D01*
X13261Y19423D01*
Y19583D01*
X13262Y19575D01*
X13265Y19568D01*
X13269Y19562D01*
X13274Y19557D01*
X13282Y19553D01*
X13291Y19549D01*
X13301Y19546D01*
X13303Y19546D01*
X13305Y19546D01*
X13316Y19549D01*
X13325Y19553D01*
X13332Y19557D01*
X13338Y19562D01*
X13342Y19568D01*
X13344Y19575D01*
X13345Y19583D01*
Y19423D01*
D02*
G37*
G36*
X17061Y19587D02*
X17073Y19577D01*
X17084Y19568D01*
X17096Y19561D01*
X17108Y19555D01*
X17120Y19549D01*
X17132Y19545D01*
X17144Y19542D01*
X17156Y19541D01*
X17168Y19540D01*
Y19460D01*
X17156Y19459D01*
X17144Y19458D01*
X17132Y19455D01*
X17120Y19451D01*
X17108Y19446D01*
X17096Y19439D01*
X17084Y19432D01*
X17073Y19423D01*
X17061Y19413D01*
X17050Y19402D01*
Y19598D01*
X17061Y19587D01*
D02*
G37*
G36*
X25940Y19339D02*
X25942Y19321D01*
X25944Y19313D01*
X25946Y19306D01*
X25949Y19301D01*
X25952Y19296D01*
X25955Y19292D01*
X25959Y19290D01*
X25964Y19288D01*
X25836D01*
X25841Y19290D01*
X25845Y19292D01*
X25848Y19296D01*
X25851Y19301D01*
X25854Y19306D01*
X25856Y19313D01*
X25858Y19321D01*
X25859Y19329D01*
X25860Y19339D01*
X25860Y19350D01*
X25940D01*
X25940Y19339D01*
D02*
G37*
G36*
X14047Y19336D02*
X14044Y19333D01*
X14041Y19329D01*
X14039Y19324D01*
X14037Y19317D01*
X14035Y19308D01*
X14034Y19297D01*
X14032Y19272D01*
X14032Y19257D01*
X13952D01*
X13952Y19272D01*
X13949Y19308D01*
X13948Y19317D01*
X13946Y19324D01*
X13943Y19329D01*
X13941Y19333D01*
X13938Y19336D01*
X13934Y19337D01*
X14050D01*
X14047Y19336D01*
D02*
G37*
G36*
X13653D02*
X13650Y19333D01*
X13647Y19329D01*
X13645Y19324D01*
X13643Y19317D01*
X13641Y19308D01*
X13640Y19297D01*
X13639Y19272D01*
X13638Y19257D01*
X13558D01*
X13558Y19272D01*
X13556Y19308D01*
X13554Y19317D01*
X13552Y19324D01*
X13550Y19329D01*
X13547Y19333D01*
X13544Y19336D01*
X13541Y19337D01*
X13656D01*
X13653Y19336D01*
D02*
G37*
G36*
X13456D02*
X13453Y19333D01*
X13450Y19329D01*
X13448Y19324D01*
X13446Y19317D01*
X13444Y19308D01*
X13443Y19297D01*
X13442Y19272D01*
X13442Y19257D01*
X13362D01*
X13361Y19272D01*
X13359Y19308D01*
X13357Y19317D01*
X13355Y19324D01*
X13353Y19329D01*
X13350Y19333D01*
X13347Y19336D01*
X13344Y19337D01*
X13459D01*
X13456Y19336D01*
D02*
G37*
G36*
X13062D02*
X13059Y19333D01*
X13057Y19329D01*
X13054Y19324D01*
X13052Y19317D01*
X13051Y19308D01*
X13049Y19297D01*
X13048Y19272D01*
X13048Y19257D01*
X12968D01*
X12968Y19272D01*
X12965Y19308D01*
X12963Y19317D01*
X12961Y19324D01*
X12959Y19329D01*
X12956Y19333D01*
X12953Y19336D01*
X12950Y19337D01*
X13066D01*
X13062Y19336D01*
D02*
G37*
G36*
X23390Y19383D02*
X23391Y19368D01*
X23393Y19353D01*
X23396Y19340D01*
X23400Y19327D01*
X23405Y19315D01*
X23410Y19303D01*
X23417Y19293D01*
X23424Y19283D01*
X23433Y19274D01*
X23376Y19217D01*
X23367Y19226D01*
X23357Y19233D01*
X23347Y19239D01*
X23335Y19245D01*
X23323Y19250D01*
X23310Y19254D01*
X23297Y19257D01*
X23282Y19259D01*
X23267Y19260D01*
X23251Y19260D01*
X23390Y19399D01*
X23390Y19383D01*
D02*
G37*
G36*
X15441Y19256D02*
X15442Y19244D01*
X15445Y19232D01*
X15449Y19220D01*
X15454Y19208D01*
X15461Y19196D01*
X15468Y19184D01*
X15477Y19173D01*
X15487Y19161D01*
X15498Y19150D01*
X15302D01*
X15313Y19161D01*
X15323Y19173D01*
X15332Y19184D01*
X15339Y19196D01*
X15345Y19208D01*
X15351Y19220D01*
X15355Y19232D01*
X15358Y19244D01*
X15359Y19256D01*
X15360Y19268D01*
X15440D01*
X15441Y19256D01*
D02*
G37*
G36*
X21290Y19188D02*
X21291Y19177D01*
X21293Y19167D01*
X21295Y19158D01*
X21298Y19150D01*
X21301Y19142D01*
X21305Y19136D01*
X21309Y19130D01*
X21314Y19125D01*
X21320Y19121D01*
X21180D01*
X21186Y19125D01*
X21191Y19130D01*
X21195Y19136D01*
X21199Y19142D01*
X21202Y19150D01*
X21205Y19158D01*
X21207Y19167D01*
X21209Y19177D01*
X21210Y19188D01*
X21210Y19200D01*
X21290D01*
X21290Y19188D01*
D02*
G37*
G36*
X14550Y19052D02*
X14539Y19063D01*
X14527Y19073D01*
X14516Y19082D01*
X14504Y19089D01*
X14492Y19095D01*
X14480Y19101D01*
X14468Y19105D01*
X14456Y19108D01*
X14444Y19109D01*
X14432Y19110D01*
Y19190D01*
X14444Y19191D01*
X14456Y19192D01*
X14468Y19195D01*
X14480Y19199D01*
X14492Y19204D01*
X14504Y19211D01*
X14516Y19218D01*
X14527Y19227D01*
X14539Y19237D01*
X14550Y19248D01*
Y19052D01*
D02*
G37*
G36*
X22640Y18957D02*
X22642Y18950D01*
X22646Y18944D01*
X22652Y18939D01*
X22659Y18934D01*
X22668Y18931D01*
X22679Y18928D01*
X22691Y18926D01*
X22705Y18925D01*
X22720Y18924D01*
Y18844D01*
X22705Y18844D01*
X22691Y18843D01*
X22679Y18841D01*
X22668Y18838D01*
X22659Y18834D01*
X22652Y18830D01*
X22646Y18825D01*
X22642Y18819D01*
X22640Y18812D01*
X22639Y18804D01*
Y18964D01*
X22640Y18957D01*
D02*
G37*
G36*
X23129Y18779D02*
X23121Y18792D01*
X23113Y18803D01*
X23104Y18812D01*
X23094Y18821D01*
X23084Y18828D01*
X23074Y18834D01*
X23063Y18838D01*
X23051Y18842D01*
X23039Y18844D01*
X23026Y18844D01*
X23047Y18924D01*
X23059Y18925D01*
X23070Y18926D01*
X23082Y18928D01*
X23095Y18931D01*
X23108Y18936D01*
X23121Y18941D01*
X23148Y18953D01*
X23162Y18961D01*
X23177Y18969D01*
X23129Y18779D01*
D02*
G37*
G36*
X14515Y18591D02*
X14516Y18577D01*
X14518Y18565D01*
X14521Y18554D01*
X14524Y18545D01*
X14529Y18538D01*
X14534Y18532D01*
X14540Y18528D01*
X14547Y18526D01*
X14554Y18525D01*
X14394D01*
X14402Y18526D01*
X14409Y18528D01*
X14415Y18532D01*
X14420Y18538D01*
X14424Y18545D01*
X14428Y18554D01*
X14431Y18565D01*
X14433Y18577D01*
X14434Y18591D01*
X14434Y18606D01*
X14514D01*
X14515Y18591D01*
D02*
G37*
G36*
X20640Y18633D02*
X20641Y18618D01*
X20643Y18603D01*
X20646Y18590D01*
X20650Y18577D01*
X20655Y18565D01*
X20661Y18553D01*
X20667Y18543D01*
X20674Y18533D01*
X20683Y18524D01*
X20626Y18467D01*
X20617Y18476D01*
X20607Y18483D01*
X20597Y18489D01*
X20585Y18495D01*
X20573Y18500D01*
X20560Y18504D01*
X20547Y18507D01*
X20532Y18509D01*
X20517Y18510D01*
X20501Y18510D01*
X20640Y18649D01*
X20640Y18633D01*
D02*
G37*
G36*
X24611Y18487D02*
X24623Y18477D01*
X24634Y18468D01*
X24646Y18461D01*
X24658Y18455D01*
X24670Y18449D01*
X24682Y18445D01*
X24694Y18442D01*
X24706Y18441D01*
X24718Y18440D01*
Y18360D01*
X24706Y18359D01*
X24694Y18358D01*
X24682Y18355D01*
X24670Y18351D01*
X24658Y18346D01*
X24646Y18339D01*
X24634Y18332D01*
X24623Y18323D01*
X24611Y18313D01*
X24600Y18302D01*
Y18498D01*
X24611Y18487D01*
D02*
G37*
G36*
X13890Y18196D02*
X13892Y18183D01*
X13894Y18170D01*
X13896Y18160D01*
X13900Y18151D01*
X13904Y18144D01*
X13910Y18138D01*
X13916Y18134D01*
X13922Y18131D01*
X13930Y18131D01*
X13770D01*
X13778Y18131D01*
X13784Y18134D01*
X13790Y18138D01*
X13796Y18144D01*
X13800Y18151D01*
X13804Y18160D01*
X13806Y18170D01*
X13808Y18183D01*
X13810Y18196D01*
X13810Y18212D01*
X13890D01*
X13890Y18196D01*
D02*
G37*
G36*
X14026Y18098D02*
X14028Y18091D01*
X14032Y18085D01*
X14038Y18080D01*
X14045Y18076D01*
X14054Y18072D01*
X14065Y18069D01*
X14077Y18067D01*
X14091Y18066D01*
X14106Y18066D01*
Y17986D01*
X14091Y17985D01*
X14077Y17984D01*
X14065Y17982D01*
X14054Y17979D01*
X14045Y17976D01*
X14038Y17971D01*
X14032Y17966D01*
X14028Y17960D01*
X14026Y17953D01*
X14025Y17946D01*
Y18106D01*
X14026Y18098D01*
D02*
G37*
G36*
X24844Y17932D02*
X24847Y17926D01*
X24851Y17920D01*
X24857Y17914D01*
X24864Y17910D01*
X24873Y17906D01*
X24883Y17904D01*
X24896Y17902D01*
X24909Y17900D01*
X24925Y17900D01*
Y17820D01*
X24909Y17820D01*
X24896Y17818D01*
X24883Y17816D01*
X24873Y17814D01*
X24864Y17810D01*
X24857Y17806D01*
X24851Y17800D01*
X24847Y17794D01*
X24844Y17788D01*
X24844Y17780D01*
Y17940D01*
X24844Y17932D01*
D02*
G37*
G36*
X14515Y17691D02*
X14516Y17677D01*
X14518Y17665D01*
X14521Y17654D01*
X14524Y17645D01*
X14529Y17638D01*
X14534Y17632D01*
X14540Y17628D01*
X14547Y17626D01*
X14554Y17625D01*
X14394D01*
X14402Y17626D01*
X14409Y17628D01*
X14415Y17632D01*
X14420Y17638D01*
X14424Y17645D01*
X14428Y17654D01*
X14431Y17665D01*
X14433Y17677D01*
X14434Y17691D01*
X14434Y17706D01*
X14514D01*
X14515Y17691D01*
D02*
G37*
G36*
X22320Y17704D02*
X22313Y17701D01*
X22307Y17697D01*
X22302Y17692D01*
X22298Y17684D01*
X22294Y17676D01*
X22291Y17665D01*
X22289Y17653D01*
X22288Y17640D01*
X22288Y17624D01*
X22208D01*
X22207Y17640D01*
X22206Y17653D01*
X22204Y17665D01*
X22201Y17676D01*
X22198Y17684D01*
X22193Y17692D01*
X22188Y17697D01*
X22182Y17701D01*
X22175Y17704D01*
X22168Y17704D01*
X22328D01*
X22320Y17704D01*
D02*
G37*
G36*
X25941Y17382D02*
X25943Y17365D01*
X25947Y17349D01*
X25953Y17334D01*
X25961Y17320D01*
X25970Y17308D01*
X25980Y17296D01*
X25993Y17286D01*
X26007Y17277D01*
X26022Y17269D01*
X25778D01*
X25793Y17277D01*
X25807Y17286D01*
X25820Y17296D01*
X25830Y17308D01*
X25839Y17320D01*
X25847Y17334D01*
X25853Y17349D01*
X25857Y17365D01*
X25859Y17382D01*
X25860Y17400D01*
X25940D01*
X25941Y17382D01*
D02*
G37*
G36*
X15237Y19607D02*
X15250Y19562D01*
Y19186D01*
X15212Y19128D01*
X15196Y19050D01*
X15212Y18972D01*
X15250Y18915D01*
Y17242D01*
X15200Y17202D01*
X14737D01*
X14692Y17213D01*
Y17687D01*
X14580D01*
X14580Y17694D01*
X14579Y17708D01*
X14576Y17714D01*
Y17783D01*
X14840Y18047D01*
X14862Y18080D01*
X14870Y18119D01*
Y18526D01*
X15056Y18712D01*
X15078Y18745D01*
X15085Y18784D01*
Y19559D01*
X15124Y19607D01*
X15237D01*
D02*
G37*
G36*
X23400Y17152D02*
X23389Y17163D01*
X23377Y17173D01*
X23366Y17182D01*
X23354Y17189D01*
X23342Y17196D01*
X23330Y17201D01*
X23318Y17205D01*
X23306Y17208D01*
X23294Y17209D01*
X23282Y17210D01*
Y17290D01*
X23294Y17291D01*
X23306Y17292D01*
X23318Y17295D01*
X23330Y17299D01*
X23342Y17305D01*
X23354Y17311D01*
X23366Y17318D01*
X23377Y17327D01*
X23389Y17337D01*
X23400Y17348D01*
Y17152D01*
D02*
G37*
G36*
X13245Y16949D02*
X13248Y16913D01*
X13249Y16905D01*
X13251Y16897D01*
X13253Y16892D01*
X13256Y16888D01*
X13259Y16885D01*
X13263Y16885D01*
X13147D01*
X13150Y16885D01*
X13153Y16888D01*
X13156Y16892D01*
X13158Y16897D01*
X13160Y16905D01*
X13162Y16913D01*
X13163Y16924D01*
X13165Y16949D01*
X13165Y16965D01*
X13245D01*
X13245Y16949D01*
D02*
G37*
G36*
X22640Y16988D02*
X22642Y16981D01*
X22646Y16975D01*
X22652Y16970D01*
X22659Y16966D01*
X22668Y16962D01*
X22679Y16959D01*
X22691Y16957D01*
X22705Y16956D01*
X22720Y16956D01*
Y16876D01*
X22705Y16875D01*
X22691Y16874D01*
X22679Y16872D01*
X22668Y16869D01*
X22659Y16866D01*
X22652Y16861D01*
X22646Y16856D01*
X22642Y16850D01*
X22640Y16843D01*
X22639Y16836D01*
Y16996D01*
X22640Y16988D01*
D02*
G37*
G36*
X23034Y16818D02*
X23023Y16829D01*
X23011Y16839D01*
X23000Y16847D01*
X22988Y16855D01*
X22976Y16861D01*
X22964Y16866D01*
X22952Y16871D01*
X22940Y16873D01*
X22928Y16875D01*
X22916Y16876D01*
Y16956D01*
X22928Y16956D01*
X22940Y16958D01*
X22952Y16961D01*
X22964Y16965D01*
X22976Y16970D01*
X22988Y16977D01*
X23000Y16984D01*
X23011Y16993D01*
X23023Y17003D01*
X23034Y17014D01*
Y16818D01*
D02*
G37*
G36*
X13296Y19269D02*
X13297Y19256D01*
X13300Y19249D01*
Y18898D01*
X13307Y18859D01*
X13329Y18826D01*
X13748Y18408D01*
Y18220D01*
X13745Y18214D01*
X13745Y18200D01*
X13744Y18193D01*
X13613D01*
Y17758D01*
X14087D01*
Y17920D01*
X14094Y17920D01*
X14108Y17921D01*
X14114Y17924D01*
X14232D01*
X14372Y17783D01*
Y17714D01*
X14369Y17708D01*
X14369Y17694D01*
X14369Y17687D01*
X14257D01*
Y17213D01*
X14500D01*
X14509Y17199D01*
X14519Y17163D01*
X14428Y17072D01*
X14406Y17039D01*
X14398Y17000D01*
Y16442D01*
X14370Y16414D01*
X13960D01*
X13915Y16434D01*
X13914Y16435D01*
Y16946D01*
X13310D01*
X13310Y16952D01*
X13310Y16965D01*
X13307Y16972D01*
Y17181D01*
X13344Y17206D01*
X13388Y17272D01*
X13404Y17350D01*
X13388Y17428D01*
X13344Y17494D01*
X13278Y17538D01*
X13200Y17554D01*
X13122Y17538D01*
X13056Y17494D01*
X13012Y17428D01*
X13002Y17382D01*
X12952Y17386D01*
Y18808D01*
X13080Y18936D01*
X13102Y18969D01*
X13110Y19008D01*
Y19249D01*
X13113Y19256D01*
X13113Y19270D01*
X13113Y19275D01*
X13296D01*
X13296Y19269D01*
D02*
G37*
G36*
X25800Y16402D02*
X25789Y16413D01*
X25777Y16423D01*
X25766Y16432D01*
X25754Y16439D01*
X25742Y16445D01*
X25730Y16451D01*
X25718Y16455D01*
X25706Y16458D01*
X25694Y16459D01*
X25682Y16460D01*
Y16540D01*
X25694Y16541D01*
X25706Y16542D01*
X25718Y16545D01*
X25730Y16549D01*
X25742Y16554D01*
X25754Y16561D01*
X25766Y16568D01*
X25777Y16577D01*
X25789Y16587D01*
X25800Y16598D01*
Y16402D01*
D02*
G37*
G36*
X12891Y16418D02*
X12892Y16404D01*
X12894Y16392D01*
X12897Y16381D01*
X12900Y16372D01*
X12905Y16365D01*
X12910Y16359D01*
X12916Y16355D01*
X12923Y16353D01*
X12930Y16352D01*
X12770D01*
X12778Y16353D01*
X12785Y16355D01*
X12791Y16359D01*
X12796Y16365D01*
X12800Y16372D01*
X12804Y16381D01*
X12807Y16392D01*
X12809Y16404D01*
X12810Y16418D01*
X12810Y16433D01*
X12890D01*
X12891Y16418D01*
D02*
G37*
G36*
X13851Y16414D02*
X13848Y16411D01*
X13846Y16407D01*
X13845Y16402D01*
X13843Y16395D01*
X13842Y16386D01*
X13841Y16363D01*
X13840Y16335D01*
X13760D01*
X13760Y16350D01*
X13758Y16375D01*
X13756Y16386D01*
X13754Y16395D01*
X13752Y16402D01*
X13749Y16407D01*
X13746Y16411D01*
X13742Y16414D01*
X13737Y16415D01*
X13853D01*
X13851Y16414D01*
D02*
G37*
G36*
X13442Y16415D02*
X13459D01*
X13456Y16414D01*
X13453Y16411D01*
X13450Y16407D01*
X13448Y16402D01*
X13446Y16395D01*
X13445Y16390D01*
X13447Y16383D01*
X13451Y16371D01*
X13456Y16360D01*
X13462Y16348D01*
X13470Y16336D01*
X13479Y16324D01*
X13489Y16313D01*
X13500Y16302D01*
X13304D01*
X13315Y16313D01*
X13324Y16324D01*
X13333Y16336D01*
X13341Y16348D01*
X13347Y16360D01*
X13352Y16371D01*
X13356Y16383D01*
X13358Y16390D01*
X13357Y16395D01*
X13355Y16402D01*
X13353Y16407D01*
X13350Y16411D01*
X13347Y16414D01*
X13344Y16415D01*
X13361D01*
X13362Y16420D01*
X13442D01*
X13442Y16415D01*
D02*
G37*
G36*
X24439Y16238D02*
X24439Y16223D01*
X24440Y16209D01*
X24442Y16196D01*
X24445Y16183D01*
X24449Y16171D01*
X24455Y16160D01*
X24461Y16149D01*
X24468Y16139D01*
X24477Y16130D01*
X24415Y16078D01*
X24407Y16086D01*
X24397Y16093D01*
X24386Y16100D01*
X24375Y16106D01*
X24363Y16111D01*
X24350Y16116D01*
X24336Y16119D01*
X24322Y16122D01*
X24306Y16125D01*
X24290Y16126D01*
X24439Y16253D01*
X24439Y16238D01*
D02*
G37*
G36*
X12615Y16041D02*
X12615Y16044D01*
X12612Y16047D01*
X12608Y16050D01*
X12603Y16052D01*
X12595Y16054D01*
X12587Y16056D01*
X12576Y16057D01*
X12551Y16058D01*
X12535Y16058D01*
Y16138D01*
X12551Y16139D01*
X12587Y16141D01*
X12595Y16143D01*
X12603Y16145D01*
X12608Y16147D01*
X12612Y16150D01*
X12615Y16153D01*
X12615Y16156D01*
Y16041D01*
D02*
G37*
G36*
X15224Y16932D02*
Y16092D01*
X14763D01*
Y16007D01*
X14756Y16007D01*
X14742Y16006D01*
X14736Y16004D01*
X14472D01*
X14465Y16007D01*
X14452Y16007D01*
X14446Y16007D01*
Y16021D01*
X14394D01*
X14385Y16024D01*
X14377Y16021D01*
X14370Y16023D01*
X14367Y16021D01*
X13902D01*
Y16176D01*
X14446D01*
Y16209D01*
X14467Y16223D01*
X14572Y16328D01*
X14594Y16361D01*
X14602Y16400D01*
Y16958D01*
X14642Y16998D01*
X15158D01*
X15224Y16932D01*
D02*
G37*
G36*
X20791Y15956D02*
X20792Y15944D01*
X20795Y15932D01*
X20799Y15920D01*
X20805Y15908D01*
X20811Y15896D01*
X20818Y15884D01*
X20827Y15873D01*
X20837Y15861D01*
X20848Y15850D01*
X20652D01*
X20663Y15861D01*
X20673Y15873D01*
X20682Y15884D01*
X20689Y15896D01*
X20696Y15908D01*
X20701Y15920D01*
X20705Y15932D01*
X20708Y15944D01*
X20709Y15956D01*
X20710Y15968D01*
X20790D01*
X20791Y15956D01*
D02*
G37*
G36*
X14385Y15956D02*
X14388Y15953D01*
X14392Y15950D01*
X14397Y15948D01*
X14405Y15946D01*
X14413Y15944D01*
X14424Y15943D01*
X14449Y15942D01*
X14465Y15942D01*
Y15862D01*
X14449Y15861D01*
X14413Y15859D01*
X14405Y15857D01*
X14397Y15855D01*
X14392Y15853D01*
X14388Y15850D01*
X14385Y15847D01*
X14385Y15844D01*
Y15959D01*
X14385Y15956D01*
D02*
G37*
G36*
X14825Y15822D02*
X14824Y15829D01*
X14822Y15836D01*
X14818Y15842D01*
X14812Y15847D01*
X14805Y15852D01*
X14796Y15855D01*
X14785Y15858D01*
X14773Y15860D01*
X14759Y15861D01*
X14744Y15862D01*
Y15942D01*
X14759Y15942D01*
X14773Y15943D01*
X14785Y15945D01*
X14796Y15948D01*
X14805Y15952D01*
X14812Y15956D01*
X14818Y15961D01*
X14822Y15967D01*
X14824Y15974D01*
X14825Y15982D01*
Y15822D01*
D02*
G37*
G36*
X18701Y15973D02*
X18727Y15956D01*
X18739Y15949D01*
X18752Y15943D01*
X18764Y15938D01*
X18777Y15935D01*
X18789Y15932D01*
X18801Y15931D01*
X18812Y15930D01*
X18822Y15850D01*
X18809Y15849D01*
X18797Y15848D01*
X18785Y15844D01*
X18774Y15840D01*
X18762Y15835D01*
X18751Y15828D01*
X18741Y15820D01*
X18730Y15810D01*
X18720Y15800D01*
X18710Y15788D01*
X18688Y15983D01*
X18701Y15973D01*
D02*
G37*
G36*
X14742Y15797D02*
X14756Y15796D01*
X14763Y15796D01*
Y15657D01*
X15224D01*
Y15564D01*
X15221Y15558D01*
X15220Y15544D01*
X15220Y15537D01*
X15108D01*
Y15063D01*
X15250D01*
Y14750D01*
X14615D01*
X14610Y14800D01*
X14639Y14806D01*
X14672Y14828D01*
X14847Y15002D01*
X14869Y15035D01*
X14873Y15060D01*
X14875Y15063D01*
X14992D01*
Y15537D01*
X14557D01*
Y15063D01*
X14557D01*
X14562Y15050D01*
X14528Y15002D01*
X13942D01*
X13932Y15012D01*
X13914Y15054D01*
X13914Y15054D01*
X13914D01*
X13914Y15054D01*
Y15106D01*
X13918Y15115D01*
X13915Y15123D01*
X13916Y15130D01*
X13914Y15133D01*
Y15647D01*
X13756D01*
X13737Y15693D01*
X13809Y15765D01*
X13853Y15783D01*
Y15783D01*
X13853Y15783D01*
X14367D01*
X14370Y15781D01*
X14377Y15782D01*
X14385Y15779D01*
X14394Y15783D01*
X14446D01*
Y15796D01*
X14452Y15796D01*
X14465Y15797D01*
X14472Y15800D01*
X14736D01*
X14742Y15797D01*
D02*
G37*
G36*
X17787Y15937D02*
X17798Y15927D01*
X17810Y15918D01*
X17822Y15911D01*
X17834Y15905D01*
X17845Y15899D01*
X17857Y15895D01*
X17869Y15892D01*
X17882Y15891D01*
X17894Y15890D01*
Y15810D01*
X17882Y15809D01*
X17869Y15808D01*
X17857Y15805D01*
X17845Y15801D01*
X17834Y15796D01*
X17822Y15789D01*
X17810Y15782D01*
X17798Y15773D01*
X17787Y15763D01*
X17776Y15752D01*
Y15948D01*
X17787Y15937D01*
D02*
G37*
G36*
X13086Y15759D02*
X13089Y15756D01*
X13093Y15753D01*
X13098Y15751D01*
X13105Y15749D01*
X13114Y15748D01*
X13125Y15746D01*
X13150Y15745D01*
X13165Y15745D01*
Y15665D01*
X13150Y15665D01*
X13114Y15662D01*
X13105Y15660D01*
X13098Y15658D01*
X13093Y15656D01*
X13089Y15653D01*
X13086Y15650D01*
X13085Y15647D01*
Y15763D01*
X13086Y15759D01*
D02*
G37*
G36*
X12615Y15647D02*
X12615Y15650D01*
X12612Y15653D01*
X12608Y15656D01*
X12603Y15658D01*
X12595Y15660D01*
X12587Y15662D01*
X12576Y15663D01*
X12551Y15665D01*
X12535Y15665D01*
Y15745D01*
X12551Y15745D01*
X12587Y15748D01*
X12595Y15749D01*
X12603Y15751D01*
X12608Y15753D01*
X12612Y15756D01*
X12615Y15759D01*
X12615Y15763D01*
Y15647D01*
D02*
G37*
G36*
X19661Y15737D02*
X19673Y15727D01*
X19684Y15718D01*
X19696Y15711D01*
X19708Y15704D01*
X19720Y15699D01*
X19732Y15695D01*
X19744Y15692D01*
X19756Y15691D01*
X19768Y15690D01*
Y15610D01*
X19756Y15609D01*
X19744Y15608D01*
X19732Y15605D01*
X19720Y15601D01*
X19708Y15596D01*
X19696Y15589D01*
X19684Y15582D01*
X19673Y15573D01*
X19661Y15563D01*
X19650Y15552D01*
Y15748D01*
X19661Y15737D01*
D02*
G37*
G36*
X26075Y15757D02*
X26022Y15697D01*
X26000Y15669D01*
X25982Y15643D01*
X25967Y15618D01*
X25955Y15594D01*
X25947Y15571D01*
X25942Y15550D01*
X25940Y15530D01*
X25860D01*
X25858Y15550D01*
X25853Y15571D01*
X25845Y15594D01*
X25833Y15618D01*
X25818Y15643D01*
X25800Y15669D01*
X25778Y15697D01*
X25725Y15757D01*
X25693Y15789D01*
X26107D01*
X26075Y15757D01*
D02*
G37*
G36*
X15366Y15541D02*
X15367Y15527D01*
X15369Y15515D01*
X15372Y15504D01*
X15376Y15495D01*
X15380Y15488D01*
X15385Y15482D01*
X15391Y15478D01*
X15398Y15476D01*
X15406Y15475D01*
X15246D01*
X15253Y15476D01*
X15260Y15478D01*
X15266Y15482D01*
X15271Y15488D01*
X15276Y15495D01*
X15279Y15504D01*
X15282Y15515D01*
X15284Y15527D01*
X15285Y15541D01*
X15286Y15556D01*
X15366D01*
X15366Y15541D01*
D02*
G37*
G36*
X25129Y15430D02*
X25125Y15436D01*
X25120Y15441D01*
X25114Y15445D01*
X25108Y15449D01*
X25100Y15453D01*
X25092Y15455D01*
X25083Y15457D01*
X25073Y15459D01*
X25062Y15460D01*
X25050Y15460D01*
Y15540D01*
X25062Y15540D01*
X25073Y15541D01*
X25083Y15543D01*
X25092Y15545D01*
X25100Y15547D01*
X25108Y15551D01*
X25114Y15555D01*
X25120Y15559D01*
X25125Y15564D01*
X25129Y15570D01*
Y15430D01*
D02*
G37*
G36*
X20540Y15488D02*
X20541Y15477D01*
X20543Y15467D01*
X20545Y15458D01*
X20547Y15450D01*
X20551Y15442D01*
X20555Y15436D01*
X20559Y15430D01*
X20564Y15425D01*
X20570Y15421D01*
X20430D01*
X20436Y15425D01*
X20441Y15430D01*
X20445Y15436D01*
X20449Y15442D01*
X20452Y15450D01*
X20455Y15458D01*
X20457Y15467D01*
X20459Y15477D01*
X20460Y15488D01*
X20460Y15500D01*
X20540D01*
X20540Y15488D01*
D02*
G37*
G36*
X14822Y15125D02*
X14821Y15123D01*
X14819Y15121D01*
X14818Y15117D01*
X14817Y15113D01*
X14816Y15107D01*
X14815Y15093D01*
X14814Y15074D01*
X14734D01*
X14734Y15084D01*
X14733Y15107D01*
X14732Y15113D01*
X14731Y15117D01*
X14730Y15121D01*
X14728Y15123D01*
X14727Y15125D01*
X14725Y15125D01*
X14824D01*
X14822Y15125D01*
D02*
G37*
G36*
X13850Y15115D02*
X13847Y15112D01*
X13844Y15108D01*
X13842Y15103D01*
X13840Y15095D01*
X13838Y15087D01*
X13837Y15076D01*
X13835Y15051D01*
X13835Y15035D01*
X13755D01*
X13755Y15051D01*
X13752Y15087D01*
X13751Y15095D01*
X13749Y15103D01*
X13747Y15108D01*
X13744Y15112D01*
X13741Y15115D01*
X13737Y15115D01*
X13853D01*
X13850Y15115D01*
D02*
G37*
G36*
X24381Y15101D02*
X24410Y15055D01*
X24417Y15045D01*
X24440Y15017D01*
X24448Y15008D01*
X24428Y14916D01*
X24418Y14925D01*
X24408Y14932D01*
X24398Y14937D01*
X24388Y14941D01*
X24377Y14943D01*
X24366Y14944D01*
X24356Y14943D01*
X24344Y14940D01*
X24333Y14936D01*
X24322Y14930D01*
X24375Y15114D01*
X24381Y15101D01*
D02*
G37*
G36*
X11377Y15107D02*
X11386Y15093D01*
X11396Y15080D01*
X11408Y15070D01*
X11420Y15061D01*
X11434Y15053D01*
X11449Y15047D01*
X11465Y15043D01*
X11482Y15041D01*
X11500Y15040D01*
Y14960D01*
X11482Y14959D01*
X11465Y14957D01*
X11449Y14953D01*
X11434Y14947D01*
X11420Y14939D01*
X11408Y14930D01*
X11396Y14920D01*
X11386Y14907D01*
X11377Y14893D01*
X11369Y14878D01*
Y15122D01*
X11377Y15107D01*
D02*
G37*
G36*
X12535Y15600D02*
X12548Y15600D01*
X12554Y15599D01*
Y15586D01*
X12606D01*
X12615Y15582D01*
X12623Y15585D01*
X12630Y15584D01*
X12633Y15586D01*
X13068D01*
X13071Y15584D01*
X13086Y15535D01*
Y15054D01*
X13690D01*
X13690Y15048D01*
X13690Y15035D01*
X13693Y15028D01*
Y15005D01*
X13701Y14966D01*
X13723Y14933D01*
X13828Y14828D01*
X13861Y14806D01*
X13890Y14800D01*
X13885Y14750D01*
X13694D01*
X13622Y14822D01*
X13589Y14844D01*
X13550Y14852D01*
X13014D01*
X12975Y14844D01*
X12942Y14822D01*
X12870Y14750D01*
X12215D01*
X12194Y14800D01*
X12322Y14928D01*
X12344Y14961D01*
X12352Y15000D01*
Y15567D01*
X12388Y15603D01*
X12528D01*
X12535Y15600D01*
D02*
G37*
G36*
X20291Y14706D02*
X20292Y14694D01*
X20295Y14682D01*
X20299Y14670D01*
X20305Y14658D01*
X20311Y14646D01*
X20318Y14634D01*
X20327Y14623D01*
X20337Y14611D01*
X20348Y14600D01*
X20152D01*
X20163Y14611D01*
X20173Y14623D01*
X20182Y14634D01*
X20189Y14646D01*
X20196Y14658D01*
X20201Y14670D01*
X20205Y14682D01*
X20208Y14694D01*
X20209Y14706D01*
X20210Y14718D01*
X20290D01*
X20291Y14706D01*
D02*
G37*
G36*
X26054Y14745D02*
X26030Y14723D01*
X26009Y14701D01*
X25991Y14680D01*
X25975Y14658D01*
X25962Y14636D01*
X25953Y14615D01*
X25946Y14593D01*
X25941Y14572D01*
X25940Y14550D01*
X25860D01*
X25859Y14572D01*
X25854Y14593D01*
X25847Y14615D01*
X25838Y14636D01*
X25825Y14658D01*
X25809Y14680D01*
X25791Y14701D01*
X25770Y14723D01*
X25746Y14745D01*
X25719Y14766D01*
X26081D01*
X26054Y14745D01*
D02*
G37*
G36*
X22841Y14632D02*
X22842Y14619D01*
X22845Y14607D01*
X22849Y14595D01*
X22854Y14584D01*
X22861Y14572D01*
X22868Y14560D01*
X22877Y14548D01*
X22887Y14537D01*
X22898Y14526D01*
X22702D01*
X22713Y14537D01*
X22723Y14548D01*
X22732Y14560D01*
X22739Y14572D01*
X22745Y14584D01*
X22751Y14595D01*
X22755Y14607D01*
X22758Y14619D01*
X22759Y14632D01*
X22760Y14644D01*
X22840D01*
X22841Y14632D01*
D02*
G37*
G36*
X13816Y14515D02*
X13818Y14487D01*
X13819Y14483D01*
X13820Y14479D01*
X13821Y14477D01*
X13822Y14475D01*
X13824Y14475D01*
X13727D01*
X13729Y14475D01*
X13730Y14477D01*
X13731Y14479D01*
X13733Y14483D01*
X13733Y14487D01*
X13734Y14493D01*
X13735Y14507D01*
X13736Y14524D01*
X13816D01*
X13816Y14515D01*
D02*
G37*
G36*
X12840Y14523D02*
X12842Y14511D01*
X12844Y14499D01*
X12847Y14488D01*
X12851Y14478D01*
X12856Y14468D01*
X12861Y14459D01*
X12868Y14451D01*
X12875Y14443D01*
X12884Y14437D01*
X12716D01*
X12725Y14443D01*
X12732Y14451D01*
X12739Y14459D01*
X12744Y14468D01*
X12749Y14478D01*
X12753Y14488D01*
X12756Y14499D01*
X12758Y14511D01*
X12760Y14523D01*
X12760Y14536D01*
X12840D01*
X12840Y14523D01*
D02*
G37*
G36*
X13933Y14422D02*
X13935Y14416D01*
X13939Y14410D01*
X13945Y14404D01*
X13952Y14400D01*
X13961Y14396D01*
X13971Y14394D01*
X13983Y14392D01*
X13997Y14390D01*
X14012Y14390D01*
Y14310D01*
X13997Y14310D01*
X13983Y14308D01*
X13971Y14306D01*
X13961Y14304D01*
X13952Y14300D01*
X13945Y14296D01*
X13939Y14290D01*
X13935Y14284D01*
X13933Y14278D01*
X13932Y14270D01*
Y14430D01*
X13933Y14422D01*
D02*
G37*
G36*
X17211Y14437D02*
X17223Y14427D01*
X17234Y14418D01*
X17246Y14411D01*
X17258Y14404D01*
X17270Y14399D01*
X17282Y14395D01*
X17294Y14392D01*
X17306Y14391D01*
X17318Y14390D01*
Y14310D01*
X17306Y14309D01*
X17294Y14308D01*
X17282Y14305D01*
X17270Y14301D01*
X17258Y14296D01*
X17246Y14289D01*
X17234Y14282D01*
X17223Y14273D01*
X17211Y14263D01*
X17200Y14252D01*
Y14448D01*
X17211Y14437D01*
D02*
G37*
G36*
X13272Y14125D02*
X13271Y14123D01*
X13269Y14121D01*
X13268Y14117D01*
X13267Y14113D01*
X13266Y14107D01*
X13265Y14093D01*
X13264Y14074D01*
X13184D01*
X13184Y14084D01*
X13183Y14107D01*
X13182Y14113D01*
X13181Y14117D01*
X13180Y14121D01*
X13178Y14123D01*
X13177Y14125D01*
X13175Y14125D01*
X13274D01*
X13272Y14125D01*
D02*
G37*
G36*
X12978Y13972D02*
X12969Y13962D01*
X12962Y13952D01*
X12955Y13943D01*
X12949Y13933D01*
X12945Y13922D01*
X12941Y13912D01*
X12939Y13902D01*
X12938Y13891D01*
X12938Y13880D01*
X12939Y13870D01*
X12820Y13989D01*
X12830Y13988D01*
X12841Y13988D01*
X12852Y13989D01*
X12862Y13991D01*
X12872Y13995D01*
X12883Y13999D01*
X12893Y14005D01*
X12902Y14012D01*
X12912Y14019D01*
X12922Y14028D01*
X12978Y13972D01*
D02*
G37*
G36*
X15890Y14042D02*
X15891Y14032D01*
X15893Y14023D01*
X15895Y14014D01*
X15898Y14006D01*
X15901Y13998D01*
X15905Y13991D01*
X15909Y13984D01*
X15914Y13978D01*
X15920Y13971D01*
X15780D01*
X15786Y13978D01*
X15791Y13984D01*
X15795Y13991D01*
X15799Y13998D01*
X15803Y14006D01*
X15805Y14014D01*
X15807Y14023D01*
X15809Y14032D01*
X15810Y14042D01*
X15810Y14052D01*
X15890D01*
X15890Y14042D01*
D02*
G37*
G36*
X14590Y13897D02*
X14592Y13883D01*
X14594Y13871D01*
X14596Y13861D01*
X14600Y13852D01*
X14604Y13845D01*
X14610Y13839D01*
X14616Y13835D01*
X14622Y13833D01*
X14630Y13832D01*
X14470D01*
X14478Y13833D01*
X14484Y13835D01*
X14490Y13839D01*
X14496Y13845D01*
X14500Y13852D01*
X14504Y13861D01*
X14506Y13871D01*
X14508Y13883D01*
X14510Y13897D01*
X14510Y13912D01*
X14590D01*
X14590Y13897D01*
D02*
G37*
G36*
X15914Y13822D02*
X15909Y13816D01*
X15905Y13809D01*
X15901Y13802D01*
X15898Y13794D01*
X15895Y13786D01*
X15893Y13777D01*
X15891Y13768D01*
X15890Y13758D01*
X15890Y13748D01*
X15810D01*
X15810Y13758D01*
X15809Y13768D01*
X15807Y13777D01*
X15805Y13786D01*
X15803Y13794D01*
X15799Y13802D01*
X15795Y13809D01*
X15791Y13816D01*
X15786Y13822D01*
X15780Y13829D01*
X15920D01*
X15914Y13822D01*
D02*
G37*
G36*
X12887Y13739D02*
X12877Y13727D01*
X12868Y13716D01*
X12861Y13704D01*
X12854Y13692D01*
X12849Y13680D01*
X12845Y13668D01*
X12842Y13656D01*
X12841Y13644D01*
X12840Y13632D01*
X12760D01*
X12759Y13644D01*
X12758Y13656D01*
X12755Y13668D01*
X12751Y13680D01*
X12745Y13692D01*
X12739Y13704D01*
X12732Y13716D01*
X12723Y13727D01*
X12713Y13739D01*
X12702Y13750D01*
X12898D01*
X12887Y13739D01*
D02*
G37*
G36*
X14375Y13596D02*
X14374Y13603D01*
X14372Y13610D01*
X14368Y13616D01*
X14362Y13621D01*
X14355Y13626D01*
X14346Y13629D01*
X14335Y13632D01*
X14323Y13634D01*
X14309Y13635D01*
X14294Y13636D01*
Y13716D01*
X14309Y13716D01*
X14323Y13717D01*
X14335Y13719D01*
X14346Y13722D01*
X14355Y13726D01*
X14362Y13730D01*
X14368Y13735D01*
X14372Y13741D01*
X14374Y13748D01*
X14375Y13756D01*
Y13596D01*
D02*
G37*
G36*
X13426Y13748D02*
X13428Y13741D01*
X13432Y13735D01*
X13438Y13730D01*
X13445Y13726D01*
X13454Y13722D01*
X13465Y13719D01*
X13477Y13717D01*
X13491Y13716D01*
X13506Y13716D01*
Y13636D01*
X13491Y13635D01*
X13477Y13634D01*
X13465Y13632D01*
X13454Y13629D01*
X13445Y13626D01*
X13438Y13621D01*
X13432Y13616D01*
X13428Y13610D01*
X13426Y13603D01*
X13425Y13596D01*
Y13756D01*
X13426Y13748D01*
D02*
G37*
G36*
X25283Y13702D02*
X25274Y13693D01*
X25267Y13683D01*
X25261Y13672D01*
X25255Y13661D01*
X25250Y13649D01*
X25246Y13636D01*
X25243Y13622D01*
X25241Y13608D01*
X25240Y13593D01*
X25240Y13577D01*
X25101Y13716D01*
X25117Y13716D01*
X25132Y13717D01*
X25147Y13719D01*
X25160Y13722D01*
X25173Y13726D01*
X25185Y13731D01*
X25197Y13736D01*
X25207Y13743D01*
X25217Y13750D01*
X25226Y13758D01*
X25283Y13702D01*
D02*
G37*
G36*
X25000Y13478D02*
X24989Y13489D01*
X24977Y13498D01*
X24966Y13507D01*
X24954Y13515D01*
X24942Y13521D01*
X24930Y13526D01*
X24918Y13530D01*
X24906Y13533D01*
X24894Y13535D01*
X24882Y13536D01*
Y13616D01*
X24894Y13616D01*
X24906Y13618D01*
X24918Y13621D01*
X24930Y13625D01*
X24942Y13630D01*
X24954Y13636D01*
X24966Y13644D01*
X24977Y13653D01*
X24989Y13663D01*
X25000Y13674D01*
Y13478D01*
D02*
G37*
G36*
X24483Y13426D02*
X24474Y13417D01*
X24467Y13407D01*
X24460Y13397D01*
X24455Y13385D01*
X24450Y13373D01*
X24446Y13360D01*
X24443Y13347D01*
X24441Y13332D01*
X24440Y13317D01*
X24440Y13301D01*
X24301Y13440D01*
X24317Y13440D01*
X24332Y13441D01*
X24347Y13443D01*
X24360Y13446D01*
X24373Y13450D01*
X24385Y13455D01*
X24397Y13461D01*
X24407Y13467D01*
X24417Y13474D01*
X24426Y13483D01*
X24483Y13426D01*
D02*
G37*
G36*
X26341Y13356D02*
X26342Y13344D01*
X26345Y13332D01*
X26349Y13320D01*
X26354Y13308D01*
X26361Y13296D01*
X26368Y13284D01*
X26377Y13273D01*
X26387Y13261D01*
X26398Y13250D01*
X26202D01*
X26213Y13261D01*
X26223Y13273D01*
X26232Y13284D01*
X26239Y13296D01*
X26246Y13308D01*
X26251Y13320D01*
X26255Y13332D01*
X26258Y13344D01*
X26259Y13356D01*
X26260Y13368D01*
X26340D01*
X26341Y13356D01*
D02*
G37*
G36*
X14375Y13044D02*
X14374Y13052D01*
X14372Y13059D01*
X14368Y13065D01*
X14362Y13070D01*
X14355Y13074D01*
X14346Y13078D01*
X14335Y13081D01*
X14323Y13083D01*
X14309Y13084D01*
X14294Y13084D01*
Y13164D01*
X14309Y13165D01*
X14323Y13166D01*
X14335Y13168D01*
X14346Y13171D01*
X14355Y13174D01*
X14362Y13179D01*
X14368Y13184D01*
X14372Y13190D01*
X14374Y13197D01*
X14375Y13204D01*
Y13044D01*
D02*
G37*
G36*
X13426Y13197D02*
X13428Y13190D01*
X13432Y13184D01*
X13438Y13179D01*
X13445Y13174D01*
X13454Y13171D01*
X13465Y13168D01*
X13477Y13166D01*
X13491Y13165D01*
X13506Y13164D01*
Y13084D01*
X13491Y13084D01*
X13477Y13083D01*
X13465Y13081D01*
X13454Y13078D01*
X13445Y13074D01*
X13438Y13070D01*
X13432Y13065D01*
X13428Y13059D01*
X13426Y13052D01*
X13425Y13044D01*
Y13204D01*
X13426Y13197D01*
D02*
G37*
G36*
X13075Y13044D02*
X13074Y13052D01*
X13072Y13059D01*
X13068Y13065D01*
X13062Y13070D01*
X13055Y13074D01*
X13046Y13078D01*
X13035Y13081D01*
X13023Y13083D01*
X13009Y13084D01*
X12994Y13084D01*
Y13164D01*
X13009Y13165D01*
X13023Y13166D01*
X13035Y13168D01*
X13046Y13171D01*
X13055Y13174D01*
X13062Y13179D01*
X13068Y13184D01*
X13072Y13190D01*
X13074Y13197D01*
X13075Y13204D01*
Y13044D01*
D02*
G37*
G36*
X12431Y13172D02*
X12434Y13166D01*
X12438Y13160D01*
X12444Y13154D01*
X12451Y13150D01*
X12460Y13146D01*
X12470Y13144D01*
X12483Y13142D01*
X12496Y13140D01*
X12512Y13140D01*
Y13060D01*
X12496Y13060D01*
X12483Y13058D01*
X12470Y13056D01*
X12460Y13054D01*
X12451Y13050D01*
X12444Y13046D01*
X12438Y13040D01*
X12434Y13034D01*
X12431Y13028D01*
X12431Y13020D01*
Y13180D01*
X12431Y13172D01*
D02*
G37*
G36*
X11568Y13020D02*
X11567Y13028D01*
X11565Y13034D01*
X11561Y13040D01*
X11555Y13046D01*
X11548Y13050D01*
X11539Y13054D01*
X11529Y13056D01*
X11517Y13058D01*
X11503Y13060D01*
X11488Y13060D01*
Y13140D01*
X11503Y13140D01*
X11517Y13142D01*
X11529Y13144D01*
X11539Y13146D01*
X11548Y13150D01*
X11555Y13154D01*
X11561Y13160D01*
X11565Y13166D01*
X11567Y13172D01*
X11568Y13180D01*
Y13020D01*
D02*
G37*
G36*
X26040Y13133D02*
X26041Y13118D01*
X26043Y13103D01*
X26046Y13090D01*
X26050Y13077D01*
X26055Y13065D01*
X26061Y13053D01*
X26067Y13043D01*
X26074Y13033D01*
X26083Y13024D01*
X26026Y12967D01*
X26017Y12976D01*
X26007Y12983D01*
X25997Y12989D01*
X25985Y12995D01*
X25973Y13000D01*
X25960Y13004D01*
X25947Y13007D01*
X25932Y13009D01*
X25917Y13010D01*
X25901Y13010D01*
X26040Y13149D01*
X26040Y13133D01*
D02*
G37*
G36*
X13842Y12633D02*
X13845Y12575D01*
X13847Y12571D01*
X13848Y12569D01*
X13850Y12568D01*
X13754D01*
X13755Y12569D01*
X13756Y12571D01*
X13758Y12575D01*
X13759Y12581D01*
X13760Y12588D01*
X13761Y12607D01*
X13762Y12648D01*
X13842D01*
X13842Y12633D01*
D02*
G37*
G36*
X13645Y12631D02*
X13649Y12575D01*
X13650Y12571D01*
X13651Y12569D01*
X13653Y12568D01*
X13557D01*
X13558Y12569D01*
X13560Y12571D01*
X13561Y12575D01*
X13562Y12580D01*
X13563Y12587D01*
X13564Y12606D01*
X13565Y12645D01*
X13645D01*
X13645Y12631D01*
D02*
G37*
G36*
X11861Y12737D02*
X11873Y12727D01*
X11884Y12718D01*
X11896Y12711D01*
X11908Y12704D01*
X11920Y12699D01*
X11932Y12695D01*
X11944Y12692D01*
X11956Y12691D01*
X11968Y12690D01*
Y12610D01*
X11956Y12609D01*
X11944Y12608D01*
X11932Y12605D01*
X11920Y12601D01*
X11908Y12595D01*
X11896Y12589D01*
X11884Y12582D01*
X11873Y12573D01*
X11861Y12563D01*
X11850Y12552D01*
Y12748D01*
X11861Y12737D01*
D02*
G37*
G36*
X13952Y12371D02*
X13951Y12379D01*
X13948Y12386D01*
X13944Y12392D01*
X13939Y12397D01*
X13931Y12401D01*
X13922Y12405D01*
X13912Y12408D01*
X13900Y12410D01*
X13888Y12408D01*
X13878Y12405D01*
X13869Y12401D01*
X13861Y12397D01*
X13856Y12392D01*
X13852Y12386D01*
X13849Y12379D01*
X13848Y12371D01*
Y12531D01*
X13849Y12524D01*
X13852Y12517D01*
X13856Y12511D01*
X13861Y12506D01*
X13869Y12501D01*
X13878Y12498D01*
X13888Y12495D01*
X13900Y12493D01*
X13912Y12495D01*
X13922Y12498D01*
X13931Y12501D01*
X13939Y12506D01*
X13944Y12511D01*
X13948Y12517D01*
X13951Y12524D01*
X13952Y12531D01*
Y12371D01*
D02*
G37*
G36*
X14243Y12524D02*
X14245Y12517D01*
X14249Y12511D01*
X14255Y12506D01*
X14262Y12501D01*
X14271Y12498D01*
X14282Y12495D01*
X14294Y12493D01*
X14308Y12492D01*
X14323Y12491D01*
Y12411D01*
X14308Y12411D01*
X14294Y12410D01*
X14282Y12408D01*
X14271Y12405D01*
X14262Y12401D01*
X14255Y12397D01*
X14249Y12392D01*
X14245Y12386D01*
X14243Y12379D01*
X14242Y12371D01*
Y12531D01*
X14243Y12524D01*
D02*
G37*
G36*
X20430Y12361D02*
X20420Y12362D01*
X20409Y12362D01*
X20398Y12361D01*
X20388Y12359D01*
X20378Y12355D01*
X20367Y12351D01*
X20357Y12345D01*
X20348Y12338D01*
X20338Y12331D01*
X20328Y12322D01*
X20272Y12378D01*
X20281Y12388D01*
X20288Y12398D01*
X20295Y12407D01*
X20301Y12417D01*
X20305Y12428D01*
X20309Y12438D01*
X20311Y12448D01*
X20312Y12459D01*
X20312Y12470D01*
X20311Y12480D01*
X20430Y12361D01*
D02*
G37*
G36*
X10341Y12456D02*
X10342Y12444D01*
X10345Y12432D01*
X10349Y12420D01*
X10354Y12408D01*
X10361Y12396D01*
X10368Y12384D01*
X10377Y12373D01*
X10387Y12361D01*
X10398Y12350D01*
X10202D01*
X10213Y12361D01*
X10223Y12373D01*
X10232Y12384D01*
X10239Y12396D01*
X10245Y12408D01*
X10251Y12420D01*
X10255Y12432D01*
X10258Y12444D01*
X10259Y12456D01*
X10260Y12468D01*
X10340D01*
X10341Y12456D01*
D02*
G37*
G36*
X11624Y12102D02*
X11613Y12113D01*
X11602Y12123D01*
X11590Y12132D01*
X11578Y12139D01*
X11568Y12145D01*
Y12120D01*
X11567Y12128D01*
X11565Y12134D01*
X11561Y12140D01*
X11555Y12146D01*
X11548Y12150D01*
X11539Y12154D01*
X11529Y12156D01*
X11517Y12158D01*
X11503Y12160D01*
X11488Y12160D01*
Y12240D01*
X11503Y12240D01*
X11517Y12242D01*
X11529Y12244D01*
X11539Y12246D01*
X11548Y12250D01*
X11555Y12254D01*
X11561Y12260D01*
X11565Y12266D01*
X11567Y12272D01*
X11568Y12280D01*
Y12255D01*
X11578Y12261D01*
X11590Y12268D01*
X11602Y12277D01*
X11613Y12287D01*
X11624Y12298D01*
Y12102D01*
D02*
G37*
G36*
X15040Y12210D02*
X15027Y12211D01*
X15014Y12210D01*
X15001Y12208D01*
X14989Y12206D01*
X14977Y12202D01*
X14965Y12197D01*
X14954Y12191D01*
X14944Y12184D01*
X14934Y12176D01*
X14924Y12167D01*
X14867Y12224D01*
X14876Y12234D01*
X14884Y12244D01*
X14891Y12254D01*
X14897Y12265D01*
X14902Y12277D01*
X14906Y12289D01*
X14908Y12301D01*
X14910Y12314D01*
X14911Y12327D01*
X14910Y12340D01*
X15040Y12210D01*
D02*
G37*
G36*
X14569Y12242D02*
X14571Y12240D01*
X14575Y12239D01*
X14581Y12238D01*
X14588Y12237D01*
X14607Y12236D01*
X14648Y12235D01*
Y12155D01*
X14633Y12155D01*
X14575Y12151D01*
X14571Y12150D01*
X14569Y12149D01*
X14568Y12147D01*
Y12243D01*
X14569Y12242D01*
D02*
G37*
G36*
X13232Y12147D02*
X13231Y12149D01*
X13229Y12150D01*
X13225Y12151D01*
X13219Y12152D01*
X13212Y12153D01*
X13193Y12155D01*
X13152Y12155D01*
Y12235D01*
X13167Y12235D01*
X13225Y12239D01*
X13229Y12240D01*
X13231Y12242D01*
X13232Y12243D01*
Y12147D01*
D02*
G37*
G36*
X12431Y12272D02*
X12434Y12266D01*
X12438Y12260D01*
X12444Y12254D01*
X12451Y12250D01*
X12460Y12246D01*
X12470Y12244D01*
X12483Y12242D01*
X12496Y12240D01*
X12512Y12240D01*
Y12160D01*
X12496Y12160D01*
X12483Y12158D01*
X12470Y12156D01*
X12460Y12154D01*
X12451Y12150D01*
X12444Y12146D01*
X12438Y12140D01*
X12434Y12134D01*
X12431Y12128D01*
X12431Y12120D01*
Y12280D01*
X12431Y12272D01*
D02*
G37*
G36*
X20600Y12052D02*
X20589Y12063D01*
X20577Y12073D01*
X20566Y12082D01*
X20554Y12089D01*
X20542Y12096D01*
X20530Y12101D01*
X20518Y12105D01*
X20506Y12108D01*
X20494Y12109D01*
X20482Y12110D01*
Y12190D01*
X20494Y12191D01*
X20506Y12192D01*
X20518Y12195D01*
X20530Y12199D01*
X20542Y12205D01*
X20554Y12211D01*
X20566Y12218D01*
X20577Y12227D01*
X20589Y12237D01*
X20600Y12248D01*
Y12052D01*
D02*
G37*
G36*
X9564Y12125D02*
X9559Y12120D01*
X9555Y12114D01*
X9551Y12108D01*
X9548Y12100D01*
X9545Y12092D01*
X9543Y12083D01*
X9541Y12073D01*
X9540Y12062D01*
X9540Y12050D01*
X9460D01*
X9460Y12062D01*
X9459Y12073D01*
X9457Y12083D01*
X9455Y12092D01*
X9452Y12100D01*
X9449Y12108D01*
X9445Y12114D01*
X9441Y12120D01*
X9436Y12125D01*
X9430Y12129D01*
X9570D01*
X9564Y12125D01*
D02*
G37*
G36*
X14569Y12045D02*
X14571Y12044D01*
X14575Y12042D01*
X14581Y12041D01*
X14588Y12040D01*
X14607Y12039D01*
X14648Y12038D01*
Y11958D01*
X14633Y11958D01*
X14575Y11954D01*
X14571Y11953D01*
X14569Y11952D01*
X14568Y11950D01*
Y12046D01*
X14569Y12045D01*
D02*
G37*
G36*
X13232Y11950D02*
X13231Y11952D01*
X13229Y11953D01*
X13225Y11954D01*
X13219Y11956D01*
X13212Y11956D01*
X13193Y11958D01*
X13152Y11958D01*
Y12038D01*
X13167Y12039D01*
X13225Y12042D01*
X13229Y12044D01*
X13231Y12045D01*
X13232Y12046D01*
Y11950D01*
D02*
G37*
G36*
X14569Y11848D02*
X14571Y11847D01*
X14575Y11846D01*
X14581Y11844D01*
X14588Y11844D01*
X14607Y11842D01*
X14648Y11842D01*
Y11762D01*
X14633Y11761D01*
X14575Y11758D01*
X14571Y11756D01*
X14569Y11755D01*
X14568Y11754D01*
Y11850D01*
X14569Y11848D01*
D02*
G37*
G36*
X13232Y11754D02*
X13231Y11755D01*
X13229Y11756D01*
X13225Y11758D01*
X13219Y11759D01*
X13212Y11760D01*
X13193Y11761D01*
X13152Y11762D01*
Y11842D01*
X13167Y11842D01*
X13225Y11846D01*
X13229Y11847D01*
X13231Y11848D01*
X13232Y11850D01*
Y11754D01*
D02*
G37*
G36*
X25240Y11796D02*
X25242Y11783D01*
X25244Y11770D01*
X25246Y11760D01*
X25250Y11751D01*
X25254Y11744D01*
X25260Y11738D01*
X25266Y11734D01*
X25272Y11731D01*
X25280Y11731D01*
X25120D01*
X25128Y11731D01*
X25134Y11734D01*
X25140Y11738D01*
X25146Y11744D01*
X25150Y11751D01*
X25154Y11760D01*
X25156Y11770D01*
X25158Y11783D01*
X25160Y11796D01*
X25160Y11812D01*
X25240D01*
X25240Y11796D01*
D02*
G37*
G36*
X17133Y11826D02*
X17124Y11817D01*
X17117Y11807D01*
X17111Y11797D01*
X17105Y11785D01*
X17100Y11773D01*
X17096Y11760D01*
X17093Y11747D01*
X17091Y11732D01*
X17090Y11717D01*
X17090Y11701D01*
X16951Y11840D01*
X16967Y11840D01*
X16982Y11841D01*
X16997Y11843D01*
X17010Y11846D01*
X17023Y11850D01*
X17035Y11855D01*
X17047Y11861D01*
X17057Y11867D01*
X17067Y11874D01*
X17076Y11883D01*
X17133Y11826D01*
D02*
G37*
G36*
X27716Y11741D02*
X27717Y11727D01*
X27719Y11715D01*
X27722Y11704D01*
X27726Y11695D01*
X27730Y11688D01*
X27735Y11682D01*
X27741Y11678D01*
X27748Y11676D01*
X27756Y11675D01*
X27596D01*
X27603Y11676D01*
X27610Y11678D01*
X27616Y11682D01*
X27621Y11688D01*
X27626Y11695D01*
X27629Y11704D01*
X27632Y11715D01*
X27634Y11727D01*
X27635Y11741D01*
X27636Y11756D01*
X27716D01*
X27716Y11741D01*
D02*
G37*
G36*
X9863Y11744D02*
X9895Y11717D01*
X9910Y11706D01*
X9924Y11696D01*
X9938Y11689D01*
X9951Y11683D01*
X9964Y11678D01*
X9976Y11676D01*
X9987Y11675D01*
X9761D01*
X9771Y11675D01*
X9779Y11677D01*
X9785Y11680D01*
X9789Y11684D01*
X9790Y11689D01*
X9789Y11696D01*
X9785Y11703D01*
X9779Y11712D01*
X9771Y11722D01*
X9761Y11733D01*
X9846Y11761D01*
X9863Y11744D01*
D02*
G37*
G36*
X19933Y11774D02*
X19943Y11767D01*
X19953Y11761D01*
X19965Y11755D01*
X19977Y11750D01*
X19990Y11746D01*
X20003Y11743D01*
X20018Y11741D01*
X20033Y11740D01*
X20049Y11740D01*
X19910Y11601D01*
X19910Y11617D01*
X19909Y11632D01*
X19907Y11647D01*
X19904Y11660D01*
X19900Y11673D01*
X19895Y11685D01*
X19889Y11697D01*
X19883Y11707D01*
X19876Y11717D01*
X19867Y11726D01*
X19924Y11783D01*
X19933Y11774D01*
D02*
G37*
G36*
X14569Y11651D02*
X14571Y11650D01*
X14575Y11649D01*
X14581Y11648D01*
X14588Y11647D01*
X14607Y11645D01*
X14648Y11645D01*
Y11565D01*
X14633Y11565D01*
X14575Y11561D01*
X14571Y11560D01*
X14569Y11558D01*
X14568Y11557D01*
Y11653D01*
X14569Y11651D01*
D02*
G37*
G36*
X13232Y11557D02*
X13231Y11557D01*
X13229Y11558D01*
X13225Y11558D01*
X13212Y11559D01*
X13152Y11560D01*
Y11640D01*
X13167Y11640D01*
X13212Y11643D01*
X13219Y11645D01*
X13225Y11646D01*
X13229Y11648D01*
X13231Y11650D01*
X13232Y11653D01*
Y11557D01*
D02*
G37*
G36*
X18087Y11639D02*
X18077Y11627D01*
X18068Y11616D01*
X18061Y11604D01*
X18054Y11592D01*
X18049Y11580D01*
X18045Y11568D01*
X18045Y11566D01*
X18046Y11560D01*
X18050Y11551D01*
X18054Y11544D01*
X18060Y11538D01*
X18066Y11534D01*
X18072Y11531D01*
X18080Y11531D01*
X17920D01*
X17928Y11531D01*
X17934Y11534D01*
X17940Y11538D01*
X17946Y11544D01*
X17950Y11551D01*
X17954Y11560D01*
X17955Y11566D01*
X17955Y11568D01*
X17951Y11580D01*
X17945Y11592D01*
X17939Y11604D01*
X17932Y11616D01*
X17923Y11627D01*
X17913Y11639D01*
X17902Y11650D01*
X18098D01*
X18087Y11639D01*
D02*
G37*
G36*
X12431Y11672D02*
X12434Y11666D01*
X12438Y11660D01*
X12444Y11654D01*
X12451Y11650D01*
X12460Y11646D01*
X12470Y11644D01*
X12483Y11642D01*
X12496Y11640D01*
X12512Y11640D01*
Y11560D01*
X12496Y11560D01*
X12483Y11558D01*
X12470Y11556D01*
X12460Y11554D01*
X12451Y11550D01*
X12444Y11546D01*
X12438Y11540D01*
X12434Y11534D01*
X12431Y11528D01*
X12431Y11520D01*
Y11680D01*
X12431Y11672D01*
D02*
G37*
G36*
X25376Y11648D02*
X25378Y11641D01*
X25382Y11635D01*
X25388Y11630D01*
X25395Y11626D01*
X25404Y11622D01*
X25415Y11619D01*
X25427Y11617D01*
X25441Y11616D01*
X25456Y11616D01*
Y11536D01*
X25441Y11535D01*
X25427Y11534D01*
X25415Y11532D01*
X25404Y11529D01*
X25395Y11526D01*
X25388Y11521D01*
X25382Y11516D01*
X25378Y11510D01*
X25376Y11503D01*
X25375Y11496D01*
Y11656D01*
X25376Y11648D01*
D02*
G37*
G36*
X10031Y11572D02*
X10034Y11566D01*
X10038Y11560D01*
X10044Y11554D01*
X10051Y11550D01*
X10060Y11546D01*
X10070Y11544D01*
X10083Y11542D01*
X10096Y11540D01*
X10112Y11540D01*
Y11460D01*
X10096Y11460D01*
X10083Y11458D01*
X10070Y11456D01*
X10060Y11454D01*
X10051Y11450D01*
X10044Y11446D01*
X10038Y11440D01*
X10034Y11434D01*
X10031Y11428D01*
X10031Y11420D01*
Y11580D01*
X10031Y11572D01*
D02*
G37*
G36*
X18787Y11489D02*
X18777Y11477D01*
X18768Y11466D01*
X18761Y11454D01*
X18755Y11442D01*
X18749Y11430D01*
X18745Y11418D01*
X18742Y11406D01*
X18741Y11394D01*
X18740Y11382D01*
X18660D01*
X18659Y11394D01*
X18658Y11406D01*
X18655Y11418D01*
X18651Y11430D01*
X18645Y11442D01*
X18639Y11454D01*
X18632Y11466D01*
X18623Y11477D01*
X18613Y11489D01*
X18602Y11500D01*
X18798D01*
X18787Y11489D01*
D02*
G37*
G36*
X11797Y11424D02*
X11790Y11422D01*
X11784Y11418D01*
X11779Y11412D01*
X11774Y11405D01*
X11771Y11396D01*
X11768Y11385D01*
X11766Y11373D01*
X11765Y11359D01*
X11764Y11344D01*
X11684D01*
X11684Y11359D01*
X11683Y11373D01*
X11681Y11385D01*
X11678Y11396D01*
X11674Y11405D01*
X11670Y11412D01*
X11665Y11418D01*
X11659Y11422D01*
X11652Y11424D01*
X11644Y11425D01*
X11804D01*
X11797Y11424D01*
D02*
G37*
G36*
X11303Y11443D02*
X11305Y11431D01*
X11308Y11419D01*
X11312Y11407D01*
X11317Y11395D01*
X11323Y11384D01*
X11331Y11372D01*
X11340Y11360D01*
X11350Y11349D01*
X11361Y11337D01*
X11165D01*
X11176Y11349D01*
X11185Y11360D01*
X11194Y11372D01*
X11202Y11384D01*
X11208Y11395D01*
X11213Y11407D01*
X11217Y11419D01*
X11220Y11431D01*
X11222Y11443D01*
X11223Y11456D01*
X11303D01*
X11303Y11443D01*
D02*
G37*
G36*
X26968Y11324D02*
X26966Y11338D01*
X26960Y11351D01*
X26950Y11363D01*
X26936Y11373D01*
X26918Y11381D01*
X26896Y11388D01*
X26870Y11393D01*
X26840Y11397D01*
X26806Y11399D01*
X26768Y11400D01*
Y11600D01*
X26806Y11601D01*
X26870Y11607D01*
X26896Y11612D01*
X26918Y11619D01*
X26936Y11627D01*
X26950Y11637D01*
X26960Y11649D01*
X26966Y11662D01*
X26968Y11676D01*
Y11324D01*
D02*
G37*
G36*
X27748Y11324D02*
X27741Y11322D01*
X27735Y11318D01*
X27730Y11312D01*
X27726Y11305D01*
X27722Y11296D01*
X27719Y11285D01*
X27717Y11273D01*
X27716Y11259D01*
X27716Y11244D01*
X27636D01*
X27635Y11259D01*
X27634Y11273D01*
X27632Y11285D01*
X27629Y11296D01*
X27626Y11305D01*
X27621Y11312D01*
X27616Y11318D01*
X27610Y11322D01*
X27603Y11324D01*
X27596Y11325D01*
X27756D01*
X27748Y11324D01*
D02*
G37*
G36*
X11765Y11241D02*
X11766Y11227D01*
X11768Y11215D01*
X11771Y11204D01*
X11774Y11195D01*
X11779Y11188D01*
X11784Y11182D01*
X11790Y11178D01*
X11797Y11176D01*
X11804Y11175D01*
X11644D01*
X11652Y11176D01*
X11659Y11178D01*
X11665Y11182D01*
X11670Y11188D01*
X11674Y11195D01*
X11678Y11204D01*
X11681Y11215D01*
X11683Y11227D01*
X11684Y11241D01*
X11684Y11256D01*
X11764D01*
X11765Y11241D01*
D02*
G37*
G36*
X14242Y11231D02*
X14240Y11229D01*
X14239Y11225D01*
X14238Y11219D01*
X14237Y11212D01*
X14236Y11193D01*
X14235Y11152D01*
X14155D01*
X14155Y11167D01*
X14151Y11225D01*
X14150Y11229D01*
X14149Y11231D01*
X14147Y11232D01*
X14243D01*
X14242Y11231D01*
D02*
G37*
G36*
X14045D02*
X14044Y11229D01*
X14042Y11225D01*
X14041Y11219D01*
X14040Y11212D01*
X14039Y11193D01*
X14038Y11152D01*
X13958D01*
X13958Y11167D01*
X13954Y11225D01*
X13953Y11229D01*
X13952Y11231D01*
X13950Y11232D01*
X14046D01*
X14045Y11231D01*
D02*
G37*
G36*
X13848D02*
X13847Y11229D01*
X13845Y11225D01*
X13844Y11219D01*
X13844Y11212D01*
X13842Y11193D01*
X13842Y11152D01*
X13762D01*
X13761Y11167D01*
X13758Y11225D01*
X13756Y11229D01*
X13755Y11231D01*
X13754Y11232D01*
X13850D01*
X13848Y11231D01*
D02*
G37*
G36*
X9470Y11322D02*
X9460Y11316D01*
X9452Y11306D01*
X9445Y11292D01*
X9438Y11274D01*
X9433Y11252D01*
X9429Y11226D01*
X9427Y11196D01*
X9424Y11124D01*
X9224D01*
X9224Y11162D01*
X9219Y11226D01*
X9215Y11252D01*
X9210Y11274D01*
X9204Y11292D01*
X9197Y11306D01*
X9188Y11316D01*
X9179Y11322D01*
X9168Y11324D01*
X9481D01*
X9470Y11322D01*
D02*
G37*
G36*
X12431Y11072D02*
X12434Y11066D01*
X12438Y11060D01*
X12444Y11054D01*
X12451Y11050D01*
X12460Y11046D01*
X12470Y11044D01*
X12483Y11042D01*
X12496Y11040D01*
X12512Y11040D01*
Y10960D01*
X12496Y10960D01*
X12483Y10958D01*
X12470Y10956D01*
X12460Y10954D01*
X12451Y10950D01*
X12444Y10946D01*
X12438Y10940D01*
X12434Y10934D01*
X12431Y10928D01*
X12431Y10920D01*
Y11080D01*
X12431Y11072D01*
D02*
G37*
G36*
X16900Y10752D02*
X16889Y10763D01*
X16877Y10773D01*
X16866Y10782D01*
X16854Y10789D01*
X16842Y10796D01*
X16830Y10801D01*
X16818Y10805D01*
X16806Y10808D01*
X16794Y10809D01*
X16783Y10808D01*
X16770Y10806D01*
X16760Y10804D01*
X16751Y10800D01*
X16744Y10796D01*
X16738Y10790D01*
X16734Y10784D01*
X16731Y10778D01*
X16731Y10770D01*
Y10930D01*
X16731Y10922D01*
X16734Y10916D01*
X16738Y10910D01*
X16744Y10904D01*
X16751Y10900D01*
X16760Y10896D01*
X16770Y10894D01*
X16783Y10892D01*
X16794Y10891D01*
X16806Y10892D01*
X16818Y10895D01*
X16830Y10899D01*
X16842Y10905D01*
X16854Y10911D01*
X16866Y10918D01*
X16877Y10927D01*
X16889Y10937D01*
X16900Y10948D01*
X16900Y10752D01*
D02*
G37*
G36*
X18334Y10721D02*
X18326Y10733D01*
X18316Y10744D01*
X18307Y10753D01*
X18296Y10762D01*
X18286Y10769D01*
X18275Y10774D01*
X18263Y10779D01*
X18252Y10782D01*
X18239Y10784D01*
X18238Y10784D01*
X18227Y10783D01*
X18215Y10781D01*
X18204Y10778D01*
X18195Y10774D01*
X18188Y10770D01*
X18182Y10765D01*
X18178Y10759D01*
X18176Y10752D01*
X18175Y10744D01*
Y10904D01*
X18176Y10897D01*
X18178Y10890D01*
X18182Y10884D01*
X18188Y10879D01*
X18195Y10874D01*
X18204Y10871D01*
X18215Y10868D01*
X18227Y10866D01*
X18241Y10865D01*
X18247Y10865D01*
X18253Y10865D01*
X18265Y10866D01*
X18277Y10869D01*
X18290Y10872D01*
X18302Y10877D01*
X18315Y10882D01*
X18328Y10889D01*
X18355Y10905D01*
X18369Y10914D01*
X18334Y10721D01*
D02*
G37*
G36*
X18633Y10926D02*
X18624Y10917D01*
X18617Y10907D01*
X18611Y10897D01*
X18605Y10885D01*
X18600Y10873D01*
X18596Y10860D01*
X18593Y10847D01*
X18591Y10832D01*
X18590Y10817D01*
X18590Y10801D01*
X18451Y10940D01*
X18467Y10940D01*
X18482Y10941D01*
X18497Y10943D01*
X18510Y10946D01*
X18523Y10950D01*
X18535Y10955D01*
X18547Y10961D01*
X18557Y10967D01*
X18567Y10974D01*
X18576Y10983D01*
X18633Y10926D01*
D02*
G37*
G36*
X25248Y10867D02*
X25241Y10865D01*
X25235Y10861D01*
X25230Y10855D01*
X25226Y10848D01*
X25222Y10839D01*
X25219Y10829D01*
X25217Y10817D01*
X25216Y10803D01*
X25216Y10788D01*
X25136D01*
X25135Y10803D01*
X25134Y10817D01*
X25132Y10829D01*
X25129Y10839D01*
X25126Y10848D01*
X25121Y10855D01*
X25116Y10861D01*
X25110Y10865D01*
X25103Y10867D01*
X25096Y10868D01*
X25256D01*
X25248Y10867D01*
D02*
G37*
G36*
X15868Y10770D02*
X15867Y10778D01*
X15865Y10784D01*
X15861Y10790D01*
X15855Y10796D01*
X15848Y10800D01*
X15839Y10804D01*
X15829Y10806D01*
X15817Y10808D01*
X15803Y10810D01*
X15788Y10810D01*
Y10890D01*
X15803Y10890D01*
X15817Y10892D01*
X15829Y10894D01*
X15839Y10896D01*
X15848Y10900D01*
X15855Y10904D01*
X15861Y10910D01*
X15865Y10916D01*
X15867Y10922D01*
X15868Y10930D01*
Y10770D01*
D02*
G37*
G36*
X14961Y10937D02*
X14973Y10927D01*
X14984Y10918D01*
X14996Y10911D01*
X15008Y10905D01*
X15020Y10899D01*
X15032Y10895D01*
X15044Y10892D01*
X15056Y10891D01*
X15068Y10890D01*
Y10810D01*
X15056Y10809D01*
X15044Y10808D01*
X15032Y10805D01*
X15020Y10801D01*
X15008Y10796D01*
X14996Y10789D01*
X14984Y10782D01*
X14973Y10773D01*
X14961Y10763D01*
X14950Y10752D01*
Y10948D01*
X14961Y10937D01*
D02*
G37*
G36*
X14750Y10752D02*
X14739Y10763D01*
X14727Y10773D01*
X14716Y10782D01*
X14704Y10789D01*
X14692Y10796D01*
X14680Y10801D01*
X14668Y10805D01*
X14656Y10808D01*
X14644Y10809D01*
X14632Y10810D01*
Y10890D01*
X14644Y10891D01*
X14656Y10892D01*
X14668Y10895D01*
X14680Y10899D01*
X14692Y10905D01*
X14704Y10911D01*
X14716Y10918D01*
X14727Y10927D01*
X14739Y10937D01*
X14750Y10948D01*
Y10752D01*
D02*
G37*
G36*
X11797Y10824D02*
X11790Y10822D01*
X11784Y10818D01*
X11779Y10812D01*
X11774Y10805D01*
X11771Y10796D01*
X11768Y10785D01*
X11766Y10773D01*
X11765Y10759D01*
X11764Y10744D01*
X11684D01*
X11684Y10759D01*
X11683Y10773D01*
X11681Y10785D01*
X11678Y10796D01*
X11674Y10805D01*
X11670Y10812D01*
X11665Y10818D01*
X11659Y10822D01*
X11652Y10824D01*
X11644Y10825D01*
X11804D01*
X11797Y10824D01*
D02*
G37*
G36*
X13245Y10721D02*
X13232Y10726D01*
X13220Y10729D01*
X13208Y10731D01*
X13196Y10731D01*
X13184Y10730D01*
X13173Y10727D01*
X13163Y10723D01*
X13152Y10718D01*
X13142Y10710D01*
X13133Y10702D01*
X13101Y10783D01*
X13108Y10791D01*
X13115Y10799D01*
X13122Y10809D01*
X13136Y10831D01*
X13143Y10843D01*
X13163Y10886D01*
X13170Y10902D01*
X13245Y10721D01*
D02*
G37*
G36*
X13133Y10702D02*
X13116Y10684D01*
X13089Y10653D01*
X13080Y10640D01*
X13073Y10628D01*
X13068Y10617D01*
X13066Y10608D01*
X13067Y10600D01*
X13069Y10594D01*
X13075Y10588D01*
X12943Y10681D01*
X12950Y10677D01*
X12958Y10676D01*
X12967Y10676D01*
X12977Y10679D01*
X12988Y10684D01*
X13000Y10691D01*
X13012Y10699D01*
X13026Y10710D01*
X13056Y10738D01*
X13133Y10702D01*
D02*
G37*
G36*
X11683Y10626D02*
X11674Y10617D01*
X11667Y10607D01*
X11661Y10597D01*
X11655Y10585D01*
X11650Y10573D01*
X11646Y10560D01*
X11643Y10547D01*
X11641Y10532D01*
X11640Y10517D01*
X11640Y10501D01*
X11501Y10640D01*
X11517Y10640D01*
X11532Y10641D01*
X11547Y10643D01*
X11560Y10646D01*
X11573Y10650D01*
X11585Y10655D01*
X11597Y10661D01*
X11607Y10667D01*
X11617Y10674D01*
X11626Y10683D01*
X11683Y10626D01*
D02*
G37*
G36*
X12725Y10446D02*
X12724Y10453D01*
X12722Y10460D01*
X12718Y10466D01*
X12712Y10471D01*
X12705Y10476D01*
X12696Y10479D01*
X12685Y10482D01*
X12673Y10484D01*
X12659Y10485D01*
X12644Y10486D01*
Y10566D01*
X12659Y10566D01*
X12673Y10567D01*
X12685Y10569D01*
X12696Y10572D01*
X12705Y10576D01*
X12712Y10580D01*
X12718Y10585D01*
X12722Y10591D01*
X12724Y10598D01*
X12725Y10606D01*
Y10446D01*
D02*
G37*
G36*
X27605Y10203D02*
X27594Y10191D01*
X27585Y10181D01*
X27578Y10171D01*
X27573Y10161D01*
X27569Y10152D01*
X27567Y10144D01*
X27566Y10136D01*
X27568Y10129D01*
X27571Y10123D01*
X27576Y10117D01*
X27463Y10230D01*
X27469Y10225D01*
X27475Y10222D01*
X27482Y10221D01*
X27490Y10221D01*
X27498Y10223D01*
X27507Y10227D01*
X27516Y10232D01*
X27527Y10240D01*
X27537Y10248D01*
X27548Y10259D01*
X27605Y10203D01*
D02*
G37*
G36*
X25216Y10241D02*
X25217Y10227D01*
X25219Y10215D01*
X25222Y10204D01*
X25226Y10195D01*
X25230Y10188D01*
X25235Y10182D01*
X25241Y10178D01*
X25248Y10176D01*
X25256Y10175D01*
X25096D01*
X25103Y10176D01*
X25110Y10178D01*
X25116Y10182D01*
X25121Y10188D01*
X25126Y10195D01*
X25129Y10204D01*
X25132Y10215D01*
X25134Y10227D01*
X25135Y10241D01*
X25136Y10256D01*
X25216D01*
X25216Y10241D01*
D02*
G37*
G36*
X24665D02*
X24666Y10227D01*
X24668Y10215D01*
X24671Y10204D01*
X24674Y10195D01*
X24679Y10188D01*
X24684Y10182D01*
X24690Y10178D01*
X24697Y10176D01*
X24704Y10175D01*
X24544D01*
X24552Y10176D01*
X24559Y10178D01*
X24565Y10182D01*
X24570Y10188D01*
X24574Y10195D01*
X24578Y10204D01*
X24581Y10215D01*
X24583Y10227D01*
X24584Y10241D01*
X24584Y10256D01*
X24664D01*
X24665Y10241D01*
D02*
G37*
G36*
X21840Y10196D02*
X21842Y10183D01*
X21844Y10170D01*
X21846Y10160D01*
X21850Y10151D01*
X21854Y10144D01*
X21860Y10138D01*
X21866Y10134D01*
X21872Y10131D01*
X21880Y10131D01*
X21720D01*
X21728Y10131D01*
X21734Y10134D01*
X21740Y10138D01*
X21746Y10144D01*
X21750Y10151D01*
X21754Y10160D01*
X21756Y10170D01*
X21758Y10183D01*
X21760Y10196D01*
X21760Y10212D01*
X21840D01*
X21840Y10196D01*
D02*
G37*
G36*
X9437Y10360D02*
X9463Y10338D01*
X9488Y10320D01*
X9512Y10307D01*
X9534Y10297D01*
X9554Y10292D01*
X9573Y10292D01*
X9591Y10295D01*
X9607Y10303D01*
X9622Y10315D01*
X9339Y10032D01*
X9351Y10047D01*
X9359Y10063D01*
X9363Y10081D01*
X9362Y10100D01*
X9357Y10121D01*
X9348Y10143D01*
X9334Y10166D01*
X9316Y10191D01*
X9294Y10217D01*
X9268Y10245D01*
X9409Y10386D01*
X9437Y10360D01*
D02*
G37*
G36*
X12725Y9920D02*
X12724Y9928D01*
X12722Y9934D01*
X12718Y9940D01*
X12712Y9946D01*
X12705Y9950D01*
X12696Y9954D01*
X12685Y9956D01*
X12673Y9958D01*
X12659Y9960D01*
X12644Y9960D01*
Y10040D01*
X12659Y10040D01*
X12673Y10042D01*
X12685Y10044D01*
X12696Y10046D01*
X12705Y10050D01*
X12712Y10054D01*
X12718Y10060D01*
X12722Y10066D01*
X12724Y10072D01*
X12725Y10080D01*
Y9920D01*
D02*
G37*
G36*
X12431Y10072D02*
X12434Y10066D01*
X12438Y10060D01*
X12444Y10054D01*
X12451Y10050D01*
X12460Y10046D01*
X12470Y10044D01*
X12483Y10042D01*
X12496Y10040D01*
X12512Y10040D01*
Y9960D01*
X12496Y9960D01*
X12483Y9958D01*
X12470Y9956D01*
X12460Y9954D01*
X12451Y9950D01*
X12444Y9946D01*
X12438Y9940D01*
X12434Y9934D01*
X12431Y9928D01*
X12431Y9920D01*
Y10080D01*
X12431Y10072D01*
D02*
G37*
G36*
X11568Y9920D02*
X11567Y9928D01*
X11565Y9934D01*
X11561Y9940D01*
X11555Y9946D01*
X11548Y9950D01*
X11539Y9954D01*
X11529Y9956D01*
X11517Y9958D01*
X11503Y9960D01*
X11488Y9960D01*
Y10040D01*
X11503Y10040D01*
X11517Y10042D01*
X11529Y10044D01*
X11539Y10046D01*
X11548Y10050D01*
X11555Y10054D01*
X11561Y10060D01*
X11565Y10066D01*
X11567Y10072D01*
X11568Y10080D01*
Y9920D01*
D02*
G37*
G36*
X19989Y10427D02*
Y9918D01*
X19985Y9943D01*
X19973Y9965D01*
X19953Y9985D01*
X19925Y10002D01*
X19889Y10017D01*
X19845Y10029D01*
X19793Y10038D01*
X19733Y10045D01*
X19589Y10050D01*
Y10450D01*
X19989Y10427D01*
D02*
G37*
G36*
X21625Y9896D02*
X21624Y9903D01*
X21622Y9910D01*
X21618Y9916D01*
X21612Y9921D01*
X21605Y9926D01*
X21596Y9929D01*
X21585Y9932D01*
X21573Y9934D01*
X21559Y9935D01*
X21544Y9936D01*
Y10016D01*
X21559Y10016D01*
X21573Y10017D01*
X21585Y10019D01*
X21596Y10022D01*
X21605Y10026D01*
X21612Y10030D01*
X21618Y10035D01*
X21622Y10041D01*
X21624Y10048D01*
X21625Y10056D01*
Y9896D01*
D02*
G37*
G36*
X20946Y9918D02*
X20940Y9916D01*
X20934Y9912D01*
X20928Y9906D01*
X20924Y9899D01*
X20920Y9890D01*
X20918Y9879D01*
X20916Y9867D01*
X20914Y9853D01*
X20914Y9838D01*
X20834D01*
X20834Y9853D01*
X20832Y9867D01*
X20830Y9879D01*
X20828Y9890D01*
X20824Y9899D01*
X20820Y9906D01*
X20814Y9912D01*
X20808Y9916D01*
X20802Y9918D01*
X20794Y9919D01*
X20954D01*
X20946Y9918D01*
D02*
G37*
G36*
X10377Y9792D02*
X10367Y9781D01*
X10358Y9770D01*
X10351Y9760D01*
X10345Y9751D01*
X10341Y9742D01*
X10339Y9733D01*
X10339Y9726D01*
X10340Y9719D01*
X10343Y9712D01*
X10348Y9706D01*
X10235Y9819D01*
X10241Y9815D01*
X10248Y9811D01*
X10255Y9810D01*
X10262Y9810D01*
X10271Y9812D01*
X10280Y9816D01*
X10289Y9822D01*
X10299Y9829D01*
X10310Y9838D01*
X10321Y9848D01*
X10377Y9792D01*
D02*
G37*
G36*
X26664Y9949D02*
X26780Y9848D01*
X26786Y9845D01*
X26790Y9846D01*
X26625Y9681D01*
X26626Y9685D01*
X26623Y9691D01*
X26618Y9700D01*
X26610Y9711D01*
X26598Y9725D01*
X26546Y9783D01*
X26495Y9834D01*
X26637Y9976D01*
X26664Y9949D01*
D02*
G37*
G36*
X15877Y9594D02*
X15798Y9512D01*
X15673Y9365D01*
X15628Y9300D01*
X15593Y9240D01*
X15571Y9186D01*
X15559Y9138D01*
X15559Y9096D01*
X15570Y9059D01*
X15593Y9028D01*
X15300Y9321D01*
X15007Y9028D01*
X15030Y9059D01*
X15041Y9096D01*
X15041Y9138D01*
X15029Y9186D01*
X15007Y9240D01*
X14972Y9300D01*
X14927Y9365D01*
X14870Y9435D01*
X14723Y9594D01*
X15006Y9877D01*
X15088Y9798D01*
X15235Y9673D01*
X15300Y9628D01*
X15365Y9673D01*
X15435Y9730D01*
X15594Y9877D01*
X15877Y9594D01*
D02*
G37*
G36*
X26952Y9355D02*
X26941Y9364D01*
X26927Y9370D01*
X26913Y9372D01*
X26897Y9370D01*
X26879Y9365D01*
X26861Y9356D01*
X26840Y9343D01*
X26818Y9327D01*
X26795Y9307D01*
X26771Y9283D01*
X26629Y9425D01*
X26653Y9450D01*
X26673Y9473D01*
X26689Y9494D01*
X26702Y9515D01*
X26710Y9534D01*
X26716Y9551D01*
X26718Y9567D01*
X26716Y9582D01*
X26710Y9595D01*
X26701Y9607D01*
X26952Y9355D01*
D02*
G37*
G36*
X17367Y9420D02*
X17369Y9414D01*
X17373Y9408D01*
X17379Y9402D01*
X17386Y9398D01*
X17395Y9394D01*
X17406Y9392D01*
X17418Y9390D01*
X17431Y9388D01*
X17447Y9388D01*
Y9308D01*
X17431Y9308D01*
X17418Y9306D01*
X17406Y9304D01*
X17395Y9302D01*
X17386Y9298D01*
X17379Y9294D01*
X17373Y9288D01*
X17369Y9282D01*
X17367Y9276D01*
X17366Y9268D01*
Y9428D01*
X17367Y9420D01*
D02*
G37*
G36*
X18985Y9420D02*
X18987Y9414D01*
X18991Y9408D01*
X18997Y9402D01*
X19004Y9398D01*
X19013Y9394D01*
X19024Y9392D01*
X19036Y9390D01*
X19050Y9388D01*
X19065Y9388D01*
Y9308D01*
X19050Y9308D01*
X19036Y9306D01*
X19024Y9304D01*
X19013Y9302D01*
X19004Y9298D01*
X18997Y9294D01*
X18991Y9288D01*
X18987Y9282D01*
X18985Y9276D01*
X18984Y9268D01*
Y9428D01*
X18985Y9420D01*
D02*
G37*
G36*
X21872Y9267D02*
X21866Y9265D01*
X21860Y9261D01*
X21854Y9255D01*
X21850Y9248D01*
X21846Y9239D01*
X21844Y9229D01*
X21842Y9217D01*
X21840Y9203D01*
X21840Y9188D01*
X21760D01*
X21760Y9203D01*
X21758Y9217D01*
X21756Y9229D01*
X21754Y9239D01*
X21750Y9248D01*
X21746Y9255D01*
X21740Y9261D01*
X21734Y9265D01*
X21728Y9267D01*
X21720Y9268D01*
X21880D01*
X21872Y9267D01*
D02*
G37*
G36*
X21010Y9300D02*
X21013Y9293D01*
X21017Y9287D01*
X21022Y9282D01*
X21030Y9278D01*
X21039Y9274D01*
X21049Y9271D01*
X21061Y9269D01*
X21075Y9268D01*
X21091Y9268D01*
Y9188D01*
X21075Y9187D01*
X21061Y9186D01*
X21049Y9184D01*
X21039Y9181D01*
X21030Y9178D01*
X21022Y9173D01*
X21017Y9168D01*
X21013Y9162D01*
X21010Y9155D01*
X21009Y9148D01*
Y9308D01*
X21010Y9300D01*
D02*
G37*
G36*
X19991Y9148D02*
X19990Y9155D01*
X19987Y9162D01*
X19983Y9168D01*
X19978Y9173D01*
X19970Y9178D01*
X19961Y9181D01*
X19951Y9184D01*
X19939Y9186D01*
X19925Y9187D01*
X19909Y9188D01*
Y9268D01*
X19925Y9268D01*
X19939Y9269D01*
X19951Y9271D01*
X19961Y9274D01*
X19970Y9278D01*
X19978Y9282D01*
X19983Y9287D01*
X19987Y9293D01*
X19990Y9300D01*
X19991Y9308D01*
Y9148D01*
D02*
G37*
G36*
X16841Y9206D02*
X16842Y9194D01*
X16845Y9182D01*
X16849Y9170D01*
X16854Y9158D01*
X16861Y9146D01*
X16868Y9134D01*
X16877Y9123D01*
X16887Y9111D01*
X16898Y9100D01*
X16702D01*
X16713Y9111D01*
X16723Y9123D01*
X16732Y9134D01*
X16739Y9146D01*
X16746Y9158D01*
X16751Y9170D01*
X16755Y9182D01*
X16758Y9194D01*
X16759Y9206D01*
X16760Y9218D01*
X16840D01*
X16841Y9206D01*
D02*
G37*
G36*
X20587Y9116D02*
X20577Y9105D01*
X20568Y9093D01*
X20561Y9081D01*
X20554Y9070D01*
X20549Y9058D01*
X20545Y9046D01*
X20542Y9034D01*
X20541Y9022D01*
X20540Y9009D01*
X20460D01*
X20459Y9022D01*
X20458Y9034D01*
X20455Y9046D01*
X20451Y9058D01*
X20445Y9070D01*
X20439Y9081D01*
X20432Y9093D01*
X20423Y9105D01*
X20413Y9116D01*
X20402Y9128D01*
X20598D01*
X20587Y9116D01*
D02*
G37*
G36*
X20572Y8973D02*
X20566Y8971D01*
X20560Y8967D01*
X20554Y8961D01*
X20550Y8954D01*
X20546Y8945D01*
X20544Y8934D01*
X20542Y8922D01*
X20542Y8922D01*
X20542Y8916D01*
X20545Y8901D01*
X20549Y8886D01*
X20554Y8872D01*
X20560Y8859D01*
X20568Y8846D01*
X20576Y8834D01*
X20586Y8822D01*
X20597Y8810D01*
X20557Y8737D01*
X20545Y8747D01*
X20534Y8755D01*
X20524Y8762D01*
X20513Y8766D01*
X20503Y8768D01*
X20492Y8768D01*
X20482Y8766D01*
X20473Y8762D01*
X20463Y8755D01*
X20454Y8747D01*
X20403Y8810D01*
X20414Y8822D01*
X20424Y8834D01*
X20432Y8846D01*
X20440Y8859D01*
X20446Y8872D01*
X20451Y8886D01*
X20455Y8901D01*
X20458Y8916D01*
X20458Y8922D01*
X20458Y8922D01*
X20456Y8934D01*
X20454Y8945D01*
X20450Y8954D01*
X20446Y8961D01*
X20440Y8967D01*
X20434Y8971D01*
X20428Y8973D01*
X20420Y8974D01*
X20580D01*
X20572Y8973D01*
D02*
G37*
G36*
X26862Y8910D02*
X26872Y8903D01*
X26883Y8897D01*
X26894Y8892D01*
X26906Y8888D01*
X26918Y8886D01*
X26931Y8884D01*
X26945Y8884D01*
X26959Y8885D01*
X26974Y8888D01*
X26862Y8726D01*
X26859Y8743D01*
X26851Y8773D01*
X26846Y8787D01*
X26841Y8800D01*
X26835Y8812D01*
X26829Y8823D01*
X26822Y8833D01*
X26815Y8843D01*
X26807Y8851D01*
X26853Y8918D01*
X26862Y8910D01*
D02*
G37*
G36*
X9587Y8639D02*
X9577Y8627D01*
X9568Y8616D01*
X9561Y8604D01*
X9554Y8592D01*
X9549Y8580D01*
X9545Y8568D01*
X9542Y8556D01*
X9541Y8544D01*
X9540Y8532D01*
X9460D01*
X9459Y8544D01*
X9458Y8556D01*
X9455Y8568D01*
X9451Y8580D01*
X9445Y8592D01*
X9439Y8604D01*
X9432Y8616D01*
X9423Y8627D01*
X9413Y8639D01*
X9402Y8650D01*
X9598D01*
X9587Y8639D01*
D02*
G37*
G36*
X8001Y8177D02*
X7987Y8174D01*
X7969Y8166D01*
X7963Y8162D01*
X8016Y8109D01*
X8001Y8121D01*
X7985Y8129D01*
X7967Y8132D01*
X7948Y8131D01*
X7927Y8126D01*
X7905Y8117D01*
X7889Y8108D01*
X7852Y8077D01*
X7732Y7965D01*
X7653Y7874D01*
X7646Y7862D01*
X7641Y7852D01*
X7640Y7844D01*
X7643Y7839D01*
X7463Y8018D01*
X7468Y8016D01*
X7476Y8017D01*
X7486Y8022D01*
X7498Y8029D01*
X7513Y8040D01*
X7530Y8053D01*
X7584Y8102D01*
X7750Y8293D01*
X7754Y8299D01*
X7760Y8318D01*
X7763Y8335D01*
X7761Y8351D01*
X7756Y8365D01*
X7747Y8377D01*
X7786Y8338D01*
X7790Y8345D01*
X7798Y8363D01*
X7801Y8377D01*
X8001Y8177D01*
D02*
G37*
G36*
X27990Y8483D02*
X27991Y8468D01*
X27993Y8453D01*
X27996Y8440D01*
X28000Y8427D01*
X28005Y8415D01*
X28010Y8403D01*
X28017Y8393D01*
X28024Y8383D01*
X28033Y8374D01*
X27976Y8317D01*
X27967Y8326D01*
X27957Y8333D01*
X27947Y8339D01*
X27935Y8345D01*
X27923Y8350D01*
X27910Y8354D01*
X27897Y8357D01*
X27882Y8359D01*
X27867Y8360D01*
X27851Y8360D01*
X27990Y8499D01*
X27990Y8483D01*
D02*
G37*
G36*
X29175Y8380D02*
X29178Y8369D01*
X29182Y8358D01*
X29188Y8346D01*
X29195Y8334D01*
X29204Y8320D01*
X29215Y8307D01*
X29240Y8278D01*
X29255Y8263D01*
X29127Y8108D01*
X29111Y8123D01*
X29082Y8147D01*
X29068Y8157D01*
X29055Y8165D01*
X29042Y8171D01*
X29029Y8176D01*
X29017Y8179D01*
X29006Y8181D01*
X28994Y8181D01*
X29173Y8391D01*
X29175Y8380D01*
D02*
G37*
G36*
X9290Y7834D02*
X9280Y7823D01*
X9271Y7812D01*
X9264Y7802D01*
X9259Y7793D01*
X9255Y7784D01*
X9253Y7776D01*
X9253Y7768D01*
X9254Y7761D01*
X9257Y7755D01*
X9262Y7749D01*
X9149Y7862D01*
X9155Y7857D01*
X9161Y7854D01*
X9168Y7853D01*
X9176Y7853D01*
X9184Y7855D01*
X9193Y7859D01*
X9202Y7864D01*
X9212Y7871D01*
X9223Y7880D01*
X9234Y7890D01*
X9290Y7834D01*
D02*
G37*
G36*
X29403Y8114D02*
X29502Y8029D01*
X29514Y8022D01*
X29524Y8017D01*
X29532Y8016D01*
X29537Y8018D01*
X29357Y7839D01*
X29360Y7844D01*
X29359Y7852D01*
X29354Y7862D01*
X29347Y7874D01*
X29336Y7889D01*
X29322Y7906D01*
X29262Y7972D01*
X29235Y8000D01*
X29376Y8141D01*
X29403Y8114D01*
D02*
G37*
G36*
X27777Y7880D02*
X27788Y7871D01*
X27798Y7864D01*
X27807Y7859D01*
X27816Y7855D01*
X27824Y7853D01*
X27832Y7853D01*
X27839Y7854D01*
X27845Y7857D01*
X27851Y7862D01*
X27738Y7749D01*
X27743Y7755D01*
X27746Y7761D01*
X27747Y7768D01*
X27747Y7776D01*
X27745Y7784D01*
X27741Y7793D01*
X27736Y7802D01*
X27729Y7812D01*
X27720Y7823D01*
X27710Y7834D01*
X27766Y7890D01*
X27777Y7880D01*
D02*
G37*
G36*
X8391Y7827D02*
X8380Y7825D01*
X8369Y7822D01*
X8358Y7818D01*
X8346Y7812D01*
X8334Y7805D01*
X8320Y7796D01*
X8307Y7785D01*
X8278Y7760D01*
X8263Y7745D01*
X8108Y7873D01*
X8123Y7889D01*
X8147Y7918D01*
X8157Y7932D01*
X8165Y7945D01*
X8171Y7958D01*
X8176Y7971D01*
X8179Y7983D01*
X8181Y7994D01*
X8181Y8006D01*
X8391Y7827D01*
D02*
G37*
G36*
X28880Y8000D02*
X28872Y7984D01*
X28869Y7966D01*
X28869Y7947D01*
X28874Y7927D01*
X28883Y7905D01*
X28897Y7882D01*
X28914Y7857D01*
X28936Y7831D01*
X28963Y7803D01*
X28821Y7662D01*
X28794Y7688D01*
X28744Y7729D01*
X28722Y7743D01*
X28701Y7754D01*
X28682Y7760D01*
X28665Y7763D01*
X28649Y7761D01*
X28635Y7756D01*
X28623Y7747D01*
X28892Y8015D01*
X28880Y8000D01*
D02*
G37*
G36*
X8141Y7624D02*
X8114Y7597D01*
X8029Y7498D01*
X8022Y7486D01*
X8017Y7476D01*
X8016Y7468D01*
X8018Y7463D01*
X7839Y7643D01*
X7844Y7640D01*
X7852Y7641D01*
X7862Y7646D01*
X7874Y7653D01*
X7889Y7664D01*
X7906Y7678D01*
X7972Y7738D01*
X8000Y7765D01*
X8141Y7624D01*
D02*
G37*
G36*
X29028Y7738D02*
X29126Y7653D01*
X29138Y7646D01*
X29148Y7641D01*
X29156Y7640D01*
X29161Y7643D01*
X28982Y7463D01*
X28984Y7468D01*
X28983Y7476D01*
X28978Y7486D01*
X28971Y7498D01*
X28960Y7513D01*
X28947Y7530D01*
X28886Y7597D01*
X28859Y7624D01*
X29000Y7765D01*
X29028Y7738D01*
D02*
G37*
G36*
X8652Y7139D02*
X8646Y7144D01*
X8640Y7147D01*
X8632Y7148D01*
X8625Y7148D01*
X8616Y7146D01*
X8608Y7142D01*
X8598Y7137D01*
X8588Y7129D01*
X8578Y7120D01*
X8566Y7110D01*
X8510Y7166D01*
X8520Y7178D01*
X8529Y7188D01*
X8536Y7198D01*
X8542Y7208D01*
X8546Y7216D01*
X8548Y7225D01*
X8548Y7232D01*
X8547Y7240D01*
X8544Y7246D01*
X8539Y7252D01*
X8652Y7139D01*
D02*
G37*
G36*
X28456Y7246D02*
X28453Y7240D01*
X28452Y7232D01*
X28452Y7225D01*
X28454Y7216D01*
X28458Y7208D01*
X28463Y7198D01*
X28471Y7188D01*
X28480Y7178D01*
X28490Y7166D01*
X28434Y7110D01*
X28422Y7120D01*
X28412Y7129D01*
X28402Y7136D01*
X28392Y7142D01*
X28384Y7146D01*
X28375Y7148D01*
X28368Y7148D01*
X28360Y7147D01*
X28354Y7144D01*
X28348Y7139D01*
X28461Y7252D01*
X28456Y7246D01*
D02*
G37*
G36*
X6714Y7048D02*
X6704Y7036D01*
X6695Y7026D01*
X6688Y7016D01*
X6682Y7006D01*
X6678Y6997D01*
X6676Y6989D01*
X6676Y6981D01*
X6677Y6974D01*
X6680Y6968D01*
X6685Y6962D01*
X6572Y7075D01*
X6578Y7070D01*
X6585Y7067D01*
X6592Y7066D01*
X6599Y7066D01*
X6608Y7068D01*
X6617Y7072D01*
X6626Y7077D01*
X6636Y7085D01*
X6647Y7094D01*
X6658Y7104D01*
X6714Y7048D01*
D02*
G37*
G36*
X30353Y7094D02*
X30364Y7085D01*
X30374Y7077D01*
X30383Y7072D01*
X30392Y7068D01*
X30401Y7066D01*
X30408Y7066D01*
X30415Y7067D01*
X30422Y7070D01*
X30428Y7075D01*
X30315Y6962D01*
X30320Y6968D01*
X30323Y6974D01*
X30324Y6981D01*
X30324Y6989D01*
X30322Y6997D01*
X30318Y7006D01*
X30312Y7016D01*
X30305Y7026D01*
X30296Y7036D01*
X30286Y7048D01*
X30342Y7104D01*
X30353Y7094D01*
D02*
G37*
G36*
X30051Y6338D02*
X30045Y6343D01*
X30039Y6346D01*
X30032Y6347D01*
X30024Y6347D01*
X30016Y6345D01*
X30007Y6341D01*
X29998Y6336D01*
X29988Y6329D01*
X29977Y6320D01*
X29966Y6310D01*
X29910Y6366D01*
X29920Y6377D01*
X29929Y6388D01*
X29936Y6398D01*
X29941Y6407D01*
X29945Y6416D01*
X29947Y6424D01*
X29947Y6432D01*
X29946Y6439D01*
X29943Y6445D01*
X29938Y6451D01*
X30051Y6338D01*
D02*
G37*
G36*
X7057Y6445D02*
X7054Y6439D01*
X7053Y6432D01*
X7053Y6424D01*
X7055Y6416D01*
X7059Y6407D01*
X7064Y6398D01*
X7071Y6388D01*
X7080Y6377D01*
X7090Y6366D01*
X7034Y6310D01*
X7023Y6320D01*
X7012Y6329D01*
X7002Y6336D01*
X6993Y6341D01*
X6984Y6345D01*
X6976Y6347D01*
X6968Y6347D01*
X6961Y6346D01*
X6955Y6343D01*
X6949Y6338D01*
X7062Y6451D01*
X7057Y6445D01*
D02*
G37*
%LPC*%
G36*
X23142Y25537D02*
X22707D01*
Y25063D01*
X22819D01*
X22819Y25056D01*
X22819Y25042D01*
X22822Y25036D01*
Y24876D01*
X22830Y24837D01*
X22852Y24803D01*
X22978Y24678D01*
X23011Y24656D01*
X23050Y24648D01*
X23258D01*
X23322Y24583D01*
X23303Y24537D01*
X23258D01*
Y24063D01*
X23693D01*
Y24537D01*
X23581D01*
X23581Y24544D01*
X23581Y24558D01*
X23578Y24564D01*
Y24574D01*
X23570Y24613D01*
X23548Y24647D01*
X23372Y24822D01*
X23339Y24844D01*
X23300Y24852D01*
X23092D01*
X23026Y24918D01*
Y25036D01*
X23029Y25042D01*
X23030Y25056D01*
X23030Y25063D01*
X23142D01*
Y25537D01*
D02*
G37*
G36*
X22042D02*
X21607D01*
Y25063D01*
X21719D01*
X21719Y25056D01*
X21719Y25042D01*
X21722Y25036D01*
Y24976D01*
X21730Y24937D01*
X21752Y24903D01*
X21928Y24728D01*
X21961Y24706D01*
X22000Y24698D01*
X22158D01*
X22269Y24587D01*
X22262Y24537D01*
X22158D01*
Y24063D01*
X22593D01*
Y24537D01*
X22481D01*
X22481Y24544D01*
X22481Y24558D01*
X22478Y24564D01*
Y24624D01*
X22470Y24663D01*
X22448Y24697D01*
X22272Y24872D01*
X22239Y24894D01*
X22200Y24902D01*
X22042D01*
X21931Y25013D01*
X21938Y25063D01*
X22042D01*
Y25537D01*
D02*
G37*
%LPD*%
G36*
X22997Y25124D02*
X22990Y25122D01*
X22984Y25118D01*
X22979Y25112D01*
X22974Y25105D01*
X22971Y25096D01*
X22968Y25085D01*
X22966Y25073D01*
X22965Y25059D01*
X22964Y25044D01*
X22884D01*
X22884Y25059D01*
X22883Y25073D01*
X22881Y25085D01*
X22878Y25096D01*
X22874Y25105D01*
X22870Y25112D01*
X22865Y25118D01*
X22859Y25122D01*
X22852Y25124D01*
X22844Y25125D01*
X23004D01*
X22997Y25124D01*
D02*
G37*
G36*
X23516Y24541D02*
X23517Y24527D01*
X23519Y24515D01*
X23522Y24504D01*
X23526Y24495D01*
X23530Y24488D01*
X23535Y24482D01*
X23541Y24478D01*
X23548Y24476D01*
X23556Y24475D01*
X23396D01*
X23403Y24476D01*
X23410Y24478D01*
X23416Y24482D01*
X23421Y24488D01*
X23426Y24495D01*
X23429Y24504D01*
X23432Y24515D01*
X23434Y24527D01*
X23435Y24541D01*
X23436Y24556D01*
X23516D01*
X23516Y24541D01*
D02*
G37*
G36*
X21897Y25124D02*
X21890Y25122D01*
X21884Y25118D01*
X21879Y25112D01*
X21874Y25105D01*
X21871Y25096D01*
X21868Y25085D01*
X21866Y25073D01*
X21865Y25059D01*
X21864Y25044D01*
X21784D01*
X21784Y25059D01*
X21783Y25073D01*
X21781Y25085D01*
X21778Y25096D01*
X21774Y25105D01*
X21770Y25112D01*
X21765Y25118D01*
X21759Y25122D01*
X21752Y25124D01*
X21744Y25125D01*
X21904D01*
X21897Y25124D01*
D02*
G37*
G36*
X22416Y24541D02*
X22417Y24527D01*
X22419Y24515D01*
X22422Y24504D01*
X22426Y24495D01*
X22430Y24488D01*
X22435Y24482D01*
X22441Y24478D01*
X22448Y24476D01*
X22456Y24475D01*
X22296D01*
X22303Y24476D01*
X22310Y24478D01*
X22316Y24482D01*
X22321Y24488D01*
X22326Y24495D01*
X22329Y24504D01*
X22332Y24515D01*
X22334Y24527D01*
X22335Y24541D01*
X22336Y24556D01*
X22416D01*
X22416Y24541D01*
D02*
G37*
%LPC*%
G36*
X13432Y23233D02*
X13076D01*
Y22483D01*
X13432D01*
Y23233D01*
D02*
G37*
G36*
X13850Y17526D02*
X13811Y17519D01*
X13778Y17497D01*
X13756Y17463D01*
X13748Y17424D01*
X13756Y17385D01*
X13778Y17352D01*
X13811Y17330D01*
X13850Y17322D01*
X13889Y17330D01*
X13922Y17352D01*
X13944Y17385D01*
X13952Y17424D01*
X13944Y17463D01*
X13922Y17497D01*
X13889Y17519D01*
X13850Y17526D01*
D02*
G37*
%LPD*%
D12*
X14973Y15902D02*
X15000Y15874D01*
X14150Y15902D02*
X14973D01*
X14150Y16295D02*
X14395D01*
X14500Y16400D01*
Y17000D01*
X15500Y12600D02*
X15650Y12750D01*
X15191Y12009D02*
X15850Y12667D01*
X15400Y22100D02*
X15750Y22450D01*
X25900Y21550D02*
Y22000D01*
X25441Y21009D02*
X25891D01*
Y19991D02*
X25900Y20000D01*
X25891Y21009D02*
X25900Y21000D01*
X19000Y20500D02*
X19234Y20734D01*
Y21058D01*
X18584Y21334D02*
X18958D01*
X16838Y22436D02*
X18958D01*
X16963Y22279D02*
X18958D01*
X17088Y22121D02*
X18958D01*
X17214Y21964D02*
X18958D01*
X17724Y22751D02*
X18958D01*
X18291Y22909D02*
X18958D01*
X17400Y23800D02*
X18291Y22909D01*
X17972Y23428D02*
Y24248D01*
Y23428D02*
X18334Y23066D01*
X18958D01*
X17400Y24820D02*
X17972Y24248D01*
X13795Y21097D02*
Y21679D01*
X17676Y22800D02*
X17724Y22751D01*
X13900Y14900D02*
X14600D01*
X13250Y13676D02*
X14550D01*
Y14050D01*
X14250Y14350D02*
X14550Y14050D01*
X13826Y14350D02*
X14250D01*
X14600Y14900D02*
X14774Y15074D01*
X13250Y13124D02*
X14550D01*
X12800Y13250D02*
X12926Y13124D01*
X13605Y12451D02*
Y12645D01*
X13450Y12800D02*
X13605Y12645D01*
X19864Y23342D02*
Y23800D01*
X19200Y23950D02*
Y24324D01*
X20966Y21334D02*
X21242D01*
X19706Y23050D02*
Y23342D01*
X19549Y23050D02*
Y23342D01*
X19234D02*
X19391D01*
X20724Y23924D02*
Y24300D01*
X20467Y24577D02*
X20724Y24835D01*
Y25300D01*
X17400Y24820D02*
Y25387D01*
X19176Y24900D02*
Y26200D01*
Y24900D02*
X19200Y24876D01*
X19803Y24250D02*
X19864Y24189D01*
X20336Y23342D02*
Y23536D01*
X20724Y23924D01*
X20467Y23967D02*
Y24577D01*
X20179Y23342D02*
Y23679D01*
X20467Y23967D01*
X20021Y23342D02*
Y23821D01*
X20197Y23997D01*
Y24250D01*
Y25300D01*
X20197Y25300D02*
X20197Y25300D01*
X19803Y25300D02*
Y25553D01*
X20000Y25750D01*
X20500D01*
X20724Y25526D01*
Y25300D02*
Y25526D01*
X20966Y23342D02*
Y23616D01*
X21824Y24074D02*
Y24300D01*
X21740Y23990D02*
X21824Y24074D01*
X21090Y23990D02*
X21740D01*
X20966Y23616D02*
X21200Y23850D01*
X22750D01*
X22924Y24024D01*
Y24300D01*
X13746Y23942D02*
X14238D01*
X13205Y19503D02*
X13402D01*
X13795Y15005D02*
Y15350D01*
Y15005D02*
X13900Y14900D01*
X12345Y15705D02*
X12850D01*
X13802Y12451D02*
X13998D01*
X12926Y13124D02*
X13250D01*
X13802Y12451D02*
Y13123D01*
X16100Y24026D02*
X16474D01*
X16687Y23813D01*
X16100Y25726D02*
X16474D01*
X16813Y25387D01*
X17400D01*
X16687Y23813D02*
X17400D01*
X22376Y24300D02*
Y24624D01*
X22200Y24800D02*
X22376Y24624D01*
X22000Y24800D02*
X22200D01*
X21824Y24976D02*
X22000Y24800D01*
X21824Y24976D02*
Y25300D01*
X23476Y24300D02*
Y24574D01*
X23300Y24750D02*
X23476Y24574D01*
X23050Y24750D02*
X23300D01*
X22924Y24876D02*
X23050Y24750D01*
X22924Y24876D02*
Y25300D01*
X19234Y23342D02*
Y23666D01*
X19100Y23800D02*
X19234Y23666D01*
X18750Y23800D02*
X19100D01*
X18600Y23950D02*
X18750Y23800D01*
X18600Y23950D02*
Y24324D01*
X13344Y11600D02*
X13349Y11605D01*
X14774Y15074D02*
Y15300D01*
X14238Y23942D02*
Y24338D01*
X14500Y24600D01*
Y25074D01*
X21926Y21526D02*
X22300D01*
X21734Y21334D02*
X21926Y21526D01*
X21242Y21334D02*
X21734D01*
X19176Y26200D02*
X19803D01*
X20197Y26200D02*
X20724D01*
X18809Y9348D02*
X19352D01*
X19472Y9228D01*
X20126D01*
X20500Y8850D02*
Y9228D01*
Y8850D02*
X20650Y8700D01*
X21650D01*
X21800Y8850D01*
Y9424D01*
X20426Y8776D02*
X20500Y8850D01*
X17900Y8776D02*
X20426D01*
X17760Y8915D02*
X17900Y8776D01*
X17760Y8915D02*
Y9190D01*
X17602Y9348D02*
X17760Y9190D01*
X25176Y10000D02*
Y11000D01*
X6837Y30520D02*
X7067Y30750D01*
X9324Y25500D02*
Y26670D01*
X9563Y26908D01*
X28295Y29695D02*
X29400Y30800D01*
X29800D01*
X30105Y30495D01*
X26500Y25750D02*
X26750Y25500D01*
X27124D01*
X28295Y7305D02*
X29350Y6250D01*
X29850D01*
X30105Y6505D01*
X7600Y6200D02*
X8705Y7305D01*
X7200Y6200D02*
X7600D01*
X6895Y6505D02*
X7200Y6200D01*
X10092Y9563D02*
X10500Y9971D01*
X13802Y9952D02*
Y11349D01*
X13998Y9952D02*
Y11349D01*
X20874Y9228D02*
X21178D01*
X21350Y9400D02*
Y9800D01*
X21178Y9228D02*
X21350Y9400D01*
Y9800D02*
X21526Y9976D01*
X21800D01*
X25450Y19500D02*
X25750D01*
X25900Y19350D01*
Y19000D02*
Y19350D01*
X20336Y20810D02*
Y21058D01*
X25400Y18750D02*
Y19250D01*
X19426Y19950D02*
Y20542D01*
X19234Y20734D02*
X19426Y20542D01*
X22350Y12000D02*
X23400D01*
X21800Y11450D02*
X22350Y12000D01*
X21800Y9976D02*
Y11450D01*
X19426Y19950D02*
X19750D01*
X19900Y19800D01*
X13008Y19008D02*
Y19503D01*
X12348Y16098D02*
X12850D01*
Y18850D02*
X13008Y19008D01*
X12850Y16295D02*
Y18850D01*
X12408Y19808D02*
X12703D01*
X12250Y19650D02*
X12408Y19808D01*
X12250Y17500D02*
Y19650D01*
Y17500D02*
X12400Y17350D01*
X13200D02*
X13205Y17345D01*
Y16650D02*
Y17345D01*
X10250Y23000D02*
Y24000D01*
X9324Y24926D02*
X10250Y24000D01*
X9324Y24926D02*
Y25500D01*
X7067Y30750D02*
X7600D01*
X8705Y29645D01*
X12276Y10000D02*
X12874D01*
X12176Y10526D02*
X12900D01*
X11982Y10332D02*
X12176Y10526D01*
X11100Y15000D02*
X11500D01*
X10500Y9971D02*
Y11250D01*
X10250Y11500D02*
X10500Y11250D01*
X9876Y11500D02*
X10250D01*
X10750Y10250D02*
Y11250D01*
X9095Y7695D02*
X9500Y8100D01*
Y8750D01*
X9876Y11500D02*
Y11674D01*
X9500Y12050D02*
X9876Y11674D01*
X9500Y12050D02*
Y12250D01*
X9333Y9558D02*
X9891Y9000D01*
X8308Y9558D02*
X9333D01*
X6505Y6895D02*
X7000Y7390D01*
Y8250D01*
X8308Y9558D01*
X9891Y9000D02*
X11200D01*
X13605Y11205D02*
Y11349D01*
X13540Y11140D02*
X13605Y11205D01*
X12276Y11000D02*
X12661D01*
X17000Y10850D02*
X17000Y10850D01*
X16576Y10850D02*
X17000D01*
X18700Y11050D02*
Y11600D01*
X18000Y10824D02*
X18426D01*
X18450Y10800D02*
X18700Y11050D01*
X19600Y9600D02*
X20750D01*
X20874Y9724D01*
Y10172D01*
X17198Y9348D02*
X17602D01*
X14850Y10850D02*
X16024D01*
X19660Y11990D02*
X20050Y11600D01*
X18000Y11376D02*
Y11750D01*
X14451Y11605D02*
X15353D01*
X14451Y11802D02*
X15267D01*
X12661Y11000D02*
X12801Y11140D01*
X13540D01*
X12900Y10526D02*
X13224Y10850D01*
X13300D01*
X11263Y11237D02*
Y11614D01*
X12276Y12200D02*
X12700D01*
X12902Y11998D01*
X13349D01*
X11263Y11614D02*
X11548Y11900D01*
X12650D01*
X12748Y11802D01*
X13349D01*
X11450Y12200D02*
X11724D01*
X11450Y13100D02*
X11724D01*
X11300Y12950D02*
X11450Y13100D01*
X11300Y12350D02*
X11450Y12200D01*
X11300Y12350D02*
Y12950D01*
X12550Y12650D02*
X13005Y12195D01*
X13349D01*
X11750Y12650D02*
X12550D01*
X13000Y12800D02*
X13450D01*
X12700Y13100D02*
X13000Y12800D01*
X12276Y13100D02*
X12700D01*
X12276Y11600D02*
X13344D01*
X14451Y12195D02*
X14895D01*
X14451Y11998D02*
X15181D01*
X14895Y12195D02*
X15050Y12350D01*
X14550Y12600D02*
X15500D01*
X14401Y12451D02*
X14550Y12600D01*
X14195Y12451D02*
X14401D01*
X11724Y11000D02*
Y11600D01*
X12800Y13250D02*
Y13850D01*
X25200Y11576D02*
X25574D01*
X25750Y11400D01*
X27442Y8158D02*
X27905Y7695D01*
X27442Y8158D02*
Y9442D01*
X27850Y8500D02*
X28245Y8105D01*
Y7755D02*
Y8105D01*
Y7755D02*
X28750Y7250D01*
X30140D01*
X30495Y6895D01*
X27437Y10092D02*
X27676Y10330D01*
Y11500D01*
X27442Y9442D02*
X28000Y10000D01*
Y11750D01*
X26750Y13000D02*
X28000Y11750D01*
X26750Y13000D02*
Y14450D01*
X26965Y8750D02*
X27000D01*
X25750Y9965D02*
X26965Y8750D01*
X25750Y9965D02*
Y11400D01*
X27676Y11500D02*
Y11824D01*
X26590Y12910D02*
X27676Y11824D01*
X24624Y10000D02*
Y13324D01*
X24876Y13576D01*
X24300Y13300D02*
X24500Y13500D01*
X20500Y18650D02*
X20750Y18400D01*
X19550Y15650D02*
X19950D01*
X20250Y15350D01*
X20750Y15750D02*
Y18400D01*
X12850Y15705D02*
X13605D01*
X13800Y15900D01*
Y16645D01*
X13402Y16202D02*
Y16650D01*
X18600Y15874D02*
X18616Y15890D01*
X20110D01*
X20500Y15500D01*
Y15300D02*
Y15500D01*
X17676Y15850D02*
X18050D01*
X18500Y16300D01*
X19700D01*
X20150Y16750D01*
Y18650D01*
X20500Y19000D01*
X20900D01*
X21400Y18500D01*
X20650Y19700D02*
X23600D01*
X15650Y21249D02*
X16838Y22436D01*
X15850Y21166D02*
X16963Y22279D01*
X13992Y19208D02*
Y19503D01*
Y19208D02*
X14050Y19150D01*
X14650D01*
X23250Y19400D02*
X23500Y19150D01*
X21400Y18500D02*
X23250D01*
X23500Y18750D01*
Y19150D01*
X23250Y18850D02*
X23284Y18884D01*
X22248D02*
X23284D01*
X25900Y17000D02*
Y17400D01*
X23400Y12000D02*
X23900Y12500D01*
X23600Y19700D02*
X23900Y19400D01*
Y12500D02*
Y19400D01*
X22248Y17602D02*
Y17900D01*
Y17602D02*
X22600Y17250D01*
X25400Y18750D02*
X25650Y18500D01*
X24500Y18400D02*
X25000D01*
X25440Y17860D02*
X25900Y17400D01*
X24452Y17900D02*
X24492Y17860D01*
X25440D01*
X25000Y18400D02*
X25400Y18000D01*
X25900D01*
X19864Y23800D02*
Y24189D01*
X19200Y23950D02*
X19350Y23800D01*
X19864D01*
X20809Y23342D02*
Y23709D01*
X21090Y23990D01*
X25745Y22395D02*
X25900Y22550D01*
Y23000D01*
X26250Y23500D02*
X26450Y23300D01*
Y14750D02*
Y23300D01*
Y14750D02*
X26750Y14450D01*
X24650Y16500D02*
X25900D01*
X24452Y16698D02*
X24650Y16500D01*
X24452Y16698D02*
Y16916D01*
X24600Y24350D02*
X25450D01*
X25050Y15500D02*
X25250D01*
X24300Y16250D02*
X25050Y15500D01*
X22600Y17250D02*
X23500D01*
X22248Y16916D02*
X23134D01*
X30140Y29750D02*
X30495Y30105D01*
X28977Y29750D02*
X30140D01*
X27477Y28250D02*
X28977Y29750D01*
X26500Y25750D02*
Y27029D01*
X26908Y27437D01*
X27000Y28250D02*
X27477D01*
X26000Y27250D02*
X27000Y28250D01*
X26481Y27010D02*
X26500Y27029D01*
X26010Y27010D02*
X26481D01*
X25750Y26750D02*
X26010Y27010D01*
X24250Y26750D02*
X25750D01*
X24750Y23900D02*
X25900D01*
X25450Y24350D02*
X25650Y24150D01*
X24250Y24000D02*
X24600Y24350D01*
X25000Y23500D02*
X26250D01*
X24750Y23250D02*
X25000Y23500D01*
X24500Y23650D02*
X24750Y23900D01*
X26500Y28500D02*
X27100D01*
X27905Y29305D01*
X24750Y21750D02*
X24859D01*
X22300Y20974D02*
X22326Y21000D01*
X22336Y20990D02*
X22700D01*
X23550Y22300D02*
X23700Y22150D01*
Y21050D02*
Y22150D01*
X23500Y22650D02*
X24000Y22150D01*
Y20850D02*
Y22150D01*
X23541Y22909D02*
X24250Y22200D01*
Y21500D02*
Y22200D01*
X23684Y23066D02*
X24500Y22250D01*
X21242Y23066D02*
X23684D01*
X21242Y22909D02*
X23541D01*
X22500Y22650D02*
X23500D01*
X22650Y22300D02*
X23550D01*
X13200Y21750D02*
X13205Y21745D01*
Y21097D02*
Y21745D01*
X13200Y21750D02*
Y21950D01*
X14238Y22238D02*
Y22858D01*
X13008Y21097D02*
Y21542D01*
X14100Y22100D02*
X14238Y22238D01*
X13200Y21950D02*
X13350Y22100D01*
X14100D01*
X13050Y22250D02*
X13600D01*
X13746Y22396D01*
Y22858D01*
X12850Y21700D02*
X13008Y21542D01*
X12850Y21700D02*
Y22050D01*
X13050Y22250D01*
X13900Y23400D02*
X15000D01*
X13746Y23246D02*
X13900Y23400D01*
X13746Y22858D02*
Y23246D01*
X6447Y30130D02*
X6750Y29827D01*
Y28900D02*
Y29827D01*
X18400Y21150D02*
X18584Y21334D01*
X18300Y21150D02*
X18400D01*
X17690Y20500D02*
X19000D01*
X17000Y21150D02*
X18300D01*
X9900Y12100D02*
Y12250D01*
Y12100D02*
X10750Y11250D01*
X10300Y12250D02*
Y14200D01*
X10600Y14500D01*
Y23600D01*
X10800Y23800D01*
X20966Y20834D02*
Y21058D01*
X22300Y20800D02*
Y20974D01*
X22326Y21000D02*
X22336Y20990D01*
X11982Y9781D02*
Y10332D01*
X11200Y9000D02*
X11982Y9781D01*
X10750Y10250D02*
X11000Y10000D01*
X11724D01*
Y10724D02*
Y11000D01*
X11500Y10500D02*
X11724Y10724D01*
X14195Y11055D02*
Y11349D01*
Y11055D02*
X14400Y10850D01*
X14850D01*
X24876Y13576D02*
X25100D01*
X24500Y13500D02*
Y14900D01*
X26140Y12910D02*
X26590D01*
X25200Y11576D02*
Y13300D01*
X25900Y13150D02*
X26140Y12910D01*
X24500Y21000D02*
Y22250D01*
X11505Y15000D02*
X11655Y14850D01*
X12100D01*
X13550Y14750D02*
X13776Y14524D01*
Y14300D02*
Y14524D01*
X17750Y19950D02*
X18874D01*
X17400Y20300D02*
X17750Y19950D01*
X17400Y20300D02*
Y20900D01*
X25200Y13300D02*
X25440Y13540D01*
X25100Y13576D02*
X25300Y13776D01*
X25800Y15400D02*
X25900Y15500D01*
Y16000D01*
X25300Y13776D02*
Y15200D01*
X25500Y15400D01*
X25800D01*
X12100Y14850D02*
X12250Y15000D01*
Y15800D02*
X12345Y15705D01*
X12250Y15800D02*
Y16000D01*
X12348Y16098D01*
X12250Y15000D02*
Y15609D01*
X12345Y15705D01*
X25650Y18500D02*
X26050D01*
X26300Y18250D01*
Y13150D02*
Y18250D01*
X14526Y25100D02*
X14950D01*
X24350Y15050D02*
X24500Y14900D01*
X24250Y15050D02*
X24350D01*
X20494Y20851D02*
Y21058D01*
X20179Y20770D02*
Y21058D01*
X20021Y20729D02*
Y21058D01*
X19864Y20686D02*
Y21058D01*
X19549Y20801D02*
X20650Y19700D01*
X19549Y20801D02*
Y21058D01*
X25440Y13540D02*
Y14272D01*
X25563Y14395D01*
X25900Y14550D02*
Y15000D01*
X25563Y14395D02*
X25745D01*
X25900Y14550D01*
X25505Y22395D02*
X25745D01*
X24859Y21750D02*
X25505Y22395D01*
X20021Y20729D02*
X20651Y20100D01*
X24850D02*
X25450Y19500D01*
X20651Y20100D02*
X24850D01*
X20179Y20770D02*
X20649Y20300D01*
X22250Y20750D02*
X22300Y20800D01*
X21050Y20750D02*
X22250D01*
X20966Y20834D02*
X21050Y20750D01*
X20494Y20851D02*
X20735Y20610D01*
X24760D01*
X19864Y20686D02*
X20650Y19900D01*
X24750D01*
X25400Y19250D01*
X24903Y20470D02*
X25441Y21009D01*
X20336Y20810D02*
X20677Y20470D01*
X24903D01*
X20649Y20300D02*
X25100D01*
X25409Y19991D01*
X25891D01*
X25750Y21400D02*
X25900Y21550D01*
X24760Y20610D02*
X25550Y21400D01*
X25750D01*
X16950Y19500D02*
X20950D01*
X21250Y19200D01*
Y19000D02*
Y19200D01*
X12800Y13850D02*
X12950Y14000D01*
X13150D01*
X13224Y14074D01*
Y14300D01*
X19250Y9950D02*
X19600Y9600D01*
X16800Y9000D02*
Y9650D01*
X17100Y9950D01*
X19250D01*
X18950Y21500D02*
X18958Y21491D01*
X17900Y21500D02*
X18950D01*
X17050D02*
X17900D01*
X12800Y14324D02*
Y14536D01*
X13014Y14750D01*
X13550D01*
X9000Y26300D02*
Y26650D01*
X6750Y28900D02*
X9000Y26650D01*
X15353Y11605D02*
X16250Y12501D01*
X15267Y11802D02*
X16050Y12584D01*
X15850Y12667D02*
Y13900D01*
Y21166D01*
X15326Y15300D02*
Y16974D01*
X15650Y12750D02*
Y21249D01*
X16050Y21083D02*
X17088Y22121D01*
X16250Y21000D02*
X17214Y21964D01*
X16650Y20800D02*
X17000Y21150D01*
X16450Y20900D02*
X17050Y21500D01*
X16050Y12584D02*
Y21083D01*
X16250Y12501D02*
Y21000D01*
X16450Y12517D02*
Y20900D01*
X16650Y12600D02*
Y20800D01*
X16950Y11700D02*
X17240Y11990D01*
X16450Y12517D02*
X16817Y12150D01*
X17240Y11990D02*
X19660D01*
X16817Y12150D02*
X20700D01*
X20300Y12350D02*
X20450Y12500D01*
X16650Y12600D02*
X16900Y12350D01*
X20300D01*
X20250Y14500D02*
Y15350D01*
X20750Y15250D02*
X21350Y15850D01*
X22245D02*
X22800Y15295D01*
X21350Y15850D02*
X22245D01*
X22800Y14426D02*
Y15295D01*
X19700Y14350D02*
X20050Y14000D01*
X17100Y14350D02*
X19700D01*
X20050Y14000D02*
X20400D01*
X20750Y14350D01*
Y15250D01*
X13402Y18898D02*
Y19503D01*
Y18898D02*
X13850Y18450D01*
Y18026D02*
Y18450D01*
X13598Y19002D02*
Y19503D01*
Y19002D02*
X13850Y18750D01*
X14350D01*
X14474Y18626D01*
Y18350D02*
Y18626D01*
X13850Y18026D02*
X14274D01*
X14474Y17826D01*
Y17500D02*
Y17826D01*
X15400Y19050D02*
Y22100D01*
X14297Y19808D02*
X14983D01*
Y18784D02*
Y19808D01*
X14768Y18569D02*
X14983Y18784D01*
X14768Y18119D02*
Y18569D01*
X14474Y17826D02*
X14768Y18119D01*
X14500Y17000D02*
X14600Y17100D01*
X15200D01*
X15326Y16974D01*
X13850Y17424D02*
X13850Y17424D01*
D17*
X13500Y20300D02*
D03*
D18*
X13008Y21097D02*
D03*
X13205D02*
D03*
X13402D02*
D03*
X13598D02*
D03*
X13795D02*
D03*
X13992D02*
D03*
Y19503D02*
D03*
X13795D02*
D03*
X13598D02*
D03*
X13402D02*
D03*
X13205D02*
D03*
X13008D02*
D03*
D19*
X14297Y20792D02*
D03*
Y20595D02*
D03*
Y20398D02*
D03*
Y20202D02*
D03*
Y20005D02*
D03*
Y19808D02*
D03*
X12703D02*
D03*
Y20005D02*
D03*
Y20202D02*
D03*
Y20398D02*
D03*
Y20595D02*
D03*
Y20792D02*
D03*
D20*
X19234Y21058D02*
D03*
X19391D02*
D03*
X19549D02*
D03*
X19706D02*
D03*
X19864D02*
D03*
X20021D02*
D03*
X20179D02*
D03*
X20336D02*
D03*
X20494D02*
D03*
X20651D02*
D03*
X20809D02*
D03*
X20966D02*
D03*
Y23342D02*
D03*
X20809D02*
D03*
X20651D02*
D03*
X20494D02*
D03*
X20336D02*
D03*
X20179D02*
D03*
X20021D02*
D03*
X19864D02*
D03*
X19706D02*
D03*
X19549D02*
D03*
X19391D02*
D03*
X19234D02*
D03*
D21*
X21242Y21334D02*
D03*
Y21491D02*
D03*
Y21649D02*
D03*
Y21806D02*
D03*
Y21964D02*
D03*
Y22121D02*
D03*
Y22279D02*
D03*
Y22436D02*
D03*
Y22594D02*
D03*
Y22751D02*
D03*
Y22909D02*
D03*
Y23066D02*
D03*
X18958D02*
D03*
Y22909D02*
D03*
Y22751D02*
D03*
Y22594D02*
D03*
Y22436D02*
D03*
Y22279D02*
D03*
Y22121D02*
D03*
Y21964D02*
D03*
Y21806D02*
D03*
Y21649D02*
D03*
Y21491D02*
D03*
Y21334D02*
D03*
D22*
X20100Y22200D02*
D03*
D23*
X13605Y11349D02*
D03*
X13802D02*
D03*
X13998D02*
D03*
X14195D02*
D03*
Y12451D02*
D03*
X13998D02*
D03*
X13802D02*
D03*
X13605D02*
D03*
D24*
X14451Y11605D02*
D03*
Y11802D02*
D03*
Y11998D02*
D03*
Y12195D02*
D03*
X13349D02*
D03*
Y11998D02*
D03*
Y11802D02*
D03*
Y11605D02*
D03*
D25*
X13900Y11900D02*
D03*
D26*
X14238Y22858D02*
D03*
X13746D02*
D03*
X13254D02*
D03*
X12762D02*
D03*
Y23942D02*
D03*
X13254D02*
D03*
X13746D02*
D03*
X14238D02*
D03*
D27*
X25176Y10000D02*
D03*
X24624D02*
D03*
X16576Y10850D02*
D03*
X16024D02*
D03*
X12276Y10000D02*
D03*
X11724D02*
D03*
X12276Y11600D02*
D03*
X11724D02*
D03*
X12276Y12200D02*
D03*
X11724D02*
D03*
X12276Y13100D02*
D03*
X11724D02*
D03*
X13224Y14300D02*
D03*
X13776D02*
D03*
X20724Y26200D02*
D03*
X21276D02*
D03*
X17676Y22800D02*
D03*
X17124D02*
D03*
X19426Y19950D02*
D03*
X18874D02*
D03*
X19176Y26200D02*
D03*
X18624D02*
D03*
X20724Y24300D02*
D03*
X21276D02*
D03*
X20724Y25300D02*
D03*
X21276D02*
D03*
X21824D02*
D03*
X22376D02*
D03*
X22924D02*
D03*
X23476D02*
D03*
X21824Y24300D02*
D03*
X22376D02*
D03*
X22924D02*
D03*
X23476D02*
D03*
X15326Y15300D02*
D03*
X14774D02*
D03*
X13774Y21700D02*
D03*
X14326D02*
D03*
X14474Y17450D02*
D03*
X15026D02*
D03*
X14474Y18350D02*
D03*
X15026D02*
D03*
X14526Y25100D02*
D03*
X13974D02*
D03*
X27124Y11500D02*
D03*
X27676D02*
D03*
X9324Y25500D02*
D03*
X9876D02*
D03*
X27124D02*
D03*
X27676D02*
D03*
X9876Y11500D02*
D03*
X9324D02*
D03*
X12276Y11000D02*
D03*
X11724D02*
D03*
D28*
X18000Y11376D02*
D03*
Y10824D02*
D03*
X12900Y10526D02*
D03*
Y9974D02*
D03*
X21800Y9976D02*
D03*
Y9424D02*
D03*
X13250Y13124D02*
D03*
Y13676D02*
D03*
X14550Y13124D02*
D03*
Y13676D02*
D03*
X25200Y11576D02*
D03*
Y11024D02*
D03*
X18600Y24324D02*
D03*
Y24876D02*
D03*
X19200Y24324D02*
D03*
Y24876D02*
D03*
X16100Y24026D02*
D03*
Y23474D02*
D03*
Y25726D02*
D03*
Y25174D02*
D03*
X22300Y20974D02*
D03*
Y21526D02*
D03*
X13850Y17976D02*
D03*
Y17424D02*
D03*
X15000Y19824D02*
D03*
Y20376D02*
D03*
Y15874D02*
D03*
Y16426D02*
D03*
D29*
X20126Y10172D02*
D03*
X20500D02*
D03*
X20874D02*
D03*
Y9228D02*
D03*
X20500D02*
D03*
X20126D02*
D03*
D30*
X17400Y25387D02*
D03*
Y23813D02*
D03*
D31*
X20197Y26200D02*
D03*
X19803D02*
D03*
X20197Y24250D02*
D03*
X19803D02*
D03*
X19803Y25300D02*
D03*
X20197D02*
D03*
D32*
X20360Y27400D02*
D03*
X16620D02*
D03*
D33*
X30495Y6895D02*
D03*
X30105Y6505D02*
D03*
X8705Y7305D02*
D03*
X9095Y7695D02*
D03*
X6447Y30130D02*
D03*
X6837Y30520D02*
D03*
X28295Y29695D02*
D03*
X27905Y29305D02*
D03*
D34*
X28295Y7305D02*
D03*
X27905Y7695D02*
D03*
X6505Y6895D02*
D03*
X6895Y6505D02*
D03*
X8705Y29645D02*
D03*
X9095Y29255D02*
D03*
X30495Y30105D02*
D03*
X30105Y30495D02*
D03*
D35*
X27827Y9173D02*
D03*
X26908Y9563D02*
D03*
X27437Y10092D02*
D03*
X9173Y27827D02*
D03*
X10092Y27437D02*
D03*
X9563Y26908D02*
D03*
D36*
X27827Y27827D02*
D03*
X27437Y26908D02*
D03*
X26908Y27437D02*
D03*
X9173Y9173D02*
D03*
X9563Y10092D02*
D03*
X10092Y9563D02*
D03*
D37*
X7888Y7512D02*
D03*
X7512Y7888D02*
D03*
X29488Y29112D02*
D03*
X29112Y29488D02*
D03*
D38*
X7888D02*
D03*
X7512Y29112D02*
D03*
X29488Y7888D02*
D03*
X29112Y7512D02*
D03*
D39*
X24452Y18884D02*
D03*
Y17900D02*
D03*
Y16916D02*
D03*
X22248Y18884D02*
D03*
Y17900D02*
D03*
Y16916D02*
D03*
D40*
X18809Y9348D02*
D03*
X17191Y9348D02*
D03*
D41*
X12850Y16295D02*
D03*
Y16098D02*
D03*
Y15902D02*
D03*
Y15705D02*
D03*
X14150D02*
D03*
Y15902D02*
D03*
Y16098D02*
D03*
Y16295D02*
D03*
D42*
X13205Y15350D02*
D03*
X13402D02*
D03*
X13598D02*
D03*
X13795D02*
D03*
Y16650D02*
D03*
X13598D02*
D03*
X13402D02*
D03*
X13205D02*
D03*
D79*
X20197Y26200D02*
Y27237D01*
D80*
X7512Y29112D02*
X8001Y28623D01*
X10092Y27437D02*
X10500Y27029D01*
X28623Y28999D02*
X29112Y29488D01*
X28999Y28623D02*
X29488Y29112D01*
X27437Y26908D02*
X27676Y26670D01*
Y25500D02*
Y26670D01*
X26500Y11250D02*
X26750Y11500D01*
X27124D01*
X7888Y7512D02*
X8377Y8001D01*
X7512Y7888D02*
X8001Y8377D01*
X9876Y25500D02*
X10250D01*
X10500Y25750D01*
X7888Y29488D02*
X8377Y28999D01*
X10500Y25750D02*
Y26550D01*
Y27029D01*
X26500Y9971D02*
X26908Y9563D01*
X26500Y9971D02*
Y11250D01*
X28999Y8377D02*
X29488Y7888D01*
X28623Y8001D02*
X29112Y7512D01*
X26700Y9354D02*
X26908Y9563D01*
X26908Y26908D02*
X27437D01*
X9324Y10330D02*
X9563Y10092D01*
X9324Y10330D02*
Y10900D01*
Y11500D01*
D81*
X28704Y28350D02*
X28977Y28623D01*
X28350Y28350D02*
X28704D01*
X27827Y27827D02*
X28350Y28350D01*
X8274Y8650D02*
X8650D01*
X9173Y9173D01*
X8001Y8377D02*
X8274Y8650D01*
X8710Y28290D02*
X9173Y27827D01*
X8334Y28290D02*
X8710D01*
X8001Y28623D02*
X8334Y28290D01*
X8377Y28977D02*
X8604Y28750D01*
X9750D01*
X11000Y27500D01*
X13450Y9950D02*
X14650D01*
X15300Y9300D01*
X27827Y9173D02*
X28350Y8650D01*
X28704D02*
X28977Y8377D01*
X28350Y8650D02*
X28704D01*
X11200Y23950D02*
X11750Y23400D01*
Y15250D02*
Y23400D01*
X20102Y10250D02*
Y10536D01*
X20366Y10800D01*
X20950D01*
X16250Y10250D02*
X20102D01*
X15300Y9300D02*
X16250Y10250D01*
X20950Y10800D02*
X21250Y11100D01*
Y15200D01*
X21550Y15500D01*
X22000D01*
X11000Y24166D02*
Y27500D01*
Y24166D02*
X11200Y23966D01*
Y23950D02*
Y23966D01*
D82*
X15300Y9300D02*
D03*
X22800Y11200D02*
D03*
D83*
X16300Y9300D02*
D03*
X23800Y11200D02*
D03*
X25900Y15000D02*
D03*
Y17000D02*
D03*
Y18000D02*
D03*
Y19000D02*
D03*
Y20000D02*
D03*
Y21000D02*
D03*
Y22000D02*
D03*
Y23000D02*
D03*
Y16000D02*
D03*
X11100Y21000D02*
D03*
Y14000D02*
D03*
Y15000D02*
D03*
Y16000D02*
D03*
Y17000D02*
D03*
Y18000D02*
D03*
Y19000D02*
D03*
Y20000D02*
D03*
Y22000D02*
D03*
D84*
X25900Y14000D02*
D03*
X11100Y23000D02*
D03*
D85*
X31890Y5118D02*
D03*
Y31890D02*
D03*
X5118D02*
D03*
Y5118D02*
D03*
D86*
X2362Y2362D02*
D03*
X34646D02*
D03*
Y34646D02*
D03*
X2362D02*
D03*
D87*
X8023Y28623D02*
D03*
X28623Y28977D02*
D03*
X28977Y8377D02*
D03*
X8377Y8023D02*
D03*
D88*
Y28977D02*
D03*
X28623Y8023D02*
D03*
D89*
X28977Y28623D02*
D03*
X8023Y8377D02*
D03*
D90*
X17998Y9013D02*
D03*
X17998Y9687D02*
D03*
D91*
X23550Y26000D02*
D03*
X12420Y16470D02*
D03*
X15000Y16426D02*
D03*
X15500Y24000D02*
D03*
X23550Y26500D02*
D03*
X23500Y23400D02*
D03*
X21500D02*
D03*
X22250Y26000D02*
D03*
X21650D02*
D03*
X22250Y26500D02*
D03*
X21650D02*
D03*
X18250Y25400D02*
D03*
X18850D02*
D03*
X18800Y23400D02*
D03*
X16200Y22750D02*
D03*
X16000Y26150D02*
D03*
X15500D02*
D03*
X16500D02*
D03*
X17000D02*
D03*
X17500D02*
D03*
X18000D02*
D03*
Y26550D02*
D03*
X17500D02*
D03*
X17000D02*
D03*
X16500D02*
D03*
X16000D02*
D03*
X15500D02*
D03*
X12700Y21000D02*
D03*
X12150Y25100D02*
D03*
X12300Y22750D02*
D03*
X15050D02*
D03*
X15000Y21000D02*
D03*
X13250Y25100D02*
D03*
X15400Y19050D02*
D03*
X20450Y12500D02*
D03*
X20700Y12150D02*
D03*
X26300Y13150D02*
D03*
X19900Y19800D02*
D03*
X12400Y17350D02*
D03*
X13200D02*
D03*
X10250Y23000D02*
D03*
X9500Y8750D02*
D03*
Y12250D02*
D03*
X17000Y10850D02*
D03*
X18700Y11600D02*
D03*
X18450Y10800D02*
D03*
X16800Y9000D02*
D03*
X16950Y11700D02*
D03*
X20050Y11600D02*
D03*
X14850Y10850D02*
D03*
X17500Y14650D02*
D03*
X18000Y11750D02*
D03*
X13300Y10850D02*
D03*
X11263Y11237D02*
D03*
X11724Y12200D02*
D03*
X11750Y12650D02*
D03*
X15050Y12350D02*
D03*
X16600Y11850D02*
D03*
X12800Y13850D02*
D03*
X27000Y8750D02*
D03*
X27850Y8500D02*
D03*
X26700Y9354D02*
D03*
X24300Y13300D02*
D03*
X20250Y14500D02*
D03*
X19550Y15650D02*
D03*
X17124Y15850D02*
D03*
X20500Y18650D02*
D03*
X20750Y15750D02*
D03*
X13402Y16202D02*
D03*
X17676Y15850D02*
D03*
X18600Y15874D02*
D03*
X20500Y15300D02*
D03*
X21250Y19000D02*
D03*
X16950Y19500D02*
D03*
X14650Y19150D02*
D03*
X23250Y19400D02*
D03*
X23250Y18850D02*
D03*
X24500Y18400D02*
D03*
X24250Y21500D02*
D03*
X25900Y16500D02*
D03*
X25250Y15500D02*
D03*
X23500Y17250D02*
D03*
X23134Y16916D02*
D03*
X24300Y16266D02*
D03*
X26000Y27250D02*
D03*
X24250Y26750D02*
D03*
X25900Y23900D02*
D03*
X25650Y24150D02*
D03*
X24250Y24000D02*
D03*
X24750Y23250D02*
D03*
X24500Y23650D02*
D03*
X26500Y28500D02*
D03*
X24750Y21750D02*
D03*
X22700Y20990D02*
D03*
X24000Y20850D02*
D03*
X23700Y21050D02*
D03*
X22500Y22650D02*
D03*
X22650Y22300D02*
D03*
X15750Y22450D02*
D03*
X13200Y21750D02*
D03*
X15000Y23400D02*
D03*
X9095Y29255D02*
D03*
X18300Y21150D02*
D03*
X9900Y12250D02*
D03*
X10300D02*
D03*
X10800Y23800D02*
D03*
X11500Y10500D02*
D03*
X12800Y14324D02*
D03*
X25724Y11900D02*
D03*
X18600Y24324D02*
D03*
X20224Y16450D02*
D03*
X22176Y13250D02*
D03*
X25100Y13576D02*
D03*
X25900Y13150D02*
D03*
X24500Y21000D02*
D03*
Y18890D02*
D03*
X15150Y14876D02*
D03*
X17400Y20900D02*
D03*
X20763Y11687D02*
D03*
X14950Y25100D02*
D03*
X24250Y15050D02*
D03*
X17900Y21500D02*
D03*
X23500Y18226D02*
D03*
X23494Y16546D02*
D03*
X12800Y14876D02*
D03*
X9000Y26300D02*
D03*
X9324Y10900D02*
D03*
X20500Y9228D02*
D03*
X22800Y14426D02*
D03*
X17100Y14350D02*
D03*
X15000Y19824D02*
D03*
X15026Y17450D02*
D03*
X13850Y17424D02*
D03*
D92*
X20750Y22000D02*
D03*
X20320D02*
D03*
X19880D02*
D03*
X19450D02*
D03*
X19450Y21550D02*
D03*
X19883D02*
D03*
X19450Y22417D02*
D03*
Y22850D02*
D03*
X19883Y22417D02*
D03*
Y22850D02*
D03*
X20317Y22417D02*
D03*
Y22850D02*
D03*
X20750D02*
D03*
Y22417D02*
D03*
X20317Y21550D02*
D03*
X20750D02*
D03*
X13717Y20083D02*
D03*
X13283D02*
D03*
X13717Y20517D02*
D03*
X13283D02*
D03*
X19333Y13217D02*
D03*
Y14083D02*
D03*
X18900Y13217D02*
D03*
Y14083D02*
D03*
X18467Y13217D02*
D03*
Y14083D02*
D03*
X19209Y17791D02*
D03*
Y18264D02*
D03*
Y18736D02*
D03*
Y19209D02*
D03*
X18736Y17791D02*
D03*
Y18264D02*
D03*
Y18736D02*
D03*
Y19209D02*
D03*
X18264Y17791D02*
D03*
Y18264D02*
D03*
Y18736D02*
D03*
Y19209D02*
D03*
X17791Y17791D02*
D03*
Y18264D02*
D03*
Y18736D02*
D03*
Y19209D02*
D03*
X13683Y11683D02*
D03*
Y12117D02*
D03*
X14117Y11683D02*
D03*
Y12117D02*
D03*
X19333Y13650D02*
D03*
X18900D02*
D03*
X18467D02*
D03*
D93*
X27424Y18508D02*
D03*
X9565Y18500D02*
D03*
D94*
X13450Y9950D02*
D03*
X11750Y15250D02*
D03*
X22100Y15500D02*
D03*
D95*
X10500Y26550D02*
D03*
X26908Y26908D02*
D03*
X17690Y20500D02*
D03*
D96*
X15850Y13900D02*
D03*
M02*
